<svg width="524" height="357" viewBox="0 0 524 357" fill="none" xmlns="http://www.w3.org/2000/svg">
<path d="M479.233 31.663C478.413 28.488 477.155 25.49 475.53 22.734L479.3 17.064L474.07 11.834L468.84 6.603L463.17 10.373C460.413 8.748 457.416 7.49 454.241 6.669L452.898 0H445.5H438.104L436.761 6.669C433.586 7.489 430.589 8.748 427.832 10.373L422.162 6.603L416.932 11.834L411.702 17.064L415.472 22.734C413.847 25.49 412.589 28.488 411.769 31.663L405.099 33.005V40.402V47.799L411.769 49.141C412.589 52.316 413.847 55.314 415.472 58.07L411.702 63.74L416.932 68.97L422.162 74.2L427.832 70.43C430.589 72.055 433.586 73.313 436.761 74.134L438.104 80.804H445.5H452.898L454.241 74.134C457.416 73.314 460.413 72.055 463.17 70.43L468.84 74.2L474.07 68.97L479.3 63.74L475.53 58.07C477.155 55.314 478.413 52.316 479.233 49.141L485.903 47.799V40.402V33.005L479.233 31.663ZM445.499 66.322C431.185 66.322 419.58 54.717 419.58 40.402C419.58 26.087 431.184 14.482 445.499 14.482C459.814 14.482 471.419 26.087 471.419 40.402C471.419 54.717 459.815 66.322 445.499 66.322Z" fill="#9D6EF2"/>
<path d="M489.325 94.5687C488.949 93.1137 488.372 91.7387 487.627 90.4757L489.356 87.8757L486.958 85.4777L484.561 83.0797L481.961 84.8087C480.697 84.0637 479.323 83.4867 477.867 83.1107L477.252 80.0527H473.861H470.469L469.853 83.1107C468.398 83.4867 467.024 84.0637 465.76 84.8087L463.16 83.0797L460.763 85.4777L458.365 87.8757L460.094 90.4757C459.349 91.7387 458.773 93.1137 458.396 94.5687L455.339 95.1837V98.5747V101.966L458.396 102.582C458.773 104.038 459.349 105.412 460.094 106.675L458.365 109.275L460.763 111.672L463.16 114.07L465.76 112.341C467.024 113.086 468.398 113.663 469.853 114.039L470.469 117.097H473.861H477.252L477.867 114.039C479.323 113.663 480.697 113.086 481.961 112.341L484.561 114.07L486.958 111.672L489.356 109.275L487.627 106.675C488.372 105.411 488.949 104.037 489.325 102.582L492.383 101.966V98.5747V95.1837L489.325 94.5687ZM473.861 110.458C467.298 110.458 461.977 105.138 461.977 98.5747C461.977 92.0117 467.297 86.6917 473.861 86.6917C480.424 86.6917 485.744 92.0117 485.744 98.5747C485.744 105.139 480.423 110.458 473.861 110.458Z" fill="#9D6EF2"/>
<path d="M274.385 330.232H310.774V219.706H274.385V330.232Z" fill="#7152F3"/>
<path d="M151.452 272.947H433.709C442.536 272.947 449.69 265.792 449.69 256.965V67.2632C449.69 58.4362 442.536 51.2812 433.709 51.2812H151.452C142.626 51.2812 135.47 58.4362 135.47 67.2632V256.966C135.47 265.792 142.625 272.947 151.452 272.947Z" fill="#CC94FA" fill-opacity="0.59"/>
<path d="M147.777 238.211L437.385 238.211V27.6899L147.777 27.6899V238.211Z" fill="white"/>
<path d="M147.776 53.1165H437.384V27.6885H147.776V53.1165Z" fill="#704AEC"/>
<path d="M282.445 254.105C282.445 259.703 286.982 264.241 292.581 264.241C298.179 264.241 302.716 259.703 302.716 254.105C302.716 248.507 298.179 243.969 292.581 243.969C286.982 243.97 282.445 248.508 282.445 254.105Z" fill="#7152F3"/>
<path d="M245.527 78.7352H332.025C333.968 78.7352 335.543 77.1602 335.543 75.2182V74.7182C335.543 72.7762 333.969 71.2012 332.025 71.2012H245.527C243.585 71.2012 242.01 72.7762 242.01 74.7182V75.2182C242.01 77.1602 243.584 78.7352 245.527 78.7352Z" fill="#DFE1E8"/>
<path d="M245.527 92.325H332.025C333.968 92.325 335.543 90.75 335.543 88.807V88.307C335.543 86.365 333.969 84.79 332.025 84.79H245.527C243.585 84.79 242.01 86.365 242.01 88.307V88.807C242.01 90.75 243.584 92.325 245.527 92.325Z" fill="#DFE1E8"/>
<path d="M245.527 105.913H332.025C333.968 105.913 335.543 104.338 335.543 102.396V101.896C335.543 99.9529 333.969 98.3779 332.025 98.3779H245.527C243.585 98.3779 242.01 99.9529 242.01 101.896V102.396C242.01 104.339 243.584 105.913 245.527 105.913Z" fill="#DFE1E8"/>
<path d="M286.16 223.397H177.601C168.549 223.397 161.184 216.033 161.184 206.98V140.945C161.184 131.893 168.549 124.528 177.601 124.528H286.16C295.212 124.528 302.576 131.893 302.576 140.945V206.98C302.577 216.033 295.212 223.397 286.16 223.397ZM177.601 126.586C169.684 126.586 163.242 133.027 163.242 140.945V206.98C163.242 214.898 169.683 221.339 177.601 221.339H286.16C294.077 221.339 300.518 214.898 300.518 206.98V140.945C300.518 133.027 294.077 126.586 286.16 126.586H177.601Z" fill="#DFE1E8"/>
<path d="M186.187 149.415H277.573C281.577 149.415 284.823 146.169 284.823 142.165V140.785C284.823 136.781 281.577 133.535 277.573 133.535H186.187C182.183 133.535 178.937 136.781 178.937 140.785V142.165C178.937 146.169 182.184 149.415 186.187 149.415Z" fill="#DFE1E8"/>
<path d="M374.435 326.06H210.725V334.404H374.435V326.06Z" fill="#B5DEFF"/>
<path d="M404.815 146.225C404.815 154.9 400.127 162.48 393.145 166.572C391.742 167.393 390.246 168.074 388.676 168.594C388.535 168.642 388.393 168.688 388.25 168.732C386.038 169.419 383.687 169.789 381.25 169.789C377.487 169.789 373.931 168.907 370.775 167.34C363.016 163.483 357.684 155.477 357.684 146.225C357.684 133.21 368.235 122.66 381.249 122.66C394.264 122.66 404.815 133.21 404.815 146.225Z" fill="#EEF0F7"/>
<path d="M375.62 143.737C375.62 143.737 374.011 133.324 382.635 133.517C391.259 133.709 391.144 138.858 390.989 143.968C390.836 149.078 387.531 148.694 391.259 155.802C394.986 162.91 388.031 162.91 388.031 162.91L382.635 155.495L375.62 143.737Z" fill="#3C4145"/>
<path d="M381.692 134.516C381.692 134.516 375.851 135.438 375.621 143.737C375.391 152.037 377.197 153.804 382.307 152.075C387.417 150.346 389.032 141.662 389.147 140.318C389.261 138.973 389.569 133.517 381.692 134.516Z" fill="#EEA886"/>
<path d="M391.948 163.383C391.966 165.869 390.635 167.532 388.677 168.595C388.536 168.643 388.394 168.689 388.251 168.733C386.039 169.42 383.688 169.79 381.251 169.79C377.488 169.79 373.932 168.908 370.776 167.341C370.065 165.924 371.094 163.912 373.184 160.824C374.619 158.702 376.027 156.535 378.434 155.482C381.986 154.916 385.747 154.882 388.395 156.379C390.506 157.571 391.914 159.737 391.948 163.383Z" fill="#E55353"/>
<path d="M374.327 160.698L371.643 164.93C371.649 164.907 371.827 164.266 372.131 162.411C372.189 162.058 372.251 161.662 372.318 161.219C372.336 161.088 372.365 160.957 372.402 160.829C373.551 158.179 377.135 156.207 377.265 156.142L374.327 160.698Z" fill="#E55353"/>
<path d="M393.145 166.572C391.742 167.393 390.246 168.074 388.676 168.594C388.535 168.642 388.393 168.688 388.25 168.732C387.654 167.194 387.138 165.864 387.025 165.52C386.993 165.42 386.916 165.233 386.811 164.981C386.327 163.804 385.243 161.187 385.23 159.14C385.221 157.82 385.657 156.738 386.985 156.43C387.508 156.309 387.976 156.301 388.394 156.378C389.877 156.647 390.743 157.979 391.225 159.16C391.234 159.181 391.241 159.2 391.247 159.22C391.65 160.225 391.776 161.103 391.776 161.103C391.776 161.103 391.799 161.196 391.842 161.362C391.925 161.692 392.084 162.317 392.291 163.136C392.53 164.076 392.827 165.272 393.145 166.572Z" fill="#EEA886"/>
<path d="M385.592 148.337C385.085 149.293 384.551 155.228 384.551 155.228C384.551 155.228 377.407 157.928 378.139 156.4C378.47 155.707 378.568 154.808 378.574 154.032C378.581 153.421 378.53 152.886 378.495 152.591C378.477 152.435 378.462 152.345 378.462 152.345C378.462 152.345 386.098 147.381 385.592 148.337Z" fill="#EEA886"/>
<path d="M379.31 140.472C379.31 140.472 382.306 145.351 385.035 147.273C387.763 149.194 386.38 150.731 386.38 150.731C386.38 150.731 393.498 135.746 386.731 134.709C379.963 133.672 375.814 133.595 375.622 143.738C375.62 143.737 378.695 140.394 379.31 140.472Z" fill="#3C4145"/>
<path d="M382.569 151.979C381.472 153.596 378.576 154.032 378.576 154.032C378.583 153.421 378.531 152.886 378.496 152.591C380.356 152.949 382.569 151.979 382.569 151.979Z" fill="#A77860"/>
<path d="M372.414 160.796C372.414 160.796 372.258 161.117 372.131 162.41L373.183 160.822C373.183 160.822 375.062 158.128 375.706 157.427C376.35 156.726 377.282 156.111 377.282 156.111C377.282 156.111 373.538 157.889 372.414 160.796Z" fill="#BD4444"/>
<path d="M386.627 164.813C386.627 164.813 391.212 163.015 392.568 162.91C392.568 162.91 391.646 155.548 387.142 156.328C382.639 157.109 386.627 164.813 386.627 164.813Z" fill="#E55353"/>
<path d="M378.434 155.48C378.434 155.48 375.069 160.656 376.207 161.107C377.347 161.56 383.514 160.504 386.137 155.588C386.137 155.588 382.216 153.578 378.434 155.48Z" fill="#EEA886"/>
<path d="M130.545 269.224L93.8232 269.503L93.8488 272.866L130.571 272.587L130.545 269.224Z" fill="#323657"/>
<path d="M138.109 236.491L127.368 271.608L130.584 272.592L141.325 237.475L138.109 236.491Z" fill="#323657"/>
<path d="M196.544 276.969H193.679V365.248H196.544V276.969Z" fill="#706865"/>
<path d="M86.1772 276.968H212.116V271.949H86.1772V276.968Z" fill="#B59074"/>
<path d="M102.29 365.25H105.155L105.155 276.969H102.29L102.29 365.25Z" fill="#706865"/>
<path d="M48.1706 307.284H44.7256V350.763H48.1706V307.284Z" fill="#918783"/>
<path d="M89.6857 345.635C89.6857 345.635 89.7197 347.557 90.3427 349.795C90.7997 351.436 91.7187 357.791 92.8917 358.68C94.0647 359.569 97.8467 361.924 97.2917 364.344C96.7357 366.764 96.2657 368.452 92.1817 367.019C88.0977 365.585 85.3667 364.766 84.5827 361.181C83.7977 357.597 81.5627 354.333 81.5627 354.333L78.6107 361.676L77.0537 361.049C77.0537 361.049 79.4077 353.118 79.2057 352.411C79.0027 351.704 80.2847 345.402 85.2247 343.842C90.1647 342.281 89.6857 345.635 89.6857 345.635Z" fill="#1D3B54"/>
<path d="M116.968 347.951C116.968 347.951 117.717 349.721 119.13 351.564C120.167 352.917 123.389 358.469 124.809 358.856C126.229 359.244 130.617 360.018 131.004 362.47C131.391 364.922 131.585 366.665 127.261 366.859C122.937 367.052 120.098 367.31 118.033 364.277C115.968 361.244 112.677 359.05 112.677 359.05V366.963H110.999C110.999 366.963 110.225 358.728 109.773 358.147C109.321 357.566 108.159 351.242 112.161 347.951C116.161 344.66 116.968 347.951 116.968 347.951Z" fill="#1D3B54"/>
<path d="M73.0029 240.414C73.0029 240.414 73.9639 237.006 74.0579 236.56C74.1519 236.117 75.0609 235.234 76.1939 234.312C77.3259 233.389 79.2689 232.65 79.5099 232.725C79.7499 232.8 80.0279 232.764 80.4249 233.274C80.8209 233.785 80.8759 234.434 80.8759 234.434C80.8759 234.434 81.6609 234.833 81.6669 235.639C81.6669 235.639 82.3879 236.048 82.2469 236.964C82.2469 236.964 82.9399 237.384 82.7809 238.04C82.7809 238.04 81.8709 238.927 81.6289 239.351C81.3869 239.777 79.3679 241.49 77.1779 242.834C77.1779 242.834 74.3829 244.898 73.0029 240.414Z" fill="#EEA886"/>
<path d="M77.1846 237.713C77.1846 237.713 77.5986 239.148 77.5116 239.609C77.4236 240.07 80.7876 240.137 80.7876 240.137C80.7876 240.137 78.9416 237.257 77.1846 237.713Z" fill="#CF8C6C"/>
<path d="M39.3146 246.273C40.6726 244.074 42.4846 243.084 48.2396 247.064C53.9946 251.044 52.6426 250.264 54.0206 251.526C55.3986 252.787 61.4366 255.943 61.4366 255.943C61.4366 255.943 64.9636 252.437 66.6546 249.945C68.5616 247.138 72.5416 239.638 72.5416 239.638L78.1226 243.792C78.1226 243.792 67.2806 263.447 65.0166 264.9C62.7526 266.352 55.9296 263.922 52.3776 262.426C48.8256 260.929 45.0656 258.992 43.4436 258.59C41.8206 258.189 35.7716 252.01 39.3146 246.273Z" fill="#1D3B54"/>
<path d="M80.1988 223.425L77.4961 235.744L78.5383 235.973L81.2411 223.653L80.1988 223.425Z" fill="#EB4747"/>
<path d="M79.2035 232.956C79.2035 232.956 76.3905 235.364 76.7225 235.865C77.0535 236.365 77.4805 236.348 77.4805 236.348L76.7725 237.865C76.7725 237.865 76.8705 239.134 78.2235 238.656C78.2235 238.656 78.1925 239.851 79.4435 239.234C79.4435 239.234 79.7745 240.031 80.4045 239.848C81.0345 239.665 82.7805 238.04 82.7805 238.04C82.7805 238.04 82.9945 237.532 82.2465 236.964C82.2465 236.964 82.4345 236.095 81.6665 235.639C81.6665 235.639 81.7075 234.918 80.8755 234.434C80.8755 234.434 80.8425 232.822 79.5095 232.725C79.5095 232.725 79.3205 232.853 79.2035 232.956Z" fill="#DB9C7C"/>
<path d="M74.0967 236.598C74.0967 236.598 75.9817 234.894 77.4187 234.414C77.7437 234.306 78.0787 234.26 78.3017 234.521C78.5247 234.783 78.4307 235.437 77.6517 236.217C76.8737 236.997 76.2237 238.362 76.2237 238.362C76.2237 238.362 75.1887 238.93 74.0967 236.598Z" fill="#EEA886"/>
<path d="M66.1413 258.212C66.1413 258.212 67.2743 254.106 65.9393 250.926C65.9393 250.926 66.4473 254.217 65.0053 256.557C63.9623 258.253 66.1413 258.212 66.1413 258.212Z" fill="#152C3D"/>
<path d="M86.7015 258.848C86.7015 258.848 89.7395 236.338 95.0355 226.524H87.2465C87.2465 226.524 78.5225 241.896 80.1585 257.422L86.7015 258.848Z" fill="#EDDAD3"/>
<path d="M88.5664 241.996C88.5664 241.996 89.4554 240.34 89.6694 239.799C89.8834 239.259 90.7564 240.196 90.6254 240.891C90.4924 241.585 88.5664 241.996 88.5664 241.996Z" fill="#EEA886"/>
<path d="M95.4729 245.76C95.4729 245.76 95.2379 246.571 94.9619 246.876C94.9619 246.876 94.4179 247.391 94.0529 247.781C93.9379 247.905 93.8399 248.015 93.7839 248.094C93.5509 248.419 93.1379 249.205 92.3599 249.831C91.5829 250.457 88.6119 252.39 88.6119 252.39L86.5159 250.151L84.8379 248.406C84.8379 248.406 86.2559 243.076 86.9139 242.409C86.9779 242.344 87.0439 242.282 87.1109 242.229C87.7219 241.718 88.3919 241.594 88.7429 241.364C88.8719 241.279 90.2169 240.528 90.6449 240.694C91.2409 240.924 91.5609 241.326 91.6529 241.754C91.6529 241.754 92.7989 242.257 93.1819 243.007C93.1819 243.007 94.2549 243.437 94.4649 244.506C94.4649 244.506 95.5039 245.062 95.4729 245.76Z" fill="#EEA886"/>
<path d="M109.262 303.888C109.262 303.888 104.115 315.468 100.442 323.732C99.8251 325.124 99.2491 326.42 98.7461 327.55C98.1571 328.876 97.6681 329.974 97.3321 330.733C94.9941 335.994 89.2421 347.465 89.2421 347.465C89.2421 347.465 84.9141 347.63 84.6631 343.955C84.6631 343.955 88.8151 335.993 88.8151 330.398C88.8151 324.802 89.5661 308.322 94.9111 304.759C101.428 300.416 105.66 299.593 109.262 303.888Z" fill="#EEA886"/>
<path d="M61.6722 281.878C61.6722 281.878 62.7582 282.964 63.6762 283.214C64.5942 283.465 79.9612 284.635 87.0592 286.973C94.1572 289.311 103.594 290.815 105.347 292.819C107.101 294.823 110.024 305.846 109.94 307.934C109.856 310.022 116.178 345.205 116.966 347.952C117.383 349.407 111.249 348.85 111.249 348.85C111.249 348.85 102.532 328.06 100.671 324.219C97.2502 317.162 97.0802 308.519 95.8272 307.182C94.5742 305.846 80.6282 302.84 72.6112 302.84C64.5942 302.84 46.6392 303.508 44.7182 302.422C42.7972 301.336 30.7722 293.402 35.7832 282.797C40.7942 272.191 61.6722 281.878 61.6722 281.878Z" fill="#EEA886"/>
<path d="M96.3512 289.473L83.6312 313.948C83.6312 313.948 79.8002 304.866 73.1162 303.302C66.4312 301.739 39.7562 302.577 39.7562 302.577C39.7562 302.577 27.5152 287.093 37.9982 278.97C48.4802 270.847 60.7222 280.248 60.7222 280.248C60.7222 280.248 63.2512 282.989 64.4742 283.05C73.3692 283.493 82.8532 285.149 96.3512 289.473Z" fill="#1D3B54"/>
<path d="M124.809 358.856C124.809 358.856 120.937 359.825 119.452 358.856C117.968 357.889 112.922 349.36 111.25 348.849C111.25 348.849 112.87 345.563 116.967 347.951C116.967 347.951 123.711 357.437 124.809 358.856Z" fill="#EEA886"/>
<path d="M92.8919 358.68C92.8919 358.68 88.9379 358.133 87.9219 356.681C86.9059 355.23 85.4059 345.434 84.0459 344.336C84.0459 344.336 86.7749 341.891 89.6859 345.635C89.6859 345.635 92.4039 356.952 92.8919 358.68Z" fill="#EEA886"/>
<path d="M52.4952 205.015C55.5502 204.867 62.3263 206.404 63.3692 214.499C63.3692 214.499 63.1253 216.681 62.5953 218.397C62.0653 220.111 63.6022 225.167 63.2013 225.417C62.8003 225.665 61.1433 225.984 61.1433 225.984C61.1433 225.984 59.3612 231.507 57.4223 231.461C55.4833 231.413 48.1423 229.897 44.6853 223.025C41.2273 216.155 40.1602 205.612 52.4952 205.015Z" fill="#EEA886"/>
<path d="M54.8018 228.942C54.8018 228.942 54.5638 229.716 54.2928 230.865C54.1538 231.453 54.0068 232.136 53.8788 232.865C53.5268 234.881 53.3208 237.236 53.8428 238.804C53.8428 238.804 49.5558 240.289 46.1688 234.23C46.1688 234.23 47.6238 227.703 45.7328 223.744C43.8428 219.787 54.8018 228.942 54.8018 228.942Z" fill="#EEA886"/>
<path d="M63.3691 214.5C63.3691 214.5 58.6821 218.707 53.7251 218.374C48.6901 218.035 45.4221 224.326 45.4221 224.326C45.4221 224.326 37.9281 214.922 43.9691 207.318C50.0111 199.713 64.4401 205.063 63.3691 214.5Z" fill="#1D3B54"/>
<path d="M51.4422 218.337C51.4152 217.384 50.3552 215.954 48.7942 217.256C47.2322 218.559 49.3322 223.088 50.6112 222.645C51.8912 222.2 51.4702 219.321 51.4422 218.337Z" fill="#EEA886"/>
<path d="M54.2926 230.865C54.1536 231.453 54.0066 232.136 53.8786 232.865C49.8976 230.337 47.8936 227.267 47.8936 227.267C50.1696 229.325 54.2926 230.865 54.2926 230.865Z" fill="#A77860"/>
<path d="M65.9148 254.022C65.0128 258.205 62.6378 258.423 62.7818 261.513C62.9258 264.602 63.8478 264.867 62.2508 269.739C61.9558 270.64 61.7148 271.623 61.5218 272.625C61.4998 272.743 61.4758 272.862 61.4558 272.981C61.3518 273.544 61.2628 274.11 61.1858 274.669C61.0438 275.703 60.9408 276.713 60.8698 277.635C60.6818 280.039 62.4528 281.895 62.4528 281.895C62.4528 281.895 46.8218 291.26 36.0898 289.946C36.0898 289.946 38.8678 278.268 40.3988 274.257C41.9288 270.246 41.4668 251.71 40.3408 247.732C38.6798 241.862 41.9988 233.061 46.5358 231.915L53.5708 235.173C53.5708 235.173 60.6578 243.636 62.2468 244.913C63.8338 246.19 66.8308 249.781 65.9148 254.022Z" fill="#1D3B54"/>
<path d="M42.6625 236.887C44.6495 235.233 47.5245 232.401 51.7175 238.002C55.9105 243.604 58.9615 247.213 59.8675 248.847C60.7735 250.481 68.6565 261.861 68.6565 261.861C68.6565 261.861 72.8445 257.973 75.2395 256.149C77.9385 254.092 85.2945 246.428 85.2945 246.428L90.1565 251.819C90.1565 251.819 73.2895 270.536 70.6815 271.194C68.0735 271.854 60.7685 265.281 57.8755 262.733C54.9825 260.186 46.8655 250.911 45.4555 250.013C44.0445 249.116 37.4815 241.201 42.6625 236.887Z" fill="#1D3B54"/>
<path d="M100.442 323.731C99.825 325.123 99.249 326.419 98.746 327.549C96.853 321.462 97.009 311.29 97.009 311.29C98.145 318.383 100.408 323.65 100.442 323.731Z" fill="#A77860"/>
<path d="M73.1164 302.577H18.9404V308.539H73.1164V302.577Z" fill="#B5DEFF"/>
<path d="M47.1314 283.56C47.1314 283.56 45.7654 289.083 52.1964 290.338C58.6274 291.593 66.5354 293.195 66.5354 303.116H44.2324L47.1314 283.56Z" fill="#B5DEFF"/>
<path d="M80.1973 223.43L81.1173 221.732L81.2393 223.659L80.1973 223.43Z" fill="#EEA886"/>
<path d="M18.94 308.539L0 228.938C0 228.938 34.241 223.588 38.32 238.964C42.4 254.341 49.111 300.014 57.269 302.838C65.428 305.663 18.94 308.539 18.94 308.539Z" fill="#9D6EF2"/>
<path d="M62.9807 267.081C62.9807 267.081 62.6317 268.542 62.2587 269.751L53.9277 258.947L62.9807 267.081Z" fill="#152C3D"/>
<path d="M42.0967 217.566C42.0967 217.566 45.3897 226.266 44.4947 228.642C44.4947 228.642 49.6347 226.447 48.6967 220.746C47.7587 215.048 42.0967 217.566 42.0967 217.566Z" fill="#1D3B54"/>
<path d="M53.9747 235.655V233.933L46.6647 230.374L44.1367 233.295L53.9747 235.655Z" fill="#1D3B54"/>
<path d="M16.1084 359.181L16.8254 361.198L47.1314 351.808L45.6784 347.723L16.1084 359.181Z" fill="#918783"/>
<path d="M77.0542 359.181L76.3372 361.198L46.0322 351.808L47.3632 347.467L77.0542 359.181Z" fill="#918783"/>
<path d="M55.7022 360.982V363.33L46.0322 351.808L47.3632 347.467L55.7022 360.982Z" fill="#918783"/>
<path d="M413.519 77.4745C413.519 84.9875 410.818 91.8675 406.335 97.1995C405.285 98.4465 404.14 99.6085 402.908 100.674C402.556 100.978 402.197 101.276 401.832 101.562C401.419 101.888 400.998 102.203 400.569 102.509C396.533 105.369 391.775 107.278 386.624 107.907C385.717 108.019 384.796 108.091 383.865 108.121C383.531 108.132 383.195 108.137 382.858 108.137C381.866 108.137 380.884 108.09 379.918 107.998C378.837 107.895 377.773 107.737 376.728 107.523C372.082 106.582 367.819 104.589 364.195 101.803C363.1 100.964 362.067 100.054 361.099 99.0765C360.911 98.8865 360.724 98.6935 360.541 98.4985C359.853 97.7725 359.205 97.0125 358.595 96.2215C354.582 91.0385 352.196 84.5345 352.196 77.4745C352.196 60.5395 365.924 46.8115 382.859 46.8115C399.791 46.8115 413.519 60.5395 413.519 77.4745Z" fill="#EEF0F7"/>
<path d="M402.832 94.3938L400.57 102.509C396.534 105.369 391.776 107.278 386.625 107.907C385.718 108.019 384.797 108.091 383.866 108.121C383.532 108.132 383.196 108.137 382.859 108.137C381.867 108.137 380.885 108.09 379.919 107.998C378.838 107.895 377.774 107.737 376.729 107.523C372.083 106.582 367.82 104.589 364.196 101.803C363.762 99.1198 363.297 96.1508 362.886 93.3738C365.14 92.5348 372.313 90.0958 376.839 88.5648C376.902 88.5428 376.966 88.5228 377.027 88.5018C377.127 88.4668 377.224 88.4338 377.321 88.4018C377.59 88.3118 377.845 88.2238 378.09 88.1418C378.338 88.0578 378.574 87.9788 378.794 87.9028C379.721 87.5908 380.375 87.3708 380.608 87.2938C380.61 87.2918 380.61 87.2918 380.612 87.2918C380.673 87.2708 380.704 87.2598 380.704 87.2598L380.757 87.2638L386.844 87.7198L387.865 87.7958L388.183 87.8198C388.183 87.8198 388.23 87.8308 388.322 87.8548C388.689 87.9478 389.756 88.2278 391.168 88.6588C391.17 88.6588 391.173 88.6608 391.175 88.6608C394.778 89.7628 400.626 91.8578 402.832 94.3938Z" fill="#D9C7C1"/>
<path d="M384.454 62.2483C384.454 62.2483 391.754 63.4803 390.515 74.9093C389.277 86.3383 382.834 85.3303 382.402 85.3133C381.971 85.2973 375.922 85.4513 375.602 71.4773C375.602 71.4773 375.51 61.1463 384.454 62.2483Z" fill="#EEA987"/>
<path d="M387.652 82.0005C387.652 82.0005 387.401 86.7045 387.844 87.7275C388.289 88.7515 381.983 91.9905 378.065 88.3015C378.065 88.3015 378.857 83.1595 378.611 81.3445C378.365 79.5295 387.652 82.0005 387.652 82.0005Z" fill="#EEA987"/>
<path d="M390.665 71.6796C390.665 71.6796 391.475 70.8326 391.759 71.7016C392.043 72.5706 390.465 76.4226 390.564 76.5976C390.564 76.5976 390.415 76.9316 390.224 76.7446C390.034 76.5576 390.665 71.6796 390.665 71.6796Z" fill="#EEA987"/>
<path d="M375.687 71.3709C375.687 71.3709 374.912 70.4919 374.592 71.3489C374.273 72.2049 375.44 76.0519 375.585 76.2899C375.585 76.2899 375.836 76.6849 376.034 76.5059C376.232 76.3269 375.687 71.3709 375.687 71.3709Z" fill="#EEA987"/>
<path d="M391.131 70.7077C390.878 72.2717 390.642 73.4337 390.642 73.4337L389.579 74.8207C389.579 74.8207 389.642 71.7527 389.479 71.2707C389.418 71.0877 389.345 70.7647 389.271 70.4137C389.148 69.8357 389.024 69.1827 388.938 68.9657C388.801 68.6177 382.681 66.8307 377.23 69.3397C377.23 69.3397 377.277 69.8117 377.273 70.3377C377.272 70.9497 377.205 71.6357 376.923 71.7397C376.401 71.9307 376.618 75.3297 376.618 75.3297L375.768 74.3497C375.768 74.3497 375.522 72.5737 375.281 70.5327C375.281 70.5327 375.28 70.5277 375.279 70.5177C375.224 70.0417 375.168 69.5527 375.115 69.0667C374.993 67.0137 375.196 63.2857 377.87 61.0957C379.674 60.3237 382.554 59.6677 387.354 61.1377C387.354 61.1377 388.456 61.2107 388.764 61.5087C391.756 64.8017 391.131 70.7077 391.131 70.7077Z" fill="#E8734D"/>
<path d="M379.112 83.7861C379.112 83.7861 380.277 85.4041 382.984 85.3431C385.691 85.2821 386.866 83.8701 386.866 83.8701C386.866 83.8701 385.585 86.5511 382.971 86.5221C380.357 86.4941 379.112 83.7861 379.112 83.7861Z" fill="#C78D71"/>
<path d="M377.321 88.4004C377.321 88.4004 379.277 91.8064 382.989 92.1274C385.344 92.3304 387.382 89.3464 388.338 87.8814C388.338 87.8814 383.065 85.6234 377.321 88.4004Z" fill="#EEA987"/>
<path d="M387.66 86.8047C387.66 86.8047 386.168 88.7597 382.988 90.8517L384.965 93.8977L388.336 87.8807L387.66 86.8047Z" fill="#EDDAD3"/>
<path d="M378.213 87.2598C378.213 87.2598 380.112 89.6398 382.988 90.8518L380.818 93.9898L377.025 88.5008L378.213 87.2598Z" fill="#EDDAD3"/>
<path d="M382.99 90.8516L384.684 93.4296C384.684 93.4296 382.906 94.4366 381.25 93.3656L382.99 90.8516Z" fill="#5073AB"/>
<path d="M404.79 93.9139C404.79 93.9139 404.773 93.9729 404.741 94.0839C404.555 94.7459 403.84 97.2899 402.909 100.674C402.557 100.978 402.198 101.276 401.833 101.562C401.42 101.888 400.999 102.203 400.57 102.509C396.534 105.369 391.776 107.278 386.625 107.907C387.079 97.2929 388.339 87.8809 388.339 87.8809C389.333 88.1419 390.275 88.4019 391.167 88.6579C391.169 88.6579 391.172 88.6599 391.174 88.6599C398.954 90.8929 402.899 92.8519 404.245 93.5969C404.256 93.6009 404.266 93.6079 404.274 93.6129C404.625 93.8079 404.79 93.9139 404.79 93.9139Z" fill="#323657"/>
<path d="M376.728 107.522C372.082 106.581 367.819 104.588 364.195 101.802C363.1 100.963 362.067 100.053 361.099 99.0757C360.911 98.8857 360.724 98.6927 360.541 98.4977C360.004 96.2187 359.648 94.7307 359.624 94.6347L359.623 94.6297C359.623 94.6297 363.417 92.1367 376.838 88.5557C376.838 88.5557 376.838 88.5587 376.838 88.5637C376.838 88.8717 376.846 97.4817 376.728 107.522Z" fill="#323657"/>
<path d="M383.96 93.7133C383.835 96.5083 383.822 101.932 383.865 108.12C383.531 108.131 383.195 108.136 382.858 108.136C381.866 108.136 380.884 108.089 379.918 107.997C380.508 100.365 381.502 95.5933 381.955 93.7053C382.103 93.0863 382.194 92.7783 382.194 92.7783L383.993 93.0753C383.981 93.2693 383.97 93.4813 383.96 93.7133Z" fill="#5073AB"/>
<path d="M406.335 97.1998C405.285 98.4468 404.14 99.6088 402.908 100.674C402.556 100.978 402.197 101.276 401.832 101.562L404.244 93.5967L404.245 93.5938C404.255 93.5998 404.265 93.6048 404.273 93.6128C404.421 93.7098 404.576 93.8678 404.74 94.0848C405.214 94.7018 405.756 95.7898 406.335 97.1998Z" fill="#323657"/>
<path d="M361.099 99.0769C360.911 98.8869 360.724 98.6939 360.541 98.4989C359.853 97.7729 359.205 97.0129 358.595 96.2219C358.941 95.3939 359.286 94.8389 359.623 94.6309L359.624 94.6359L361.099 99.0769Z" fill="#323657"/>
<path d="M197.725 45.2057H163.327C161.419 45.2057 159.873 43.6597 159.873 41.7517V39.0517C159.873 37.1437 161.419 35.5977 163.327 35.5977H197.725C199.633 35.5977 201.179 37.1437 201.179 39.0517V41.7517C201.179 43.6597 199.632 45.2057 197.725 45.2057Z" fill="#F5F7FF"/>
<path d="M176.954 108.133C178.872 108.783 180.925 109.146 183.062 109.175C189.533 109.258 195.322 106.234 199.004 101.487C201.557 98.1948 203.099 94.0778 203.154 89.5918C203.16 89.1468 203.151 88.7018 203.129 88.2628C203.023 86.2708 202.622 84.3568 201.969 82.5608C199.233 75.0288 192.06 69.6068 183.574 69.4978C179.001 69.4378 174.772 70.9308 171.383 73.4868C166.649 77.0568 163.56 82.6968 163.479 89.0818C163.366 97.9008 169.025 105.451 176.954 108.133ZM168.442 89.1448C168.503 84.3928 170.788 80.1888 174.294 77.5128C176.849 75.5608 180.048 74.4188 183.509 74.4618C189.872 74.5438 195.25 78.6088 197.302 84.2558L197.306 84.2638C197.793 85.6068 198.092 87.0398 198.173 88.5308C198.19 88.8608 198.195 89.1918 198.193 89.5278C198.149 92.8908 196.992 95.9768 195.08 98.4428C192.319 102.005 187.98 104.273 183.129 104.21C181.524 104.19 179.986 103.917 178.547 103.429C172.603 101.42 168.358 95.7608 168.442 89.1448Z" fill="#704AEC"/>
<path d="M195.078 98.4453L199.004 101.485C195.321 106.233 189.533 109.258 183.062 109.174C180.925 109.147 178.873 108.782 176.954 108.133L178.547 103.429C179.986 103.915 181.525 104.188 183.127 104.209C187.977 104.273 192.317 102.005 195.078 98.4453Z" fill="#1A598C"/>
<path d="M198.17 88.5307L203.129 88.2617C203.152 88.7007 203.161 89.1457 203.155 89.5917C203.098 94.0767 201.556 98.1947 199.004 101.486L195.078 98.4457C196.991 95.9787 198.147 92.8917 198.19 89.5287C198.194 89.1927 198.187 88.8607 198.17 88.5307Z" fill="#2273B5"/>
<path d="M198.171 88.5315C198.09 87.0405 197.792 85.6075 197.304 84.2645L197.3 84.2565L201.968 82.5605C202.621 84.3565 203.022 86.2705 203.128 88.2625L198.171 88.5315Z" fill="#2273B5"/>
<path d="M171.382 73.4868C174.771 70.9298 179 69.4378 183.573 69.4978C192.059 69.6068 199.232 75.0288 201.968 82.5608L197.304 84.2648L197.3 84.2568C195.248 78.6098 189.87 74.5438 183.507 74.4628C180.046 74.4198 176.847 75.5618 174.292 77.5138L171.382 73.4868Z" fill="#4DA8F2"/>
<path d="M330.917 147.658H318.065C315.51 147.658 313.44 145.588 313.44 143.034V130.182C313.44 127.628 315.51 125.558 318.065 125.558H330.917C333.472 125.558 335.542 127.629 335.542 130.182V143.034C335.542 145.588 333.472 147.658 330.917 147.658Z" fill="#9D6EF2"/>
<path d="M323.793 141.475L318.205 136.604C317.747 136.205 317.699 135.509 318.098 135.051C318.498 134.593 319.193 134.546 319.651 134.945L323.602 138.39L329.236 132.105C329.642 131.652 330.339 131.615 330.791 132.021C331.244 132.427 331.281 133.123 330.875 133.575L323.793 141.475Z" fill="#F3F3F3"/>
<path d="M330.917 175.979H318.065C315.51 175.979 313.44 173.909 313.44 171.355V158.503C313.44 155.949 315.51 153.879 318.065 153.879H330.917C333.472 153.879 335.542 155.949 335.542 158.503V171.355C335.542 173.909 333.472 175.979 330.917 175.979Z" fill="#9D6EF2"/>
<path d="M323.793 169.797L318.205 164.926C317.747 164.527 317.699 163.831 318.098 163.373C318.498 162.915 319.193 162.868 319.651 163.267L323.602 166.711L329.236 160.427C329.642 159.974 330.339 159.936 330.791 160.342C331.244 160.748 331.281 161.444 330.875 161.896L323.793 169.797Z" fill="#F3F3F3"/>
<path d="M330.917 204.302H318.065C315.51 204.302 313.44 202.231 313.44 199.677V186.825C313.44 184.271 315.51 182.2 318.065 182.2H330.917C333.472 182.2 335.542 184.271 335.542 186.825V199.677C335.542 202.23 333.472 204.302 330.917 204.302Z" fill="#9D6EF2"/>
<path d="M243.422 335.174C243.422 335.174 244.089 339.653 244.536 341.564C244.983 343.475 249.114 348.955 249.041 349.887C248.968 350.819 247.22 351.917 246.341 351.166C245.462 350.416 239.624 344.418 238.377 341.849C237.129 339.28 233.001 335.93 232.579 334.79C232.157 333.648 237.448 330.311 238.811 329.779C240.174 329.247 243.422 335.174 243.422 335.174Z" fill="#1D2033"/>
<path d="M233.076 255.471C233.076 255.471 233.622 258.328 234.024 258.856C234.426 259.384 235.512 262.04 235.622 262.415C235.732 262.788 236.399 265.471 236.513 265.81C236.626 266.15 235.863 266.679 235.341 265.962C235.016 265.517 234.447 263.78 234.216 263.22C233.985 262.66 233.273 260.887 233.081 261.21C232.889 261.533 232.936 263.911 232.904 264.523C232.872 265.134 233.261 267.015 233.443 267.794C233.625 268.573 234.66 271.836 234.245 272.012C233.83 272.188 233.479 272.14 232.943 271.264C232.943 271.264 232.094 271.739 231.598 270.664C231.598 270.664 230.838 270.939 230.368 269.539C230.368 269.539 229.828 269.242 229.618 268.74C229.409 268.238 228.178 263.945 228.189 262.193C228.2 260.443 228.611 259.222 228.536 257.987C228.461 256.751 227.828 254.107 227.828 254.107L233.076 255.471Z" fill="#EEA886"/>
<path d="M240.4 329.076L238.81 329.778L243.422 335.174L244.95 333.482L240.4 329.076Z" fill="#50558A"/>
<path d="M256.518 340.382C256.518 340.382 255.491 342.857 254.626 343.837C253.76 344.818 250.446 346.571 250.429 349.484C250.409 352.643 256.015 351.766 258.208 351.651C260.4 351.535 260.566 349.847 261.489 348.059C262.412 346.271 263.342 346.574 263.516 345.13C263.689 343.688 262.809 340.459 262.809 340.459L256.518 340.382Z" fill="#1D2033"/>
<path d="M256.422 339.468L256.262 340.967C256.262 340.967 259.71 342.206 262.97 341.096L262.788 339.048L256.422 339.468Z" fill="#50558A"/>
<path d="M275.545 301.402C275.545 297.509 272.702 263.529 272.832 262.231C272.918 261.384 272.014 253.25 271.374 247.692C271.369 247.644 271.363 247.596 271.357 247.55C271.357 247.538 271.354 247.527 271.354 247.516C271.172 245.955 271.015 244.609 270.91 243.706C270.861 243.288 270.823 242.964 270.799 242.759C270.778 242.589 270.768 242.499 270.768 242.499C270.768 242.499 252.429 238.883 242.921 242.299C242.525 242.443 242.143 242.597 241.779 242.765C241.779 242.765 241.756 242.927 241.714 243.231C241.618 243.934 241.42 245.4 241.155 247.392C241.11 247.728 241.064 248.079 241.014 248.443C239.661 258.688 240.53 269.822 242.899 281.22C245.223 292.401 246.502 300.763 246.741 302.387C247.056 304.518 247.989 310.38 249.021 316.809C243.973 323.034 239.671 328.327 239.991 328.853C240.788 330.154 247.87 337.486 248.259 336.188C248.259 336.188 249.538 334.74 251.541 332.432C252.178 336.365 252.614 339.048 252.614 339.048C252.614 339.048 260.377 340.901 263.233 339.214C263.233 339.214 262.11 330.685 260.939 321.411C268.067 312.881 275.545 303.442 275.545 301.402ZM258.332 298.59C258.235 293.362 255.909 264.061 256.155 264.061C257.3 264.061 263.747 291.964 263.987 295.891C264.036 296.695 263.03 298.494 261.406 300.862C260.675 301.928 259.818 303.108 258.876 304.365L258.875 304.366C258.554 301.494 258.347 299.382 258.332 298.59Z" fill="#292C47"/>
<path d="M278.609 193.897L273.677 211.589C273.508 212.162 273.306 212.868 273.092 213.69L273.084 213.721C273.082 213.728 273.079 213.735 273.078 213.742C272.255 216.895 271.237 221.703 270.933 227.044C270.727 230.685 271.403 245.322 271.403 245.322C271.403 245.322 263.94 248.106 252.774 247.401C252.774 247.401 240.763 247.121 241.743 239.756C244.335 220.266 241.8 212.23 241.461 210.273C241.461 210.273 239.831 200.806 238.664 192.875C242.044 191.617 256.481 186.763 256.481 186.763L263.96 187.323C263.96 187.323 275.325 190.122 278.609 193.897Z" fill="#D9C7C1"/>
<path d="M260.232 161.753C260.232 161.753 267.532 162.984 266.294 174.413C265.056 185.842 258.612 184.834 258.181 184.818C257.75 184.802 251.7 184.956 251.381 170.982C251.381 170.982 251.287 160.65 260.232 161.753Z" fill="#EEA987"/>
<path d="M263.431 181.505C263.431 181.505 263.179 186.209 263.623 187.232C264.067 188.256 257.761 191.495 253.843 187.805C253.843 187.805 254.635 182.663 254.389 180.847C254.143 179.033 263.431 181.505 263.431 181.505Z" fill="#EEA987"/>
<path d="M266.441 171.182C266.441 171.182 267.252 170.336 267.536 171.205C267.82 172.074 266.242 175.927 266.341 176.101C266.341 176.101 266.191 176.435 266.001 176.248C265.811 176.061 266.441 171.182 266.441 171.182Z" fill="#EEA987"/>
<path d="M251.464 170.875C251.464 170.875 250.689 169.996 250.369 170.853C250.049 171.709 251.217 175.556 251.362 175.793C251.362 175.793 251.613 176.188 251.811 176.009C252.01 175.83 251.464 170.875 251.464 170.875Z" fill="#EEA987"/>
<path d="M266.909 170.211C266.657 171.775 266.42 172.937 266.42 172.937L265.357 174.325C265.357 174.325 265.42 171.257 265.257 170.775C265.196 170.592 265.123 170.269 265.049 169.919C264.927 169.341 264.802 168.688 264.716 168.471C264.579 168.124 258.459 166.336 253.009 168.845C253.009 168.845 253.055 169.317 253.052 169.844C253.05 170.456 252.983 171.142 252.702 171.246C252.18 171.437 252.398 174.836 252.398 174.836L251.548 173.855C251.548 173.855 251.302 172.08 251.06 170.039C251.06 170.039 251.059 170.034 251.058 170.024C251.003 169.548 250.947 169.058 250.894 168.573C250.772 166.52 250.976 162.792 253.648 160.602C255.452 159.83 258.332 159.173 263.133 160.644C263.133 160.644 264.234 160.717 264.543 161.015C267.534 164.305 266.909 170.211 266.909 170.211Z" fill="#E8734D"/>
<path d="M254.89 183.29C254.89 183.29 256.055 184.908 258.762 184.847C261.469 184.786 262.644 183.375 262.644 183.375C262.644 183.375 261.363 186.055 258.749 186.027C256.136 185.998 254.89 183.29 254.89 183.29Z" fill="#C78D71"/>
<path d="M253.099 187.904C253.099 187.904 255.056 191.31 258.767 191.631C261.122 191.835 263.16 188.851 264.116 187.385C264.116 187.385 258.843 185.128 253.099 187.904Z" fill="#EEA987"/>
<path d="M263.439 186.307C263.439 186.307 261.946 188.263 258.767 190.355L260.745 193.401L264.116 187.384L263.439 186.307Z" fill="#EDDAD3"/>
<path d="M253.992 186.764C253.992 186.764 255.891 189.145 258.767 190.356L256.597 193.494L252.803 188.005L253.992 186.764Z" fill="#EDDAD3"/>
<path d="M258.766 190.354L260.46 192.932C260.46 192.932 258.681 193.938 257.027 192.868L258.766 190.354Z" fill="#5073AB"/>
<path d="M241.333 248.728C241.333 248.728 250.493 252.107 271.207 248.923L270.932 245.173C270.932 245.173 258.925 248.716 241.699 245.682L241.333 248.728Z" fill="#1D2033"/>
<path d="M264.116 187.385C264.116 187.385 261.974 203.385 262.268 217.185C262.561 230.986 272.985 256.047 272.985 256.047C272.985 256.047 277.541 251.641 279.525 249.146C279.525 249.146 272.432 228.679 272.562 224.987C272.692 221.296 280.567 193.419 280.567 193.419C280.567 193.419 276.19 190.563 264.116 187.385Z" fill="#323657"/>
<path d="M252.615 188.06C252.615 188.06 252.633 203.384 252.339 217.184C252.046 230.985 250.228 256.676 250.228 256.676C250.228 256.676 240.026 255.061 238.043 252.566C238.043 252.566 242.176 228.678 242.046 224.986C241.916 221.295 235.401 194.135 235.401 194.135C235.401 194.135 239.193 191.641 252.615 188.06Z" fill="#323657"/>
<path d="M259.453 246.329H253.826V250.514H259.453V246.329Z" fill="#3A4066"/>
<path d="M257.972 192.281C257.972 192.281 255.458 200.86 255.239 217.9C255.02 234.939 255.548 239.825 255.548 239.825L257.51 243.708L260.125 239.656C260.125 239.656 259.287 200.447 259.772 192.58L257.972 192.281Z" fill="#5073AB"/>
<path d="M272.417 256.191C272.417 256.191 273.031 255.781 273.2 255.49C273.2 255.49 273.46 254.938 273.673 254.556C273.741 254.436 273.803 254.331 273.852 254.268C274.053 254.001 274.587 253.468 274.865 252.711C275.143 251.956 275.376 248.436 275.376 248.436L273.217 247.802L271.296 246.957C271.296 246.957 267.091 250.181 266.738 250.86C266.704 250.926 266.673 250.993 266.65 251.058C266.416 251.657 266.531 252.187 266.449 252.513C266.42 252.632 266.222 253.842 266.505 254.11C266.898 254.482 267.345 254.601 267.741 254.544C267.741 254.544 268.547 255.243 269.313 255.306C269.313 255.306 270.033 255.972 271.014 255.815C271.014 255.815 271.832 256.418 272.417 256.191Z" fill="#EEA886"/>
<path d="M269.664 246.568C269.664 246.568 272.582 249.14 276.671 250.513C276.671 250.513 290.227 228.423 290.398 226.83C290.556 225.354 283.673 195.317 280.566 193.417L274.924 209.937C275.298 209.828 281.345 222.486 281.368 224.114C281.402 226.297 269.664 246.568 269.664 246.568Z" fill="#323657"/>
<path d="M234.672 258.459C234.672 258.459 231.626 259.025 227.219 258.776C227.219 258.776 228.936 230.422 228.764 228.828C228.606 227.353 232.295 196.037 235.4 194.136L240.94 210.828C240.566 210.719 237.226 227.903 237.202 229.531C237.172 231.714 234.672 258.459 234.672 258.459Z" fill="#323657"/>
<path d="M266.115 249.707L274.825 254.224L271.401 260.563L263.987 252.637L266.115 249.707Z" fill="#292C47"/>
<path d="M261.407 300.861L260.527 318.099L258.877 304.365C259.819 303.108 260.675 301.928 261.407 300.861Z" fill="#1D2033"/>
<path d="M222.649 91.3271H217.565V107.997H222.649V91.3271Z" fill="#CC94FA"/>
<path d="M404.815 202.383C404.815 215.348 394.31 225.947 381.251 225.947C368.212 225.947 357.686 215.374 357.686 202.383C357.686 189.368 368.237 178.817 381.251 178.817C394.264 178.817 404.815 189.368 404.815 202.383Z" fill="#EEF0F7"/>
<path d="M214.315 96.0029H209.231V107.998H214.315V96.0029Z" fill="#CC94FA"/>
<path d="M230.982 83.6006H225.898V107.997H230.982V83.6006Z" fill="#CC94FA"/>
<path d="M437.718 271.859H470.419V269.918H437.718V271.859Z" fill="#E2D2CA"/>
<path d="M466.035 276.911H463.17V365.191H466.035V276.911Z" fill="#706865"/>
<path d="M420.106 272.141H442.836V269.369H420.106V272.141Z" fill="#CCBDB7"/>
<path d="M427.167 271.859H435.774V245.714H427.167V271.859Z" fill="#4667A8"/>
<path d="M356.21 276.91H482.149V271.891H356.21V276.91Z" fill="#B59074"/>
<path d="M506.319 241.51C506.319 241.51 507.696 260.827 503.922 263.139C501.558 264.587 492.131 269.471 492.41 270.387C492.689 271.303 497.733 278.537 497.733 278.537C497.733 278.537 515.84 266.613 516.424 262.855C516.994 259.184 515.532 234.572 513.044 233.438C511.18 232.588 510.195 233.292 507.847 235.036C504.549 237.484 506.319 241.51 506.319 241.51Z" fill="#FFC05C"/>
<path d="M484.04 353.139C484.04 353.139 484.602 357.047 484.674 357.634C484.744 358.221 490.938 357.288 490.938 357.288L491.439 352.635C491.439 352.635 484.815 352.587 484.04 353.139Z" fill="#424773"/>
<path d="M484.609 357.137C484.609 357.137 482.646 359.492 480.748 360.519C478.851 361.545 475.868 361.953 474.745 363.015C473.935 363.782 471.795 367.083 479.678 367.017C487.56 366.95 491.361 367.483 492.205 366.217C493.05 364.951 490.983 356.872 490.983 356.872C490.983 356.872 489.116 357.544 484.609 357.137Z" fill="#292C47"/>
<path d="M444.359 353.176C444.359 353.176 444.922 357.084 444.992 357.67C445.062 358.258 451.256 357.324 451.256 357.324L451.758 352.672C451.758 352.672 445.133 352.624 444.359 353.176Z" fill="#424773"/>
<path d="M444.927 357.174C444.927 357.174 442.964 359.529 441.066 360.556C439.169 361.582 432.184 362.426 431.062 363.489C430.252 364.255 428.905 367.343 439.996 367.054C447.876 366.849 451.68 367.52 452.523 366.254C453.369 364.988 451.301 356.909 451.301 356.909C451.301 356.909 449.542 357.627 444.927 357.174Z" fill="#292C47"/>
<path d="M504.017 285.625C504.017 285.625 481.499 289.435 476.414 290.232C471.328 291.031 443.752 297.893 440.304 299.984C437.559 301.648 441.743 341.622 442.721 356.872H453.582L454.37 311.125C467.404 311.451 476.705 308.076 486.196 309.518C495.687 310.959 503.599 313.008 509.631 304.918C509.631 304.918 509.855 287.39 504.017 285.625Z" fill="#292C47"/>
<path d="M481.822 356.909L492.407 356.254L493.438 311.125C499.049 311.266 500.972 310.909 505.514 310.359L514.059 290.494C506.57 291.991 482.573 298.044 479.372 299.984C476.627 301.649 480.844 341.658 481.822 356.909Z" fill="#292C47"/>
<path d="M493.652 201.221C493.652 201.221 485.398 198.94 482.248 205.348C479.1 211.756 480.527 223.904 484.687 225.046C488.847 226.189 494.829 224.873 496.556 220.885C498.283 216.897 499.66 211.23 499.247 207.56C498.834 203.889 495.844 202.098 493.652 201.221Z" fill="#EEA886"/>
<path d="M486.842 223.767C486.842 223.767 486.933 228.64 486.396 229.679C485.859 230.718 497.89 230.456 497.89 230.456C497.89 230.456 495.994 224.604 497.07 219.619C498.134 214.685 486.842 223.767 486.842 223.767Z" fill="#EEA886"/>
<path d="M497.718 217.775C497.718 217.775 497.075 219.082 493.961 218.871C490.847 218.66 486.739 214.903 485.418 214.567C484.095 214.232 484.017 213.479 484.017 213.479L483.318 214.722L481.963 214.929C481.963 214.929 482.883 211.163 480.877 209.837C478.871 208.511 481.78 197.833 491.936 200.408C491.936 200.408 499.686 201.827 499.79 206.155C499.894 210.483 499.223 215.482 497.718 217.775Z" fill="#3A3F47"/>
<path d="M485.764 229.555C485.764 229.555 485.798 227.57 486.698 227.379C487.598 227.189 496.156 226.012 497.26 226.445L497.735 229.066C497.735 229.066 495.606 230.377 485.764 229.555Z" fill="#E2D2CA"/>
<path d="M483.288 212.592C483.518 210.965 485.368 209.097 486.428 211.631C487.488 214.164 485.713 217.856 484.525 217.657C483.335 217.459 482.974 214.799 483.288 212.592Z" fill="#EEA886"/>
<path d="M449.92 253.008C449.924 253.006 449.93 253.005 449.935 253.006C449.873 253.033 449.865 253.035 449.92 253.008Z" fill="#323657"/>
<path d="M496.059 202.382C496.059 202.382 506.123 201.908 497.816 217.619L496.059 202.382Z" fill="#3A3F47"/>
<path d="M518.484 362.262L517.735 364.368L486.101 354.567L487.618 350.302L518.484 362.262Z" fill="#918783"/>
<path d="M485.015 353.065H488.611V318.672H485.015V353.065Z" fill="#918783"/>
<path d="M476.21 318.873H497.417V316.846H476.21V318.873Z" fill="#5E5854"/>
<path d="M454.866 362.262L455.615 364.368L487.248 354.567L485.859 350.034L454.866 362.262Z" fill="#918783"/>
<path d="M477.154 364.143V366.593L487.247 354.567L485.858 350.034L477.154 364.143Z" fill="#918783"/>
<path d="M465.344 316.846H508.005C510.098 316.846 511.794 315.15 511.794 313.057V312.96C511.794 310.867 510.098 309.17 508.005 309.17H465.344C463.251 309.17 461.555 310.867 461.555 312.96V313.057C461.555 315.149 463.251 316.846 465.344 316.846Z" fill="#E2D2CA"/>
<path d="M372.323 365.191H375.187V276.911H372.323V365.191Z" fill="#706865"/>
<path d="M398.088 258.31H464.852C466.94 258.31 468.632 256.618 468.632 254.53V209.658C468.632 207.57 466.94 205.878 464.852 205.878H398.088C395.999 205.878 394.307 207.57 394.307 209.658V254.53C394.307 256.617 395.999 258.31 398.088 258.31Z" fill="#5F8BE3"/>
<path d="M397.218 250.092H465.722V208.71H397.218V250.092Z" fill="#F5F7FF"/>
<path d="M397.218 212.004H465.722V208.711H397.218V212.004Z" fill="#CECFD6"/>
<path d="M402.09 247.543H405.67C406.963 247.543 408.01 246.496 408.01 245.204V216.82C408.01 215.528 406.963 214.48 405.67 214.48H402.09C400.798 214.48 399.751 215.528 399.751 216.82V245.204C399.751 246.496 400.798 247.543 402.09 247.543Z" fill="#CECFD6"/>
<path d="M449.982 217.543H462.521C463.219 217.543 463.785 216.978 463.785 216.28V215.744C463.785 215.046 463.219 214.48 462.521 214.48H449.982C449.284 214.48 448.718 215.046 448.718 215.744V216.28C448.718 216.977 449.284 217.543 449.982 217.543Z" fill="#CECFD6"/>
<path d="M451.327 248.389H461.174C462.615 248.389 463.784 247.221 463.784 245.78V222.208C463.784 220.767 462.615 219.599 461.174 219.599H451.327C449.886 219.599 448.718 220.767 448.718 222.208V245.78C448.718 247.221 449.886 248.389 451.327 248.389Z" fill="#CECFD6"/>
<path d="M429.073 253.957C429.073 255.281 430.146 256.354 431.47 256.354C432.794 256.354 433.867 255.281 433.867 253.957C433.867 252.633 432.794 251.56 431.47 251.56C430.146 251.56 429.073 252.633 429.073 253.957Z" fill="#5C5552"/>
<path d="M416.083 271.959V271.026C416.083 271.026 417.394 265.222 426.673 265.222C435.951 265.222 435.764 271.958 435.764 271.958H416.083V271.959Z" fill="#2E436E"/>
<path d="M435.877 266.085C435.877 266.085 433.86 265.928 433.122 265.482C432.384 265.037 427.965 262.065 426.928 262.541C425.89 263.017 418.984 265.133 419.223 266.143C419.463 267.153 420.102 267.055 420.589 266.876C421.076 266.697 426.092 265.645 426.534 265.822C426.534 265.822 421.608 267.619 421.589 268.93C421.568 270.241 422.619 270.56 423.086 271.056C423.553 271.552 424.114 272.784 425.384 272.877C426.654 272.972 432.848 270.817 434.122 270.719C435.397 270.62 437.758 270.798 437.918 270.59C438.08 270.383 435.877 266.085 435.877 266.085Z" fill="#EEA886"/>
<path d="M472.572 232.305C478.999 231.175 485.763 229.554 485.763 229.554L497.733 229.066C497.733 229.066 508.718 231.484 513.045 233.438C513.455 233.624 513.457 243.239 514.583 245.759L510.997 253.326C510.997 253.326 508.924 268.315 508.494 274.981C508.297 278.042 509.053 304.558 509.053 304.558C509.053 304.558 507.978 305.088 499.809 305.989C491.64 306.889 471.23 305.664 471.101 304.7C470.972 303.734 475.053 268.772 475.235 266.962C475.511 264.184 474.431 251.343 474.431 251.343C472.893 253.41 468.969 262.747 464.878 267.189C462.473 269.802 450.56 271.405 448.314 271.48C443.426 271.643 434.509 272.616 434.249 272.14C434.042 271.855 433.473 264.226 434.031 264.039C434.521 263.876 451.078 262.923 455.32 260.672C456.872 259.849 461.51 249.733 461.51 249.733C461.51 249.733 469.027 233.897 472.572 232.305Z" fill="#FFC05C"/>
<path d="M496.162 303.794H516.256C520.274 303.794 523.532 300.535 523.532 296.518V263.085C523.532 259.066 520.273 255.809 516.256 255.809H496.162C492.143 255.809 488.886 259.067 488.886 263.085V296.518C488.885 300.535 492.143 303.794 496.162 303.794Z" fill="#E2D2CA"/>
<path d="M495.024 314.935C500.131 314.935 504.274 313.22 507.339 309.836C514.265 302.189 513.02 288.747 512.964 288.179C512.858 287.119 511.913 286.345 510.856 286.451C509.797 286.555 509.023 287.499 509.127 288.559C509.143 288.712 510.246 300.896 504.474 307.256C502.14 309.829 499.048 311.08 495.024 311.08C493.96 311.08 493.096 311.942 493.096 313.007C493.096 314.072 493.959 314.935 495.024 314.935Z" fill="#E2D2CA"/>
<path d="M432.463 225.625C432.463 227.996 431.609 230.167 430.195 231.85C429.863 232.244 429.502 232.611 429.113 232.946C429.003 233.043 428.889 233.136 428.774 233.227C428.643 233.33 428.51 233.428 428.376 233.526C427.102 234.428 425.601 235.031 423.976 235.229C423.689 235.264 423.399 235.287 423.105 235.296C423 235.299 422.894 235.301 422.788 235.301C422.474 235.301 422.165 235.285 421.86 235.257C421.518 235.225 421.182 235.174 420.852 235.108C419.387 234.81 418.041 234.181 416.897 233.302C416.552 233.037 416.226 232.75 415.922 232.442C415.862 232.383 415.803 232.322 415.746 232.26C415.529 232.03 415.323 231.791 415.131 231.541C413.865 229.905 413.113 227.853 413.113 225.625C413.113 220.281 417.444 215.949 422.789 215.949C428.13 215.949 432.463 220.281 432.463 225.625Z" fill="#EEF0F7"/>
<path d="M429.088 230.964L428.375 233.525C427.101 234.427 425.6 235.03 423.975 235.228C423.688 235.263 423.398 235.286 423.104 235.295C422.999 235.298 422.893 235.3 422.787 235.3C422.473 235.3 422.164 235.284 421.859 235.256C421.517 235.224 421.181 235.173 420.851 235.107C419.386 234.809 418.04 234.18 416.896 233.301C416.759 232.455 416.613 231.518 416.484 230.642C417.195 230.376 419.459 229.607 420.887 229.124C420.907 229.117 420.926 229.11 420.946 229.104C420.978 229.092 421.009 229.082 421.039 229.072C421.124 229.044 421.205 229.016 421.281 228.99C421.359 228.964 421.434 228.938 421.504 228.915C421.797 228.816 422.003 228.747 422.076 228.723L422.078 228.722C422.096 228.716 422.107 228.712 422.107 228.712L422.123 228.713L424.044 228.856L424.366 228.88L424.467 228.888C424.467 228.888 424.482 228.892 424.511 228.899C424.626 228.929 424.963 229.017 425.409 229.153L425.411 229.154C426.548 229.503 428.393 230.164 429.088 230.964Z" fill="#D9C7C1"/>
<path d="M423.291 220.82C423.291 220.82 425.594 221.21 425.203 224.816C424.812 228.422 422.779 228.103 422.642 228.099C422.507 228.093 420.597 228.142 420.497 223.732C420.497 223.732 420.468 220.473 423.291 220.82Z" fill="#EEA987"/>
<path d="M424.299 227.054C424.299 227.054 424.22 228.538 424.359 228.862C424.5 229.185 422.509 230.207 421.273 229.043C421.273 229.043 421.523 227.42 421.445 226.848C421.368 226.273 424.299 227.054 424.299 227.054Z" fill="#EEA987"/>
<path d="M425.25 223.798C425.25 223.798 425.506 223.53 425.596 223.805C425.685 224.079 425.188 225.295 425.218 225.35C425.218 225.35 425.171 225.455 425.112 225.396C425.051 225.337 425.25 223.798 425.25 223.798Z" fill="#EEA987"/>
<path d="M420.524 223.699C420.524 223.699 420.28 223.422 420.179 223.692C420.078 223.963 420.447 225.176 420.493 225.251C420.493 225.251 420.572 225.376 420.635 225.319C420.697 225.263 420.524 223.699 420.524 223.699Z" fill="#EEA987"/>
<path d="M425.398 223.49C425.318 223.983 425.244 224.349 425.244 224.349L424.909 224.787C424.909 224.787 424.929 223.819 424.877 223.667C424.859 223.609 424.835 223.507 424.812 223.397C424.774 223.214 424.735 223.009 424.708 222.94C424.665 222.831 422.733 222.267 421.014 223.058C421.014 223.058 421.028 223.207 421.028 223.373C421.027 223.566 421.006 223.782 420.917 223.815C420.753 223.876 420.821 224.948 420.821 224.948L420.553 224.638C420.553 224.638 420.475 224.079 420.399 223.434C420.399 223.434 420.399 223.432 420.399 223.429C420.382 223.279 420.364 223.124 420.346 222.971C420.308 222.324 420.372 221.147 421.215 220.455C421.784 220.212 422.694 220.005 424.208 220.469C424.208 220.469 424.556 220.492 424.653 220.586C425.595 221.626 425.398 223.49 425.398 223.49Z" fill="#E8734D"/>
<path d="M421.604 227.617C421.604 227.617 421.973 228.127 422.827 228.108C423.682 228.089 424.052 227.643 424.052 227.643C424.052 227.643 423.649 228.489 422.824 228.48C421.998 228.471 421.604 227.617 421.604 227.617Z" fill="#C78D71"/>
<path d="M421.039 229.074C421.039 229.074 421.656 230.149 422.828 230.25C423.571 230.314 424.215 229.373 424.517 228.91C424.517 228.91 422.852 228.198 421.039 229.074Z" fill="#EEA987"/>
<path d="M424.302 228.569C424.302 228.569 423.831 229.185 422.828 229.846L423.452 230.807L424.517 228.909L424.302 228.569Z" fill="#EDDAD3"/>
<path d="M421.322 228.713C421.322 228.713 421.922 229.464 422.829 229.847L422.144 230.837L420.947 229.105L421.322 228.713Z" fill="#EDDAD3"/>
<path d="M422.829 229.848L423.364 230.661C423.364 230.661 422.803 230.978 422.28 230.64L422.829 229.848Z" fill="#5073AB"/>
<path d="M429.707 230.813C429.698 230.845 429.123 232.913 429.113 232.945C429.003 233.042 428.889 233.135 428.774 233.226C428.643 233.329 428.51 233.427 428.376 233.525C427.102 234.427 425.601 235.03 423.976 235.228C424.119 231.878 424.517 228.909 424.517 228.909C424.83 228.991 425.127 229.073 425.409 229.154L425.411 229.155C426.437 229.449 428.788 230.209 429.707 230.813Z" fill="#323657"/>
<path d="M420.852 235.107C419.387 234.809 418.041 234.18 416.897 233.301C416.552 233.036 416.226 232.749 415.922 232.441C415.862 232.382 415.803 232.321 415.746 232.259C415.576 231.54 415.464 231.07 415.456 231.04V231.038C415.456 231.038 416.652 230.251 420.889 229.121C420.889 229.121 420.889 229.122 420.889 229.124C420.888 229.222 420.89 231.938 420.852 235.107Z" fill="#323657"/>
<path d="M423.134 230.75C423.095 231.631 423.091 233.343 423.104 235.296C422.999 235.299 422.893 235.301 422.787 235.301C422.473 235.301 422.164 235.285 421.859 235.257C422.046 232.849 422.359 231.343 422.502 230.747C422.549 230.552 422.577 230.454 422.577 230.454L423.145 230.548C423.141 230.609 423.137 230.677 423.134 230.75Z" fill="#5073AB"/>
<path d="M430.195 231.849C429.863 232.243 429.502 232.61 429.113 232.945C429.003 233.042 428.889 233.135 428.774 233.226C428.774 233.224 429.707 230.813 429.707 230.813C429.95 230.952 430.088 231.593 430.195 231.849Z" fill="#323657"/>
<path d="M415.921 232.441C415.861 232.382 415.802 232.321 415.745 232.259C415.528 232.029 415.322 231.79 415.13 231.54C415.239 231.279 415.348 231.104 415.455 231.038V231.04L415.921 232.441Z" fill="#323657"/>
<path d="M381.249 211.777C380.594 211.777 380.062 211.246 380.062 210.589V194.172C380.062 193.517 380.594 192.985 381.249 192.985C381.905 192.985 382.437 193.516 382.437 194.172V210.589C382.437 211.246 381.906 211.777 381.249 211.777Z" fill="#949494"/>
<path d="M389.458 203.568H373.04C372.384 203.568 371.854 203.037 371.854 202.381C371.854 201.726 372.383 201.194 373.04 201.194H389.458C390.114 201.194 390.644 201.725 390.644 202.381C390.645 203.037 390.115 203.568 389.458 203.568Z" fill="#949494"/>
</svg>
