<svg width="444" height="401" viewBox="0 0 444 401" fill="none" xmlns="http://www.w3.org/2000/svg">
<path d="M115.217 33.1909H0.945312V194.341H115.217V33.1909Z" fill="white"/>
<path d="M65.8827 52.23V46.3519H66.5713L70.4592 51.1803H70.0981V46.3519H70.9379V52.23H70.2493L66.3613 47.4015H66.7224V52.23H65.8827ZM75.3508 52.2972C74.903 52.2972 74.4859 52.2216 74.0996 52.0704C73.719 51.9193 73.3887 51.7093 73.1088 51.4406C72.8289 51.1663 72.6105 50.8472 72.4538 50.4833C72.297 50.1195 72.2187 49.722 72.2187 49.2909C72.2187 48.8599 72.297 48.4624 72.4538 48.0985C72.6105 47.7346 72.8289 47.4183 73.1088 47.1496C73.3887 46.8753 73.719 46.6626 74.0996 46.5114C74.4803 46.3603 74.8974 46.2847 75.3508 46.2847C75.7987 46.2847 76.2102 46.3603 76.5852 46.5114C76.9659 46.657 77.2962 46.8669 77.5761 47.1412C77.8616 47.4099 78.08 47.7262 78.2311 48.0901C78.3879 48.454 78.4662 48.8543 78.4662 49.2909C78.4662 49.7276 78.3879 50.1279 78.2311 50.4917C78.08 50.8556 77.8616 51.1747 77.5761 51.449C77.2962 51.7177 76.9659 51.9277 76.5852 52.0788C76.2102 52.2244 75.7987 52.2972 75.3508 52.2972ZM75.3508 51.5498C75.6755 51.5498 75.975 51.4938 76.2494 51.3819C76.5293 51.2699 76.77 51.1131 76.9715 50.9116C77.1787 50.7045 77.3382 50.4637 77.4502 50.1894C77.5677 49.9151 77.6265 49.6156 77.6265 49.2909C77.6265 48.9662 77.5677 48.6667 77.4502 48.3924C77.3382 48.1181 77.1787 47.8802 76.9715 47.6786C76.77 47.4715 76.5293 47.312 76.2494 47.2C75.975 47.088 75.6755 47.0321 75.3508 47.0321C75.0206 47.0321 74.7154 47.088 74.4355 47.2C74.1612 47.312 73.9205 47.4715 73.7134 47.6786C73.5062 47.8802 73.3439 48.1181 73.2263 48.3924C73.1144 48.6667 73.0584 48.9662 73.0584 49.2909C73.0584 49.6156 73.1144 49.9151 73.2263 50.1894C73.3439 50.4637 73.5062 50.7045 73.7134 50.9116C73.9205 51.1131 74.1612 51.2699 74.4355 51.3819C74.7154 51.4938 75.0206 51.5498 75.3508 51.5498ZM82.7606 52.2972C82.4135 52.2972 82.0888 52.2244 81.7865 52.0788C81.4842 51.9333 81.2379 51.7233 81.0476 51.449L81.5346 50.878C81.697 51.1019 81.8789 51.2755 82.0804 51.3986C82.2876 51.5162 82.5143 51.575 82.7606 51.575C83.4324 51.575 83.7683 51.1775 83.7683 50.3826V47.0824H81.6438V46.3519H84.5996V50.3406C84.5996 50.9956 84.4429 51.4854 84.1294 51.8101C83.8215 52.1348 83.3652 52.2972 82.7606 52.2972ZM88.9637 52.2972C88.5158 52.2972 88.0987 52.2216 87.7125 52.0704C87.3318 51.9193 87.0015 51.7093 86.7216 51.4406C86.4417 51.1663 86.2233 50.8472 86.0666 50.4833C85.9098 50.1195 85.8315 49.722 85.8315 49.2909C85.8315 48.8599 85.9098 48.4624 86.0666 48.0985C86.2233 47.7346 86.4417 47.4183 86.7216 47.1496C87.0015 46.8753 87.3318 46.6626 87.7125 46.5114C88.0931 46.3603 88.5102 46.2847 88.9637 46.2847C89.4115 46.2847 89.823 46.3603 90.1981 46.5114C90.5787 46.657 90.909 46.8669 91.1889 47.1412C91.4744 47.4099 91.6928 47.7262 91.8439 48.0901C92.0007 48.454 92.0791 48.8543 92.0791 49.2909C92.0791 49.7276 92.0007 50.1279 91.8439 50.4917C91.6928 50.8556 91.4744 51.1747 91.1889 51.449C90.909 51.7177 90.5787 51.9277 90.1981 52.0788C89.823 52.2244 89.4115 52.2972 88.9637 52.2972ZM88.9637 51.5498C89.2884 51.5498 89.5879 51.4938 89.8622 51.3819C90.1421 51.2699 90.3828 51.1131 90.5843 50.9116C90.7915 50.7045 90.951 50.4637 91.063 50.1894C91.1805 49.9151 91.2393 49.6156 91.2393 49.2909C91.2393 48.9662 91.1805 48.6667 91.063 48.3924C90.951 48.1181 90.7915 47.8802 90.5843 47.6786C90.3828 47.4715 90.1421 47.312 89.8622 47.2C89.5879 47.088 89.2884 47.0321 88.9637 47.0321C88.6334 47.0321 88.3283 47.088 88.0483 47.2C87.774 47.312 87.5333 47.4715 87.3262 47.6786C87.119 47.8802 86.9567 48.1181 86.8391 48.3924C86.7272 48.6667 86.6712 48.9662 86.6712 49.2909C86.6712 49.6156 86.7272 49.9151 86.8391 50.1894C86.9567 50.4637 87.119 50.7045 87.3262 50.9116C87.5333 51.1131 87.774 51.2699 88.0483 51.3819C88.3283 51.4938 88.6334 51.5498 88.9637 51.5498ZM93.3625 52.23V46.3519H95.9993C96.6767 46.3519 97.1973 46.489 97.5612 46.7633C97.9251 47.0321 98.107 47.4015 98.107 47.8718C98.107 48.1909 98.0342 48.4596 97.8887 48.6779C97.7487 48.8963 97.5584 49.0642 97.3177 49.1818C97.0769 49.2993 96.8166 49.3581 96.5367 49.3581L96.6879 49.1062C97.0238 49.1062 97.3205 49.165 97.578 49.2825C97.8355 49.4001 98.0398 49.5736 98.191 49.8032C98.3421 50.0271 98.4177 50.307 98.4177 50.6429C98.4177 51.1467 98.2274 51.5386 97.8467 51.8185C97.4716 52.0928 96.9118 52.23 96.1672 52.23H93.3625ZM94.2023 51.5498H96.1336C96.5983 51.5498 96.9538 51.4714 97.2001 51.3147C97.4464 51.1579 97.5696 50.9116 97.5696 50.5757C97.5696 50.2342 97.4464 49.9851 97.2001 49.8284C96.9538 49.6716 96.5983 49.5932 96.1336 49.5932H94.1267V48.913H95.9237C96.3492 48.913 96.6795 48.8347 96.9146 48.6779C97.1497 48.5212 97.2673 48.286 97.2673 47.9725C97.2673 47.6591 97.1497 47.4239 96.9146 47.2672C96.6795 47.1104 96.3492 47.0321 95.9237 47.0321H94.2023V51.5498ZM101.431 52.2972C100.983 52.2972 100.555 52.23 100.146 52.0956C99.7375 51.9557 99.4156 51.7765 99.1805 51.5582L99.4912 50.9032C99.7151 51.0991 100.001 51.2615 100.348 51.3903C100.695 51.519 101.056 51.5834 101.431 51.5834C101.772 51.5834 102.05 51.5442 102.262 51.4658C102.475 51.3875 102.632 51.2811 102.733 51.1467C102.833 51.0068 102.884 50.85 102.884 50.6765C102.884 50.4749 102.817 50.3126 102.682 50.1894C102.553 50.0663 102.383 49.9683 102.17 49.8955C101.963 49.8172 101.733 49.75 101.481 49.694C101.229 49.638 100.975 49.5736 100.717 49.5009C100.465 49.4225 100.233 49.3245 100.02 49.207C99.8131 49.0894 99.6451 48.9326 99.5164 48.7367C99.3876 48.5352 99.3232 48.2777 99.3232 47.9642C99.3232 47.6618 99.4016 47.3847 99.5584 47.1328C99.7207 46.8753 99.967 46.671 100.297 46.5198C100.633 46.3631 101.059 46.2847 101.574 46.2847C101.915 46.2847 102.254 46.3295 102.59 46.419C102.926 46.5086 103.217 46.6374 103.463 46.8053L103.186 47.4771C102.934 47.3092 102.668 47.1888 102.388 47.116C102.108 47.0376 101.837 46.9985 101.574 46.9985C101.243 46.9985 100.972 47.0404 100.759 47.1244C100.546 47.2084 100.39 47.3204 100.289 47.4603C100.194 47.6003 100.146 47.757 100.146 47.9306C100.146 48.1377 100.211 48.3028 100.339 48.426C100.474 48.5492 100.644 48.6471 100.852 48.7199C101.064 48.7927 101.297 48.8599 101.549 48.9214C101.8 48.9774 102.052 49.0418 102.304 49.1146C102.562 49.1874 102.794 49.2825 103.001 49.4001C103.214 49.5177 103.385 49.6744 103.513 49.8703C103.642 50.0663 103.707 50.3182 103.707 50.6261C103.707 50.9228 103.625 51.1999 103.463 51.4574C103.301 51.7093 103.049 51.9137 102.707 52.0704C102.371 52.2216 101.946 52.2972 101.431 52.2972Z" fill="#6D6D6D"/>
<path d="M53.8484 66.5811H8.20996V115.422H53.8484V66.5811Z" fill="#E8E8E8"/>
<path d="M107.953 66.5811H62.3145V115.422H107.953V66.5811Z" fill="#E8E8E8"/>
<path d="M107.952 123.858H8.20996V125.108H107.952V123.858Z" fill="#E8E8E8"/>
<path d="M107.952 132.918H8.20996V134.168H107.952V132.918Z" fill="#E8E8E8"/>
<path d="M107.952 141.978H8.20996V143.227H107.952V141.978Z" fill="#E8E8E8"/>
<path d="M107.952 151.038H8.20996V152.287H107.952V151.038Z" fill="#E8E8E8"/>
<path d="M107.952 160.098H8.20996V161.347H107.952V160.098Z" fill="#E8E8E8"/>
<path d="M107.952 169.158H8.20996V170.407H107.952V169.158Z" fill="#E8E8E8"/>
<path d="M443.054 71.7134H328.783V162.286H443.054V71.7134Z" fill="white"/>
<path d="M339.884 90.7524V84.8743H340.572L344.46 89.7028H344.099V84.8743H344.939V90.7524H344.25L340.362 85.924H340.723V90.7524H339.884ZM349.352 90.8196C348.904 90.8196 348.487 90.744 348.101 90.5929C347.72 90.4417 347.39 90.2318 347.11 89.9631C346.83 89.6888 346.612 89.3697 346.455 89.0058C346.298 88.6419 346.22 88.2444 346.22 87.8134C346.22 87.3823 346.298 86.9849 346.455 86.621C346.612 86.2571 346.83 85.9408 347.11 85.6721C347.39 85.3978 347.72 85.185 348.101 85.0339C348.481 84.8827 348.898 84.8072 349.352 84.8072C349.8 84.8072 350.211 84.8827 350.586 85.0339C350.967 85.1794 351.297 85.3894 351.577 85.6637C351.863 85.9324 352.081 86.2487 352.232 86.6126C352.389 86.9765 352.467 87.3767 352.467 87.8134C352.467 88.25 352.389 88.6503 352.232 89.0142C352.081 89.3781 351.863 89.6972 351.577 89.9715C351.297 90.2402 350.967 90.4501 350.586 90.6013C350.211 90.7468 349.8 90.8196 349.352 90.8196ZM349.352 90.0723C349.677 90.0723 349.976 90.0163 350.25 89.9043C350.53 89.7924 350.771 89.6356 350.973 89.4341C351.18 89.2269 351.339 88.9862 351.451 88.7119C351.569 88.4376 351.627 88.1381 351.627 87.8134C351.627 87.4887 351.569 87.1892 351.451 86.9149C351.339 86.6406 351.18 86.4026 350.973 86.2011C350.771 85.994 350.53 85.8344 350.25 85.7225C349.976 85.6105 349.677 85.5545 349.352 85.5545C349.022 85.5545 348.716 85.6105 348.437 85.7225C348.162 85.8344 347.921 85.994 347.714 86.2011C347.507 86.4026 347.345 86.6406 347.227 86.9149C347.115 87.1892 347.059 87.4887 347.059 87.8134C347.059 88.1381 347.115 88.4376 347.227 88.7119C347.345 88.9862 347.507 89.2269 347.714 89.4341C347.921 89.6356 348.162 89.7924 348.437 89.9043C348.716 90.0163 349.022 90.0723 349.352 90.0723ZM356.762 90.8196C356.414 90.8196 356.09 90.7468 355.787 90.6013C355.485 90.4557 355.239 90.2458 355.049 89.9715L355.536 89.4005C355.698 89.6244 355.88 89.7979 356.081 89.9211C356.289 90.0387 356.515 90.0975 356.762 90.0975C357.433 90.0975 357.769 89.7 357.769 88.905V85.6049H355.645V84.8743H358.601V88.863C358.601 89.518 358.444 90.0079 358.13 90.3326C357.822 90.6573 357.366 90.8196 356.762 90.8196ZM362.965 90.8196C362.517 90.8196 362.1 90.744 361.713 90.5929C361.333 90.4417 361.002 90.2318 360.723 89.9631C360.443 89.6888 360.224 89.3697 360.068 89.0058C359.911 88.6419 359.832 88.2444 359.832 87.8134C359.832 87.3823 359.911 86.9849 360.068 86.621C360.224 86.2571 360.443 85.9408 360.723 85.6721C361.002 85.3978 361.333 85.185 361.713 85.0339C362.094 84.8827 362.511 84.8072 362.965 84.8072C363.412 84.8072 363.824 84.8827 364.199 85.0339C364.58 85.1794 364.91 85.3894 365.19 85.6637C365.475 85.9324 365.694 86.2487 365.845 86.6126C366.002 86.9765 366.08 87.3767 366.08 87.8134C366.08 88.25 366.002 88.6503 365.845 89.0142C365.694 89.3781 365.475 89.6972 365.19 89.9715C364.91 90.2402 364.58 90.4501 364.199 90.6013C363.824 90.7468 363.412 90.8196 362.965 90.8196ZM362.965 90.0723C363.289 90.0723 363.589 90.0163 363.863 89.9043C364.143 89.7924 364.384 89.6356 364.585 89.4341C364.792 89.2269 364.952 88.9862 365.064 88.7119C365.182 88.4376 365.24 88.1381 365.24 87.8134C365.24 87.4887 365.182 87.1892 365.064 86.9149C364.952 86.6406 364.792 86.4026 364.585 86.2011C364.384 85.994 364.143 85.8344 363.863 85.7225C363.589 85.6105 363.289 85.5545 362.965 85.5545C362.634 85.5545 362.329 85.6105 362.049 85.7225C361.775 85.8344 361.534 85.994 361.327 86.2011C361.12 86.4026 360.958 86.6406 360.84 86.9149C360.728 87.1892 360.672 87.4887 360.672 87.8134C360.672 88.1381 360.728 88.4376 360.84 88.7119C360.958 88.9862 361.12 89.2269 361.327 89.4341C361.534 89.6356 361.775 89.7924 362.049 89.9043C362.329 90.0163 362.634 90.0723 362.965 90.0723ZM367.364 90.7524V84.8743H370C370.678 84.8743 371.198 85.0115 371.562 85.2858C371.926 85.5545 372.108 85.924 372.108 86.3942C372.108 86.7133 372.035 86.9821 371.89 87.2004C371.75 87.4187 371.559 87.5867 371.319 87.7042C371.078 87.8218 370.818 87.8806 370.538 87.8806L370.689 87.6286C371.025 87.6286 371.321 87.6874 371.579 87.805C371.836 87.9226 372.041 88.0961 372.192 88.3256C372.343 88.5495 372.419 88.8295 372.419 89.1654C372.419 89.6692 372.228 90.0611 371.848 90.341C371.473 90.6153 370.913 90.7524 370.168 90.7524H367.364ZM368.203 90.0723H370.135C370.599 90.0723 370.955 89.9939 371.201 89.8371C371.447 89.6804 371.571 89.4341 371.571 89.0982C371.571 88.7567 371.447 88.5076 371.201 88.3508C370.955 88.1941 370.599 88.1157 370.135 88.1157H368.128V87.4355H369.925C370.35 87.4355 370.68 87.3571 370.916 87.2004C371.151 87.0436 371.268 86.8085 371.268 86.495C371.268 86.1815 371.151 85.9464 370.916 85.7896C370.68 85.6329 370.35 85.5545 369.925 85.5545H368.203V90.0723ZM375.432 90.8196C374.984 90.8196 374.556 90.7524 374.147 90.6181C373.738 90.4781 373.417 90.299 373.181 90.0807L373.492 89.4257C373.716 89.6216 374.002 89.784 374.349 89.9127C374.696 90.0415 375.057 90.1058 375.432 90.1058C375.773 90.1058 376.051 90.0667 376.263 89.9883C376.476 89.9099 376.633 89.8035 376.734 89.6692C376.834 89.5292 376.885 89.3725 376.885 89.1989C376.885 88.9974 376.817 88.8351 376.683 88.7119C376.554 88.5887 376.384 88.4908 376.171 88.418C375.964 88.3396 375.734 88.2724 375.482 88.2165C375.23 88.1605 374.976 88.0961 374.718 88.0233C374.466 87.9449 374.234 87.847 374.021 87.7294C373.814 87.6119 373.646 87.4551 373.517 87.2592C373.389 87.0576 373.324 86.8001 373.324 86.4866C373.324 86.1843 373.403 85.9072 373.559 85.6553C373.722 85.3978 373.968 85.1934 374.298 85.0423C374.634 84.8855 375.06 84.8072 375.575 84.8072C375.916 84.8072 376.255 84.8519 376.591 84.9415C376.927 85.0311 377.218 85.1598 377.464 85.3278L377.187 85.9996C376.935 85.8316 376.669 85.7113 376.389 85.6385C376.109 85.5601 375.838 85.5209 375.575 85.5209C375.244 85.5209 374.973 85.5629 374.76 85.6469C374.547 85.7309 374.391 85.8428 374.29 85.9828C374.195 86.1227 374.147 86.2795 374.147 86.453C374.147 86.6602 374.212 86.8253 374.34 86.9485C374.475 87.0716 374.645 87.1696 374.853 87.2424C375.065 87.3151 375.298 87.3823 375.549 87.4439C375.801 87.4999 376.053 87.5643 376.305 87.637C376.563 87.7098 376.795 87.805 377.002 87.9226C377.215 88.0401 377.386 88.1969 377.514 88.3928C377.643 88.5887 377.708 88.8407 377.708 89.1486C377.708 89.4453 377.626 89.7224 377.464 89.9799C377.302 90.2318 377.05 90.4361 376.708 90.5929C376.372 90.744 375.947 90.8196 375.432 90.8196Z" fill="#6D6D6D"/>
<path d="M435.788 103.389H336.047V104.638H435.788V103.389Z" fill="#E8E8E8"/>
<path d="M435.788 112.449H336.047V113.698H435.788V112.449Z" fill="#E8E8E8"/>
<path d="M435.788 121.509H336.047V122.758H435.788V121.509Z" fill="#E8E8E8"/>
<path d="M435.788 130.569H336.047V131.818H435.788V130.569Z" fill="#E8E8E8"/>
<path d="M435.788 139.629H336.047V140.878H435.788V139.629Z" fill="#E8E8E8"/>
<path d="M435.788 148.688H336.047V149.938H435.788V148.688Z" fill="#E8E8E8"/>
<path d="M232.402 381.684C230.296 381.948 228.295 380.075 227.955 377.522C219.982 317.621 212.011 257.72 204.038 197.819C203.698 195.266 205.8 192.879 208.708 192.516C211.617 192.151 214.242 193.946 214.542 196.503C221.589 256.52 228.637 316.537 235.684 376.554C235.986 379.111 234.508 381.42 232.402 381.684Z" fill="#B7B7B7"/>
<path d="M347.853 390.497C346.292 390.763 344.726 389.365 344.373 387.39C336.104 341.036 327.835 294.683 319.566 248.329C319.213 246.354 320.689 244.436 322.845 244.068C325.002 243.7 327.03 245.018 327.354 246.998C334.937 293.47 342.521 339.94 350.103 386.411C350.427 388.391 349.415 390.229 347.853 390.497Z" fill="#CCCCCC"/>
<path d="M312.616 376.05C311.043 376.235 309.553 374.757 309.304 372.766C303.481 326.041 297.657 279.318 291.832 232.594C291.584 230.603 293.158 228.766 295.332 228.511C297.504 228.257 299.461 229.68 299.679 231.675C304.813 278.479 309.945 325.284 315.079 372.089C315.298 374.083 314.19 375.865 312.616 376.05Z" fill="#B7B7B7"/>
<path d="M272.328 394.422C270.756 394.224 269.663 392.432 269.898 390.44C275.423 343.68 280.946 296.92 286.471 250.16C286.706 248.167 288.674 246.761 290.845 247.033C293.016 247.306 294.575 249.156 294.31 251.144C288.095 297.818 281.881 344.491 275.666 391.165C275.402 393.154 273.9 394.619 272.328 394.422Z" fill="#CCCCCC"/>
<path d="M237.812 381.912C236.269 381.554 235.367 379.659 235.807 377.7C246.136 331.762 256.466 285.824 266.795 239.885C267.236 237.928 269.339 236.732 271.469 237.227C273.599 237.723 274.959 239.724 274.49 241.676C263.483 287.457 252.476 333.237 241.469 379.018C241 380.969 239.355 382.271 237.812 381.912Z" fill="#B7B7B7"/>
<path d="M262.72 271.624C262.72 271.624 309.825 273.628 331.873 265.61C353.922 257.593 357.43 165.889 357.43 150.355C357.43 134.821 315.838 138.443 283.767 146.404C274.746 187.938 262.72 271.624 262.72 271.624Z" fill="#FFE8BB"/>
<path d="M257.223 259.581C257.223 259.581 305.063 266.112 327.112 258.094C349.161 250.077 350.163 165.889 350.163 150.354C350.163 134.82 308.571 138.442 276.499 146.403C267.48 187.938 257.223 259.581 257.223 259.581Z" fill="#F2C17C"/>
<path d="M293.797 367.921L297.556 377.86L285.947 381.451L282.104 371.513L293.797 367.921Z" fill="#F9C0AF"/>
<path d="M284.906 378.761C284.906 378.761 256.994 387.966 255.491 391.139C253.987 394.313 256.994 394.897 268.603 394.145C280.212 393.394 299.475 392.725 302.065 391.723C304.655 390.721 301.538 378.046 296.832 375.948C292.711 378.444 288.543 379.745 284.906 378.761Z" fill="#080062"/>
<path d="M201.433 360.391L196.959 370.112L183.209 372.998L187.895 354.642L201.433 360.391Z" fill="#F9C0AF"/>
<path d="M184.279 370.36C184.279 370.36 155.929 378.112 154.265 381.204C152.599 384.295 155.571 385.035 167.204 384.883C178.837 384.732 198.109 385.059 200.747 384.191C203.384 383.323 202.064 371.332 197.473 368.994C193.227 371.274 187.86 371.53 184.279 370.36Z" fill="#080062"/>
<path d="M270.245 202.554C270.245 202.554 227.817 228.277 208.775 256.341C200.423 272.376 184.695 361.354 184.695 361.354L200.423 364.914C200.423 364.914 221.803 322.487 226.481 295.092C231.157 267.699 240.846 270.371 257.215 261.684C273.584 252.999 307.326 222.263 307.326 222.263L270.245 202.554Z" fill="#37474F"/>
<path d="M327.538 209.236C327.538 209.236 333.301 232.036 320.022 247.32C306.742 262.605 271.246 273.043 264.231 281.062C283.608 311.463 295.102 368.191 295.102 368.191L280.6 373.267C280.6 373.267 244.855 308.457 234.832 289.749C224.81 271.041 232.828 263.691 239.509 254.003C246.19 244.315 282.604 213.246 282.604 213.246L327.538 209.236Z" fill="#37474F"/>
<path d="M234.812 151.335C234.812 151.335 223.905 182.599 220.998 187.303C218.091 192.007 230.523 201.908 235.13 195.857C239.737 189.805 250.832 165.24 250.832 165.24L234.812 151.335Z" fill="#F9C0AF"/>
<path d="M229.582 158.673C229.582 158.673 238.138 135.205 246.977 128.675C255.816 122.144 265.182 132.83 263.094 141.919C261.006 151.008 251.541 169.322 251.541 169.322C251.541 169.322 233.228 159.858 229.582 158.673Z" fill="#BDCAFF"/>
<path d="M229.119 176.148C229.119 176.148 230.49 144.926 233.58 112.693C228.193 111.303 226.647 113.022 226.647 113.022C226.647 113.022 215.341 141.482 211.668 157.449C207.994 173.417 201.938 198.894 230.581 197.737C234.675 184.363 229.119 176.148 229.119 176.148Z" fill="#F9C0AF"/>
<path d="M220.559 99.0574C220.559 99.0574 219.582 105.375 222.389 115.38C225.196 125.383 228.928 134.015 237.833 131.252C246.738 128.49 249.162 120.867 248.655 109.563C248.146 98.2594 242.779 96.9262 236.625 95.917C230.47 94.9078 220.559 99.0574 220.559 99.0574Z" fill="#FCCCBB"/>
<path d="M216.111 98.9436C216.111 98.9436 223.429 102.667 233.983 100.687C239.225 100.513 240.923 101.798 241.482 105.092C242.041 108.388 244.062 110.885 244.464 112.508C245.51 113.07 246.185 112.171 246.185 112.171C246.185 112.171 244.412 109.199 245.881 106.699C247.35 104.2 248.241 106.237 248.749 108.352C249.255 110.465 249.373 113.592 250.2 115.109C250.957 116.497 254.437 119.246 255.093 119.118C255.95 110.441 259.703 104.122 256.867 93.102C254.031 82.0824 245.857 84.708 245.857 84.708C245.857 84.708 238.449 75.0252 228.944 79.9476C219.439 84.87 211.682 91.0908 208.899 90.7836C210.125 95.3112 216.111 98.9436 216.111 98.9436Z" fill="#080062"/>
<path d="M255.879 118.702C255.879 118.702 296.971 121.04 315.344 149.771C333.718 178.501 333.718 216.252 333.718 216.252C333.718 216.252 288.985 236.592 256.245 211.871C259.586 184.477 261.224 168.145 250.2 158.458C239.175 148.768 245.188 119.035 255.879 118.702Z" fill="#7C3AED"/>
<path d="M239.175 127.471C239.175 127.471 246.692 133.318 247.109 134.821C250.45 134.404 255.456 126.302 255.959 123.044C256.463 119.788 255.093 119.119 255.093 119.119C255.093 119.119 248.488 111.352 248.717 107.677C246.358 110.851 239.175 127.471 239.175 127.471Z" fill="#F9C0AF"/>
<path d="M252.377 150.902C252.377 150.902 245.188 183.224 242.85 188.236C240.512 193.247 254.014 201.631 257.884 195.084C261.754 188.537 269.91 162.846 269.91 162.846L252.377 150.902Z" fill="#F7D8CB"/>
<path d="M247.623 163.43C247.623 163.43 253.874 135.115 261.892 127.6C269.909 120.084 280.457 129.605 279.443 138.876C278.429 148.146 270.675 171.449 270.675 171.449C270.675 171.449 251.381 164.183 247.623 163.43Z" fill="#7C3AED"/>
<path d="M248.86 175.816C248.86 175.816 249.096 144.54 247.113 121.75C247.563 119.857 249.034 114.517 251.908 111.526C255.444 107.844 256.839 102.281 256.866 99.2101C256.893 96.1381 253.77 95.0832 253.488 98.3784C253.296 103.006 250.486 105.888 250.486 105.888C250.486 105.888 250.078 106.162 250.102 102.126C250.125 98.0904 249.465 91.0561 247.384 87.9625C245.303 84.8689 242.555 85.4065 243.6 87.7669C245.688 91.6441 246.23 98.49 245.777 100.95C245.798 99.3852 245.114 94.7989 243.906 91.8649C242.699 88.9309 240.206 86.5933 238.082 85.9273C235.958 85.2613 235.652 87.4104 236.583 88.0752C237.514 88.7412 239.368 89.7697 240.327 91.6429C241.284 93.5161 242.307 98.8872 241.632 100.846C241.312 95.7768 238.04 91.3068 236.332 89.826C234.624 88.3452 232.354 87.468 231.54 88.2156C230.727 88.9644 231.154 90.3588 232.367 90.8424C236.159 92.9868 238.478 99.0888 237.894 101.179C237.112 96.7068 233.308 92.9545 232.091 92.5513C230.873 92.1481 229.259 93.444 230.823 94.6752C232.386 95.9052 235.565 98.8128 234.882 104.149C234.363 108.215 236.066 111.612 236.912 113.012C235.983 120.463 232.926 144.49 230.513 157.998C227.632 174.126 222.838 199.872 251.388 197.305C254.814 183.748 248.86 175.816 248.86 175.816Z" fill="#F7D8CB"/>
<path d="M90.3427 381.342C92.3971 381.876 94.6291 380.257 95.3023 377.746C111.103 318.792 126.903 259.839 142.702 200.884C143.375 198.372 141.605 195.713 138.769 194.976C135.932 194.239 133.091 195.7 132.457 198.221C117.559 257.41 102.661 316.597 87.7615 375.786C87.1267 378.309 88.2883 380.808 90.3427 381.342Z" fill="#B7B7B7"/>
<path d="M273.579 400.1C271.488 400.458 269.389 398.585 268.917 395.937C257.836 333.824 246.757 271.711 235.676 209.598C235.204 206.951 237.182 204.381 240.07 203.888C242.96 203.395 245.678 205.163 246.111 207.816C256.273 270.086 266.434 332.355 276.596 394.626C277.028 397.279 275.671 399.743 273.579 400.1Z" fill="#CCCCCC"/>
<path d="M126.849 400.1C128.941 400.458 131.039 398.585 131.511 395.937C142.592 333.824 153.671 271.711 164.752 209.598C165.224 206.951 163.246 204.381 160.358 203.888C157.468 203.395 154.75 205.163 154.317 207.816C144.155 270.086 133.994 332.355 123.832 394.626C123.4 397.279 124.757 399.743 126.849 400.1Z" fill="#CCCCCC"/>
<path d="M271.592 207.899H115.066C112.126 207.899 109.721 205.494 109.721 202.554C109.721 199.614 112.126 197.209 115.066 197.209H271.591C274.531 197.209 276.936 199.614 276.936 202.554C276.937 205.494 274.531 207.899 271.592 207.899Z" fill="#080062"/>
<path d="M194.937 191.835H120.474C119.169 191.835 118.037 190.929 117.753 189.655L104.011 138.516C103.621 136.773 107.409 135.822 109.194 135.822H183.657C184.962 135.822 186.094 136.728 186.378 138.002L197.658 188.438C198.047 190.181 196.722 191.835 194.937 191.835Z" fill="#E2E2E2"/>
<path d="M191.596 191.835H117.134C115.828 191.835 114.698 190.946 114.412 189.695L103.132 140.161C102.742 138.45 104.068 136.824 105.854 136.824H180.316C181.622 136.824 182.753 137.713 183.038 138.965L194.318 188.498C194.708 190.211 193.382 191.835 191.596 191.835Z" fill="#D8D8D8"/>
<path d="M246.177 197.209H117.084C115.607 197.209 114.397 196.001 114.397 194.522C114.397 193.045 115.607 191.835 117.084 191.835H246.177C247.654 191.835 248.863 193.045 248.863 194.522C248.863 195.999 247.654 197.209 246.177 197.209Z" fill="#CCCCCC"/>
<path d="M193.655 197.209H116.487C115.337 197.209 114.397 196.268 114.397 195.12V193.926C114.397 192.776 115.338 191.836 116.487 191.836H193.655C194.805 191.836 195.744 192.777 195.744 193.926V195.12C195.745 196.268 194.805 197.209 193.655 197.209Z" fill="#C1C1C1"/>
<path d="M312.396 0H253.008C248.033 0 244 4.0332 244 9.0084V35.928V39.666V67.482L266.058 39.666H312.396C317.372 39.666 321.405 35.6328 321.405 30.6576V9.0084C321.405 4.0332 317.372 0 312.396 0Z" fill="white"/>
<path d="M315.156 9.76318H250.589V11.0124H315.156V9.76318Z" fill="#E8E8E8"/>
<path d="M315.156 16.0117H250.589V17.2609H315.156V16.0117Z" fill="#E8E8E8"/>
<path d="M315.156 22.2598H250.589V23.509H315.156V22.2598Z" fill="#E8E8E8"/>
<path d="M315.156 28.5083H250.589V29.7575H315.156V28.5083Z" fill="#E8E8E8"/>
<path d="M84.6936 257.176C87.7496 238.345 74.9621 220.603 56.1318 217.547C37.3015 214.491 19.5592 227.279 16.5032 246.109C13.4471 264.939 26.2347 282.682 45.0649 285.738C63.8952 288.794 81.6376 276.006 84.6936 257.176Z" fill="#FFE8BB"/>
<path d="M57.2896 226.469H43.96V259.169H57.2896V226.469Z" fill="white"/>
<path d="M56.6642 269.062C56.6642 272.398 53.9594 275.103 50.6246 275.103C47.2886 275.103 44.585 272.398 44.585 269.062C44.585 265.726 47.2898 263.022 50.6246 263.022C53.9606 263.021 56.6642 265.726 56.6642 269.062Z" fill="white"/>
</svg>
