<svg width="345" height="115" viewBox="0 0 345 115" fill="none" xmlns="http://www.w3.org/2000/svg">
<path d="M120.52 39.528L121.224 39.656V73H111.656V30.76H124.712L141.832 64.04L141.128 64.168V30.76H150.696V73H137.576L120.52 39.528ZM165.682 61.928C165.746 62.8667 166.045 63.6987 166.578 64.424C167.111 65.1493 167.847 65.7253 168.786 66.152C169.746 66.5573 170.877 66.76 172.178 66.76C173.415 66.76 174.525 66.632 175.506 66.376C176.509 66.12 177.373 65.8 178.098 65.416C178.845 65.032 179.421 64.6373 179.826 64.232L183.602 70.248C183.069 70.824 182.311 71.3893 181.33 71.944C180.37 72.4773 179.101 72.9147 177.522 73.256C175.943 73.5973 173.949 73.768 171.538 73.768C168.637 73.768 166.055 73.224 163.794 72.136C161.533 71.048 159.751 69.448 158.45 67.336C157.149 65.224 156.498 62.6427 156.498 59.592C156.498 57.032 157.053 54.728 158.162 52.68C159.293 50.6107 160.925 48.9787 163.058 47.784C165.191 46.568 167.762 45.96 170.77 45.96C173.629 45.96 176.103 46.4827 178.194 47.528C180.306 48.5733 181.927 50.1307 183.058 52.2C184.21 54.248 184.786 56.808 184.786 59.88C184.786 60.0507 184.775 60.392 184.754 60.904C184.754 61.416 184.733 61.7573 184.69 61.928H165.682ZM175.634 56.84C175.613 56.1573 175.431 55.4853 175.09 54.824C174.749 54.1413 174.237 53.5867 173.554 53.16C172.871 52.712 171.997 52.488 170.93 52.488C169.863 52.488 168.957 52.7013 168.21 53.128C167.485 53.5333 166.93 54.0667 166.546 54.728C166.162 55.3893 165.949 56.0933 165.906 56.84H175.634ZM210.037 57.768L203.925 73H194.997L186.293 46.728H196.629L200.821 62.6L206.869 47.24H213.269L219.221 62.6L223.445 46.728H233.781L225.109 73H216.213L210.037 57.768ZM245.139 51.848C245.139 54.2587 245.63 56.4453 246.611 58.408C247.614 60.3493 248.99 61.896 250.739 63.048C252.51 64.2 254.558 64.776 256.883 64.776C259.208 64.776 261.246 64.2 262.995 63.048C264.766 61.896 266.142 60.3493 267.123 58.408C268.126 56.4453 268.627 54.2587 268.627 51.848C268.627 49.4373 268.126 47.2613 267.123 45.32C266.142 43.3787 264.766 41.832 262.995 40.68C261.246 39.5067 259.208 38.92 256.883 38.92C254.558 38.92 252.51 39.5067 250.739 40.68C248.99 41.832 247.614 43.3787 246.611 45.32C245.63 47.2613 245.139 49.4373 245.139 51.848ZM235.187 51.848C235.187 48.776 235.731 45.9173 236.819 43.272C237.907 40.6053 239.432 38.28 241.395 36.296C243.358 34.312 245.662 32.7653 248.307 31.656C250.952 30.5467 253.811 29.992 256.883 29.992C259.998 29.992 262.867 30.5467 265.491 31.656C268.136 32.7653 270.43 34.312 272.371 36.296C274.334 38.28 275.848 40.6053 276.915 43.272C278.003 45.9173 278.547 48.776 278.547 51.848C278.547 54.9413 278.024 57.8213 276.979 60.488C275.934 63.1333 274.44 65.4587 272.499 67.464C270.558 69.448 268.264 70.9947 265.619 72.104C262.974 73.2133 260.062 73.768 256.883 73.768C253.64 73.768 250.686 73.2133 248.019 72.104C245.374 70.9947 243.091 69.448 241.171 67.464C239.251 65.4587 237.768 63.1333 236.723 60.488C235.699 57.8213 235.187 54.9413 235.187 51.848ZM304.287 57.768L298.175 73H289.247L280.543 46.728H290.879L295.071 62.6L301.119 47.24H307.519L313.471 62.6L317.695 46.728H328.031L319.359 73H310.463L304.287 57.768ZM340.541 73H330.781V28.968H340.541V73Z" fill="white"/>
<path d="M6 78.5058L42.5 115L79 78.5058V42L61.6853 59.3175V71.4081L42.5 90.5965L23.3147 71.4081V59.3175L6 42V78.5058Z" fill="url(#paint0_linear_17_9)"/>
<path d="M42.5 67L85 24.2857V0L42.5 42.503L0 0V24.2857L42.5 67Z" fill="url(#paint1_linear_17_9)"/>
<defs>
<linearGradient id="paint0_linear_17_9" x1="42.5" y1="42" x2="42.5" y2="115" gradientUnits="userSpaceOnUse">
<stop stop-color="#3D25BF"/>
<stop offset="1" stop-color="#9F74CE"/>
</linearGradient>
<linearGradient id="paint1_linear_17_9" x1="42.5" y1="0" x2="42.5" y2="67" gradientUnits="userSpaceOnUse">
<stop stop-color="#3D25BF"/>
<stop offset="1" stop-color="#9F74CE"/>
</linearGradient>
</defs>
</svg>
