<svg width="70" height="70" viewBox="0 0 70 70" fill="none" xmlns="http://www.w3.org/2000/svg">
<circle cx="35" cy="35" r="35" fill="url(#paint0_linear_11119_16112)"/>
<path fill-rule="evenodd" clip-rule="evenodd" d="M44.9153 23.8473C46.1716 24.7848 46.3812 25.5806 46.5261 26.1278C46.6028 26.4223 46.6488 26.5931 47.046 26.5931C47.2386 26.5931 47.4073 26.5709 47.5488 26.5292C47.7602 26.4681 47.9153 26.3598 48.0158 26.214C48.1318 26.0487 48.188 25.8292 48.188 25.5695C48.188 25.2251 48.0874 24.8167 47.8931 24.3654C47.871 24.3251 47.8607 24.2792 47.8607 24.232C47.8607 24.0445 48.0482 23.8917 48.2783 23.8917H50.4721C50.6834 23.8917 50.8761 23.8209 51.0175 23.707C51.1573 23.5931 51.2442 23.4362 51.2442 23.2626L51.2425 20.6931C51.2425 20.4084 51.0993 20.1487 50.8675 19.9598C50.6357 19.7709 50.3187 19.6542 49.9675 19.6542H48.2749C47.5471 19.6542 46.9658 19.7195 46.4289 19.8431C45.9261 19.9598 45.4471 20.1306 44.9118 20.3487L44.9135 23.8473H44.9153ZM44.8147 19.6322C45.2835 19.4488 45.7284 19.3002 46.2056 19.1905C46.8176 19.0488 47.4687 18.9752 48.2767 18.9752H49.9693C50.5505 18.9752 51.0773 19.1683 51.4591 19.4794C51.8409 19.7905 52.0778 20.221 52.0778 20.6933V23.2628C52.0778 23.6225 51.8972 23.9503 51.6057 24.1878C51.3142 24.4253 50.9137 24.5725 50.4704 24.5725H48.8426C48.9602 24.9308 49.0182 25.2655 49.0182 25.5711C49.0182 25.9489 48.9261 26.2808 48.7386 26.5503C48.5375 26.8405 48.2341 27.053 47.8233 27.1711C47.5965 27.2364 47.3358 27.2711 47.0426 27.2711C45.9721 27.2725 45.8749 26.903 45.7079 26.2697C45.5971 25.8489 45.4403 25.2503 44.5914 24.5405C44.3937 24.7016 44.121 24.8003 43.8193 24.8003H41.7892C41.4875 24.8003 41.2147 24.7003 41.0153 24.5391C40.8176 24.378 40.6949 24.1544 40.6949 23.9086L40.6966 20.0032C40.6966 19.7573 40.8193 19.5351 41.017 19.3726C41.2148 19.2115 41.4892 19.1115 41.7909 19.1115H43.821C44.1227 19.1115 44.3954 19.2115 44.5948 19.3726C44.6852 19.4476 44.7602 19.5349 44.8147 19.6322ZM21.0465 20.596H19.0164C18.9448 20.596 18.8817 20.6197 18.834 20.6585C18.7862 20.6974 18.7573 20.7502 18.7573 20.8072V24.7126C18.7573 24.7709 18.7862 24.8223 18.834 24.8612C18.8817 24.9001 18.9465 24.9237 19.0164 24.9237H21.0465C21.118 24.9237 21.1828 24.9001 21.2288 24.8612C21.2766 24.8223 21.3055 24.7695 21.3055 24.7126V20.8072C21.3055 20.7488 21.2766 20.6974 21.2288 20.6585C21.1828 20.6197 21.118 20.596 21.0465 20.596ZM21.8186 20.1766C22.6675 19.4669 22.826 18.8683 22.9351 18.4474C23.1021 17.8127 23.1993 17.4446 24.2697 17.446C24.5629 17.446 24.8237 17.4808 25.0504 17.546C25.4595 17.6641 25.7629 17.878 25.9658 18.1669C26.1533 18.4363 26.2453 18.7696 26.2453 19.146C26.2453 19.4502 26.1857 19.7863 26.0698 20.1446H27.6976C28.1391 20.1446 28.5414 20.2919 28.8329 20.5294C29.1243 20.7669 29.305 21.0932 29.305 21.4544V24.0238C29.305 24.4974 29.0681 24.9266 28.6863 25.2377C28.3044 25.5488 27.776 25.7419 27.1965 25.7419H25.5039C24.6976 25.7419 24.0465 25.6669 23.4345 25.5266C22.9572 25.4169 22.5124 25.2683 22.0436 25.085C21.9891 25.1822 21.9141 25.2697 21.822 25.3433C21.6243 25.5044 21.3499 25.6044 21.0482 25.6044H19.0181C18.7164 25.6044 18.4437 25.5044 18.2442 25.3433C18.0465 25.1822 17.9238 24.9586 17.9238 24.7128L17.9221 20.8073C17.9221 20.5615 18.0448 20.3393 18.2425 20.1768C18.4403 20.0157 18.7147 19.9157 19.0164 19.9157H21.0465C21.3482 19.9157 21.6209 20.0155 21.8186 20.1766ZM22.1408 24.3668C22.6743 24.5849 23.1532 24.7557 23.6578 24.8724C24.1948 24.996 24.7743 25.0613 25.5022 25.0613H27.1948C27.5442 25.0613 27.8629 24.9446 28.0948 24.7557C28.3249 24.5682 28.4698 24.3085 28.4698 24.0224V21.4529C28.4698 21.2807 28.3828 21.1238 28.2431 21.0099C28.1033 20.896 27.9107 20.8251 27.6976 20.8251H25.5039C25.2738 20.8251 25.0863 20.6724 25.0863 20.4849C25.0863 20.4376 25.0982 20.3932 25.1186 20.3515C25.313 19.9002 25.4135 19.4904 25.4135 19.1474C25.4135 18.8876 25.3573 18.6682 25.2414 18.5029C25.1391 18.3571 24.984 18.2488 24.7743 18.1876C24.6312 18.146 24.4641 18.1238 24.2715 18.1238C23.8744 18.1238 23.83 18.2946 23.7516 18.589C23.6084 19.1363 23.3988 19.9321 22.1408 20.8696L22.1408 24.3668ZM45.532 48.2516C45.4468 46.478 44.7036 44.8419 43.4934 43.5032C42.1741 42.0434 40.3008 40.9351 38.1257 40.3865C37.9058 40.3323 37.7831 40.1421 37.8495 39.9629C37.8853 39.8712 37.9637 39.799 38.0626 39.7587C39.0734 39.3087 39.9188 38.6449 40.5052 37.8421C41.0729 37.0643 41.4001 36.1532 41.4001 35.1768C41.4001 33.7365 40.6842 32.4323 39.5251 31.4893C38.3678 30.5463 36.7672 29.9615 34.9996 29.9615C33.232 29.9615 31.6314 30.5449 30.4741 31.4893C29.3167 32.4324 28.5991 33.7365 28.5991 35.1768C28.5991 36.1518 28.9246 37.0629 29.4939 37.8421C30.0837 38.649 30.9326 39.3157 31.9502 39.7657C32.1513 39.856 32.2263 40.0615 32.1172 40.2254C32.0627 40.306 31.9741 40.3615 31.8735 40.3879C29.7002 40.9366 27.8269 42.0449 26.5058 43.5046C25.2956 44.8435 24.5524 46.4782 24.4671 48.253L45.532 48.2516ZM51.7637 16.4155C52.5495 16.4155 53.262 16.678 53.7802 17.0989C54.2984 17.5211 54.6189 18.1016 54.6189 18.7419V26.4891C54.6189 27.1294 54.2967 27.71 53.7802 28.1322C53.262 28.5544 52.5495 28.8155 51.7637 28.8155H50.2331C50.1274 28.8155 50.0319 28.8475 49.9586 28.9002L46.3484 31.2169C46.328 31.2294 46.3075 31.2377 46.2888 31.2391C46.2683 31.2405 46.2444 31.2377 46.2223 31.228C46.1984 31.2183 46.1814 31.2072 46.1711 31.1933C46.1609 31.1808 46.1558 31.1627 46.1558 31.1405V29.1558C46.1558 28.9683 45.9683 28.8155 45.7382 28.8155H41.0098C40.2239 28.8155 39.5115 28.553 38.9933 28.1322C38.4751 27.71 38.1546 27.128 38.1546 26.4891L38.1529 18.7434C38.1529 18.1031 38.4751 17.5225 38.9916 17.1003C39.5097 16.6781 40.2239 16.417 41.008 16.417H51.7635L51.7637 16.4155ZM28.9895 16.4155C29.7753 16.4155 30.4878 16.678 31.006 17.0989C31.5241 17.5211 31.8446 18.1016 31.8446 18.7419V26.4891C31.8446 27.1294 31.5224 27.71 31.006 28.1322C30.4878 28.5544 29.7753 28.8155 28.9895 28.8155H24.261C24.0309 28.8155 23.8434 28.9683 23.8434 29.1558V31.1405C23.8434 31.1627 23.8383 31.1808 23.8281 31.1933C23.8179 31.2058 23.8008 31.2183 23.777 31.228C23.7531 31.2377 23.7309 31.2405 23.7105 31.2391C23.6917 31.2377 23.6713 31.2294 23.6508 31.2169L20.0406 28.9002C19.9673 28.8475 19.8719 28.8155 19.7662 28.8155H18.2355C17.4497 28.8155 16.7372 28.553 16.219 28.1322C15.7008 27.71 15.3804 27.128 15.3804 26.4891V18.7433C15.3804 18.1031 15.7025 17.5225 16.219 17.1003C16.7372 16.6781 17.4514 16.4169 18.2355 16.4169H28.9897L28.9895 16.4155ZM41.7906 24.1197H43.8207C43.8923 24.1197 43.9571 24.0961 44.0031 24.0572C44.0509 24.0183 44.0798 23.9655 44.0798 23.9086V20.0032C44.0798 19.9448 44.0509 19.8935 44.0031 19.8546C43.9554 19.8157 43.8906 19.7921 43.8207 19.7921H41.7906C41.7191 19.7921 41.656 19.8157 41.6083 19.8546C41.5605 19.8934 41.5316 19.9462 41.5316 20.0032V23.9086C41.5316 23.9669 41.5605 24.0197 41.6083 24.0572C41.6543 24.0961 41.7191 24.1197 41.7906 24.1197Z" fill="url(#paint1_linear_11119_16112)"/>
<defs>
<linearGradient id="paint0_linear_11119_16112" x1="-2.25556" y1="-4.1" x2="92.2034" y2="55.3431" gradientUnits="userSpaceOnUse">
<stop/>
<stop offset="0.436386" stop-color="#191423"/>
<stop offset="1" stop-color="#3B275E"/>
</linearGradient>
<linearGradient id="paint1_linear_11119_16112" x1="53.6562" y1="16.4155" x2="24.614" y2="53.8987" gradientUnits="userSpaceOnUse">
<stop stop-color="#CC94FA"/>
<stop offset="0.33" stop-color="#9D6EF2"/>
<stop offset="0.68" stop-color="#704AEC"/>
<stop offset="1" stop-color="#3D21E4"/>
</linearGradient>
</defs>
</svg>
