<svg width="70" height="70" viewBox="0 0 70 70" fill="none" xmlns="http://www.w3.org/2000/svg">
<circle cx="35" cy="35" r="35" fill="url(#paint0_linear_11119_16115)"/>
<path d="M37.122 25.8569C37.122 29.7598 41.0186 32.9332 45.8065 32.9332C50.5965 32.9332 54.491 29.7582 54.491 25.8569C54.491 21.954 50.5944 18.7778 45.8065 18.7778C41.0166 18.7778 37.122 21.9528 37.122 25.8569ZM40.543 25.9402C40.8243 25.7166 41.2743 25.7222 41.5487 25.9513L43.6555 27.7194L48.9805 23.5374C49.2634 23.3152 49.7134 23.3221 49.9862 23.5527C50.2589 23.7832 50.2504 24.1499 49.9674 24.3721L44.1328 28.9541C43.9947 29.0625 43.8174 29.1166 43.6402 29.1166C43.4544 29.1166 43.2703 29.0583 43.1305 28.9416L40.5294 26.7611C40.2549 26.5319 40.2618 26.1653 40.543 25.9416L40.543 25.9402ZM50.7976 33.0151C49.3248 33.6998 47.6203 34.0915 45.8064 34.0915C43.9926 34.0915 42.29 33.6998 40.8171 33.0151C38.4955 34.3429 37.1216 36.4831 37.1216 38.8081C37.1216 42.7111 41.0182 45.8844 45.8061 45.8844C50.5961 45.8844 54.4906 42.7094 54.4906 38.8081C54.4906 36.4831 53.1168 34.3427 50.7969 33.0151H50.7976ZM49.6538 41.0247C49.9368 41.2469 49.9453 41.6136 49.6726 41.8441C49.5328 41.9622 49.347 42.0219 49.1612 42.0219C48.9839 42.0219 48.8066 41.9677 48.6686 41.8594L45.8066 39.6136L42.9447 41.8594C42.8066 41.9677 42.6294 42.0219 42.4521 42.0219C42.2663 42.0219 42.0788 41.9622 41.9407 41.8441C41.668 41.6136 41.6765 41.2469 41.9595 41.0247L44.7822 38.8094L41.9595 36.5941C41.6765 36.3719 41.668 36.0052 41.9407 35.7747C42.2135 35.5441 42.6634 35.5372 42.9464 35.7594L45.8084 38.0052L48.6703 35.7594C48.9532 35.5372 49.4032 35.5441 49.676 35.7747C49.9487 36.0052 49.9402 36.3719 49.6572 36.5941L46.8345 38.8094L49.6572 41.0247H49.6538ZM35.6989 38.8094C35.6989 36.2525 37.1273 33.8871 39.5648 32.3301C37.2126 30.8204 35.6989 28.4801 35.6989 25.8565C35.6989 21.4483 39.9705 17.8369 45.3159 17.6286V16.9397C45.3159 16.1592 44.5387 15.5244 43.5824 15.5244H24.7542V20.9385C24.7542 22.1079 23.5865 23.0607 22.1496 23.0607L15.5068 23.0593V47.726C15.5068 48.5065 16.2858 49.1413 17.2438 49.1413H43.584C44.5402 49.1413 45.3175 48.5065 45.3175 47.726V47.0343C39.9703 46.826 35.7005 43.2164 35.7005 38.8092L35.6989 38.8094ZM23.1875 28.8023H32.4772C32.8693 28.8023 33.188 29.062 33.188 29.3814C33.188 29.7009 32.8693 29.9606 32.4772 29.9606H23.1892C22.7972 29.9606 22.4784 29.7009 22.4784 29.3814C22.4784 29.062 22.7972 28.8023 23.1892 28.8023H23.1875ZM23.1875 35.7022H32.9393C33.3314 35.7022 33.6501 35.9619 33.6501 36.2814C33.6501 36.6008 33.3314 36.8605 32.9393 36.8605H23.1892C22.7972 36.8605 22.4784 36.6008 22.4784 36.2814C22.4784 35.9619 22.7972 35.7022 23.1892 35.7022H23.1875ZM33.113 43.7605H23.1892C22.7972 43.7605 22.4784 43.5008 22.4784 43.1813C22.4784 42.8619 22.7972 42.6022 23.1892 42.6022H33.1148C33.5068 42.6022 33.8256 42.8619 33.8256 43.1813C33.8256 43.5008 33.5068 43.7605 33.1148 43.7605H33.113ZM34.3914 23.059H29.31C28.9179 23.059 28.5992 22.7993 28.5992 22.4798C28.5992 22.1604 28.9179 21.9007 29.31 21.9007H34.3914C34.7835 21.9007 35.1022 22.1604 35.1022 22.4798C35.1022 22.7993 34.7835 23.059 34.3914 23.059ZM22.1493 21.9007H16.5123L23.3322 16.3437V20.9382C23.3322 21.4687 22.8021 21.902 22.1493 21.902L22.1493 21.9007Z" fill="url(#paint1_linear_11119_16115)"/>
<defs>
<linearGradient id="paint0_linear_11119_16115" x1="-2.25556" y1="-4.1" x2="92.2034" y2="55.3431" gradientUnits="userSpaceOnUse">
<stop/>
<stop offset="0.436386" stop-color="#191423"/>
<stop offset="1" stop-color="#3B275E"/>
</linearGradient>
<linearGradient id="paint1_linear_11119_16115" x1="53.5346" y1="15.5244" x2="22.454" y2="53.2689" gradientUnits="userSpaceOnUse">
<stop stop-color="#CC94FA"/>
<stop offset="0.33" stop-color="#9D6EF2"/>
<stop offset="0.68" stop-color="#704AEC"/>
<stop offset="1" stop-color="#3D21E4"/>
</linearGradient>
</defs>
</svg>
