<svg width="70" height="70" viewBox="0 0 70 70" fill="none" xmlns="http://www.w3.org/2000/svg">
<circle cx="35" cy="35" r="35" fill="url(#paint0_linear_60_173)"/>
<path d="M33 35C30.8 35 28.9167 34.2167 27.35 32.65C25.7833 31.0833 25 29.2 25 27C25 24.8 25.7833 22.9167 27.35 21.35C28.9167 19.7833 30.8 19 33 19C35.2 19 37.0833 19.7833 38.65 21.35C40.2167 22.9167 41 24.8 41 27C41 29.2 40.2167 31.0833 38.65 32.65C37.0833 34.2167 35.2 35 33 35ZM53.8 56.6L48.8 51.6C48.1 52 47.35 52.3333 46.55 52.6C45.75 52.8667 44.9 53 44 53C41.5 53 39.3753 52.1253 37.626 50.376C35.8767 48.6267 35.0013 46.5013 35 44C34.9987 41.4987 35.874 39.374 37.626 37.626C39.378 35.878 41.5027 35.0027 44 35C46.4973 34.9973 48.6227 35.8727 50.376 37.626C52.1293 39.3793 53.004 41.504 53 44C53 44.9 52.8667 45.75 52.6 46.55C52.3333 47.35 52 48.1 51.6 48.8L56.6 53.8C56.9667 54.1667 57.15 54.6333 57.15 55.2C57.15 55.7667 56.9667 56.2333 56.6 56.6C56.2333 56.9667 55.7667 57.15 55.2 57.15C54.6333 57.15 54.1667 56.9667 53.8 56.6ZM44 49C45.4 49 46.5833 48.5167 47.55 47.55C48.5167 46.5833 49 45.4 49 44C49 42.6 48.5167 41.4167 47.55 40.45C46.5833 39.4833 45.4 39 44 39C42.6 39 41.4167 39.4833 40.45 40.45C39.4833 41.4167 39 42.6 39 44C39 45.4 39.4833 46.5833 40.45 47.55C41.4167 48.5167 42.6 49 44 49ZM21 51C19.9 51 18.9587 50.6087 18.176 49.826C17.3933 49.0433 17.0013 48.1013 17 47V45.45C17 44.3167 17.2833 43.2667 17.85 42.3C18.4167 41.3333 19.2 40.6 20.2 40.1C21.7 39.3333 23.3587 38.6753 25.176 38.126C26.9933 37.5767 28.9847 37.218 31.15 37.05C31.55 37.0167 31.85 37.1833 32.05 37.55C32.25 37.9167 32.2667 38.3 32.1 38.7C31.7333 39.5333 31.458 40.392 31.274 41.276C31.09 42.16 30.9987 43.0513 31 43.95C31 44.8167 31.0753 45.692 31.226 46.576C31.3767 47.46 31.6347 48.3013 32 49.1C32.2 49.5667 32.1833 50 31.95 50.4C31.7167 50.8 31.3667 51 30.9 51H21Z" fill="url(#paint1_linear_60_173)"/>
<defs>
<linearGradient id="paint0_linear_60_173" x1="-2.25556" y1="-4.1" x2="92.2034" y2="55.3431" gradientUnits="userSpaceOnUse">
<stop/>
<stop offset="0.436386" stop-color="#191423"/>
<stop offset="1" stop-color="#3B275E"/>
</linearGradient>
<linearGradient id="paint1_linear_60_173" x1="56.1649" y1="19" x2="20.3948" y2="58.4225" gradientUnits="userSpaceOnUse">
<stop stop-color="#CC94FA"/>
<stop offset="0.33" stop-color="#9D6EF2"/>
<stop offset="0.68" stop-color="#704AEC"/>
<stop offset="1" stop-color="#3D21E4"/>
</linearGradient>
</defs>
</svg>
