<svg width="70" height="70" viewBox="0 0 70 70" fill="none" xmlns="http://www.w3.org/2000/svg">
<circle cx="35" cy="35" r="35" fill="url(#paint0_linear_11119_16116)"/>
<path d="M35 12.5C30.5 12.5 27.5 15.5 27.5 18.5C27.5 23 29 26 30.5 27.5V29H39.5V27.5C41 26 42.5 23 42.5 18.5C42.5 15.5 39.5 12.5 35 12.5ZM29.0375 18.6247L35 20.6094L40.9625 18.6247L37.2875 27.8094L35.7125 27.1906L38.0375 21.3781L35 22.3906L31.9625 21.3781L34.2875 27.1906L32.7125 27.8094L29.0375 18.6247ZM21.2281 26.0375C19.0344 26.3187 17.0469 28.8969 17.0469 32.2156C17.0469 34.0531 17.6844 35.675 18.6125 36.8L19.7281 38.1312L18.0125 38.45C16.8031 38.6844 15.9219 39.3219 15.1625 40.3625C14.4031 41.4031 13.8219 42.8469 13.4187 44.525C12.6875 47.5438 12.5188 51.2375 12.5 54.5H16.5125L16.7225 57.3125H26.9L27.0875 54.5H30.9125C30.9125 51.2 30.875 47.4594 30.2094 44.4031C29.8344 42.725 29.2812 41.2812 28.5125 40.25C27.7438 39.2188 26.8156 38.5812 25.4562 38.375L23.7219 38.1031L24.8187 36.725C25.7094 35.6094 26.3094 34.0063 26.3094 32.2156C26.3094 28.6719 24.0969 26.0469 21.6781 26.0469L21.2281 26.0375ZM47.8156 26.0375C45.6219 26.3187 43.6344 28.8969 43.6344 32.2156C43.6344 34.0531 44.2719 35.675 45.2 36.8L46.3156 38.1312L44.6 38.45C43.3906 38.6844 42.5094 39.3219 41.75 40.3625C40.9906 41.4031 40.4094 42.8469 40.0062 44.525C39.275 47.5438 39.1063 51.2375 39.0875 54.5H43.1L43.3063 57.3125H53.4875L53.675 54.5H57.5C57.5 51.2 57.4625 47.4594 56.7969 44.4031C56.4219 42.725 55.8687 41.2812 55.1 40.25C54.3312 39.2188 53.4031 38.5812 52.0437 38.375L50.3094 38.1031L51.4062 36.725C52.2969 35.6094 52.8969 34.0063 52.8969 32.2156C52.8969 28.6719 50.6844 26.0469 48.2656 26.0469L47.8156 26.0375ZM30.5 30.5938V32.2812H39.5V30.5938H30.5ZM32 33.7812V35.4688H38V33.7812H32Z" fill="url(#paint1_linear_11119_16116)"/>
<defs>
<linearGradient id="paint0_linear_11119_16116" x1="-2.25556" y1="-4.1" x2="92.2034" y2="55.3431" gradientUnits="userSpaceOnUse">
<stop/>
<stop offset="0.436386" stop-color="#191423"/>
<stop offset="1" stop-color="#3B275E"/>
</linearGradient>
<linearGradient id="paint1_linear_11119_16116" x1="56.3959" y1="12.5" x2="14.2336" y2="56.8375" gradientUnits="userSpaceOnUse">
<stop stop-color="#CC94FA"/>
<stop offset="0.33" stop-color="#9D6EF2"/>
<stop offset="0.68" stop-color="#704AEC"/>
<stop offset="1" stop-color="#3D21E4"/>
</linearGradient>
</defs>
</svg>
