<svg width="70" height="70" viewBox="0 0 70 70" fill="none" xmlns="http://www.w3.org/2000/svg">
<circle cx="35" cy="35" r="35" fill="url(#paint0_linear_11119_16107)"/>
<g clip-path="url(#clip0_11119_16107)">
<path d="M56.3337 49.6665C56.3337 50.3737 56.0527 51.052 55.5526 51.5521C55.0525 52.0522 54.3742 52.3332 53.667 52.3332H16.3337C15.6264 52.3332 14.9481 52.0522 14.448 51.5521C13.9479 51.052 13.667 50.3737 13.667 49.6665V20.3332C13.667 19.6259 13.9479 18.9476 14.448 18.4476C14.9481 17.9475 15.6264 17.6665 16.3337 17.6665H40.2777L34.5003 27.5265C33.3937 29.1345 34.459 31.3265 36.419 31.4678C36.5114 31.4758 36.603 31.4785 36.6937 31.4758H47.603L40.8403 40.4132L31.8403 26.9998L23.3737 39.3732L20.0003 36.3865L18.227 38.3732L23.867 43.3732L31.8137 31.7465L40.707 44.9998L50.9457 31.4758H56.3337V49.6665Z" fill="url(#paint1_linear_11119_16107)"/>
<path d="M46.8057 12.5254L39.179 25.6721C39.0016 25.9326 38.8997 26.237 38.8847 26.5518C38.8697 26.8666 38.9422 27.1794 39.0941 27.4555C39.2459 27.7316 39.4713 27.9603 39.7452 28.1162C40.019 28.2721 40.3307 28.3492 40.6457 28.3388H55.9124C56.2273 28.3492 56.539 28.2721 56.8129 28.1162C57.0868 27.9603 57.3121 27.7316 57.464 27.4555C57.6159 27.1794 57.6883 26.8666 57.6733 26.5518C57.6583 26.237 57.5565 25.9326 57.379 25.6721L49.7524 12.5254C49.602 12.2682 49.3868 12.0548 49.1283 11.9065C48.8699 11.7582 48.577 11.6802 48.279 11.6802C47.981 11.6802 47.6882 11.7582 47.4297 11.9065C47.1713 12.0548 46.9561 12.2682 46.8057 12.5254Z" fill="url(#paint2_linear_11119_16107)"/>
</g>
<defs>
<linearGradient id="paint0_linear_11119_16107" x1="-2.25556" y1="-4.1" x2="92.2034" y2="55.3431" gradientUnits="userSpaceOnUse">
<stop/>
<stop offset="0.436386" stop-color="#191423"/>
<stop offset="1" stop-color="#3B275E"/>
</linearGradient>
<linearGradient id="paint1_linear_11119_16107" x1="55.2868" y1="17.6665" x2="23.6531" y2="58.4384" gradientUnits="userSpaceOnUse">
<stop stop-color="#CC94FA"/>
<stop offset="0.33" stop-color="#9D6EF2"/>
<stop offset="0.68" stop-color="#704AEC"/>
<stop offset="1" stop-color="#3D21E4"/>
</linearGradient>
<linearGradient id="paint2_linear_11119_16107" x1="57.2142" y1="11.6802" x2="41.7354" y2="29.9651" gradientUnits="userSpaceOnUse">
<stop stop-color="#CC94FA"/>
<stop offset="0.33" stop-color="#9D6EF2"/>
<stop offset="0.68" stop-color="#704AEC"/>
<stop offset="1" stop-color="#3D21E4"/>
</linearGradient>
<clipPath id="clip0_11119_16107">
<rect width="48" height="48" fill="white" transform="translate(11 11)"/>
</clipPath>
</defs>
</svg>
