<svg width="393" height="399" viewBox="0 0 393 399" fill="none" xmlns="http://www.w3.org/2000/svg">
<path d="M106.972 148.974C106.972 148.974 103.847 110.167 115.569 84.2951C120.258 78.2083 123.385 80.4903 123.385 80.4903C123.385 80.4903 124.947 96.4697 121.04 111.688C117.132 126.907 114.788 156.583 114.788 156.583L106.972 148.974Z" fill="#61A27D"/>
<path d="M104.63 145.931C104.63 145.931 103.848 127.669 84.3096 111.689C64.7716 95.7098 60.8638 95.7098 60.8638 95.7098C60.8638 95.7098 76.4939 94.9484 87.4354 101.798C98.3768 108.646 102.285 127.669 103.067 130.713C103.849 133.757 108.537 145.932 108.537 145.932L104.63 145.931Z" fill="#578B71"/>
<path d="M117.306 148.729C117.306 148.729 120.968 130.802 142.801 117.943C164.634 105.085 168.495 105.671 168.495 105.671C168.495 105.671 153.171 102.574 141.277 107.7C129.382 112.826 122.512 131.036 121.257 133.925C120.004 136.815 113.444 148.141 113.444 148.141L117.306 148.729Z" fill="#578B71"/>
<path d="M108.536 145.931C108.536 145.931 88.2163 80.4915 70.2412 65.2724C71.0221 62.9893 92.1241 69.8374 98.3757 86.5783C104.628 103.318 106.191 128.429 108.536 135.278C110.881 142.126 114.007 148.214 114.007 148.214" fill="#7CC97D"/>
<path d="M106.976 148.974C106.976 148.974 114.791 113.211 135.111 101.036C136.674 105.601 114.01 142.887 116.354 159.627C118.698 176.367 106.976 148.974 106.976 148.974Z" fill="#7CC97D"/>
<path d="M95.8173 189.283H125.872C127.722 177.078 129.276 166.104 129.564 161.911C130.155 153.264 127.162 145.937 125.675 142.888H96.0145C94.5273 145.937 91.5345 153.264 92.1262 161.911C92.4129 166.104 93.9666 177.078 95.8173 189.283Z" fill="#A9A7E7"/>
<path d="M369.507 116.408H314.386V189.017H369.507V116.408Z" fill="#24ADB2"/>
<path d="M363.829 116.408H308.708V189.017H363.829V116.408Z" fill="#26C6DA"/>
<path d="M350.048 109.042H294.927V189.017H350.048V109.042Z" fill="#E1543C"/>
<path d="M344.377 109.042H281.15V189.017H344.377V109.042Z" fill="#FF634D"/>
<path d="M344.375 109.042H333.565V189.017H344.375V109.042Z" fill="#EB594D"/>
<path d="M28.7805 129.036C28.7805 129.036 20.1347 133.245 16.3518 145.347C12.569 157.448 33.1045 190.07 33.1045 188.492C33.1045 186.913 53.6401 177.968 53.6401 177.968L43.3729 141.137L28.7805 129.036Z" fill="#202F7C"/>
<path d="M244.75 192.901L233.332 163.523H204.79L216.207 192.901" fill="#4F57A0"/>
<path d="M141.187 169.347H303.472L306.31 154.526H144.025" fill="#E2E7FF"/>
<path d="M158.389 79.5226L144.027 154.525H306.311L320.34 81.2586C320.898 78.3459 318.602 75.6553 315.558 75.6553H163.169C160.828 75.6553 158.818 77.2808 158.389 79.5226Z" fill="#243FA7"/>
<path d="M238.322 182.309L281.284 151.135L239.132 148.767L199.413 178.757L238.322 182.309Z" fill="white"/>
<path d="M226.297 172.18L237.106 166.393C237.106 166.393 247.543 162.184 247.847 162.184C248.15 162.184 249.062 163.171 247.947 165.241C246.833 167.314 243.894 167.807 243.894 167.807L241.969 173.035L251.966 171.654L254.263 171.128C254.263 171.128 252.642 175.075 251.966 175.995C251.291 176.916 247.508 179.284 247.508 179.284C247.508 179.284 240.347 185.071 237.781 185.729C235.214 186.387 226.297 186.781 226.297 186.781L220.624 186.649L215.355 187.702C215.355 187.702 212.653 182.835 213.058 175.995L226.297 172.18Z" fill="#FF8D68"/>
<path d="M290.326 196.384L321.669 395.269H329.235L308.699 195.331L290.326 196.384Z" fill="#E2E7FF"/>
<path d="M354.092 196.384L385.435 395.269H393L372.465 195.331L354.092 196.384Z" fill="#E2E7FF"/>
<path d="M170.361 196.383L139.018 395.268H131.452L151.988 195.33L170.361 196.383Z" fill="#C2D3EB"/>
<path d="M106.596 196.383L75.2527 395.268H67.687L88.2226 195.33L106.596 196.383Z" fill="#C2D3EB"/>
<path d="M376.798 194.279H94.7095V203.75H376.798V194.279Z" fill="#A9A7E7"/>
<path d="M382.205 198.488H103.359C100.375 198.488 97.9551 196.133 97.9551 193.227C97.9551 190.32 100.375 187.965 103.359 187.965H382.205C385.189 187.965 387.609 190.32 387.609 193.227C387.609 196.133 385.189 198.488 382.205 198.488Z" fill="#FFC757"/>
<path d="M112.693 375.276C112.693 375.276 114.466 371.05 121.877 371.801C129.288 372.553 130.205 373.89 131.234 377.43C132.262 380.971 135.002 384.706 136.741 385.451C138.479 386.197 144.911 390.032 150.045 390.615C155.178 391.199 155.896 394.203 154.833 395.634C153.771 397.065 134.589 399.082 130.317 398.733C130.317 398.733 115.876 399.144 112.426 398.204C108.977 397.265 112.48 376.667 112.693 375.276Z" fill="#201360"/>
<path d="M114.662 344.978L112.438 377.958C112.438 377.958 117.718 379.614 121.737 382.481C127.675 386.717 132.539 381.587 132.539 381.587L133.878 360.836L114.662 344.978Z" fill="#FF8D68"/>
<path d="M157.67 286.882L135.784 378.432C135.784 378.432 124.435 380.011 110.655 373.697C110.655 373.697 122.814 287.672 123.625 282.147C124.435 276.622 156.049 282.147 157.67 286.882Z" fill="#202F7C"/>
<path d="M68.9466 50.026C68.9466 50.026 77.9319 51.656 83.8372 64.5396C89.7425 77.4231 88.3218 105.706 85.2109 109.223C82.1 112.741 71.8786 112.135 57.5167 108.527C42.3418 104.715 36.2988 90.0086 32.9689 80.2667C26.5901 61.6101 42.2145 40.9762 68.9466 50.026Z" fill="#FF8D68"/>
<path d="M43.9985 125.431L49.1665 101.329C49.1665 101.329 62.469 96.5995 71.5482 104.856L74.6373 108.525L75.6888 123.934C75.6888 123.934 61.7454 127.599 43.9985 125.431Z" fill="#FF8D68"/>
<path d="M43.7166 273.656C43.7166 273.656 72.6755 281.905 107.024 280.768C141.372 279.629 145.917 270.147 146.988 261.106C148.059 252.065 121.341 246.566 109.718 243.595C98.0959 240.624 58.3583 229.498 47.6118 240.783C36.8664 252.068 34.3667 265.944 43.7166 273.656Z" fill="#201360"/>
<path d="M192.946 375.276C192.946 375.276 194.719 371.05 202.13 371.801C209.541 372.553 210.458 373.89 211.487 377.43C212.515 380.971 215.255 384.706 216.994 385.451C218.733 386.197 225.164 390.032 230.298 390.615C235.431 391.199 236.149 394.203 235.086 395.634C234.023 397.065 214.842 399.082 210.571 398.733C210.571 398.733 196.13 399.144 192.679 398.204C189.229 397.265 192.732 376.667 192.946 375.276Z" fill="#201360"/>
<path d="M184.418 347.388L192.524 379.483C192.524 379.483 199.008 377.904 202.791 381.061C206.574 384.219 213.599 382.114 213.599 382.114L207.655 356.858L184.418 347.388Z" fill="#FF8D68"/>
<path d="M117.408 240.055C119.029 240.055 174.149 257.943 184.957 265.836C195.766 274.254 213.059 368.041 214.139 370.145C215.22 372.25 198.467 378.037 187.659 376.459C187.119 374.354 161.719 295.3 161.719 290.038C161.719 290.038 118.488 287.934 100.114 284.777C81.7407 281.619 69.3108 281.093 61.7452 261.626C54.1795 242.159 98.4923 240.581 98.4923 240.581L117.408 240.055Z" fill="#202F7C"/>
<path d="M211.708 170.865C211.708 170.865 222.246 170.602 223.057 171.655C223.868 172.707 227.651 182.178 224.138 186.123C221.166 188.228 221.166 188.228 221.166 188.228H211.979L211.708 170.865Z" fill="#E2E7FF"/>
<path d="M42.1577 121.933L44.9946 114.83C44.9946 114.83 62.0167 109.7 76.608 116.014C80.2556 119.565 82.2829 125.09 82.2829 125.09L42.1577 121.933Z" fill="#E2E7FF"/>
<path d="M38.5107 122.722C38.5107 122.722 40.6722 119.039 44.455 118.514C48.2379 117.988 65.5307 115.883 76.8792 119.039C81.2021 120.618 83.3636 122.722 83.3636 122.722C83.3636 122.722 99.5751 127.984 104.979 131.14C110.384 134.298 112.005 158.501 113.085 166.393C114.165 174.285 110.924 182.704 110.924 182.704C110.924 182.704 123.893 234.266 123.893 241.632C123.893 248.998 119.571 257.416 104.439 262.678C89.3079 267.94 48.2379 265.835 34.1867 257.416C29.8638 248.998 23.3782 149.029 22.2981 139.558C21.2179 130.089 38.5107 122.722 38.5107 122.722Z" fill="#202F7C"/>
<path d="M96.063 129.036C96.063 129.036 100.116 126.669 109.844 132.983C119.571 139.296 146.32 162.974 149.563 164.552C152.806 166.131 215.222 169.288 215.222 169.288C215.222 169.288 224.138 180.337 214.411 189.019C214.411 189.019 154.156 191.387 142.808 190.597C131.459 189.808 93.631 168.499 93.631 168.499C93.631 168.499 78.2301 146.399 96.063 129.036Z" fill="#202F7C"/>
<path d="M83.0669 163.86C83.0669 163.86 133.6 189.691 139.496 190.511C145.393 191.33 167.711 190.511 167.711 190.511" stroke="#1B2048" stroke-width="0.551545" stroke-miterlimit="10"/>
<path d="M151.291 170.421C151.291 170.421 152.976 179.442 147.079 184.771" stroke="#1B2048" stroke-width="0.551545" stroke-miterlimit="10"/>
<path d="M155.073 167.96C155.073 167.96 160.127 175.75 157.599 181.49" stroke="#1B2048" stroke-width="0.551545" stroke-miterlimit="10"/>
<path d="M82.6464 153.61C82.6464 153.61 78.4347 139.26 93.1739 129.829" stroke="#1B2048" stroke-width="0.551545" stroke-miterlimit="10"/>
<path d="M28.3219 140.079C28.3219 140.079 25.3735 165.5 25.3735 177.39" stroke="#1B2048" stroke-width="0.551545" stroke-miterlimit="10"/>
<path d="M43.4795 123.268C43.4795 123.268 62.8512 121.63 78.8529 123.268" stroke="#1B2048" stroke-width="0.551545" stroke-miterlimit="10"/>
<path d="M170.238 288.503C170.238 288.503 179.503 285.633 182.872 271.693" stroke="#1B2048" stroke-width="0.551545" stroke-miterlimit="10"/>
<path d="M176.554 289.734C176.554 289.734 182.029 288.094 184.556 280.713" stroke="#1B2048" stroke-width="0.551545" stroke-miterlimit="10"/>
<path d="M142.862 305.725L128.965 373.377" stroke="#1B2048" stroke-width="0.551545" stroke-miterlimit="10"/>
<path d="M81.8774 67.0816C81.8774 67.0816 83.4988 74.1843 77.0132 78.9202L77.418 86.8122C77.418 86.8122 79.8501 93.915 78.2287 94.7043C76.6073 95.4936 76.2025 94.309 76.2025 94.309C76.2025 94.309 70.9336 86.0218 69.3122 85.6277C67.6909 85.2325 72.9598 96.677 72.9598 96.677C72.9598 96.677 67.6909 104.569 57.9637 105.752L59.9899 102.99C59.9899 102.99 55.5317 105.752 48.6414 105.358C41.7511 104.963 36.4822 94.7043 36.4822 94.7043C36.4822 94.7043 37.6976 97.4663 36.4822 98.6508C35.2667 99.8343 28.3764 89.5743 27.9705 76.5523L25.9443 80.4988C25.9443 80.4988 26.3491 71.4223 29.9978 61.1623C33.6453 50.9023 49.858 43.4044 58.7744 43.4044C67.6909 43.4044 76.6073 44.1937 79.0394 43.4044C81.4715 42.6151 80.2548 49.3237 80.2548 49.3237C80.2548 49.3237 81.4703 46.5617 81.8762 44.1937C83.4976 43.0103 85.9297 52.481 85.119 56.0323C84.3083 59.5837 84.3083 59.5837 84.3083 59.5837C84.3083 59.5837 87.1451 56.0323 87.5511 54.0585C89.1724 53.6644 88.7677 62.3457 81.8774 67.0816Z" fill="#201360"/>
<path d="M75.9957 86.7421C75.9957 86.7421 74.3582 81.4592 69.8628 84.2368C65.3686 87.0145 71.7527 99.4538 75.5118 98.3809C79.2721 97.308 76.9843 88.7506 75.9957 86.7421Z" fill="#FF634D"/>
<path d="M240.484 178.231L251.968 175.995L254.265 171.127" stroke="#E66657" stroke-width="0.854718" stroke-miterlimit="10"/>
<path d="M251.562 176.258C251.562 176.258 245.753 180.994 244.943 181.388C244.132 181.783 240.484 182.703 240.484 182.703" stroke="#E66657" stroke-width="0.854718" stroke-miterlimit="10"/>
<path d="M74.1717 100.099C74.1717 100.099 72.5501 105.623 82.2782 108.78" stroke="#E66657" stroke-width="0.854718" stroke-miterlimit="10"/>
<path d="M295.736 141.664H209.273L220.08 86.9443H306.544L295.736 141.664Z" fill="#2E60BE"/>
<path d="M181.493 105.886C181.184 107.455 182.417 108.91 184.058 108.91H278.188C279.44 108.91 280.517 108.044 280.753 106.846L282.138 99.833H182.688L181.493 105.886Z" fill="#26C6F8"/>
<path d="M289.613 45.9717H195.483C194.231 45.9717 193.154 46.8369 192.918 48.0348L182.687 99.8338H282.137L292.178 48.9961C292.487 47.4264 291.254 45.9717 289.613 45.9717Z" fill="#CAE5FF"/>
<path d="M225.265 108.948C226.504 105.62 227.269 103.241 227.269 103.241C227.269 103.241 230.108 88.7922 217.462 92.4987C217.462 92.4987 213.075 95.7029 211.009 102.487C210.368 104.594 209.604 106.845 208.853 108.948H225.265Z" fill="#387AB6"/>
<path d="M251.46 108.948C251.227 101.824 250.773 96.1113 249.983 94.5717C247.66 90.4253 238.176 86.6562 238.176 86.6562L225.207 88.5408C225.207 88.5408 219.787 90.048 218.045 93.8181C217.46 95.0853 216.044 101.248 214.532 108.949L251.46 108.948Z" fill="#DCE4FF"/>
<path d="M227.422 78.1058C227.422 78.1058 226.638 83.7538 224.914 87.8757C224.914 87.8757 224.443 91.081 231.342 89.7078C238.24 88.3334 237.3 84.9752 237.3 84.9752V71.6953L227.422 78.1058Z" fill="#FF8D68"/>
<path d="M217.742 64.1426C217.742 64.1426 217.82 76.7705 221.542 82.8539C224.083 85.4128 232.746 81.3936 236.392 75.9644C240.037 70.5352 239.966 62.3675 237.081 57.8202C234.197 53.273 224.696 54.6407 221.912 56.2115C219.128 57.7812 217.585 62.123 217.742 64.1426Z" fill="#FF8D68"/>
<path d="M235.242 71.2749C235.242 71.2749 237.688 67.6052 239.325 69.79C240.961 71.9749 235.294 76.4439 234.86 74.7436C234.428 73.0433 235.242 71.2749 235.242 71.2749Z" fill="#FBA894"/>
<path d="M217.736 64.1427C217.736 64.1427 213.186 60.2475 218.674 55.2101C221.81 52.9203 223.378 54.5994 226.67 53.9888C229.962 53.3781 235.92 53.9888 238.115 57.347C240.31 60.7052 239.525 68.49 238.899 69.2537C238.272 70.0173 236.39 70.4751 236.39 71.8483C236.39 73.2226 236.077 74.291 235.606 74.291C235.136 74.291 235.136 72.0012 235.136 70.3221C235.136 68.643 234.823 65.4377 234.038 63.1479C233.254 60.8581 229.649 61.0111 228.237 61.3159C226.827 61.6207 225.893 65.1374 217.736 64.1427Z" fill="#713336"/>
<path opacity="0.53" d="M234.818 67.9331C234.818 67.9331 234.919 67.8839 235.076 67.8216C235.075 67.8172 235.075 67.8096 235.075 67.8096L234.818 67.9331Z" fill="#505E83"/>
<path d="M235.079 67.8217C235.108 68.0717 235.929 75.3832 232.949 77.4207C229.852 79.4314 229.723 76.8558 227.271 76.4784C224.819 76.1011 222.818 76.2273 221.722 77.7981C220.754 79.3689 220.948 80.0599 220.044 79.6201C219.85 80.1225 221.206 83.2005 223.271 84.0177C225.336 84.8338 230.239 82.3218 232.433 80.4373C234.626 78.5528 235.982 77.3593 236.368 75.726C236.756 74.0926 236.562 70.951 237.014 68.7528C237.273 67.0915 235.712 67.566 235.079 67.8217ZM223.787 81.3159C220.819 80.6874 221.206 78.4266 224.239 77.4844C224.239 77.4844 227.464 76.0397 228.562 78.2379C229.013 79.6826 226.755 81.9445 223.787 81.3159Z" fill="#713336"/>
<path d="M237.302 84.0176C237.302 84.0176 233.528 88.6351 227.333 89.2C226.075 88.7289 225.398 86.467 225.398 86.467L224.43 87.8804C224.43 87.8804 223.946 90.7072 224.43 91.8381C225.01 91.9319 227.139 90.5185 227.139 90.5185C227.139 90.5185 228.591 92.498 229.655 92.8742C230.719 93.2504 237.495 88.8227 238.172 86.6546C238.174 86.6557 238.126 85.1005 237.302 84.0176Z" fill="white"/>
<path d="M252.446 108.948C252.109 101.926 251.678 96.5579 251.272 95.4515C249.724 91.9336 243.916 87.411 238.174 86.6562C238.174 86.6562 236.017 96.3502 233.895 108.948H252.446Z" fill="#387AB6"/>
<path d="M219.041 108.948C222.083 96.3791 224.431 88.918 224.431 88.918C222.689 89.1066 219.592 90.4251 217.463 92.4984C216.307 94.7491 214.511 101.213 212.657 108.948H219.041Z" fill="#387AB6"/>
<path d="M251.285 108.949C251.496 102.226 251.109 96.0096 249.981 94.5728C246.304 91.5573 242.433 91.746 240.497 95.1388C239.439 96.9932 238.034 103.463 236.978 108.95L251.285 108.949Z" fill="#387AB6"/>
<path d="M227.141 90.5186C226.044 94.8715 225.134 99.2736 224.312 103.683" stroke="#87B8EB" stroke-width="0.239962" stroke-miterlimit="10"/>
<path d="M298.187 55.9719C307.311 48.1287 309.615 36.1554 303.332 29.2288C297.05 22.3022 284.56 23.0453 275.437 30.8885C266.313 38.7317 264.009 50.705 270.292 57.6315C276.574 64.5581 289.064 63.8151 298.187 55.9719Z" fill="#6787FF"/>
<path d="M310.218 63.7717C309.484 66.6354 306.505 68.9575 303.564 68.9575C300.623 68.9575 298.833 66.6354 299.565 63.7717C300.299 60.9081 303.278 58.5859 306.22 58.5859C309.161 58.5859 310.951 60.907 310.218 63.7717Z" fill="#6787FF"/>
<path d="M281.786 53.046C281.174 53.046 280.62 52.8182 280.269 52.3638L275.24 45.8405C274.538 44.9306 274.915 43.4558 276.084 42.546C277.251 41.6361 278.766 41.6361 279.467 42.546L283.227 47.4214L296.658 36.9549C297.825 36.045 299.34 36.045 300.042 36.9549C300.744 37.8648 300.366 39.3396 299.198 40.2495L283.654 52.3638C283.068 52.8182 282.397 53.046 281.786 53.046Z" fill="white"/>
<path d="M143.804 11.8308H137.439C135.84 11.8308 134.868 10.5692 135.267 9.01404L136.854 2.81675C137.253 1.26045 138.871 0 140.468 0H146.833C148.432 0 149.404 1.26157 149.005 2.81675L147.418 9.01404C147.02 10.5703 145.402 11.8308 143.804 11.8308Z" fill="#BFD9FF"/>
<path d="M139.148 30.0007H132.783C131.186 30.0007 130.212 28.7391 130.611 27.184L132.198 20.9867C132.597 19.4315 134.215 18.1699 135.813 18.1699H142.178C143.775 18.1699 144.749 19.4315 144.35 20.9867L142.763 27.184C142.365 28.7391 140.746 30.0007 139.148 30.0007Z" stroke="#A9A7E7" stroke-width="0.500616" stroke-miterlimit="10"/>
<path d="M159.401 30.0007H153.036C151.438 30.0007 150.465 28.7391 150.864 27.184L152.451 20.9867C152.85 19.4315 154.468 18.1699 156.066 18.1699H162.431C164.029 18.1699 165.002 19.4315 164.603 20.9867L163.016 27.184C162.618 28.7391 161 30.0007 159.401 30.0007Z" fill="#26C6DA"/>
<path d="M179.653 30.0007H173.288C171.69 30.0007 170.717 28.7391 171.116 27.184L172.703 20.9867C173.101 19.4315 174.72 18.1699 176.318 18.1699H182.683C184.28 18.1699 185.254 19.4315 184.855 20.9867L183.268 27.184C182.87 28.7391 181.252 30.0007 179.653 30.0007Z" fill="white"/>
<path d="M134.392 48.5925H128.027C126.43 48.5925 125.457 47.3309 125.856 45.7758L127.443 39.5785C127.842 38.0222 129.46 36.7617 131.057 36.7617H137.422C139.02 36.7617 139.993 38.0233 139.594 39.5785L138.007 45.7758C137.609 47.3309 135.99 48.5925 134.392 48.5925Z" fill="#26C6DA"/>
<path d="M129.305 68.4509H122.94C121.341 68.4509 120.369 67.1893 120.768 65.6341L122.355 59.4369C122.753 57.8817 124.372 56.6201 125.969 56.6201H132.334C133.931 56.6201 134.905 57.8817 134.506 59.4369L132.919 65.6341C132.52 67.1904 130.902 68.4509 129.305 68.4509Z" fill="white"/>
<path d="M154.645 48.5925H148.28C146.681 48.5925 145.709 47.3309 146.108 45.7758L147.695 39.5785C148.093 38.0222 149.712 36.7617 151.309 36.7617H157.674C159.272 36.7617 160.245 38.0233 159.846 39.5785L158.259 45.7758C157.861 47.3309 156.243 48.5925 154.645 48.5925Z" fill="#EDF4FF"/>
<path d="M145.77 83.2409H139.405C137.806 83.2409 136.834 81.9794 137.233 80.4242L138.82 74.2269C139.219 72.6717 140.837 71.4102 142.434 71.4102H148.799C150.398 71.4102 151.37 72.6717 150.971 74.2269L149.384 80.4242C148.986 81.9794 147.368 83.2409 145.77 83.2409Z" stroke="#A9A7E7" stroke-width="0.500616" stroke-miterlimit="10"/>
<path d="M337.258 59.1671H334.921C334.334 59.1671 333.977 58.7038 334.124 58.1333L334.706 55.858C334.853 55.2864 335.447 54.8242 336.033 54.8242H338.37C338.957 54.8242 339.314 55.2875 339.167 55.858L338.585 58.1333C338.438 58.7049 337.844 59.1671 337.258 59.1671Z" fill="#CAE5FF"/>
<path d="M335.55 65.838H333.213C332.626 65.838 332.269 65.3747 332.416 64.8042L332.998 62.5289C333.145 61.9573 333.739 61.4951 334.325 61.4951H336.662C337.249 61.4951 337.606 61.9584 337.459 62.5289L336.877 64.8042C336.731 65.3747 336.137 65.838 335.55 65.838Z" fill="#CAE5FF"/>
<path d="M342.986 65.838H340.649C340.062 65.838 339.706 65.3747 339.852 64.8042L340.435 62.5289C340.582 61.9573 341.176 61.4951 341.762 61.4951H344.099C344.686 61.4951 345.043 61.9584 344.896 62.5289L344.313 64.8042C344.168 65.3747 343.574 65.838 342.986 65.838Z" fill="#CAE5FF"/>
<path d="M350.422 65.838H348.085C347.498 65.838 347.141 65.3747 347.288 64.8042L347.87 62.5289C348.017 61.9573 348.611 61.4951 349.197 61.4951H351.534C352.122 61.4951 352.478 61.9584 352.331 62.5289L351.749 64.8042C351.603 65.3747 351.009 65.838 350.422 65.838Z" fill="#CAE5FF"/>
<path d="M333.801 72.6632H331.464C330.877 72.6632 330.52 72.1999 330.667 71.6294L331.249 69.3541C331.396 68.7825 331.99 68.3203 332.576 68.3203H334.913C335.5 68.3203 335.857 68.7836 335.71 69.3541L335.128 71.6294C334.982 72.1999 334.388 72.6632 333.801 72.6632Z" fill="#CAE5FF"/>
<path d="M331.935 79.9533H329.598C329.01 79.9533 328.654 79.4899 328.801 78.9194L329.383 76.6442C329.53 76.0725 330.124 75.6104 330.71 75.6104H333.047C333.634 75.6104 333.991 76.0737 333.844 76.6442L333.262 78.9194C333.115 79.4911 332.521 79.9533 331.935 79.9533Z" fill="#CAE5FF"/>
<path d="M341.233 72.6632H338.895C338.308 72.6632 337.952 72.1999 338.098 71.6294L338.681 69.3541C338.828 68.7825 339.422 68.3203 340.008 68.3203H342.345C342.932 68.3203 343.289 68.7836 343.142 69.3541L342.559 71.6294C342.414 72.1999 341.819 72.6632 341.233 72.6632Z" fill="#CAE5FF"/>
<path d="M337.979 85.382H335.642C335.054 85.382 334.698 84.9186 334.845 84.3481L335.427 82.0729C335.574 81.5013 336.168 81.0391 336.754 81.0391H339.091C339.678 81.0391 340.035 81.5024 339.888 82.0729L339.305 84.3481C339.16 84.9198 338.566 85.382 337.979 85.382Z" fill="#CAE5FF"/>
<path opacity="0.9" d="M336.51 145.368H259.686C258.878 145.368 258.288 144.626 258.492 143.864L265.663 117.036C265.804 116.507 266.296 116.138 266.857 116.138H343.681C344.488 116.138 345.079 116.88 344.874 117.642L337.703 144.469C337.562 144.998 337.071 145.368 336.51 145.368Z" fill="#BFD9FF"/>
<path d="M270.221 121.876H296.953" stroke="#A9C2FF" stroke-width="0.718217" stroke-miterlimit="10" stroke-linecap="round" stroke-linejoin="round"/>
<path d="M268.164 133.889H294.896" stroke="#A9C2FF" stroke-width="0.718217" stroke-miterlimit="10" stroke-linecap="round" stroke-linejoin="round"/>
<path d="M279.404 129.352H306.136" stroke="#A9C2FF" stroke-width="0.718217" stroke-miterlimit="10" stroke-linecap="round" stroke-linejoin="round"/>
<path d="M269.536 125.881H277.556" stroke="#A9C2FF" stroke-width="0.718217" stroke-miterlimit="10" stroke-linecap="round" stroke-linejoin="round"/>
<path d="M268.437 129.352H276.458" stroke="#A9C2FF" stroke-width="0.718217" stroke-miterlimit="10" stroke-linecap="round" stroke-linejoin="round"/>
<path d="M301.205 121.876H310.734" stroke="#A9C2FF" stroke-width="0.718217" stroke-miterlimit="10" stroke-linecap="round" stroke-linejoin="round"/>
<path d="M305.866 139.524H291.639C291.566 139.524 291.515 139.459 291.533 139.39L292.169 137.009C292.182 136.962 292.226 136.929 292.276 136.929H306.503C306.575 136.929 306.627 136.995 306.609 137.063L305.973 139.445C305.96 139.492 305.917 139.524 305.866 139.524Z" stroke="#84AEE5" stroke-width="0.239428" stroke-miterlimit="10"/>
<path d="M288.188 139.524H273.96C273.888 139.524 273.836 139.459 273.855 139.39L274.491 137.009C274.504 136.962 274.547 136.929 274.597 136.929H288.824C288.897 136.929 288.948 136.995 288.93 137.063L288.294 139.445C288.281 139.492 288.237 139.524 288.188 139.524Z" stroke="#84AEE5" stroke-width="0.239428" stroke-miterlimit="10"/>
<path d="M330.877 136.073C330.148 135.127 327.189 134.439 326.372 133.494C325.954 133.01 325.954 132.113 326.054 131.35C326.345 131.169 326.587 130.989 326.731 130.82C326.976 130.471 327.254 129.983 327.531 129.447C327.615 129.527 327.727 129.589 327.872 129.585C328.26 129.574 329.738 127.614 329.358 127.16C329.14 126.9 328.788 127.126 328.526 127.367C328.917 126.494 329.193 125.825 329.193 125.825H329.178C329.214 125.715 329.249 125.604 329.277 125.492C329.864 123.201 328.432 121.344 326.079 121.344C323.726 121.344 321.344 123.201 320.757 125.492C320.728 125.605 320.705 125.716 320.687 125.825H320.672C320.672 125.825 320.604 126.494 320.549 127.367C320.41 127.127 320.174 126.901 319.823 127.16C319.21 127.615 319.684 129.574 320.067 129.585C320.21 129.59 320.354 129.527 320.478 129.447C320.481 129.983 320.508 130.471 320.574 130.82C320.645 131.025 320.851 131.251 321.119 131.471C320.826 132.207 320.38 133.036 319.75 133.494C318.448 134.439 315.137 135.127 313.924 136.073C312.832 136.923 311.858 139.408 311.674 139.899H331.169C331.234 139.408 331.533 136.923 330.877 136.073Z" fill="#387AB6"/>
<path d="M232.339 135.801H169.3C163.766 135.801 160.398 131.432 161.778 126.045C163.157 120.657 168.762 116.288 174.297 116.288H237.336C242.87 116.288 246.237 120.657 244.858 126.045C243.479 131.432 237.874 135.801 232.339 135.801Z" fill="white"/>
<path d="M175.983 128.591L173.28 129.814C173.025 129.929 172.81 129.744 172.915 129.5L174.036 126.908C174.078 126.811 174.07 126.713 174.015 126.644L172.552 124.808C172.414 124.635 172.592 124.335 172.852 124.299L175.622 123.921C175.725 123.906 175.827 123.846 175.895 123.758L177.693 121.401C177.862 121.179 178.187 121.179 178.243 121.401L178.835 123.758C178.857 123.846 178.928 123.907 179.024 123.921L181.6 124.299C181.842 124.335 181.866 124.635 181.639 124.808L179.235 126.644C179.146 126.712 179.087 126.811 179.079 126.908L178.873 129.5C178.853 129.743 178.542 129.929 178.348 129.814L176.271 128.591C176.19 128.545 176.084 128.545 175.983 128.591Z" fill="#FFA402"/>
<path d="M189.29 128.591L186.587 129.814C186.332 129.929 186.116 129.744 186.222 129.5L187.342 126.908C187.385 126.811 187.377 126.713 187.322 126.644L185.858 124.808C185.721 124.635 185.898 124.335 186.159 124.299L188.928 123.921C189.031 123.906 189.134 123.846 189.201 123.758L190.999 121.401C191.169 121.179 191.494 121.179 191.55 121.401L192.142 123.758C192.163 123.846 192.234 123.907 192.331 123.921L194.906 124.299C195.148 124.335 195.172 124.635 194.947 124.808L192.543 126.644C192.453 126.712 192.395 126.811 192.387 126.908L192.179 129.5C192.16 129.743 191.849 129.929 191.654 129.814L189.577 128.591C189.497 128.545 189.39 128.545 189.29 128.591Z" fill="#FFA402"/>
<path d="M202.602 128.591L199.899 129.814C199.644 129.929 199.429 129.744 199.534 129.5L200.655 126.908C200.696 126.811 200.689 126.713 200.634 126.644L199.171 124.808C199.033 124.635 199.211 124.335 199.471 124.299L202.241 123.921C202.344 123.906 202.446 123.846 202.514 123.758L204.312 121.401C204.482 121.179 204.806 121.179 204.861 121.401L205.453 123.758C205.475 123.846 205.546 123.907 205.642 123.921L208.218 124.299C208.46 124.335 208.484 124.635 208.257 124.808L205.853 126.644C205.764 126.712 205.705 126.811 205.697 126.908L205.49 129.5C205.47 129.743 205.159 129.929 204.964 129.814L202.888 128.591C202.81 128.545 202.703 128.545 202.602 128.591Z" fill="#FFA402"/>
<path d="M215.913 128.591L213.21 129.814C212.955 129.929 212.739 129.744 212.845 129.5L213.965 126.908C214.008 126.811 214 126.713 213.945 126.644L212.481 124.808C212.344 124.635 212.522 124.335 212.782 124.299L215.55 123.921C215.653 123.906 215.757 123.846 215.823 123.758L217.622 121.401C217.792 121.179 218.117 121.179 218.172 121.401L218.763 123.758C218.785 123.846 218.856 123.907 218.953 123.921L221.528 124.299C221.77 124.335 221.794 124.635 221.568 124.808L219.165 126.644C219.075 126.712 219.017 126.811 219.009 126.908L218.801 129.5C218.782 129.743 218.471 129.929 218.276 129.814L216.199 128.591C216.121 128.545 216.015 128.545 215.913 128.591Z" fill="#FFA402"/>
<path d="M229.217 128.591L226.514 129.814C226.259 129.929 226.044 129.744 226.149 129.5L227.27 126.908C227.311 126.811 227.304 126.713 227.249 126.644L225.786 124.808C225.648 124.635 225.826 124.335 226.086 124.299L228.854 123.921C228.958 123.906 229.06 123.846 229.127 123.758L230.925 121.401C231.095 121.179 231.42 121.179 231.476 121.401L232.068 123.758C232.089 123.846 232.161 123.907 232.257 123.921L234.833 124.299C235.074 124.335 235.099 124.635 234.871 124.808L232.468 126.644C232.378 126.712 232.32 126.811 232.312 126.908L232.104 129.5C232.085 129.743 231.774 129.929 231.579 129.814L229.502 128.591C229.425 128.545 229.319 128.545 229.217 128.591Z" fill="#C2D4D9"/>
<path d="M77.3366 98.1559C80.2152 98.1559 82.5487 94.9894 82.5487 91.0833C82.5487 87.1772 80.2152 84.0107 77.3366 84.0107C74.458 84.0107 72.1245 87.1772 72.1245 91.0833C72.1245 94.9894 74.458 98.1559 77.3366 98.1559Z" fill="#202F7C"/>
<path d="M78.1211 91.6992C78.1211 91.6992 92.6493 107.382 92.6493 109.842C92.6493 112.302 87.9113 111.995 87.9113 111.995" stroke="#202F7C" stroke-width="0.735438" stroke-miterlimit="10"/>
<path d="M89.0261 111.993C89.0261 113.012 88.1775 113.838 87.1305 113.838C86.0835 113.838 85.2349 113.012 85.2349 111.993C85.2349 110.974 86.0835 110.147 87.1305 110.147C88.1775 110.147 89.0261 110.974 89.0261 111.993Z" fill="#202F7C"/>
<path d="M52.2861 295.562C57.4461 304.229 73.6335 310.557 92.816 310.557C111.999 310.557 128.186 304.229 133.346 295.562H52.2861Z" fill="#4F57A0"/>
<path d="M161.714 251.103L151.987 294.773H146.043L151.447 252.155L161.714 251.103Z" fill="#A9A7E7"/>
<path d="M179.553 254.786H92.478V244.263H170.906C175.682 244.263 179.552 248.032 179.552 252.681L179.553 254.786Z" fill="#7A82CC"/>
<path d="M21.2126 290.039L0.138104 191.355C-0.69896 187.436 2.37524 183.756 6.48717 183.756H76.2237C80.065 183.756 83.3778 186.381 84.1598 190.041L105.514 290.038" fill="#A9A7E7"/>
<path d="M164.427 300.864H31.9971C27.5285 300.864 23.5955 297.992 22.3445 293.815L21.2139 290.039H164.429V300.864H164.427Z" fill="#A9A7E7"/>
<path d="M99.3011 305.822H88.7622V397.373H99.3011V305.822Z" fill="#E2E7FF"/>
<path d="M99.3011 322.791L88.7622 331.078V305.822H99.3011V322.791Z" fill="#4F57A0"/>
<path d="M98.9802 383.729H95.1263H94.1631H90.3092L50.8066 399H138.483L98.9802 383.729Z" fill="#E2E7FF"/>
<path d="M9.42334 190.507H72.1068" stroke="#4F57A0" stroke-width="0.667488" stroke-miterlimit="10"/>
<path d="M78.604 197.578L89.3068 250.05" stroke="#4F57A0" stroke-width="0.667488" stroke-miterlimit="10"/>
<path d="M91.2192 259.354L93.5128 274.611" stroke="#4F57A0" stroke-width="0.667488" stroke-miterlimit="10"/>
<path d="M367.653 106.31H319.256C316.76 106.31 314.854 104.139 315.243 101.738L315.609 99.4794C315.921 97.5568 317.623 96.1406 319.622 96.1406H368.019C370.515 96.1406 372.421 98.3126 372.032 100.713L371.666 102.971C371.353 104.894 369.652 106.31 367.653 106.31Z" fill="#CAE5FF"/>
<path d="M321.281 101.314H363.06" stroke="white" stroke-width="1.28001" stroke-miterlimit="10"/>
<path d="M191.371 47.791H178.177C171.903 47.791 165.735 52.743 164.401 58.8521C163.068 64.9612 167.073 69.9132 173.347 69.9132H176.211C179.412 77.2908 186.971 76.336 186.971 76.336C185.541 73.5624 185.237 71.3423 185.247 69.9132H186.541C192.815 69.9132 198.983 64.9612 200.317 58.8521C201.651 52.744 197.645 47.791 191.371 47.791Z" fill="#FF634D"/>
<path d="M172.566 56.7119H185.026" stroke="white" stroke-width="1.28001" stroke-miterlimit="10"/>
<path d="M171.514 61.5303H191.761" stroke="white" stroke-width="1.28001" stroke-miterlimit="10"/>
</svg>
