<svg width="352" height="371" viewBox="0 0 352 371" fill="none" xmlns="http://www.w3.org/2000/svg">
<path d="M316.613 296.513H27.6356C22.0936 296.513 17.6006 300.913 17.6006 306.34C17.6006 311.767 22.0936 316.167 27.6356 316.167H316.614C322.156 316.167 326.649 311.767 326.649 306.34C326.648 300.913 322.156 296.513 316.613 296.513Z" fill="#928DC7"/>
<path d="M329.505 240.141V61.441C329.505 57.2487 326.035 53.8506 321.754 53.8506H27.8697C23.5887 53.8506 20.1187 57.2487 20.1187 61.441V240.14L329.505 240.141Z" fill="#1A1A1A"/>
<path d="M320.037 61.3799H29.5854V224.986H320.037V61.3799Z" fill="#EBF2FF"/>
<path d="M202.579 249.515H147.046V304.653H202.579V249.515Z" fill="white"/>
<path d="M223.676 304.653H125.948V303.043C125.948 299.917 128.536 297.383 131.728 297.383H217.896C221.088 297.383 223.676 299.917 223.676 303.043V304.653Z" fill="white"/>
<path d="M202.579 249.515H147.046V285.014H202.579V249.515Z" fill="#C3CDE6"/>
<path d="M321.754 267.664H27.8697C23.5887 267.664 20.1187 264.266 20.1187 260.073V233.218H329.504V260.073C329.505 264.266 326.035 267.664 321.754 267.664Z" fill="white"/>
<path d="M174.812 60.2208C173.612 60.2208 172.639 59.2679 172.639 58.0928C172.639 56.9177 173.612 55.9648 174.812 55.9648C176.012 55.9648 176.985 56.9177 176.985 58.0928C176.985 59.2679 176.012 60.2208 174.812 60.2208Z" fill="white"/>
<path d="M226.137 145.329H203.038C199.242 145.329 196.164 142.316 196.164 138.598V121.001C196.164 117.284 199.242 114.27 203.038 114.27H226.137C229.933 114.27 233.011 117.283 233.011 121.001V138.598C233.01 142.315 229.933 145.329 226.137 145.329Z" fill="white"/>
<path d="M266.247 145.329H243.148C239.352 145.329 236.274 142.316 236.274 138.598V121.001C236.274 117.284 239.351 114.27 243.148 114.27H266.247C270.043 114.27 273.121 117.283 273.121 121.001V138.598C273.121 142.315 270.043 145.329 266.247 145.329Z" fill="white"/>
<path d="M306.359 179.128H283.26C279.464 179.128 276.386 176.115 276.386 172.396V121.001C276.386 117.284 279.463 114.27 283.26 114.27H306.359C310.155 114.27 313.233 117.283 313.233 121.001V172.396C313.233 176.115 310.155 179.128 306.359 179.128Z" fill="white"/>
<path d="M226.137 212.47H203.038C199.242 212.47 196.164 209.457 196.164 205.739V154.8C196.164 151.083 199.242 148.068 203.038 148.068H226.137C229.933 148.068 233.011 151.082 233.011 154.8V205.739C233.01 209.457 229.933 212.47 226.137 212.47Z" fill="white"/>
<path d="M266.247 212.927H243.148C239.352 212.927 236.274 209.914 236.274 206.195V188.599C236.274 184.881 239.351 181.867 243.148 181.867H266.247C270.043 181.867 273.121 184.88 273.121 188.599V206.195C273.121 209.914 270.043 212.927 266.247 212.927Z" fill="white"/>
<path d="M306.359 212.927H283.26C279.464 212.927 276.386 209.914 276.386 206.195V188.599C276.386 184.881 279.463 181.867 283.26 181.867H306.359C310.155 181.867 313.233 184.88 313.233 188.599V206.195C313.233 209.914 310.155 212.927 306.359 212.927Z" fill="white"/>
<path d="M191.171 198.85H0.105469V45.0584C0.105469 39.6382 4.59247 35.2441 10.1275 35.2441H181.15C186.685 35.2441 191.172 39.6382 191.172 45.0584V198.85H191.171Z" fill="#6D68CF"/>
<path d="M17.4665 42.4839C17.4665 44.5365 15.7675 46.2013 13.6715 46.2013C11.5755 46.2013 9.87549 44.5375 9.87549 42.4839C9.87549 40.4314 11.5745 38.7666 13.6715 38.7666C15.7665 38.7666 17.4665 40.4304 17.4665 42.4839Z" fill="#FC678A"/>
<path d="M32.6486 42.4839C32.6486 44.5365 30.9496 46.2013 28.8526 46.2013C26.7566 46.2013 25.0566 44.5375 25.0566 42.4839C25.0566 40.4314 26.7556 38.7666 28.8526 38.7666C30.9496 38.7666 32.6486 40.4304 32.6486 42.4839Z" fill="#4BEBAD"/>
<path d="M47.8313 42.4839C47.8313 44.5365 46.1323 46.2013 44.0353 46.2013C41.9393 46.2013 40.2393 44.5375 40.2393 42.4839C40.2393 40.4314 41.9383 38.7666 44.0353 38.7666C46.1313 38.7666 47.8313 40.4304 47.8313 42.4839Z" fill="white"/>
<path d="M177.255 62.3301H19.8984V220.966H177.255V62.3301Z" fill="#E0EBFF"/>
<path d="M191.171 49.3223H0.105469V212.928H191.171V49.3223Z" fill="white"/>
<path d="M191.172 49.3223H132.021V116.241H191.172V49.3223Z" fill="#E0EBFF"/>
<path d="M91.3645 91.0596H70.3755V118.896H91.3645V91.0596Z" fill="#FFA099"/>
<path d="M91.3645 104.391V91.0586H70.3755V104.391C74.2845 108.978 86.3215 108.978 91.3645 104.391Z" fill="#FF776E"/>
<path d="M100.608 86.8013H98.0205V75.6953H100.608C102.431 75.6953 103.909 77.1427 103.909 78.9279V83.5687C103.909 85.3549 102.431 86.8013 100.608 86.8013Z" fill="#FFA099"/>
<path d="M61.1755 86.8013H63.7625V75.6953H61.1755C59.3525 75.6953 57.8745 77.1427 57.8745 78.9279V83.5687C57.8745 85.3549 59.3525 86.8013 61.1755 86.8013Z" fill="#FFA099"/>
<path d="M80.8914 55.0693C80.7704 55.0674 80.6484 55.0674 80.5284 55.0674C69.5234 55.0977 60.8184 64.3078 60.8184 75.0857V89.2882C60.8184 94.2365 63.5034 98.8116 67.8684 101.304C72.5904 103.975 76.9514 104.807 80.8914 104.646C84.8304 104.807 89.1924 103.975 93.9134 101.304C98.2784 98.8116 100.963 94.2365 100.963 89.2882V75.0857C100.963 64.3088 92.2584 55.0987 81.2534 55.0674C81.1344 55.0674 81.0124 55.0674 80.8914 55.0693Z" fill="#FFA099"/>
<path d="M80.8914 55.0664C80.7724 55.0645 80.6534 55.0645 80.5334 55.0645C69.5264 55.088 60.8184 64.3029 60.8184 75.0828V82.7231H64.3334V73.0772C64.3334 69.6615 67.1604 66.8931 70.6484 66.8931H79.0044H82.7794H91.1344C94.6224 66.8931 97.4494 69.6615 97.4494 73.0772V82.7231H100.964V75.0828C100.964 64.3039 92.2554 55.0889 81.2484 55.0645C81.1294 55.0645 81.0104 55.0645 80.8914 55.0664Z" fill="#1A1A1A"/>
<path d="M80.4888 80.7109C81.1358 82.8448 81.7818 84.9776 82.4288 87.1115C81.8828 87.2897 81.3368 87.467 80.7908 87.6442" stroke="#1A1A1A" stroke-width="1.0457" stroke-miterlimit="10" stroke-linecap="round" stroke-linejoin="round"/>
<path d="M85.6916 90.5039L76.0146 90.6518C76.0146 90.6518 75.7876 95.0193 81.1606 94.9057C86.6356 94.7912 85.6916 90.5039 85.6916 90.5039Z" fill="#1A1A1A"/>
<path d="M81.4868 92.7821C80.1438 92.1358 77.8388 91.3533 76.1768 91.8449C76.5268 93.1297 77.6358 94.9805 81.1608 94.9061C82.3468 94.8807 83.2177 94.6535 83.8757 94.3225C83.1567 93.7163 82.3538 93.1992 81.4868 92.7821Z" fill="#FF4D6A"/>
<path d="M88.4747 80.7001C88.9877 81.5051 90.0686 81.7499 90.8906 81.2485C91.7126 80.7461 91.9627 79.6875 91.4507 78.8826C90.9387 78.0786 89.8567 77.8328 89.0347 78.3342C88.2127 78.8366 87.9617 79.8952 88.4747 80.7001Z" fill="#1A1A1A"/>
<path d="M92.1669 75.6952C91.0139 74.5279 88.9219 74.4211 87.6509 75.465" stroke="#1A1A1A" stroke-width="1.0457" stroke-miterlimit="10" stroke-linecap="round" stroke-linejoin="round"/>
<path d="M89.9088 87.6607C92.3852 87.6607 94.3928 86.8311 94.3928 85.8079C94.3928 84.7846 92.3852 83.9551 89.9088 83.9551C87.4324 83.9551 85.4248 84.7846 85.4248 85.8079C85.4248 86.8311 87.4324 87.6607 89.9088 87.6607Z" fill="#FF7878"/>
<path d="M70.0785 80.7001C70.5915 81.5051 71.6725 81.7499 72.4945 81.2485C73.3165 80.7471 73.5665 79.6875 73.0545 78.8826C72.5425 78.0786 71.4605 77.8328 70.6385 78.3342C69.8175 78.8366 69.5665 79.8952 70.0785 80.7001Z" fill="#1A1A1A"/>
<path d="M73.8256 75.6952C72.6716 74.5279 70.5806 74.4211 69.3086 75.465" stroke="#1A1A1A" stroke-width="1.0457" stroke-miterlimit="10" stroke-linecap="round" stroke-linejoin="round"/>
<path d="M76.0505 85.8079C76.0505 86.8312 74.0435 87.6607 71.5665 87.6607C69.0905 87.6607 67.0825 86.8312 67.0825 85.8079C67.0825 84.7845 69.0895 83.9551 71.5665 83.9551C74.0435 83.9551 76.0505 84.7845 76.0505 85.8079Z" fill="#FF7878"/>
<path d="M74.1817 87.7564H69.0307C66.6737 87.7564 64.7627 85.885 64.7627 83.5769V78.8773C64.7627 77.8295 65.6297 76.9805 66.6997 76.9805H76.5127C77.5827 76.9805 78.4497 77.8295 78.4497 78.8773V83.5769C78.4497 85.885 76.5387 87.7564 74.1817 87.7564Z" stroke="#6D68CF" stroke-width="0.545" stroke-miterlimit="10"/>
<path d="M92.5347 87.7564H87.3837C85.0267 87.7564 83.1157 85.885 83.1157 83.5769V78.8773C83.1157 77.8295 83.9827 76.9805 85.0527 76.9805H94.8657C95.9357 76.9805 96.8027 77.8295 96.8027 78.8773V83.5769C96.8027 85.885 94.8927 87.7564 92.5347 87.7564Z" stroke="#6D68CF" stroke-width="0.545" stroke-miterlimit="10"/>
<path d="M78.4165 78.4824H83.0285" stroke="#6D68CF" stroke-width="0.545" stroke-miterlimit="10"/>
<path d="M32.1044 213.257H56.3944L56.7044 121.372C56.7044 121.372 34.3814 130.506 32.0674 158.831C32.2874 159.262 32.1724 195.834 32.1044 213.257Z" fill="#928DC7"/>
<path d="M139.348 192.825C135.304 174.234 129.849 149.325 129.954 149.661C121.728 122.411 97.9614 117.979 97.9614 117.979L115.53 197.818C116.942 204.236 123.386 208.329 129.946 206.976C136.538 205.615 140.751 199.277 139.348 192.825Z" fill="#928DC7"/>
<path d="M150.778 116.878C147.211 120.203 143.486 123.338 139.611 126.312C136.612 128.614 139.959 133.422 142.975 131.107C147.247 127.828 151.343 124.345 155.275 120.68C158.048 118.095 153.524 114.318 150.778 116.878Z" fill="#FF776E"/>
<path d="M131.734 145.79L148.072 148.757L150.918 133.729L134.58 130.763L131.734 145.79Z" fill="#FFA099"/>
<path d="M163.461 130.124C156.199 128.805 148.938 127.487 141.676 126.168C137.918 125.485 136.828 131.204 140.593 131.888C147.855 133.207 155.116 134.526 162.378 135.844C166.136 136.527 167.225 130.808 163.461 130.124Z" fill="#FF8D85"/>
<path d="M134.557 130.873L150.931 133.769L160.172 128.497L160.288 127.887L143.517 124.841C139.343 124.083 135.332 126.782 134.558 130.87L134.557 130.873Z" fill="#FFA099"/>
<path d="M169.071 128.105C161.809 126.785 154.548 125.467 147.286 124.148C143.527 123.466 142.438 129.185 146.203 129.868C153.465 131.187 160.726 132.505 167.988 133.824C171.746 134.507 172.835 128.789 169.071 128.105Z" fill="#FFA099"/>
<path d="M142.239 130.424C149.637 129.279 157.035 128.134 164.434 126.989C168.184 126.409 167.716 120.605 163.926 121.192C156.528 122.337 149.13 123.482 141.731 124.626C137.981 125.206 138.449 131.009 142.239 130.424Z" fill="#FFA099"/>
<path d="M149.475 147.637C150.594 142.889 151.435 139.332 151.774 137.919L131.351 133.601L129.021 143.621C135.818 145.056 142.641 146.373 149.475 147.637Z" fill="white"/>
<path d="M152.523 142.404L128.611 137.182L115.93 193.53C114.486 199.948 118.618 206.3 125.168 207.731C131.732 209.164 138.238 205.119 139.699 198.691C144.59 177.173 151.297 147.685 152.523 142.404Z" fill="#6D68CF"/>
<path d="M105.077 207.134V120.531L87.9514 112.832H74.4014L59.3784 119.803V207.134H105.077Z" fill="#E6E6E6"/>
<path d="M80.2466 116.87L75.1396 164.961L79.1266 202.506H82.6617L86.6487 164.961L81.5416 116.87H80.2466Z" fill="#6D68CF"/>
<path d="M112.276 213.256L114.221 134.548C114.368 128.603 110.887 123.143 105.368 120.662L100.567 118.504L80.1206 158.472L61.7266 118.712L56.7036 121.043C51.2316 123.582 47.8206 129.06 48.0216 134.986L50.6676 213.256H112.276Z" fill="#6D68CF"/>
<path d="M82.6617 112.742H79.1266L75.1396 116.647L80.8947 122.282L86.6487 116.647L82.6617 112.742Z" fill="#6D68CF"/>
<path d="M70.4005 107.119L65.0854 116.505L75.2814 121.699L80.9554 112.661L70.4005 107.119Z" fill="white"/>
<path d="M91.4056 107.119L96.7206 116.505L86.5256 121.699L80.8506 112.661L91.4056 107.119Z" fill="white"/>
<path d="M70.3344 205.079C78.3989 205.079 84.9364 198.677 84.9364 190.78C84.9364 182.883 78.3989 176.48 70.3344 176.48C62.2699 176.48 55.7324 182.883 55.7324 190.78C55.7324 198.677 62.2699 205.079 70.3344 205.079Z" fill="#FC678A"/>
<path d="M65.5672 192.982H59.7832V194.795H65.5672V192.982Z" fill="white"/>
<path d="M80.8851 192.982H75.1011V194.795H80.8851V192.982Z" fill="white"/>
<path d="M62.6753 191.793C62.6753 187.601 66.1453 186.765 70.4263 186.765C74.7073 186.765 78.1773 187.601 78.1773 191.793" stroke="white" stroke-width="3.2284" stroke-miterlimit="10"/>
<path d="M120.942 205.079C129.007 205.079 135.544 198.677 135.544 190.78C135.544 182.883 129.007 176.48 120.942 176.48C112.878 176.48 106.34 182.883 106.34 190.78C106.34 198.677 112.878 205.079 120.942 205.079Z" fill="#4BEBAD"/>
<path d="M118.694 186.112V180.448H116.843V186.112H118.694Z" fill="white"/>
<path d="M118.693 201.112V195.448H116.842V201.112H118.693Z" fill="white"/>
<path d="M119.908 183.28C124.189 183.28 125.043 186.678 125.043 190.871C125.043 195.063 124.189 198.461 119.908 198.461" stroke="white" stroke-width="3.2284" stroke-miterlimit="10"/>
<path d="M269.877 108.625H137.103V7.60861C137.103 3.47803 140.522 0.128906 144.741 0.128906H262.24C266.458 0.128906 269.878 3.47803 269.878 7.60861V108.625H269.877Z" fill="#6D68CF"/>
<path d="M269.877 13.167H137.103V108.625H269.877V13.167Z" fill="white"/>
<path d="M211.145 21.6191H146.457V98.0448H211.145V21.6191Z" fill="#E0EBFF"/>
<mask id="mask0_10388_13615" style="mask-type:luminance" maskUnits="userSpaceOnUse" x="146" y="21" width="66" height="78">
<path d="M211.145 21.6191H146.457V98.0448H211.145V21.6191Z" fill="white"/>
</mask>
<g mask="url(#mask0_10388_13615)">
<path d="M183.71 49.5938H172.887V63.948H183.71V49.5938Z" fill="#FFA099"/>
<path d="M183.711 56.4683V49.5928H172.888V56.4683C174.903 58.8342 181.11 58.8342 183.711 56.4683Z" fill="#FF776E"/>
<path d="M188.466 47.3977H187.132V41.6709H188.466C189.406 41.6709 190.168 42.4171 190.168 43.3376V45.731C190.168 46.6505 189.406 47.3977 188.466 47.3977Z" fill="#FFA099"/>
<path d="M168.132 47.3977H169.466V41.6709H168.132C167.192 41.6709 166.43 42.4171 166.43 43.3376V45.731C166.43 46.6505 167.192 47.3977 168.132 47.3977Z" fill="#FFA099"/>
<path d="M178.299 31.0342C178.236 31.0332 178.174 31.0332 178.112 31.0332C172.437 31.0489 167.949 35.7984 167.949 41.3557V48.6788C167.949 51.2298 169.333 53.5898 171.585 54.8747C174.02 56.2525 176.269 56.6804 178.3 56.5982C180.331 56.6814 182.58 56.2525 185.015 54.8747C187.266 53.5898 188.651 51.2298 188.651 48.6788V41.3557C188.651 35.7984 184.162 31.0489 178.488 31.0332C178.424 31.0332 178.362 31.0342 178.299 31.0342Z" fill="#FFA099"/>
<path d="M178.299 31.0332C178.238 31.0322 178.176 31.0322 178.115 31.0322C172.439 31.045 167.949 35.7964 167.949 41.3548V45.2944H169.761V40.3207C169.761 38.5589 171.219 37.1312 173.017 37.1312H177.326H179.273H183.582C185.381 37.1312 186.838 38.5589 186.838 40.3207V45.2944H188.651V41.3548C188.651 35.7964 184.16 31.045 178.484 31.0322C178.422 31.0322 178.36 31.0322 178.299 31.0332Z" fill="#202338"/>
<path d="M178.091 44.2578C178.424 45.3585 178.758 46.4583 179.092 47.558C178.81 47.65 178.529 47.7411 178.247 47.8331" stroke="#202338" stroke-width="0.5392" stroke-miterlimit="10" stroke-linecap="round" stroke-linejoin="round"/>
<path d="M175.804 49.5197C177.403 50.0887 179.214 50.0613 180.794 49.4434" stroke="#202338" stroke-width="0.5392" stroke-miterlimit="10" stroke-linecap="round" stroke-linejoin="round"/>
<path d="M182.59 44.2518C182.854 44.667 183.412 44.7933 183.836 44.5338C184.26 44.2753 184.389 43.7289 184.125 43.3136C183.861 42.8984 183.303 42.7721 182.879 43.0306C182.455 43.2901 182.325 43.8366 182.59 44.2518Z" fill="#202338"/>
<path d="M184.494 41.6712C183.899 41.0689 182.821 41.0141 182.165 41.5527" stroke="#202338" stroke-width="0.5392" stroke-miterlimit="10" stroke-linecap="round" stroke-linejoin="round"/>
<path d="M185.642 46.8845C185.642 47.4123 184.607 47.8393 183.33 47.8393C182.053 47.8393 181.018 47.4113 181.018 46.8845C181.018 46.3566 182.053 45.9297 183.33 45.9297C184.607 45.9297 185.642 46.3576 185.642 46.8845Z" fill="#E8A748"/>
<path d="M172.501 44.2518C172.765 44.667 173.323 44.7933 173.747 44.5338C174.171 44.2753 174.3 43.7289 174.036 43.3136C173.772 42.8984 173.214 42.7721 172.79 43.0306C172.366 43.2901 172.237 43.8366 172.501 44.2518Z" fill="#202338"/>
<path d="M174.432 41.6712C173.837 41.0689 172.76 41.0141 172.104 41.5527" stroke="#202338" stroke-width="0.5392" stroke-miterlimit="10" stroke-linecap="round" stroke-linejoin="round"/>
<path d="M175.581 46.8845C175.581 47.4123 174.546 47.8393 173.269 47.8393C171.992 47.8393 170.957 47.4113 170.957 46.8845C170.957 46.3566 171.992 45.9297 173.269 45.9297C174.546 45.9297 175.581 46.3576 175.581 46.8845Z" fill="#E8A748"/>
<path d="M181.951 60.8203H174.964L165.838 65.0547C163.017 66.364 161.258 69.1882 161.361 72.2445L162.883 117.265H194.378L195.496 72.0183C195.572 68.9532 193.777 66.1368 190.931 64.8579L181.951 60.8203Z" fill="#CCCCCC"/>
<path d="M179.223 79.1032H177.4L175.344 72.6518L178.311 63.3418L181.279 72.6518L179.223 79.1032Z" fill="#202338"/>
<path d="M179.223 60.7734H177.4L175.344 62.7868L178.311 65.6933L181.279 62.7868L179.223 60.7734Z" fill="#202338"/>
<path d="M172.9 57.874L170.16 62.7136L175.417 65.3919L178.343 60.7315L172.9 57.874Z" fill="#F2F2F2"/>
<path d="M183.732 57.874L186.473 62.7136L181.215 65.3919L178.289 60.7315L183.732 57.874Z" fill="#F2F2F2"/>
<path d="M165.838 65.2236C165.838 65.2236 154.327 69.933 153.134 84.5399C153.283 84.8317 153.134 117.265 153.134 117.265H165.663L165.838 65.2236Z" fill="#E8A748"/>
<path d="M191.765 65.5225C191.765 65.5225 203.276 70.2318 204.469 84.8387C204.443 84.5468 204.469 117.264 204.469 117.264H191.94L191.765 65.5225Z" fill="#E8A748"/>
<path d="M190.932 64.8582L186.39 62.8164C184.569 64.8533 182.309 66.522 178.461 66.5543C175.315 66.5798 172.563 65.2577 170.311 62.9809L165.839 65.056C163.018 66.3653 161.259 69.1895 161.362 72.2458L162.884 117.266H194.379L195.497 72.0196C195.572 68.9525 193.778 66.1371 190.932 64.8582Z" fill="#E8A748"/>
</g>
<path d="M260.522 21.6191H219.86V28.2665H260.522V21.6191Z" fill="#6D68CF"/>
<path d="M260.522 37.2598H219.86V40.5903H260.522V37.2598Z" fill="#CFDFFF"/>
<path d="M260.522 44.2529H219.86V47.5834H260.522V44.2529Z" fill="#CFDFFF"/>
<path d="M260.522 51.2471H219.86V54.5786H260.522V51.2471Z" fill="#CFDFFF"/>
<path d="M260.522 58.2402H219.86V61.5717H260.522V58.2402Z" fill="#CFDFFF"/>
<path d="M260.522 65.2334H219.86V68.5639H260.522V65.2334Z" fill="#CFDFFF"/>
<path d="M260.522 72.2275H219.86V75.5581H260.522V72.2275Z" fill="#CFDFFF"/>
<path d="M260.522 79.2197H219.86V82.5512H260.522V79.2197Z" fill="#CFDFFF"/>
<path d="M239.932 86.2129H219.86V89.5434H239.932V86.2129Z" fill="#CFDFFF"/>
<path d="M152.05 6.63433C152.05 8.68689 150.351 10.3517 148.255 10.3517C146.159 10.3517 144.459 8.68787 144.459 6.63433C144.459 4.58079 146.158 2.91699 148.255 2.91699C150.35 2.91699 152.05 4.58079 152.05 6.63433Z" fill="#FC678A"/>
<path d="M163.438 10.3517C165.534 10.3517 167.234 8.68735 167.234 6.63433C167.234 4.5813 165.534 2.91699 163.438 2.91699C161.341 2.91699 159.642 4.5813 159.642 6.63433C159.642 8.68735 161.341 10.3517 163.438 10.3517Z" fill="#4BEBAD"/>
<path d="M178.619 10.3517C180.716 10.3517 182.415 8.68735 182.415 6.63433C182.415 4.5813 180.716 2.91699 178.619 2.91699C176.523 2.91699 174.823 4.5813 174.823 6.63433C174.823 8.68735 176.523 10.3517 178.619 10.3517Z" fill="white"/>
<path d="M329.505 61.4401C329.505 60.3531 329.268 59.3229 328.848 58.3877H253.216C249.674 58.3877 246.803 61.1992 246.803 64.6678V69.335V110.608V132.671H329.506V61.4401H329.505Z" fill="#E0EBFF"/>
<path d="M344.143 102.05V56.1102C344.143 52.6416 341.272 49.8301 337.73 49.8301H261.081C257.539 49.8301 254.668 52.6416 254.668 56.1102V102.05H344.143Z" fill="#6D68CF"/>
<path d="M344.143 60.7773H254.668V124.113H344.143V60.7773Z" fill="white"/>
<path d="M267.219 55.2918C267.219 57.0154 265.792 58.4128 264.032 58.4128C262.272 58.4128 260.845 57.0154 260.845 55.2918C260.845 53.5683 262.272 52.1709 264.032 52.1709C265.792 52.1709 267.219 53.5683 267.219 55.2918Z" fill="#FC678A"/>
<path d="M279.968 55.2918C279.968 57.0154 278.541 58.4128 276.781 58.4128C275.021 58.4128 273.594 57.0154 273.594 55.2918C273.594 53.5683 275.021 52.1709 276.781 52.1709C278.541 52.1709 279.968 53.5683 279.968 55.2918Z" fill="#4BEBAD"/>
<path d="M292.717 55.2918C292.717 57.0154 291.29 58.4128 289.53 58.4128C287.77 58.4128 286.343 57.0154 286.343 55.2918C286.343 53.5683 287.77 52.1709 289.53 52.1709C291.29 52.1709 292.717 53.5683 292.717 55.2918Z" fill="white"/>
<path d="M329.782 71.626H269.028V77.2079H329.782V71.626Z" fill="#6D68CF"/>
<path d="M329.782 84.7607H269.028V87.5576H329.782V84.7607Z" fill="#CFDFFF"/>
<path d="M329.782 90.6328H269.028V93.4296H329.782V90.6328Z" fill="#CFDFFF"/>
<path d="M329.782 96.5059H269.028V99.3027H329.782V96.5059Z" fill="#CFDFFF"/>
<path d="M329.782 102.378H269.028V105.175H329.782V102.378Z" fill="#CFDFFF"/>
<path d="M299.939 108.25H269.028V111.047H299.939V108.25Z" fill="#CFDFFF"/>
<path d="M331.828 216.455C330.193 220.114 325.256 221.532 320.802 219.623C316.348 217.714 314.062 213.2 315.697 209.541C317.332 205.883 322.269 204.465 326.723 206.373C331.178 208.283 333.463 212.796 331.828 216.455Z" fill="#1A1A1A"/>
<path d="M318.122 214.121L325.65 217.945C328.43 219.357 331.846 218.573 333.698 216.1L349.63 181.853C353.574 173.269 352.336 163.251 346.414 155.837L327.704 132.411C326.193 130.519 323.287 130.471 321.712 132.313L309.292 146.834L327.457 172.115L315.582 205.43C313.721 208.503 314.883 212.476 318.122 214.121Z" fill="#7C3AED"/>
<path d="M328.379 133.256L327.704 132.411C326.193 130.519 323.286 130.471 321.711 132.313L309.291 146.834L327.456 172.115L315.581 205.43C313.722 208.504 314.883 212.477 318.122 214.122L325.65 217.946C328.43 219.358 331.846 218.574 333.698 216.101L341.449 198.503L332.837 142.72L328.379 133.256Z" fill="#1A1A1A"/>
<path d="M318.716 110.85H302.153V131.124H318.716V110.85Z" fill="#FFA099"/>
<path d="M319.868 123.416C317.879 122.497 315.169 121.839 312.145 121.655C307.496 121.373 303.431 122.285 301.558 123.83V127.876C303.339 129.524 307.109 130.811 311.549 131.08C314.787 131.277 317.738 130.892 319.869 130.12L319.868 123.416Z" fill="#E6E6E6"/>
<path d="M347.364 351.452V370.535H310.096V365.744C310.096 362.718 311.252 359.853 313.26 358.053C316.549 355.106 322.646 351.452 332.667 351.452H347.364Z" fill="#1A1A1A"/>
<path d="M324.208 352.438C319.031 353.724 315.495 356.05 313.26 358.053C312.601 358.643 312.045 359.357 311.58 360.144H324.208V352.438Z" fill="#7C3AED"/>
<path d="M330.589 195.057L337.683 282.489L347.481 354.48C347.481 354.48 343.137 357.864 337.693 358.384C333.875 358.748 328.574 357.179 327.896 354.3C324.325 339.126 298.857 234.77 294.484 206.875C293.359 199.7 297.431 192.845 304.005 190.954L315.061 187.775C326.766 185.969 330.589 195.057 330.589 195.057Z" fill="#7C3AED"/>
<path d="M319.989 306.124H316.381C321.839 329.148 326.511 348.42 327.895 354.299C328.277 355.922 330.127 357.129 332.353 357.807C332.334 357.747 332.306 357.688 332.291 357.626C330.841 351.465 325.781 330.602 319.989 306.124Z" fill="#7C3AED"/>
<path d="M299.365 231.783H333.568L330.588 195.058C330.588 195.058 326.765 185.969 315.061 187.774L304.005 190.954C297.431 192.844 293.359 199.7 294.484 206.875C295.368 212.509 297.115 221.274 299.365 231.783Z" fill="#1A1A1A"/>
<path d="M330.99 186.642C329.141 186.322 316.951 187.23 315.062 187.774L304.006 190.954C297.432 192.844 293.36 199.699 294.485 206.875C298.858 234.77 317.847 311.31 320.522 323.626L330.99 186.642Z" fill="#1A1A1A"/>
<path d="M291.55 102.3C290.956 102.32 290.362 102.341 289.768 102.361C289.589 102.367 289.403 102.376 289.247 102.462C288.975 102.614 288.883 102.975 288.962 103.272C289.041 103.569 289.253 103.814 289.474 104.031C289.926 104.475 290.445 104.854 291.009 105.151C291.519 104.28 291.707 103.293 291.55 102.3Z" fill="#E64040"/>
<path d="M321.81 112.347C316.508 120.502 299.907 122.872 292.581 116.392C287.355 111.77 290.461 100.908 295.763 92.7524C301.065 84.598 310.293 82.1458 317.203 87.0334C325.207 92.6936 327.113 104.191 321.81 112.347Z" fill="#FFA099"/>
<path d="M323.114 82.7723C322.814 82.4207 322.492 82.0848 322.147 81.7646C319.496 79.3066 315.727 78.0512 312.095 78.4184C304.81 79.1539 299.312 85.7894 292.069 86.849C294.524 88.8252 297.454 90.2324 300.552 90.9247C299.757 94.8918 298.26 98.1528 299.258 102.253C299.952 105.105 300.447 107.951 301.117 110.834C301.599 112.905 301.891 115.678 303.255 117.345C305.161 119.676 307.462 119.545 310.222 119.674C311.958 119.756 313.691 119.903 315.416 120.116C317.457 120.368 318.79 121.092 320.357 119.376C321.954 117.626 323.188 115.296 324.379 113.271C326.849 109.069 328.885 104.622 330.441 100.019C331.06 98.19 331.603 96.1962 330.99 94.3649C330.604 93.2133 329.551 92.1508 328.332 91.8531C326.617 91.435 326.216 92.6777 326.12 90.5938C325.986 87.7255 324.985 84.9619 323.114 82.7723Z" fill="#1A1A1A"/>
<path d="M294.212 101.879C293.82 102.482 293.002 102.659 292.387 102.275C291.771 101.891 291.59 101.091 291.982 100.488C292.374 99.8848 293.191 99.7075 293.807 100.091C294.422 100.475 294.604 101.275 294.212 101.879Z" fill="#1A1A1A"/>
<path d="M290.214 108.252C290.757 108.568 291.381 108.75 292.012 108.778" stroke="#1A1A1A" stroke-width="0.7883" stroke-miterlimit="10" stroke-linecap="round" stroke-linejoin="round"/>
<path d="M292.461 98.1503C293.534 97.5226 295.079 97.8458 295.795 98.8505" stroke="#1A1A1A" stroke-width="0.7883" stroke-miterlimit="10" stroke-linecap="round" stroke-linejoin="round"/>
<path d="M292.962 106.378L292.329 106.218C290.739 105.818 289.781 104.231 290.19 102.674L290.985 99.6454C291.143 99.0431 291.769 98.6808 292.384 98.8355L296.549 99.8834C297.164 100.038 297.534 100.651 297.376 101.253L296.581 104.282C296.172 105.84 294.552 106.778 292.962 106.378Z" stroke="#1A1A1A" stroke-width="0.644" stroke-miterlimit="10"/>
<path d="M297.303 101.921L306.828 104.455" stroke="#1A1A1A" stroke-width="0.644" stroke-miterlimit="10"/>
<path d="M306.858 109.609C305.504 111.691 302.684 112.304 300.558 110.978C298.432 109.652 297.806 106.889 299.159 104.807C300.512 102.725 303.333 102.112 305.459 103.438C307.585 104.765 308.212 107.527 306.858 109.609Z" fill="#FFA099"/>
<path d="M304.963 106.827C305.756 104.876 301.511 104.388 301.57 106.716C301.597 107.757 302.524 107.299 302.946 108.302C303.019 108.474 303.085 108.659 303.056 108.844C303.013 109.123 302.756 109.335 302.48 109.415C302.203 109.496 301.908 109.473 301.62 109.449" stroke="#1A1A1A" stroke-width="0.7883" stroke-miterlimit="10" stroke-linecap="round" stroke-linejoin="round"/>
<path d="M307.903 351.453V370.536H266.848V365.745C266.848 362.719 268.121 359.854 270.333 358.054C273.956 355.107 280.673 351.453 291.712 351.453H307.903Z" fill="#7C3AED"/>
<path d="M285.519 359.91V351.874C278.081 352.913 273.221 355.704 270.334 358.053C269.68 358.585 269.115 359.215 268.636 359.909H285.519V359.91Z" fill="#7C3AED"/>
<path d="M291.711 351.453C291.148 351.453 290.604 351.469 290.064 351.487V370.536H307.902V351.453H291.711Z" fill="#1A1A1A"/>
<path d="M288.666 206.907L288.984 279.458L289.421 350.891C288.217 356.906 308.147 361.515 308.924 353.621L315.898 287.371L327.262 211.804C329.13 200.929 322.274 190.08 311.272 187.729C310.264 187.514 309.241 187.371 308.212 187.304C297.462 186.611 288.571 195.526 288.666 206.907Z" fill="#7C3AED"/>
<path d="M292.283 353.91L291.846 282.477L291.528 209.926C291.433 198.546 300.324 189.63 311.075 190.324C312.104 190.39 313.127 190.533 314.135 190.749C317.57 191.482 320.6 193.045 323.087 195.177C320.237 191.511 316.169 188.775 311.273 187.729C310.265 187.514 309.242 187.371 308.213 187.304C297.462 186.611 288.572 195.526 288.666 206.907L288.984 279.458L289.421 350.891C289.09 352.544 290.361 354.089 292.386 355.299C292.238 354.848 292.188 354.384 292.283 353.91Z" fill="#666666"/>
<path d="M311.273 187.729C310.265 187.514 309.242 187.371 308.213 187.304C304.333 187.053 300.704 188.07 297.644 189.986V357.307C302.794 358.465 308.516 357.778 308.925 353.621L315.899 287.371L327.263 211.805C329.13 200.93 322.275 190.079 311.273 187.729Z" fill="#7C3AED"/>
<path d="M324.281 231.632L327.263 211.805C329.131 200.93 322.275 190.081 311.273 187.73C310.265 187.515 309.242 187.372 308.213 187.305C297.462 186.612 288.572 195.527 288.666 206.908L288.774 231.633H324.281V231.632Z" fill="#1A1A1A"/>
<path d="M294.192 208.685C293.779 214.492 297.187 220.39 302.484 223.032" stroke="#38215C" stroke-width="2.3122" stroke-miterlimit="10" stroke-linecap="round" stroke-linejoin="round"/>
<path d="M284.418 226.324H324.684C325.007 225.722 325.156 225.04 325.288 224.368C325.974 220.88 327.017 215.528 327.703 212.04C328.59 216.179 329.12 222.184 330.007 226.324H335.84C333.669 217.224 331.819 205.106 331.092 195.789C330.668 190.353 329.671 183.887 330.824 178.54C331.519 175.317 331.816 172 332.207 168.71C332.848 163.307 333.49 157.906 334.131 152.503C334.958 134.787 328.479 122.986 304.492 125.185C293.957 126.152 285.174 139.679 285.692 152.649C285.536 162.81 285.381 172.971 285.225 183.132C285.153 187.856 285.212 192.603 285.008 197.324C284.834 201.343 285.301 205.385 285.241 209.428C285.173 214.128 285.143 221.677 284.418 226.324Z" fill="#7C3AED"/>
<path d="M286.217 226.324C286.843 221.648 286.875 214.609 286.94 210.141C286.999 206.098 286.532 202.056 286.707 198.038C286.912 193.316 286.852 188.57 286.924 183.845C287.08 173.684 287.235 163.523 287.391 153.362C286.873 140.393 295.656 126.864 306.191 125.898C313.32 125.244 318.893 125.836 323.196 127.444C318.695 125.303 312.596 124.442 304.492 125.185C293.957 126.152 285.174 139.68 285.692 152.649C285.536 162.81 285.381 172.971 285.225 183.132C285.153 187.856 285.212 192.604 285.008 197.325C284.834 201.344 285.301 205.385 285.241 209.429C285.172 214.128 285.142 221.677 284.417 226.324H286.217Z" fill="#666666"/>
<path d="M329.403 212.752C329.156 214.006 328.863 215.504 328.557 217.067C329.019 220.265 329.441 223.674 330.009 226.323H331.569C330.765 222.227 330.242 216.666 329.403 212.752Z" fill="#666666"/>
<path d="M331.094 195.788C330.67 190.352 329.673 183.886 330.826 178.539C331.521 175.316 331.818 172 332.209 168.709C332.85 163.307 333.492 157.905 334.133 152.502C334.936 135.305 328.852 123.684 306.556 125.03C304.858 126.202 303.36 127.755 302.188 129.8C297.598 137.806 297.107 148.388 296.781 157.345C296.4 167.815 296.64 178.31 297.546 188.749C298.523 200.013 297.721 226.476 297.721 226.476L324.684 226.323C325.007 225.722 325.156 225.039 325.288 224.367C325.974 220.879 327.017 215.527 327.703 212.039C328.59 216.179 329.12 222.184 330.007 226.323H335.84C333.67 217.224 331.82 205.106 331.094 195.788Z" fill="#7C3AED"/>
<path d="M292.26 143.959L300.508 208.86C300.508 208.86 329.971 189.287 330.922 188.062C330.589 185.335 330.563 182.57 330.89 179.816L331.328 176.131C330.752 175.362 319.139 155.492 311.642 148.474C308.003 145.069 292.26 143.959 292.26 143.959Z" fill="#1A1A1A"/>
<path d="M285.673 199.728C288.138 199.127 290.604 199.42 292.857 200.56C295.597 201.946 297.947 197.852 295.203 196.463C291.784 194.733 288.049 194.314 284.317 195.224C281.321 195.954 282.678 200.458 285.673 199.728Z" fill="#FF786E"/>
<path d="M287.819 214.682C289.104 216.29 291.359 216.805 293.238 215.92L300.345 212.574C304.917 211.627 302.563 202.847 302.563 202.847C302.351 199.319 299.055 195.143 293.173 197.072C289.673 198.22 285.731 200.111 281.835 203.209C280.683 204.126 280.558 205.816 281.576 206.875L287.819 214.682Z" fill="#FFA099"/>
<path d="M291.256 196.808C286.853 198.144 282.564 199.999 278.424 202.094C277.266 202.68 276.796 204.063 277.378 205.205C277.385 205.219 277.392 205.234 277.399 205.247C277.988 206.403 279.43 206.866 280.6 206.272C284.474 204.306 288.48 202.566 292.613 201.312C295.557 200.418 294.214 195.911 291.256 196.808Z" fill="#FFA099"/>
<path d="M281.864 210.634C282.973 210.346 284.082 210.057 285.191 209.77C286.404 209.454 287.224 208.029 286.812 206.853C286.381 205.623 285.132 204.928 283.834 205.266C282.725 205.554 281.616 205.843 280.507 206.131C279.294 206.446 278.473 207.871 278.886 209.047C279.316 210.277 280.566 210.972 281.864 210.634Z" fill="#FFA099"/>
<path d="M283.385 214.633C286.509 214.93 289.469 213.798 291.82 211.83C292.804 211.005 292.638 209.336 291.77 208.509C290.769 207.556 289.367 207.731 288.38 208.557C286.942 209.762 285.095 210.113 283.256 209.938C281.966 209.815 280.893 211.193 280.924 212.349C280.961 213.744 282.092 214.509 283.385 214.633Z" fill="#FFA099"/>
<path d="M287.353 218.206C289.041 217.562 290.728 216.918 292.416 216.273C293.621 215.813 294.426 214.646 294.037 213.357C293.694 212.22 292.271 211.306 291.059 211.77C289.371 212.414 287.684 213.058 285.996 213.703C284.792 214.163 283.986 215.33 284.375 216.619C284.718 217.756 286.14 218.669 287.353 218.206Z" fill="#FFA099"/>
<path d="M298.727 192.153C304.389 192.274 308.878 196.867 308.754 202.412C308.63 207.956 303.94 212.352 298.278 212.231C292.616 212.11 288.127 207.517 288.251 201.972C288.374 196.427 293.065 192.031 298.727 192.153Z" fill="#E6E6E6"/>
<path d="M292.513 204.992C293.286 205.922 294.208 206.754 295.236 207.442C297.873 209.207 301.221 209.893 304.37 209.417C307.167 208.995 307.773 207.912 309.104 205.757C311.288 202.222 313.548 198.729 315.769 195.216C319.314 189.61 322.859 184.003 326.404 178.396C331.103 170.185 331.392 165.643 326.158 157.747C323.357 153.453 320.556 149.159 317.754 144.864C314.023 139.144 310.406 130.348 302.184 130.662C297.271 130.851 292.748 134.666 291.83 139.396C290.654 145.452 294.972 152.387 297.859 157.482C299.485 160.352 301.135 163.211 302.772 166.075C302.976 166.433 305.072 169.386 304.872 169.748C302.009 174.948 299.147 180.149 296.284 185.349C294.579 188.447 292.981 191.634 291.156 194.665C289.108 198.07 290.047 202.025 292.513 204.992Z" fill="#7C3AED"/>
</svg>
