<svg width="550" height="550" viewBox="0 0 550 550" fill="none" xmlns="http://www.w3.org/2000/svg">
<path d="M550 420.64H0V420.915H550V420.64Z" fill="#EBEBEB"/>
<path d="M494.889 438.339H458.457V438.614H494.889V438.339Z" fill="#EBEBEB"/>
<path d="M444.609 438.339H366.718V438.614H444.609V438.339Z" fill="#EBEBEB"/>
<path d="M323.763 428.131H302.654V428.406H323.763V428.131Z" fill="#EBEBEB"/>
<path d="M95.4246 429.979H57.7056V430.254H95.4246V429.979Z" fill="#EBEBEB"/>
<path d="M173.798 429.979H105.213V430.254H173.798V429.979Z" fill="#EBEBEB"/>
<path d="M247.654 434.621H207.163V434.896H247.654V434.621Z" fill="#EBEBEB"/>
<path d="M260.701 371.58H48.3022C46.6383 371.577 45.0435 370.914 43.868 369.736C42.6925 368.559 42.0322 366.963 42.0322 365.299V66.726C42.0467 65.0716 42.7133 63.4898 43.8873 62.324C45.0613 61.1583 46.6478 60.5028 48.3022 60.5H260.701C262.367 60.5 263.965 61.1617 265.143 62.3397C266.32 63.5176 266.982 65.1152 266.982 66.781V365.299C266.982 366.965 266.32 368.562 265.143 369.74C263.965 370.918 262.367 371.58 260.701 371.58ZM48.3022 60.72C46.7112 60.7229 45.1864 61.357 44.0625 62.483C42.9385 63.609 42.3072 65.135 42.3072 66.726V365.299C42.3072 366.89 42.9385 368.416 44.0625 369.542C45.1864 370.668 46.7112 371.302 48.3022 371.305H260.701C262.293 371.302 263.819 370.668 264.945 369.543C266.071 368.417 266.704 366.891 266.707 365.299V66.726C266.704 65.134 266.071 63.608 264.945 62.4823C263.819 61.3566 262.293 60.7229 260.701 60.72H48.3022Z" fill="#EBEBEB"/>
<path d="M498.639 371.58H286.229C284.564 371.577 282.968 370.914 281.791 369.737C280.614 368.56 279.951 366.964 279.948 365.299V66.726C279.966 65.0706 280.635 63.4888 281.81 62.3234C282.986 61.1579 284.574 60.5028 286.229 60.5H498.639C500.292 60.5057 501.875 61.1625 503.047 62.3279C504.219 63.4933 504.884 65.0735 504.898 66.726V365.299C504.898 366.961 504.24 368.555 503.066 369.733C501.893 370.91 500.301 371.574 498.639 371.58ZM286.229 60.72C284.637 60.7229 283.111 61.3566 281.986 62.4823C280.86 63.608 280.226 65.134 280.223 66.726V365.299C280.226 366.891 280.86 368.417 281.986 369.543C283.111 370.668 284.637 371.302 286.229 371.305H498.639C500.231 371.302 501.757 370.668 502.883 369.543C504.009 368.417 504.642 366.891 504.645 365.299V66.726C504.642 65.134 504.009 63.608 502.883 62.4823C501.757 61.3566 500.231 60.7229 498.639 60.72H286.229Z" fill="#EBEBEB"/>
<path d="M220.206 272.514L471.105 272.514V86.0967L220.206 86.0967L220.206 272.514Z" fill="#E6E6E6"/>
<path d="M216.326 272.514L467.225 272.514V86.0967L216.326 86.0967L216.326 272.514Z" fill="#F5F5F5"/>
<path d="M460.252 264.693V93.9287L223.29 93.9287V264.693H460.252Z" fill="white"/>
<path d="M226.214 264.682V93.918H223.277V264.682H226.214Z" fill="#E6E6E6"/>
<path d="M219.196 228.206L464.331 228.206V217.69L219.196 217.69V228.206Z" fill="#F5F5F5"/>
<g opacity="0.4">
<path d="M232.218 77.8584H208.535V137.775H232.218V77.8584Z" fill="#E6E6E6"/>
<path d="M232.216 132.957H243.964V77.858H232.216V132.957Z" fill="#F5F5F5"/>
<path d="M267.647 77.8584H243.964V137.775H267.647V77.8584Z" fill="#E6E6E6"/>
<path d="M267.648 132.957H279.396V77.858H267.648V132.957Z" fill="#F5F5F5"/>
<path d="M303.079 77.8584H279.396V137.775H303.079V77.8584Z" fill="#E6E6E6"/>
<path d="M303.081 132.957H314.829V77.858H303.081V132.957Z" fill="#F5F5F5"/>
<path d="M338.512 77.8584H314.829V137.775H338.512V77.8584Z" fill="#E6E6E6"/>
<path d="M338.51 132.957H350.258V77.858H338.51V132.957Z" fill="#F5F5F5"/>
<path d="M373.941 77.8584H350.258V137.775H373.941V77.8584Z" fill="#E6E6E6"/>
<path d="M373.942 132.957H385.69V77.858H373.942V132.957Z" fill="#F5F5F5"/>
<path d="M409.373 77.8584H385.69V137.775H409.373V77.8584Z" fill="#E6E6E6"/>
<path d="M409.372 132.957H421.12V77.858H409.372V132.957Z" fill="#F5F5F5"/>
<path d="M444.803 77.8584H421.12V137.775H444.803V77.8584Z" fill="#E6E6E6"/>
<path d="M444.804 132.957H456.552V77.858H444.804V132.957Z" fill="#F5F5F5"/>
<path d="M480.235 77.8584H456.552V137.775H480.235V77.8584Z" fill="#E6E6E6"/>
</g>
<path d="M224.083 420.64H253.442V311.3H224.083V420.64Z" fill="#E6E6E6"/>
<path d="M228.976 420.64H224.092V410.795H234.102L228.976 420.64Z" fill="#F0F0F0"/>
<path d="M224.089 416.855H439.59V311.299H224.089V416.855Z" fill="#F0F0F0"/>
<path d="M227.885 344.927H435.807V315.975H227.885V344.927Z" fill="#E6E6E6"/>
<path d="M280.501 324.973H383.23C387.993 324.973 392.558 321.398 395.836 315.073H267.873C271.151 321.398 275.705 324.973 280.501 324.973Z" fill="#F0F0F0"/>
<path d="M434.71 420.64H439.594V410.795H429.583L434.71 420.64Z" fill="#F0F0F0"/>
<path d="M227.885 378.554H435.807V349.602H227.885V378.554Z" fill="#E6E6E6"/>
<path d="M280.501 358.6H383.23C387.993 358.6 392.558 355.036 395.836 348.7H267.873C271.151 355.036 275.705 358.6 280.501 358.6Z" fill="#F0F0F0"/>
<path d="M227.885 412.181H435.807V383.229H227.885V412.181Z" fill="#E6E6E6"/>
<path d="M280.501 392.227H383.23C387.993 392.227 392.558 388.663 395.836 382.327H267.873C271.151 388.663 275.705 392.227 280.501 392.227Z" fill="#F0F0F0"/>
<path d="M406.872 451.583H405.695C405.45 451.564 405.219 451.457 405.047 451.281C404.875 451.105 404.773 450.872 404.76 450.626L397.522 400.224H403.022L407.818 450.296C407.845 450.443 407.841 450.594 407.808 450.739C407.774 450.885 407.711 451.022 407.622 451.143C407.534 451.263 407.422 451.364 407.293 451.44C407.164 451.516 407.021 451.564 406.872 451.583Z" fill="#6D68CF"/>
<path opacity="0.3" d="M406.872 451.583H405.695C405.45 451.564 405.219 451.457 405.047 451.281C404.875 451.105 404.773 450.872 404.76 450.626L397.522 400.224H403.022L407.818 450.296C407.845 450.443 407.841 450.594 407.808 450.739C407.774 450.885 407.711 451.022 407.622 451.143C407.534 451.263 407.422 451.364 407.293 451.44C407.164 451.516 407.021 451.564 406.872 451.583Z" fill="black"/>
<path d="M421.962 451.583H420.785C420.539 451.564 420.309 451.457 420.137 451.281C419.964 451.105 419.862 450.872 419.85 450.626L412.612 400.224H418.112L422.919 450.296C422.945 450.444 422.941 450.595 422.907 450.742C422.872 450.888 422.808 451.026 422.719 451.146C422.629 451.267 422.516 451.368 422.385 451.443C422.255 451.518 422.111 451.565 421.962 451.583Z" fill="#6D68CF"/>
<path opacity="0.3" d="M421.962 451.583H420.785C420.539 451.564 420.309 451.457 420.137 451.281C419.964 451.105 419.862 450.872 419.85 450.626L412.612 400.224H418.112L422.919 450.296C422.945 450.444 422.941 450.595 422.907 450.742C422.872 450.888 422.808 451.026 422.719 451.146C422.629 451.267 422.516 451.368 422.385 451.443C422.255 451.518 422.111 451.565 421.962 451.583Z" fill="black"/>
<path d="M337.877 451.583H339.054C339.299 451.564 339.53 451.457 339.702 451.281C339.874 451.105 339.976 450.872 339.989 450.626L347.227 400.224H341.727L336.931 450.296C336.904 450.443 336.908 450.594 336.941 450.739C336.975 450.885 337.038 451.022 337.127 451.143C337.215 451.263 337.327 451.364 337.456 451.44C337.585 451.516 337.728 451.564 337.877 451.583Z" fill="#6D68CF"/>
<path opacity="0.3" d="M337.877 451.583H339.054C339.299 451.564 339.53 451.457 339.702 451.281C339.874 451.105 339.976 450.872 339.989 450.626L347.227 400.224H341.727L336.931 450.296C336.904 450.443 336.908 450.594 336.941 450.739C336.975 450.885 337.038 451.022 337.127 451.143C337.215 451.263 337.327 451.364 337.456 451.44C337.585 451.516 337.728 451.564 337.877 451.583Z" fill="black"/>
<path d="M322.787 451.583H323.964C324.21 451.564 324.44 451.457 324.612 451.281C324.785 451.105 324.887 450.872 324.899 450.626L332.137 400.224H326.637L321.841 450.296C321.815 450.443 321.818 450.594 321.852 450.739C321.886 450.885 321.949 451.022 322.037 451.143C322.126 451.263 322.238 451.364 322.367 451.44C322.496 451.516 322.639 451.564 322.787 451.583Z" fill="#6D68CF"/>
<path opacity="0.3" d="M322.787 451.583H323.964C324.21 451.564 324.44 451.457 324.612 451.281C324.785 451.105 324.887 450.872 324.899 450.626L332.137 400.224H326.637L321.841 450.296C321.815 450.443 321.818 450.594 321.852 450.739C321.886 450.885 321.949 451.022 322.037 451.143C322.126 451.263 322.238 451.364 322.367 451.44C322.496 451.516 322.639 451.564 322.787 451.583Z" fill="black"/>
<path d="M303.228 340.461H340.276C346.876 317.636 370.504 299.629 394.726 299.629H406.76C432.06 299.629 448.472 319.352 443.302 343.695C442.336 348.173 440.747 352.494 438.583 356.532L432.742 391.941C431.994 396.517 428.342 400.224 424.602 400.224H313.084C309.344 400.224 305.692 396.517 304.944 391.941L297.816 348.7C297.057 344.168 299.488 340.461 303.228 340.461Z" fill="#6D68CF"/>
<path opacity="0.5" d="M303.228 340.461H340.276C346.876 317.636 370.504 299.629 394.726 299.629H406.76C432.06 299.629 448.472 319.352 443.302 343.695C442.336 348.173 440.747 352.494 438.583 356.532L432.742 391.941C431.994 396.517 428.342 400.224 424.602 400.224H313.084C309.344 400.224 305.692 396.517 304.944 391.941L297.816 348.7C297.057 344.168 299.488 340.461 303.228 340.461Z" fill="white"/>
<path d="M293.955 438.548L303.129 442.75C303.285 442.815 303.409 442.94 303.475 443.096C303.541 443.252 303.543 443.428 303.481 443.586L300.588 451.055C300.415 451.436 300.098 451.734 299.706 451.882C299.315 452.03 298.88 452.018 298.498 451.847C295.33 450.329 293.889 449.438 289.852 447.59C285.585 445.481 281.462 443.092 277.51 440.44C274.518 438.24 276.718 435.27 278.203 435.93C284.913 438.889 289.203 439.153 292.316 438.405C292.862 438.262 293.441 438.313 293.955 438.548Z" fill="#332828"/>
<path d="M359.019 326.072C359.019 326.072 300.356 326.798 299.443 349.92C298.145 383.162 293.239 438.349 293.239 438.349L303.139 442.749C303.139 442.749 320.475 387.375 321.091 361.415C337.591 357.323 380.018 361.415 385.001 347.929C387.444 340.915 388.09 333.401 386.882 326.072H359.019Z" fill="#6D68CF"/>
<path opacity="0.2" d="M359.019 326.072C359.019 326.072 300.356 326.798 299.443 349.92C298.145 383.162 293.239 438.349 293.239 438.349L303.139 442.749C303.139 442.749 320.475 387.375 321.091 361.415C337.591 357.323 380.018 361.415 385.001 347.929C387.444 340.915 388.09 333.401 386.882 326.072H359.019Z" fill="#F2C17C"/>
<path d="M371.506 265.231C370.989 267.365 370.472 269.29 369.889 271.292C369.306 273.294 368.701 275.241 368.063 277.199C366.776 281.115 365.357 285.009 363.729 288.859C362.099 292.795 360.206 296.617 358.064 300.299C356.939 302.246 355.698 304.123 354.346 305.92C352.857 307.91 351.14 309.719 349.231 311.31L349.066 311.453L348.714 311.717C347.603 312.443 346.337 312.895 345.018 313.037C344.189 313.139 343.35 313.139 342.521 313.037C341.368 312.896 340.235 312.623 339.144 312.223C337.453 311.614 335.809 310.878 334.227 310.023C331.404 308.453 328.675 306.72 326.054 304.831C323.502 302.994 321.038 301.091 318.64 299.111C316.242 297.131 313.943 295.107 311.666 292.929C311.082 292.362 310.723 291.602 310.656 290.791C310.59 289.98 310.819 289.172 311.302 288.516C311.786 287.861 312.49 287.403 313.285 287.228C314.08 287.052 314.912 287.171 315.626 287.561H315.681C318.277 289.002 320.895 290.531 323.524 291.961C326.153 293.391 328.749 294.832 331.356 296.174C333.963 297.516 336.581 298.792 339.056 299.826C340.192 300.311 341.365 300.701 342.565 300.992C342.922 301.099 343.293 301.147 343.665 301.135C343.742 301.135 343.665 301.135 343.434 301.135C342.874 301.2 342.338 301.4 341.872 301.718L341.344 302.114C342.427 301.06 343.384 299.882 344.193 298.605C345.159 297.155 346.044 295.653 346.844 294.106C348.531 290.786 350.04 287.379 351.365 283.898C352.718 280.356 353.983 276.726 355.16 273.052C356.337 269.378 357.437 265.605 358.46 262.052V261.92C358.927 260.215 360.046 258.761 361.576 257.874C363.106 256.987 364.924 256.737 366.636 257.18C368.349 257.622 369.818 258.72 370.727 260.237C371.637 261.754 371.912 263.568 371.495 265.286L371.506 265.231Z" fill="#F2C17C"/>
<path d="M347.723 443.3H358.723C358.815 443.295 358.907 443.309 358.993 443.341C359.08 443.372 359.159 443.42 359.227 443.483C359.294 443.545 359.349 443.621 359.387 443.704C359.425 443.788 359.446 443.879 359.449 443.971L359.988 452.672C359.988 453.13 359.808 453.57 359.487 453.897C359.166 454.224 358.73 454.412 358.272 454.421C354.444 454.355 352.607 454.124 347.767 454.124C344.797 454.124 338.791 454.432 334.677 454.432C330.563 454.432 330.684 450.373 332.422 450.032C340.243 448.382 343.268 446.105 346.029 443.927C346.51 443.539 347.105 443.319 347.723 443.3Z" fill="#332828"/>
<path d="M374.826 326.073C374.826 326.073 321.619 330.56 322.928 353.671C324.358 378.971 347.722 443.322 347.722 443.322H358.48C358.48 443.322 349.273 384.394 346.028 358.621C361.032 358.621 395.814 361.438 400.808 347.919C403.25 340.904 403.893 333.389 402.678 326.062L374.826 326.073Z" fill="#877ABF"/>
<path d="M316.449 288.64C315.619 287.288 314.612 286.052 313.457 284.966C311.257 287.012 310.058 292.963 310.058 292.963L313.061 293.227C313.061 293.227 316.515 292.105 316.449 288.64Z" fill="#6D68CF"/>
<path d="M305.406 283.294L301.985 281.809C301.541 281.617 301.042 281.592 300.581 281.74C300.12 281.888 299.728 282.197 299.477 282.612L297.849 285.296C297.624 285.674 297.53 286.115 297.579 286.552C297.629 286.989 297.82 287.398 298.124 287.716L302.821 292.611L310.653 292.292C311.096 292.277 311.526 292.143 311.9 291.905C312.273 291.667 312.576 291.334 312.776 290.939L313.678 289.168C313.962 288.635 314.04 288.016 313.896 287.429C313.752 286.842 313.396 286.33 312.897 285.989C310.356 284.317 305.406 283.294 305.406 283.294Z" fill="#FFC3BD"/>
<path d="M358.514 263.441C356.952 273.341 354.917 294.714 359.064 326.944L402.679 326.537C402.415 304.196 405.913 283.23 409.334 262.737C409.469 261.932 409.442 261.109 409.253 260.315C409.065 259.521 408.719 258.773 408.235 258.115C407.752 257.458 407.142 256.904 406.44 256.486C405.739 256.069 404.961 255.797 404.153 255.686C391.644 254.223 379.008 254.223 366.5 255.686C364.515 255.957 362.669 256.856 361.232 258.251C359.796 259.647 358.843 261.465 358.514 263.441Z" fill="#F2C17C"/>
<path d="M409.73 259.489C411.017 262.668 412.04 265.715 413.096 268.861C414.152 272.007 415.054 275.164 415.923 278.365C416.792 281.566 417.551 284.833 418.123 288.166C418.788 291.57 419.233 295.013 419.454 298.473C419.52 299.364 419.531 300.288 419.542 301.212V302.62C419.526 304.066 419.148 305.484 418.442 306.745C417.972 307.565 417.352 308.288 416.616 308.879C416.272 309.155 415.904 309.398 415.516 309.605C415.164 309.799 414.796 309.961 414.416 310.089C413.381 310.474 412.285 310.668 411.182 310.661C409.877 310.632 408.582 310.428 407.332 310.056C405.501 309.506 403.721 308.803 402.008 307.955C400.413 307.163 398.917 306.338 397.454 305.48C391.767 302.084 386.369 298.225 381.317 293.941C380.681 293.42 380.259 292.683 380.131 291.872C380.003 291.06 380.177 290.229 380.621 289.537C381.064 288.845 381.746 288.34 382.538 288.118C383.329 287.896 384.175 287.972 384.914 288.331H384.991C390.678 291.037 396.464 293.831 402.096 296.152C403.504 296.724 404.901 297.252 406.276 297.725C407.494 298.173 408.749 298.516 410.027 298.748C410.533 298.836 410.984 298.825 410.929 298.748C410.63 298.72 410.33 298.774 410.06 298.902C409.886 298.969 409.717 299.046 409.554 299.133C409.343 299.246 409.144 299.379 408.96 299.529C408.524 299.869 408.152 300.282 407.86 300.75C407.53 301.298 407.334 301.916 407.288 302.554L407.233 301.553C407.167 300.871 407.112 300.2 407.013 299.496C406.096 293.533 404.721 287.648 402.899 281.896C401.139 275.989 399.115 269.961 397.058 264.23V264.175C396.489 262.523 396.585 260.715 397.325 259.133C398.065 257.55 399.392 256.318 401.024 255.695C402.656 255.072 404.467 255.109 406.073 255.796C407.679 256.484 408.955 257.769 409.631 259.379L409.73 259.489Z" fill="#F2C17C"/>
<path d="M392.296 233.101L387.027 237.501L379.833 243.474C380.055 244.426 380.21 245.393 380.295 246.367C380.636 249.843 379.877 253.033 375.664 254.65C374.863 254.912 374.133 255.355 373.53 255.944C372.928 256.534 372.469 257.254 372.188 258.049C371.616 259.886 372.287 261.943 378.073 261.943C386.576 261.943 391.009 258.159 392.681 256.3C392.906 256.041 393.036 255.714 393.05 255.373C393.064 255.031 392.961 254.694 392.758 254.419C389.403 249.623 390.921 239.063 392.296 233.101Z" fill="#FFC3BD"/>
<path d="M377.863 260.051C378.233 260.478 378.487 260.993 378.6 261.547C379.037 260.955 379.577 260.448 380.195 260.051C380.927 260.395 381.577 260.89 382.102 261.505C382.628 262.119 383.016 262.839 383.242 263.615C381.64 263.286 380.097 262.715 378.666 261.921C377.723 262.444 376.682 262.766 375.608 262.867C375.674 260.964 377.863 260.051 377.863 260.051Z" fill="#6D68CF"/>
<path d="M380.194 260.051C381.721 261.889 382.728 264.104 383.109 266.464C383.109 266.464 397.189 262.944 396.529 253.759C395.291 253.174 393.976 252.77 392.624 252.56C392.624 252.56 389.599 258.06 380.194 260.051Z" fill="#6D68CF"/>
<path d="M377.865 260.051C376.324 261.904 375.259 264.105 374.763 266.464C374.763 266.464 367.547 259.864 374.576 253.836C375.789 253.45 377.039 253.188 378.305 253.055C378.305 253.055 373.63 256.85 377.865 260.051Z" fill="#6D68CF"/>
<path opacity="0.2" d="M379.832 243.441C380.053 244.397 380.207 245.367 380.294 246.345C382.978 245.806 386.553 242.957 386.894 240.218C387.026 239.311 387.059 238.392 386.993 237.479L379.832 243.441Z" fill="black"/>
<path d="M372.131 214.159C365.531 218.856 369.205 229.867 374.859 225.654C380.513 221.441 377.521 210.331 372.131 214.159Z" fill="#6D68CF"/>
<path d="M394.474 223.97C392.637 232.396 391.999 237.412 387.016 241.262C385.41 242.53 383.489 243.334 381.46 243.589C379.431 243.844 377.37 243.54 375.501 242.708C373.633 241.877 372.027 240.551 370.857 238.873C369.688 237.195 368.999 235.229 368.866 233.188C368.206 225.334 371.319 212.86 380.185 210.473C382.093 209.904 384.118 209.847 386.055 210.308C387.993 210.769 389.775 211.732 391.223 213.099C392.671 214.467 393.733 216.191 394.304 218.1C394.874 220.008 394.933 222.032 394.474 223.97Z" fill="#FFC3BD"/>
<path d="M390.568 217.711C385.893 216.424 373.837 219.493 369.558 214.928C364.971 210.033 371.659 207.646 373.639 209.351C371.142 206.491 372.066 203.433 375.608 203.708C378.193 203.906 379.007 206.766 379.007 206.766C379.007 206.766 378.578 201.761 383.022 202.113C387.048 202.421 387.059 207.855 387.059 207.855C387.059 207.855 396.673 205.138 399.885 214.312C405.935 214.18 405.803 226.918 393.626 231.45C388.687 229.008 388.456 220.318 390.568 217.711Z" fill="#332828"/>
<path d="M398.589 216.149C398.272 216.168 397.96 216.063 397.719 215.856C397.478 215.649 397.328 215.357 397.299 215.04C397.27 214.724 397.366 214.409 397.566 214.162C397.766 213.915 398.054 213.756 398.369 213.718C398.7 213.509 398.951 213.195 399.084 212.827C399.261 212.475 399.365 212.09 399.387 211.697C399.41 211.303 399.352 210.909 399.216 210.539C399.124 210.392 399.064 210.227 399.04 210.055C399.017 209.883 399.03 209.708 399.08 209.541C399.13 209.375 399.214 209.221 399.328 209.09C399.442 208.959 399.582 208.853 399.74 208.781C399.898 208.708 400.069 208.67 400.243 208.669C400.416 208.668 400.588 208.704 400.747 208.775C400.906 208.845 401.047 208.949 401.163 209.079C401.278 209.208 401.364 209.361 401.416 209.527C401.715 210.263 401.846 211.057 401.801 211.85C401.755 212.644 401.533 213.417 401.152 214.114C400.937 214.607 400.612 215.045 400.202 215.394C399.792 215.742 399.308 215.993 398.787 216.127C398.722 216.144 398.656 216.151 398.589 216.149Z" fill="#6D68CF"/>
<path d="M395.848 231.791C394.704 233.276 393.057 234.293 391.217 234.651C388.83 235.08 388.104 232.88 389.16 230.757C390.106 228.832 392.46 226.302 394.66 226.852C396.86 227.402 397.256 229.899 395.848 231.791Z" fill="#FFC3BD"/>
<path d="M380.03 224.741C379.92 225.434 379.469 225.951 379.018 225.896C378.567 225.841 378.281 225.236 378.38 224.543C378.479 223.85 378.941 223.333 379.403 223.443C379.865 223.553 380.129 224.048 380.03 224.741Z" fill="#6D68CF"/>
<path d="M372.175 223.806C372.065 224.499 371.614 225.016 371.163 224.906C370.712 224.796 370.426 224.246 370.525 223.553C370.624 222.86 371.086 222.343 371.548 222.398C372.01 222.453 372.285 223.113 372.175 223.806Z" fill="#6D68CF"/>
<path d="M374.574 224.08C373.699 225.866 372.589 227.527 371.274 229.019C371.664 229.33 372.117 229.552 372.602 229.668C373.087 229.784 373.591 229.791 374.079 229.69L374.574 224.08Z" fill="#ED847E"/>
<path d="M377.303 233.254C378.12 233.265 378.931 233.111 379.687 232.801C380.443 232.491 381.128 232.031 381.703 231.45C381.73 231.408 381.741 231.358 381.734 231.309C381.728 231.26 381.703 231.214 381.666 231.181C381.629 231.148 381.581 231.129 381.532 231.128C381.482 231.127 381.433 231.144 381.395 231.175C380.767 231.796 380.005 232.264 379.168 232.545C378.331 232.825 377.441 232.91 376.566 232.792C376.512 232.788 376.46 232.804 376.417 232.837C376.375 232.869 376.345 232.916 376.335 232.968C376.332 232.996 376.334 233.023 376.342 233.05C376.35 233.076 376.363 233.101 376.38 233.123C376.397 233.144 376.419 233.162 376.443 233.175C376.468 233.188 376.494 233.196 376.522 233.199C376.781 233.232 377.042 233.251 377.303 233.254Z" fill="#6D68CF"/>
<path d="M383.186 220.748C383.251 220.734 383.312 220.704 383.362 220.66C383.401 220.622 383.432 220.577 383.453 220.527C383.474 220.477 383.485 220.423 383.485 220.368C383.485 220.314 383.474 220.26 383.453 220.21C383.432 220.16 383.401 220.115 383.362 220.077C382.945 219.584 382.412 219.201 381.811 218.964C381.211 218.726 380.561 218.64 379.919 218.713C379.866 218.722 379.814 218.741 379.768 218.769C379.722 218.798 379.682 218.835 379.651 218.879C379.619 218.923 379.596 218.972 379.584 219.025C379.571 219.078 379.569 219.132 379.578 219.186C379.587 219.239 379.606 219.291 379.634 219.337C379.663 219.383 379.7 219.423 379.744 219.454C379.788 219.486 379.838 219.509 379.89 219.521C379.943 219.534 379.998 219.536 380.051 219.527C380.557 219.478 381.068 219.552 381.539 219.744C382.011 219.935 382.429 220.238 382.757 220.627C382.809 220.687 382.877 220.73 382.954 220.751C383.03 220.773 383.111 220.772 383.186 220.748Z" fill="#6D68CF"/>
<path d="M369.373 220.297C369.437 220.315 369.504 220.317 369.569 220.304C369.634 220.29 369.695 220.261 369.747 220.22C370.141 219.869 370.612 219.614 371.122 219.477C371.632 219.34 372.167 219.323 372.684 219.428C372.789 219.455 372.9 219.441 372.995 219.387C373.089 219.334 373.159 219.246 373.19 219.142C373.205 219.09 373.21 219.035 373.203 218.982C373.197 218.928 373.18 218.876 373.153 218.829C373.127 218.782 373.091 218.74 373.048 218.707C373.005 218.674 372.956 218.65 372.904 218.636C372.26 218.497 371.591 218.511 370.953 218.677C370.315 218.843 369.725 219.157 369.23 219.593C369.147 219.662 369.095 219.76 369.084 219.868C369.074 219.975 369.107 220.082 369.175 220.165C369.226 220.228 369.295 220.274 369.373 220.297Z" fill="#6D68CF"/>
<path d="M383.693 282.633L378.875 279.641C378.532 279.427 378.15 279.283 377.751 279.218C377.352 279.153 376.944 279.168 376.551 279.263C376.158 279.357 375.787 279.528 375.461 279.767C375.135 280.006 374.859 280.307 374.651 280.653L374.09 281.599C373.755 282.151 373.604 282.794 373.659 283.437C373.715 284.08 373.973 284.688 374.398 285.174L377.698 288.991C377.698 288.991 380.591 295.734 383.946 293.952L386.498 289.552L383.693 282.633Z" fill="#FFC3BD"/>
<path d="M388.657 291.258C387.997 289.661 387.139 288.153 386.105 286.77C383.685 288.838 381.705 295.438 381.705 295.438L384.664 296.076C385.74 295.773 386.699 295.15 387.412 294.29C388.125 293.429 388.56 292.371 388.657 291.258Z" fill="#6D68CF"/>
<path d="M425.515 340.461H368.403C364.663 340.461 362.243 344.168 362.991 348.744L370.119 391.941C370.878 396.517 374.519 400.224 378.27 400.224H418.442L425.515 340.461Z" fill="#6D68CF"/>
<path opacity="0.5" d="M425.515 340.461H368.403C364.663 340.461 362.243 344.168 362.991 348.744L370.119 391.941C370.878 396.517 374.519 400.224 378.27 400.224H418.442L425.515 340.461Z" fill="white"/>
<path d="M162.011 455.29H163.661C163.953 455.29 164.232 455.175 164.439 454.968C164.645 454.762 164.761 454.482 164.761 454.19L173.803 317.9H166.994L160.944 454.036C160.922 454.19 160.933 454.347 160.977 454.497C161.02 454.646 161.094 454.785 161.195 454.903C161.296 455.022 161.421 455.118 161.562 455.184C161.702 455.251 161.855 455.287 162.011 455.29Z" fill="#C1DDED"/>
<path opacity="0.3" d="M162.011 455.29H163.661C163.953 455.29 164.232 455.175 164.439 454.968C164.645 454.762 164.761 454.482 164.761 454.19L173.803 317.9H166.994L160.944 454.036C160.922 454.19 160.933 454.347 160.977 454.497C161.02 454.646 161.094 454.785 161.195 454.903C161.296 455.022 161.421 455.118 161.562 455.184C161.702 455.251 161.855 455.287 162.011 455.29Z" fill="white"/>
<path d="M143.313 455.29H144.963C145.254 455.29 145.534 455.175 145.741 454.968C145.947 454.762 146.063 454.482 146.063 454.19L155.105 317.9H148.285L142.246 454.036C142.224 454.19 142.235 454.347 142.278 454.497C142.322 454.646 142.396 454.785 142.497 454.903C142.598 455.022 142.723 455.118 142.863 455.184C143.004 455.251 143.157 455.287 143.313 455.29Z" fill="#C1DDED"/>
<path opacity="0.3" d="M143.313 455.29H144.963C145.254 455.29 145.534 455.175 145.741 454.968C145.947 454.762 146.063 454.482 146.063 454.19L155.105 317.9H148.285L142.246 454.036C142.224 454.19 142.235 454.347 142.278 454.497C142.322 454.646 142.396 454.785 142.497 454.903C142.598 455.022 142.723 455.118 142.863 455.184C143.004 455.251 143.157 455.287 143.313 455.29Z" fill="white"/>
<path d="M373.926 455.29H372.276C371.985 455.29 371.705 455.175 371.498 454.968C371.292 454.762 371.176 454.482 371.176 454.19L362.134 317.9H368.943L374.993 454.036C375.015 454.19 375.004 454.347 374.961 454.497C374.917 454.646 374.843 454.785 374.742 454.903C374.641 455.022 374.516 455.118 374.376 455.184C374.235 455.251 374.082 455.287 373.926 455.29Z" fill="#C1DDED"/>
<path opacity="0.3" d="M373.926 455.29H372.276C371.985 455.29 371.705 455.175 371.498 454.968C371.292 454.762 371.176 454.482 371.176 454.19L362.134 317.9H368.943L374.993 454.036C375.015 454.19 375.004 454.347 374.961 454.497C374.917 454.646 374.843 454.785 374.742 454.903C374.641 455.022 374.516 455.118 374.376 455.184C374.235 455.251 374.082 455.287 373.926 455.29Z" fill="white"/>
<path d="M392.627 455.29H390.977C390.686 455.29 390.406 455.175 390.2 454.968C389.993 454.762 389.877 454.482 389.877 454.19L380.835 317.9H387.655L393.694 454.036C393.716 454.19 393.705 454.347 393.662 454.497C393.618 454.646 393.544 454.785 393.443 454.903C393.342 455.022 393.217 455.118 393.077 455.184C392.936 455.251 392.783 455.287 392.627 455.29Z" fill="#C1DDED"/>
<path opacity="0.3" d="M392.627 455.29H390.977C390.686 455.29 390.406 455.175 390.2 454.968C389.993 454.762 389.877 454.482 389.877 454.19L380.835 317.9H387.655L393.694 454.036C393.716 454.19 393.705 454.347 393.662 454.497C393.618 454.646 393.544 454.785 393.443 454.903C393.342 455.022 393.217 455.118 393.077 455.184C392.936 455.251 392.783 455.287 392.627 455.29Z" fill="white"/>
<path d="M400.491 315.128H135.061V317.933H400.491V315.128Z" fill="#C1DDED"/>
<path d="M130.634 271.701L128.126 290.148C127.334 296.286 126.509 302.446 125.926 308.496C125.849 309.255 125.794 309.992 125.728 310.696L125.64 311.796C125.658 311.613 125.658 311.429 125.64 311.246C125.619 311.069 125.578 310.896 125.519 310.729C125.474 310.596 125.419 310.468 125.354 310.344C125.31 310.255 125.258 310.17 125.2 310.091C125.002 309.838 124.98 309.871 125.035 309.926C125.147 310.046 125.273 310.153 125.409 310.245C125.872 310.562 126.357 310.845 126.861 311.092C129.479 312.289 132.181 313.293 134.946 314.095C140.71 315.844 146.771 317.395 152.755 318.836L152.073 324.083C145.675 323.89 139.301 323.232 132.999 322.114C129.66 321.552 126.379 320.687 123.198 319.529C122.263 319.168 121.355 318.742 120.481 318.253C119.941 317.945 119.426 317.596 118.941 317.208C118.268 316.675 117.678 316.045 117.192 315.338C116.842 314.815 116.561 314.249 116.356 313.655C116.243 313.294 116.155 312.927 116.092 312.555C116.052 312.189 116.029 311.822 116.026 311.455V310.234C116.026 309.42 116.026 308.606 116.092 307.803C116.356 301.379 116.939 295.109 117.621 288.839C118.303 282.569 119.095 276.354 120.074 270.139L130.634 271.701Z" fill="#F9AF88"/>
<path d="M166.551 324.5L162.514 328.185C162.052 328.605 161.476 328.877 160.859 328.967C160.242 329.057 159.611 328.961 159.049 328.691L154.594 326.546C154.594 326.546 147.994 326.271 147.037 322.234L148.753 319.099L158.994 317.999C160.045 317.886 161.104 318.122 162.008 318.67L166.232 321.255C166.498 321.424 166.721 321.65 166.886 321.918C167.051 322.185 167.153 322.487 167.184 322.8C167.214 323.113 167.173 323.429 167.064 323.723C166.954 324.018 166.779 324.284 166.551 324.5Z" fill="#F9AF88"/>
<path d="M142.395 233.816C143.495 240.152 144.331 251.713 139.799 255.816C139.799 255.816 150.799 261.602 158.092 271.7C165.792 265.562 159.357 256.399 159.357 256.399C152.383 254.518 152.757 249.315 154.088 244.464L142.395 233.816Z" fill="#F9AF88"/>
<path d="M163.063 260.25C163.063 260.25 162.48 254.882 159.554 252.231C157.101 250.031 144.154 251.241 140.117 251.692C139.742 251.737 139.384 251.875 139.077 252.094C138.769 252.313 138.522 252.606 138.357 252.946L135.409 259.106L163.063 260.25Z" fill="#7C3AED"/>
<path opacity="0.8" d="M163.063 260.25C163.063 260.25 162.48 254.882 159.554 252.231C157.101 250.031 144.154 251.241 140.117 251.692C139.742 251.737 139.384 251.875 139.077 252.094C138.769 252.313 138.522 252.606 138.357 252.946L135.409 259.106L163.063 260.25Z" fill="white"/>
<path d="M127.303 257.4C119.339 259.996 117.623 270.677 118.349 278.982L134.42 288.882C134.42 288.882 138.325 276.782 138.292 270.27C138.259 263.384 132.715 255.662 127.303 257.4Z" fill="#7C3AED"/>
<path d="M130.415 286.474C130.212 286.478 130.011 286.443 129.822 286.369C129.633 286.295 129.461 286.185 129.315 286.045C129.249 285.973 129.19 285.896 129.139 285.814C129.078 285.733 129.03 285.644 128.996 285.55C128.96 285.46 128.93 285.368 128.908 285.275C128.897 285.18 128.897 285.084 128.908 284.989C128.903 284.785 128.939 284.583 129.015 284.394C129.091 284.205 129.204 284.033 129.348 283.889C129.633 283.62 130.011 283.47 130.404 283.47C130.796 283.47 131.174 283.62 131.46 283.889C131.603 284.033 131.717 284.205 131.792 284.394C131.868 284.583 131.904 284.785 131.9 284.989C131.91 285.084 131.91 285.18 131.9 285.275C131.882 285.37 131.853 285.462 131.812 285.55C131.781 285.644 131.736 285.733 131.68 285.814L131.493 286.045C131.35 286.185 131.182 286.294 130.997 286.368C130.812 286.442 130.614 286.478 130.415 286.474Z" fill="white"/>
<path d="M127.323 285.462C127.05 285.356 126.814 285.173 126.643 284.934C126.473 284.696 126.377 284.412 126.366 284.12C126.151 284.315 125.882 284.442 125.595 284.485C125.307 284.528 125.013 284.485 124.749 284.362C124.487 284.239 124.265 284.043 124.111 283.797C123.956 283.551 123.877 283.266 123.88 282.976C123.654 283.159 123.378 283.27 123.088 283.296C122.798 283.321 122.507 283.259 122.252 283.119C121.997 282.982 121.787 282.774 121.648 282.52C121.51 282.266 121.448 281.977 121.471 281.689C121.233 281.856 120.951 281.951 120.66 281.961C120.369 281.97 120.081 281.895 119.832 281.744C119.495 281.538 119.253 281.208 119.158 280.825C119.063 280.442 119.124 280.036 119.326 279.698C119.534 279.36 119.866 279.117 120.251 279.022C120.636 278.927 121.043 278.988 121.383 279.192C121.617 279.339 121.806 279.546 121.932 279.792C122.058 280.038 122.115 280.313 122.098 280.589C122.323 280.427 122.589 280.332 122.865 280.315C123.142 280.297 123.417 280.358 123.66 280.49C123.904 280.621 124.107 280.816 124.246 281.055C124.386 281.294 124.457 281.566 124.452 281.843C124.668 281.67 124.927 281.562 125.201 281.529C125.475 281.496 125.753 281.54 126.003 281.656C126.254 281.771 126.468 281.953 126.621 282.182C126.774 282.411 126.861 282.678 126.872 282.954C127.08 282.772 127.333 282.651 127.604 282.602C127.876 282.554 128.155 282.58 128.412 282.679C128.779 282.825 129.073 283.111 129.23 283.474C129.386 283.837 129.393 284.247 129.248 284.615C129.14 284.894 128.949 285.133 128.702 285.302C128.455 285.471 128.162 285.561 127.862 285.561C127.678 285.558 127.496 285.525 127.323 285.462Z" fill="white"/>
<path d="M118.347 280.5C118.248 280.511 118.148 280.511 118.05 280.5C117.954 280.483 117.862 280.454 117.775 280.412C117.68 280.382 117.591 280.337 117.511 280.28L117.291 280.093C117.219 280.028 117.157 279.954 117.104 279.873C117.104 279.785 117.005 279.697 116.961 279.609C116.926 279.519 116.897 279.427 116.873 279.334C116.867 279.235 116.867 279.136 116.873 279.037C116.867 278.942 116.867 278.846 116.873 278.751C116.897 278.654 116.926 278.559 116.961 278.465C116.997 278.375 117.045 278.29 117.104 278.212C117.159 278.13 117.222 278.053 117.291 277.981L117.511 277.794C117.594 277.741 117.682 277.697 117.775 277.662L118.05 277.574C118.29 277.531 118.536 277.545 118.77 277.616C119.003 277.687 119.216 277.812 119.392 277.981C119.46 278.053 119.523 278.13 119.579 278.212C119.633 278.293 119.68 278.377 119.722 278.465C119.757 278.557 119.783 278.653 119.799 278.751C119.81 278.846 119.81 278.942 119.799 279.037C119.809 279.136 119.809 279.236 119.799 279.334C119.783 279.428 119.757 279.521 119.722 279.609C119.722 279.697 119.634 279.785 119.579 279.873C119.526 279.954 119.463 280.028 119.392 280.093C119.109 280.358 118.734 280.504 118.347 280.5Z" fill="white"/>
<path d="M177.945 272.943C177.274 282.095 175.239 297.495 170.245 323.433L127.191 322.157C128.291 306.262 126.608 294.415 122.714 266.596C122.548 265.393 122.626 264.168 122.943 262.995C123.261 261.822 123.811 260.725 124.562 259.77C125.312 258.814 126.247 258.019 127.311 257.433C128.375 256.846 129.546 256.48 130.755 256.355C133.516 256.069 136.662 255.838 139.819 255.772C146.344 255.502 152.879 255.697 159.377 256.355C161.467 256.608 163.634 256.949 165.702 257.301C169.323 257.918 172.584 259.862 174.848 262.755C177.111 265.647 178.216 269.28 177.945 272.943Z" fill="#7C3AED"/>
<path d="M164.67 222.2C164.769 223.047 165.308 223.685 165.858 223.608C166.408 223.531 166.782 222.805 166.683 221.958C166.584 221.111 166.045 220.473 165.495 220.539C164.945 220.605 164.571 221.32 164.67 222.2Z" fill="#332828"/>
<path d="M165.252 220.594L167.221 219.758C167.221 219.758 166.363 221.474 165.252 220.594Z" fill="#332828"/>
<path d="M165 223.487C165.988 225.334 167.224 227.036 168.674 228.547C168.279 228.91 167.81 229.182 167.298 229.344C166.787 229.505 166.247 229.553 165.715 229.482L165 223.487Z" fill="#630F0F"/>
<path d="M164.769 214.732C164.813 214.654 164.835 214.567 164.835 214.479C164.835 214.39 164.813 214.303 164.769 214.226C164.71 214.107 164.607 214.016 164.481 213.973C164.356 213.93 164.218 213.937 164.098 213.995C163.369 214.319 162.728 214.814 162.23 215.438C161.732 216.062 161.392 216.797 161.238 217.581C161.229 217.646 161.233 217.712 161.249 217.776C161.266 217.839 161.295 217.899 161.335 217.951C161.375 218.003 161.425 218.047 161.482 218.08C161.539 218.113 161.602 218.134 161.667 218.142C161.732 218.151 161.799 218.147 161.862 218.131C161.926 218.114 161.986 218.085 162.038 218.045C162.09 218.005 162.134 217.955 162.166 217.898C162.199 217.841 162.22 217.778 162.228 217.713C162.362 217.095 162.64 216.518 163.04 216.029C163.439 215.539 163.949 215.151 164.527 214.897C164.625 214.873 164.711 214.814 164.769 214.732Z" fill="#332828"/>
<path d="M135.366 221.98C137.258 232.331 137.841 236.753 143.748 241.483C152.636 248.589 164.945 244.002 166.188 233.288C167.288 223.641 163.988 208.329 153.318 205.403C150.96 204.747 148.473 204.705 146.094 205.28C143.714 205.855 141.521 207.029 139.723 208.689C137.925 210.35 136.58 212.443 135.818 214.769C135.055 217.095 134.9 219.577 135.366 221.98Z" fill="#F9AF88"/>
<path d="M158.181 224.884C159.919 230.571 164.077 244.321 154.881 247.39C147.698 249.788 125.181 251.702 122.596 238.513C119.923 224.884 132.078 215.171 132.078 215.171C132.078 215.171 122.442 207.273 128.613 198.671C136.566 187.583 155.618 193.853 161.261 201.685C166.772 209.308 158.181 224.884 158.181 224.884Z" fill="#332828"/>
<path d="M140.798 249.283C136.649 249.278 132.54 248.471 128.698 246.907C123.594 244.707 120.613 241.308 120.074 237.073C118.27 222.696 131.646 214.798 131.789 214.721L132.317 215.634C132.185 215.711 119.414 223.268 121.13 236.941C121.746 241.792 125.816 244.509 129.127 245.928C135.661 248.744 144.098 248.722 146.144 247.226L146.771 248.084C145.737 248.865 143.493 249.283 140.798 249.283Z" fill="#332828"/>
<path d="M127.941 213.114C127.82 214.951 126.302 217.514 132.671 218.427C139.04 219.34 147.906 219.285 149.732 217.756C151.558 216.227 153.34 212.553 149.534 212.883C145.728 213.213 128.15 209.968 127.941 213.114Z" fill="#7C3AED"/>
<path d="M154.692 226.501C155.732 228.423 157.486 229.857 159.576 230.494C162.348 231.308 163.778 228.833 163.041 226.193C162.37 223.817 160.115 220.528 157.321 220.869C154.527 221.21 153.449 224.136 154.692 226.501Z" fill="#F9AF88"/>
<path d="M221.804 443.916L232.012 443.718L227.073 418.242L216.865 418.429L221.804 443.916Z" fill="#F9AF88"/>
<path d="M229.459 432.817C232.154 442.992 242.087 453.717 242.087 453.717L227.919 450.109L221.726 441.309L222.826 438.977L229.459 432.817Z" fill="#F9AF88"/>
<path d="M219.395 437.547C219.367 438.739 219.437 439.931 219.604 441.111C220.209 445.313 222.057 456.511 222.057 456.511H223.025C222.588 453.102 222.327 449.673 222.244 446.237C222.376 443.476 224.158 448.36 226.314 451.132C228.47 453.904 232.353 456.423 238.634 456.632C245.982 456.863 248.919 456.555 246.565 454.718C244.211 452.881 239.195 451.693 239.195 451.693C235.149 449.96 231.705 447.071 229.295 443.388C226.918 440.079 223.794 437.377 220.176 435.501C219.56 435.534 219.439 436.7 219.395 437.547Z" fill="#332828"/>
<path d="M257.96 409.299L270.984 409.706L256.409 388.036L247.389 395.747L257.96 409.299Z" fill="#F9AF88"/>
<path d="M261.052 400.104C270.523 404.504 285.681 403.646 285.681 403.646L273.361 413.546L262.79 412.754L261.69 410.411L261.052 400.104Z" fill="#F9AF88"/>
<path d="M259.049 411.334C259.902 412.163 260.822 412.921 261.799 413.6C265.253 416.009 274.592 422.18 274.592 422.18L275.186 421.421C272.405 419.423 269.728 417.282 267.167 415.008C265.209 413.006 269.906 414.953 273.272 415.151C276.638 415.349 280.884 414.051 284.899 409.211C289.618 403.59 291.191 401.071 288.397 401.665C285.603 402.259 281.621 405.383 281.621 405.383C277.881 407.385 273.597 408.133 269.4 407.517C265.502 407.12 261.567 407.73 257.971 409.288C257.674 409.838 258.411 410.696 259.049 411.334Z" fill="#332828"/>
<path d="M155.21 322.686C155.21 322.686 224.906 312.401 232.1 330.243C244.662 361.329 262.383 396.947 262.383 396.947L253.825 404.031C253.825 404.031 223.432 375.893 212.63 344.631C199.716 348.811 158.631 362.231 143.583 362.231C127.512 362.231 120.945 348.536 126.753 325.777C127.007 324.802 127.577 323.938 128.372 323.319C129.168 322.701 130.145 322.362 131.153 322.356C141.35 322.455 155.21 322.686 155.21 322.686Z" fill="#332828"/>
<path d="M161.886 331.76C161.886 331.76 219.086 330.044 219.581 350.306C220.373 383.823 229.822 431.849 229.822 431.849L219.383 432.817C219.383 432.817 202.322 394.614 197.812 361.9C177.44 363.22 158.652 362.307 143.604 362.307C126.741 362.307 125.344 343.794 141.756 322.179C151.799 322.157 161.886 331.76 161.886 331.76Z" fill="#332828"/>
<path d="M126.595 319.605L125.396 323.4C125.231 323.697 125.572 324.005 126.078 324.027L170.386 325.336C170.771 325.336 171.101 325.171 171.134 324.929L171.64 321.09C171.64 320.815 171.343 320.584 170.914 320.573L127.321 319.275C127.182 319.26 127.041 319.282 126.913 319.341C126.785 319.399 126.676 319.49 126.595 319.605Z" fill="white"/>
<path d="M132.305 324.654H131.139C130.908 324.654 130.732 324.522 130.754 324.379L131.447 319.385C131.447 319.242 131.678 319.132 131.909 319.132H133.075C133.306 319.132 133.482 319.264 133.46 319.407L132.767 324.39C132.745 324.555 132.536 324.665 132.305 324.654Z" fill="#332828"/>
<path d="M167.08 325.7H165.914C165.683 325.7 165.507 325.568 165.529 325.425L166.233 320.431C166.233 320.288 166.453 320.178 166.684 320.178H167.85C168.092 320.178 168.257 320.31 168.246 320.453L167.542 325.447C167.52 325.601 167.322 325.7 167.08 325.7Z" fill="#332828"/>
<path d="M149.698 325.171H148.532C148.29 325.171 148.125 325.039 148.147 324.896L148.84 319.902C148.84 319.759 149.071 319.649 149.302 319.649H150.468C150.699 319.649 150.875 319.781 150.853 319.924L150.16 324.918C150.138 325.072 149.929 325.182 149.698 325.171Z" fill="#332828"/>
<path d="M202.762 276.772H230.581C230.788 276.772 230.992 276.821 231.177 276.913C231.362 277.006 231.523 277.14 231.647 277.305C231.772 277.47 231.857 277.662 231.895 277.865C231.933 278.068 231.924 278.277 231.868 278.477L221.462 314.172C221.383 314.448 221.216 314.692 220.985 314.865C220.755 315.037 220.474 315.13 220.186 315.129H192.356C192.149 315.131 191.944 315.084 191.758 314.992C191.572 314.9 191.41 314.766 191.286 314.6C191.162 314.433 191.078 314.24 191.043 314.036C191.007 313.832 191.02 313.622 191.08 313.424L201.475 277.729C201.557 277.451 201.726 277.207 201.959 277.034C202.191 276.862 202.473 276.769 202.762 276.772Z" fill="#7C3AED"/>
<path d="M203.268 278.08L230.317 278.718L219.636 312.389L192.587 311.74L203.268 278.08Z" fill="#E0E0E0"/>
<path d="M202.42 277.75L229.469 277.86L219.448 311.729L192.399 311.619L202.42 277.75Z" fill="white"/>
<path d="M178.022 278.454C178.022 279.554 178.187 280.852 178.275 282.073C178.363 283.294 178.528 284.57 178.693 285.813C179.001 288.299 179.411 290.748 179.925 293.161C180.418 295.513 181.072 297.829 181.883 300.091C182.29 301.191 182.741 302.291 183.225 303.259C183.467 303.765 183.731 304.238 183.995 304.722L184.402 305.393C184.907 305.853 185.502 306.201 186.151 306.416C187.181 306.816 188.24 307.136 189.319 307.373C191.747 307.886 194.205 308.253 196.678 308.473C201.76 308.968 207.073 309.21 212.265 309.32L212.793 314.589C207.386 315.662 201.901 316.283 196.392 316.448C193.53 316.536 190.667 316.419 187.823 316.096C186.264 315.905 184.723 315.593 183.214 315.161C181.284 314.65 179.489 313.723 177.956 312.444C177.442 312 176.977 311.502 176.57 310.959L175.866 309.969C175.415 309.309 174.975 308.649 174.601 307.978C173.817 306.67 173.122 305.31 172.522 303.908C171.347 301.219 170.398 298.438 169.684 295.592C168.971 292.826 168.424 290.019 168.045 287.188C167.858 285.791 167.715 284.383 167.594 282.964C167.473 281.545 167.396 280.192 167.374 278.564L178.022 278.454Z" fill="#F9AF88"/>
<path d="M174.404 262.229C181.334 268.752 179.662 285.747 179.662 285.747L166.396 288.068C166.396 288.068 158.201 275.88 161.083 270.776C164.075 265.452 170.664 258.698 174.404 262.229Z" fill="#7C3AED"/>
<path d="M179.66 287.243C179.457 287.247 179.255 287.21 179.066 287.134C178.877 287.059 178.705 286.946 178.56 286.803C178.489 286.734 178.427 286.656 178.373 286.572C178.323 286.491 178.279 286.407 178.241 286.319C178.219 286.214 178.204 286.108 178.197 286C178.191 285.905 178.191 285.81 178.197 285.714C178.19 285.511 178.225 285.309 178.299 285.12C178.372 284.931 178.484 284.759 178.626 284.614C178.698 284.546 178.776 284.484 178.857 284.427C178.936 284.372 179.021 284.328 179.11 284.295C179.202 284.256 179.298 284.226 179.396 284.207C179.612 284.165 179.835 284.171 180.049 284.225C180.262 284.279 180.461 284.38 180.632 284.519C180.802 284.659 180.939 284.835 181.034 285.034C181.128 285.233 181.177 285.45 181.178 285.67C181.19 285.765 181.19 285.861 181.178 285.956C181.161 286.055 181.131 286.151 181.09 286.242C181.057 286.332 181.013 286.417 180.958 286.495C180.905 286.579 180.842 286.657 180.771 286.726C180.633 286.885 180.462 287.014 180.271 287.103C180.079 287.192 179.871 287.24 179.66 287.243Z" fill="white"/>
<path d="M167.603 288.036C167.57 287.64 167.695 287.248 167.951 286.945C168.206 286.641 168.572 286.452 168.968 286.419C169.243 286.393 169.52 286.446 169.767 286.57C170.014 286.695 170.221 286.886 170.365 287.123C170.453 286.861 170.612 286.628 170.823 286.45C171.034 286.271 171.29 286.154 171.564 286.111C171.838 286.074 172.117 286.113 172.371 286.223C172.625 286.334 172.844 286.512 173.004 286.738C173.067 286.47 173.203 286.225 173.398 286.031C173.592 285.836 173.837 285.7 174.104 285.638C174.376 285.581 174.658 285.601 174.919 285.697C175.179 285.792 175.408 285.958 175.578 286.177C175.643 285.91 175.78 285.666 175.974 285.472C176.168 285.278 176.412 285.141 176.678 285.077C176.871 285.026 177.071 285.014 177.268 285.042C177.465 285.07 177.654 285.138 177.824 285.24C177.995 285.343 178.142 285.479 178.259 285.639C178.376 285.8 178.46 285.983 178.505 286.177C178.554 286.369 178.564 286.569 178.535 286.765C178.507 286.961 178.439 287.15 178.337 287.32C178.234 287.49 178.099 287.638 177.939 287.755C177.779 287.872 177.597 287.956 177.405 288.003C177.124 288.075 176.828 288.064 176.553 287.973C176.278 287.881 176.035 287.712 175.853 287.486C175.792 287.77 175.648 288.031 175.442 288.236C175.235 288.441 174.973 288.581 174.687 288.641C174.402 288.694 174.107 288.664 173.838 288.555C173.569 288.446 173.337 288.262 173.169 288.025C173.097 288.308 172.942 288.563 172.725 288.759C172.508 288.955 172.238 289.082 171.949 289.125C171.66 289.166 171.366 289.123 171.103 289C170.839 288.876 170.617 288.679 170.464 288.432C170.369 288.706 170.198 288.948 169.969 289.128C169.741 289.307 169.466 289.417 169.177 289.444H169.056C168.682 289.431 168.327 289.28 168.058 289.019C167.79 288.759 167.628 288.409 167.603 288.036Z" fill="white"/>
<path d="M166.398 289.564C166.299 289.575 166.2 289.575 166.101 289.564L165.826 289.476C165.735 289.439 165.646 289.395 165.562 289.344L165.342 289.157C165.268 289.09 165.205 289.012 165.155 288.926C165.101 288.846 165.053 288.761 165.012 288.673C164.976 288.581 164.95 288.485 164.935 288.387C164.923 288.292 164.923 288.196 164.935 288.101C164.924 288.002 164.924 287.903 164.935 287.804C164.95 287.71 164.976 287.618 165.012 287.529C165.012 287.441 165.1 287.353 165.155 287.265C165.208 287.184 165.271 287.11 165.342 287.045L165.562 286.858C165.644 286.803 165.733 286.759 165.826 286.726C165.913 286.685 166.006 286.655 166.101 286.638C166.341 286.589 166.589 286.601 166.823 286.672C167.058 286.743 167.271 286.871 167.443 287.045C167.514 287.11 167.577 287.184 167.63 287.265C167.685 287.353 167.729 287.441 167.773 287.529C167.807 287.619 167.837 287.711 167.861 287.804C167.866 287.903 167.866 288.002 167.861 288.101C167.867 288.196 167.867 288.292 167.861 288.387C167.837 288.484 167.807 288.579 167.773 288.673C167.732 288.761 167.684 288.846 167.63 288.926C167.577 289.01 167.514 289.088 167.443 289.157C167.16 289.422 166.786 289.568 166.398 289.564Z" fill="white"/>
<path d="M224.619 303.842L220.021 303.534C218.876 303.454 217.737 303.76 216.787 304.403L208.35 310.068L208.284 313.643C210.99 316.789 216.974 313.973 216.974 313.973L222.529 313.786C222.972 313.775 223.401 313.63 223.76 313.371C224.119 313.112 224.392 312.751 224.542 312.334L226.555 306.834C226.681 306.51 226.728 306.16 226.692 305.814C226.657 305.469 226.54 305.136 226.351 304.844C226.162 304.552 225.907 304.309 225.606 304.135C225.304 303.961 224.966 303.86 224.619 303.842Z" fill="#F9AF88"/>
<path d="M129.348 460.251H130.591C130.849 460.226 131.089 460.111 131.27 459.926C131.451 459.74 131.561 459.497 131.581 459.239L139.281 405.955H133.462L128.391 458.887C128.361 459.04 128.362 459.197 128.394 459.349C128.427 459.501 128.489 459.646 128.579 459.773C128.668 459.9 128.782 460.008 128.914 460.091C129.047 460.173 129.194 460.227 129.348 460.251Z" fill="#7C3AED"/>
<path opacity="0.3" d="M129.348 460.251H130.591C130.849 460.226 131.089 460.111 131.27 459.926C131.451 459.74 131.561 459.497 131.581 459.239L139.281 405.955H133.462L128.391 458.887C128.361 459.04 128.362 459.197 128.394 459.349C128.427 459.501 128.489 459.646 128.579 459.773C128.668 459.9 128.782 460.008 128.914 460.091C129.047 460.173 129.194 460.227 129.348 460.251Z" fill="black"/>
<path d="M113.399 460.251H114.642C114.9 460.226 115.14 460.111 115.321 459.926C115.503 459.74 115.613 459.497 115.632 459.239L123.332 405.955H117.513L112.442 458.887C112.412 459.04 112.413 459.197 112.446 459.349C112.478 459.501 112.541 459.646 112.63 459.773C112.719 459.9 112.833 460.008 112.966 460.091C113.098 460.173 113.245 460.227 113.399 460.251Z" fill="#7C3AED"/>
<path opacity="0.3" d="M113.399 460.251H114.642C114.9 460.226 115.14 460.111 115.321 459.926C115.503 459.74 115.613 459.497 115.632 459.239L123.332 405.955H117.513L112.442 458.887C112.412 459.04 112.413 459.197 112.446 459.349C112.478 459.501 112.541 459.646 112.63 459.773C112.719 459.9 112.833 460.008 112.966 460.091C113.098 460.173 113.245 460.227 113.399 460.251Z" fill="black"/>
<path d="M202.279 460.251H201.025C200.769 460.224 200.531 460.107 200.352 459.922C200.173 459.737 200.065 459.496 200.046 459.239L192.346 405.955H198.154L203.225 458.887C203.255 459.039 203.254 459.195 203.222 459.347C203.191 459.499 203.129 459.642 203.041 459.77C202.953 459.897 202.84 460.005 202.709 460.088C202.578 460.17 202.432 460.226 202.279 460.251Z" fill="#7C3AED"/>
<path opacity="0.3" d="M202.279 460.251H201.025C200.769 460.224 200.531 460.107 200.352 459.922C200.173 459.737 200.065 459.496 200.046 459.239L192.346 405.955H198.154L203.225 458.887C203.255 459.039 203.254 459.195 203.222 459.347C203.191 459.499 203.129 459.642 203.041 459.77C202.953 459.897 202.84 460.005 202.709 460.088C202.578 460.17 202.432 460.226 202.279 460.251Z" fill="black"/>
<path d="M218.231 460.251H216.977C216.721 460.224 216.483 460.107 216.304 459.922C216.125 459.737 216.017 459.496 215.998 459.239L208.298 405.955H214.106L219.177 458.887C219.207 459.039 219.206 459.195 219.175 459.347C219.143 459.499 219.081 459.642 218.993 459.77C218.905 459.897 218.792 460.005 218.661 460.088C218.53 460.17 218.384 460.226 218.231 460.251Z" fill="#7C3AED"/>
<path opacity="0.3" d="M218.231 460.251H216.977C216.721 460.224 216.483 460.107 216.304 459.922C216.125 459.737 216.017 459.496 215.998 459.239L208.298 405.955H214.106L219.177 458.887C219.207 459.039 219.206 459.195 219.175 459.347C219.143 459.499 219.081 459.642 218.993 459.77C218.905 459.897 218.792 460.005 218.661 460.088C218.53 460.17 218.384 460.226 218.231 460.251Z" fill="black"/>
<path d="M238.897 342.793H199.737C192.785 318.659 167.837 299.629 142.185 299.629H129.469C102.673 299.629 85.3811 320.529 90.8371 346.203C91.8702 350.934 93.5468 355.501 95.8201 359.777L102.002 397.177C102.794 402.006 106.655 405.922 110.604 405.922H228.48C232.429 405.922 236.29 402.006 237.082 397.177L244.617 351.505C245.42 346.709 242.857 342.793 238.897 342.793Z" fill="#7C3AED"/>
<path opacity="0.5" d="M238.897 342.793H199.737C192.785 318.659 167.837 299.629 142.185 299.629H129.469C102.673 299.629 85.3811 320.529 90.8371 346.203C91.8702 350.934 93.5468 355.501 95.8201 359.777L102.002 397.177C102.794 402.006 106.655 405.922 110.604 405.922H228.48C232.429 405.922 236.29 402.006 237.082 397.177L244.617 351.505C245.42 346.709 242.857 342.793 238.897 342.793Z" fill="white"/>
<path d="M233.792 167.364H224.805V168.464H233.792V167.364Z" fill="#7C3AED"/>
<path d="M191.752 180.323H190.652V174.9C190.655 172.897 191.452 170.978 192.869 169.563C194.286 168.148 196.207 167.354 198.209 167.354H218.262V168.454H198.209C196.498 168.454 194.858 169.132 193.647 170.341C192.436 171.549 191.755 173.189 191.752 174.9V180.323Z" fill="#7C3AED"/>
<path d="M198.209 171.215H298.496C299.477 171.215 300.417 171.604 301.11 172.297C301.803 172.991 302.192 173.931 302.192 174.911V214.236C302.192 215.219 301.802 216.162 301.107 216.857C300.411 217.552 299.469 217.943 298.485 217.943H198.209C197.226 217.943 196.283 217.552 195.588 216.857C194.893 216.162 194.502 215.219 194.502 214.236V174.9C194.504 174.415 194.601 173.934 194.788 173.486C194.975 173.038 195.249 172.632 195.593 172.29C195.937 171.947 196.345 171.676 196.794 171.492C197.243 171.308 197.724 171.213 198.209 171.215Z" fill="#7C3AED"/>
<path d="M293.755 197.065H202.95C202.291 197.065 201.659 196.803 201.192 196.337C200.726 195.87 200.464 195.238 200.464 194.579C200.464 193.919 200.726 193.287 201.192 192.821C201.659 192.355 202.291 192.093 202.95 192.093H293.755C294.415 192.093 295.047 192.355 295.513 192.821C295.979 193.287 296.241 193.919 296.241 194.579C296.241 195.238 295.979 195.87 295.513 196.337C295.047 196.803 294.415 197.065 293.755 197.065Z" fill="white"/>
<path d="M274.318 207.393H202.95C202.291 207.393 201.659 207.132 201.193 206.665C200.726 206.199 200.464 205.567 200.464 204.907C200.462 204.579 200.524 204.253 200.647 203.949C200.771 203.645 200.954 203.368 201.185 203.135C201.416 202.902 201.691 202.717 201.994 202.591C202.297 202.464 202.622 202.399 202.95 202.399H274.318C274.978 202.399 275.61 202.661 276.076 203.128C276.543 203.594 276.804 204.226 276.804 204.885C276.807 205.214 276.745 205.539 276.622 205.844C276.498 206.148 276.315 206.424 276.084 206.658C275.853 206.891 275.578 207.076 275.275 207.202C274.972 207.328 274.647 207.393 274.318 207.393Z" fill="white"/>
<path d="M233.574 186.736H202.95C202.291 186.736 201.659 186.474 201.192 186.008C200.726 185.541 200.464 184.909 200.464 184.25C200.464 183.59 200.726 182.958 201.192 182.492C201.659 182.026 202.291 181.764 202.95 181.764H233.574C234.234 181.764 234.866 182.026 235.332 182.492C235.798 182.958 236.06 183.59 236.06 184.25C236.06 184.909 235.798 185.541 235.332 186.008C234.866 186.474 234.234 186.736 233.574 186.736Z" fill="white"/>
<path d="M274.163 186.736H243.539C242.879 186.736 242.247 186.474 241.781 186.008C241.315 185.541 241.053 184.909 241.053 184.25C241.053 183.59 241.315 182.958 241.781 182.492C242.247 182.026 242.879 181.764 243.539 181.764H274.163C274.822 181.764 275.454 182.026 275.921 182.492C276.387 182.958 276.649 183.59 276.649 184.25C276.649 184.909 276.387 185.541 275.921 186.008C275.454 186.474 274.822 186.736 274.163 186.736Z" fill="white"/>
<path d="M200.464 214.961V226.874C200.464 227.385 200.607 227.886 200.875 228.32C201.144 228.754 201.528 229.105 201.985 229.334C202.441 229.562 202.953 229.659 203.461 229.613C203.97 229.567 204.456 229.381 204.864 229.074L223.124 214.95L200.464 214.961Z" fill="#7C3AED"/>
<path d="M355.091 112.199H254.804C254.317 112.199 253.835 112.295 253.385 112.481C252.935 112.668 252.527 112.941 252.182 113.285C251.838 113.629 251.565 114.038 251.379 114.488C251.193 114.937 251.097 115.419 251.097 115.906V155.231C251.097 156.214 251.487 157.157 252.182 157.852C252.878 158.548 253.821 158.938 254.804 158.938H334.004L348.37 170.048C348.778 170.355 349.264 170.541 349.773 170.587C350.281 170.633 350.793 170.536 351.25 170.308C351.706 170.079 352.09 169.728 352.359 169.294C352.627 168.86 352.77 168.359 352.77 167.848V158.916H355.025C356.008 158.916 356.951 158.526 357.646 157.83C358.341 157.135 358.732 156.192 358.732 155.209V115.906C358.732 114.934 358.35 114.001 357.669 113.308C356.988 112.615 356.062 112.217 355.091 112.199Z" fill="white"/>
<path d="M350.074 171.181C349.342 171.177 348.632 170.933 348.05 170.488L333.838 159.488H254.803C253.675 159.486 252.594 159.036 251.796 158.238C250.999 157.441 250.549 156.36 250.546 155.231V115.906C250.549 114.778 250.999 113.697 251.796 112.899C252.594 112.102 253.675 111.652 254.803 111.649H355.09C356.219 111.652 357.3 112.102 358.097 112.899C358.895 113.697 359.344 114.778 359.347 115.906V155.231C359.344 156.36 358.895 157.441 358.097 158.238C357.3 159.036 356.219 159.486 355.09 159.488H353.385V167.87C353.385 168.746 353.038 169.585 352.419 170.204C351.8 170.823 350.961 171.17 350.085 171.17L350.074 171.181ZM254.803 112.749C253.967 112.752 253.166 113.086 252.574 113.677C251.983 114.269 251.649 115.07 251.646 115.906V155.231C251.649 156.068 251.983 156.869 252.574 157.461C253.166 158.052 253.967 158.386 254.803 158.388H334.223L348.699 169.608C349.024 169.865 349.415 170.025 349.827 170.07C350.239 170.114 350.655 170.041 351.028 169.86C351.4 169.678 351.714 169.395 351.932 169.043C352.151 168.691 352.266 168.285 352.263 167.87V158.399H355.068C355.905 158.397 356.706 158.063 357.298 157.472C357.889 156.88 358.222 156.079 358.225 155.242V115.906C358.222 115.07 357.889 114.269 357.298 113.677C356.706 113.086 355.905 112.752 355.068 112.749H254.803Z" fill="#7C3AED"/>
<path d="M302.809 138.061H350.351C350.677 138.061 351.001 137.996 351.302 137.871C351.604 137.746 351.878 137.563 352.109 137.332C352.339 137.102 352.523 136.828 352.648 136.526C352.772 136.224 352.837 135.901 352.837 135.575C352.831 134.918 352.567 134.29 352.102 133.827C351.636 133.364 351.007 133.102 350.351 133.1H302.809C302.148 133.103 301.516 133.367 301.05 133.835C300.584 134.303 300.323 134.936 300.323 135.597C300.329 136.252 300.593 136.879 301.059 137.34C301.524 137.802 302.153 138.061 302.809 138.061Z" fill="#7C3AED"/>
<path d="M269.609 138.061H293.149C293.476 138.061 293.799 137.996 294.1 137.871C294.402 137.746 294.676 137.563 294.907 137.332C295.138 137.102 295.321 136.828 295.446 136.526C295.571 136.224 295.635 135.901 295.635 135.575C295.629 134.918 295.365 134.29 294.9 133.827C294.435 133.364 293.806 133.102 293.149 133.1H269.609C268.949 133.103 268.316 133.367 267.851 133.835C267.385 134.303 267.123 134.936 267.123 135.597C267.129 136.252 267.393 136.879 267.859 137.34C268.325 137.802 268.954 138.061 269.609 138.061Z" fill="#7C3AED"/>
<path d="M278.97 148.39H350.349C351.722 148.39 352.835 147.277 352.835 145.904C352.835 144.531 351.722 143.418 350.349 143.418H278.97C277.597 143.418 276.484 144.531 276.484 145.904C276.484 147.277 277.597 148.39 278.97 148.39Z" fill="#7C3AED"/>
<path d="M259.598 127.731H350.348C351.008 127.731 351.64 127.469 352.106 127.003C352.572 126.537 352.834 125.904 352.834 125.245C352.834 124.585 352.573 123.951 352.107 123.483C351.641 123.015 351.009 122.751 350.348 122.748H259.598C258.938 122.751 258.306 123.015 257.84 123.483C257.374 123.951 257.112 124.585 257.112 125.245C257.112 125.904 257.374 126.537 257.84 127.003C258.307 127.469 258.939 127.731 259.598 127.731Z" fill="#7C3AED"/>
</svg>
