<svg width="666" height="452" viewBox="0 0 666 452" fill="none" xmlns="http://www.w3.org/2000/svg">
<path d="M136.052 0.11748C118.556 -1.51836 105.914 14.1978 104.812 30.5143C103.257 53.5341 118.971 72.2065 128.28 91.8279C133.73 103.313 137.464 116.243 136.451 129.059C135.446 141.781 128.501 151.284 121.975 161.715C111.483 178.488 109.825 200.291 116.812 218.87C123.383 236.34 141.87 249.489 160.495 241.619C162.688 240.692 160.799 237.495 158.622 238.414C145.634 243.901 131.339 236.748 124.172 225.49C117.791 215.464 116.209 202.98 116.569 191.319C117.004 177.235 122.772 167.477 130.129 155.983C135.486 147.615 139.374 139.067 140.161 129.058C142.05 105.007 128.478 85.2284 117.85 64.9633C111.696 53.2259 106.486 39.726 109.069 26.2534C111.53 13.4115 122.402 2.55108 136.051 3.82691C138.43 4.05011 138.414 0.337799 136.052 0.11748Z" fill="#E0E4F9"/>
<path d="M125.684 271.306C127.714 251.525 109.423 240.734 95.6163 230.649C79.1841 218.65 63.076 203.148 56.6881 183.292C52.9958 171.815 53.5474 160.077 56.2042 148.441C58.8121 137.019 62.7837 123.838 72.8711 116.75C82.5279 109.965 97.9275 110.407 102.045 123.23C105.011 132.469 101.287 143.341 92.899 148.352C67.759 163.376 44.7301 136.62 34.1747 116.854C33.0486 114.745 29.8445 116.619 30.9706 118.727C41.3432 138.15 58.3729 158.896 82.9959 155.569C100.878 153.153 114.666 132.194 102.469 116.03C97.0419 108.836 87.4902 107.054 79.1582 109.592C68.1521 112.943 61.2025 122.366 57.074 132.637C47.4042 156.69 47.9356 182.288 63.0026 203.814C70.6362 214.72 80.496 223.874 91.0759 231.875C104.314 241.886 123.982 251.729 121.973 271.305C121.73 273.679 125.442 273.662 125.684 271.306Z" fill="#E0E4F9"/>
<path d="M88.0788 391.611C88.0788 391.611 73.2335 394.176 51.4589 384.279C29.6843 374.382 4.94175 347.66 17.313 345.681C29.6843 343.701 37.1076 338.582 26.7149 328.028C16.3223 317.475 -9.90491 265.763 3.95101 261.681C17.8069 257.598 30.1782 273.561 28.6935 251.229C27.2089 228.898 11.8683 180.607 29.6828 179.762C47.4974 178.917 60.8594 263.784 71.746 261.681C82.6326 259.578 74.374 243.696 85.108 251.229C95.8405 258.762 104.407 304.591 100.944 333.054C99.9546 342.813 106.883 330.818 117.769 333.054C128.657 335.289 116.285 386.573 88.0788 391.611Z" fill="#666ACE"/>
<path d="M29.6904 179.76C29.6904 179.76 77.1969 310.364 88.0835 391.61" stroke="#E0E4F9" stroke-width="1.48451" stroke-miterlimit="10" stroke-linecap="round"/>
<path d="M97.7218 382.341C97.7218 382.341 53.5548 385.972 40.1942 385.972C26.8336 385.972 18.2972 395.852 40.1942 397.862C62.0912 399.871 74.5287 399.118 81.6713 401.379C88.8138 403.64 68.4014 408.161 56.5241 408.914C44.6468 409.667 35.5573 419.464 81.6713 420.719C127.785 421.975 194.8 422.227 201.561 419.714C208.323 417.203 207.21 411.174 188.281 408.913C169.352 406.652 175.662 401.88 219.829 400.372C263.996 398.864 285.893 385.406 251.747 382.339C217.601 379.275 97.7218 382.341 97.7218 382.341Z" fill="#E0E4F9"/>
<path d="M338.646 233.939C333.698 236.304 332.991 232.547 332.991 232.547V208.419H265.361V276.048H289.86C289.86 276.048 293.618 275.343 291.252 270.393C288.886 265.446 288.2 255.549 299.176 254.929C310.152 255.549 309.466 265.444 307.1 270.393C304.735 275.341 308.492 276.048 308.492 276.048H332.991V251.178C332.991 251.178 333.696 247.421 338.646 249.787C343.594 252.153 353.491 252.838 354.11 241.863C353.492 230.886 343.595 231.573 338.646 233.939Z" fill="#5F69C5"/>
<path d="M155.255 296.069C155.255 296.069 127.914 302.379 145.075 327.873C150.655 336.163 194.915 378.976 207.015 383.931C219.114 388.886 237.233 354.375 246.555 328.161C255.879 301.947 259.89 288.482 259.89 288.482L247.53 281.689C247.53 281.689 235.879 304.433 232.767 309.324C229.655 314.216 208.757 347.621 208.757 347.621C208.757 347.621 191.48 327.058 179.626 315.492C167.773 303.926 160.881 296.621 155.255 296.069Z" fill="#263238"/>
<path d="M189.027 202.543C189.027 202.543 188.284 183.986 170.098 180.275C151.912 176.564 143.655 194.007 136.278 196.976C128.9 199.946 97.7239 202.172 95.1261 227.039C92.5283 251.905 98.837 248.442 95.1261 261.678C91.4152 274.916 97.7239 289.761 114.425 300.895C131.127 312.029 178.633 362.504 178.633 362.504C178.633 362.504 195.706 358.05 190.881 322.05C191.739 308.688 214.262 303.493 210.18 280.853C206.097 258.213 206.469 255.616 207.211 239.286C207.955 222.955 204.986 211.821 189.027 202.543Z" fill="#151A3C"/>
<path d="M182.098 206.13C182.098 206.13 191.252 214.047 194.222 236.315C197.191 258.583 184.201 281.964 152.406 281.841C152.406 281.841 147.828 289.387 155.252 296.068C162.675 302.748 162.675 302.748 162.675 302.748C162.675 302.748 162.304 317.223 152.654 317.223C143.004 317.223 130.757 307.202 125.19 291.985C125.19 291.985 131.5 289.016 132.242 281.964C132.985 274.913 132.242 266.748 132.242 266.748C132.242 266.748 121.672 260.493 125.19 248.934C127.788 240.397 137.066 245.964 137.809 252.275C138.55 258.585 138.55 258.585 138.55 258.585L141.148 258.956C141.148 258.956 137.437 241.513 145.231 236.316C153.024 231.121 162.304 234.09 164.901 222.213C167.499 210.336 176.283 206.749 182.098 206.13Z" fill="#FEE7C6"/>
<path d="M125.191 291.988C125.191 291.988 104.779 292.36 101.066 301.638C97.3553 310.916 80.2824 369.927 81.767 382.917C83.2517 395.907 122.222 395.164 149.687 390.711C177.151 386.258 190.885 383.288 190.885 383.288V369.185C190.885 369.185 165.342 369.928 159.556 369.557C153.77 369.185 114.428 366.959 114.428 366.959C114.428 366.959 120.046 341.35 124.474 325.392C128.902 309.432 127.419 297.184 125.191 291.988Z" fill="#263238"/>
<path d="M274.858 336.801C269.91 339.167 269.204 335.41 269.204 335.41V311.281H244.703C244.703 311.281 240.946 310.575 243.312 305.626C245.678 300.678 246.364 290.781 235.388 290.162C224.412 290.781 225.098 300.677 227.463 305.626C229.829 310.574 226.072 311.281 226.072 311.281H201.573V378.91H269.204V354.04C269.204 354.04 269.91 350.283 274.858 352.649C279.806 355.015 289.703 355.701 290.322 344.725C289.703 333.749 279.807 334.435 274.858 336.801Z" fill="#8684EF"/>
<path d="M181.931 357.093C181.976 356.925 182.166 356.553 182.533 355.936C182.594 355.833 182.643 355.72 182.702 355.614C182.939 355.144 183.175 354.658 183.41 354.157C186.316 347.322 185.494 336.523 179.372 332.442C172.692 327.988 164.156 325.39 166.382 317.226C168.608 309.061 162.671 302.751 162.671 302.751C162.671 302.751 162.299 317.226 152.65 317.226C143 317.226 130.753 307.205 125.186 291.988C127.412 297.184 128.897 309.432 124.468 325.39C120.04 341.35 114.423 366.957 114.423 366.957C114.423 366.957 153.764 369.184 159.55 369.555C162.667 369.755 171.508 369.631 179.008 369.476L178.631 362.503C178.631 362.503 180.18 360.333 181.931 357.093Z" fill="#263238"/>
<path d="M191.523 368.728C191.523 368.728 194.74 369.594 199.317 366.007C203.895 362.42 209.214 355.738 212.431 357.099C215.648 358.46 210.081 364.646 209.833 367.368C209.586 370.089 227.524 369.348 234.33 367.492C241.134 365.635 239.278 373.182 231.856 375.409C231.856 375.409 231.114 381.471 226.041 383.45C220.969 385.43 212.309 386.047 206.618 384.563C200.927 383.078 191.525 381.841 191.525 381.841L191.523 368.728Z" fill="#FEE7C6"/>
<path d="M248.646 281.491C248.646 281.491 251.288 272.479 252.773 265.427C254.257 258.376 263.907 247.983 269.846 245.386C275.784 242.788 275.537 249.468 271.702 252.685C267.867 255.902 266.011 258.623 266.011 258.623V275.82H271.702C271.702 275.82 268.925 282.915 260.54 288.027L248.646 281.491Z" fill="#FEE7C6"/>
<path d="M259.896 279.367C259.896 279.367 264.872 275.408 265.366 264.646" stroke="#151A3C" stroke-width="0.742325" stroke-miterlimit="10" stroke-linecap="round" stroke-linejoin="round"/>
<path d="M123.75 328.025L114.423 366.957C114.423 366.957 149.371 368.646 164.248 369.657C179.125 370.668 179.126 370.668 179.126 370.668" stroke="#151A3C" stroke-width="0.742325" stroke-miterlimit="10" stroke-linecap="round" stroke-linejoin="round"/>
<path d="M231.221 375.864C231.221 375.864 226.15 377.844 220.211 378.091" stroke="#151A3C" stroke-width="0.742325" stroke-miterlimit="10" stroke-linecap="round" stroke-linejoin="round"/>
<path d="M172.59 59.8891C172.59 63.4862 169.674 66.4022 166.077 66.4022C162.48 66.4022 159.563 63.4862 159.563 59.8891C159.563 56.292 162.48 53.376 166.077 53.376C169.674 53.376 172.59 56.292 172.59 59.8891Z" stroke="#E0E4F9" stroke-width="2.88002" stroke-miterlimit="10" stroke-linecap="round" stroke-linejoin="round"/>
<path d="M81.6752 38.7768C81.6752 44.5282 77.0124 49.1923 71.2595 49.1923C65.5066 49.1923 60.8438 44.5296 60.8438 38.7768C60.8438 33.024 65.5066 28.3613 71.2595 28.3613C77.0124 28.3613 81.6752 33.0255 81.6752 38.7768Z" stroke="#E0E4F9" stroke-width="2.88002" stroke-miterlimit="10" stroke-linecap="round" stroke-linejoin="round"/>
<path d="M172.559 139.056C176.138 139.056 179.039 136.154 179.039 132.576C179.039 128.997 176.138 126.096 172.559 126.096C168.98 126.096 166.079 128.997 166.079 132.576C166.079 136.154 168.98 139.056 172.559 139.056Z" stroke="#E0E4F9" stroke-width="2.88002" stroke-miterlimit="10" stroke-linecap="round" stroke-linejoin="round"/>
<path d="M256.785 417.507C256.785 419.791 248.595 421.642 238.493 421.642C228.392 421.642 220.202 419.791 220.202 417.507C220.202 415.223 228.392 413.373 238.493 413.373C248.595 413.373 256.785 415.225 256.785 417.507Z" fill="#E0E4F9"/>
<path d="M129.134 446.975C137.259 446.975 143.845 445.149 143.845 442.896C143.845 440.643 137.259 438.816 129.134 438.816C121.009 438.816 114.423 440.643 114.423 442.896C114.423 445.149 121.009 446.975 129.134 446.975Z" fill="#E0E4F9"/>
<path d="M82.1701 451.777C86.5443 451.777 90.0903 450.702 90.0903 449.376C90.0903 448.05 86.5443 446.976 82.1701 446.976C77.796 446.976 74.25 448.05 74.25 449.376C74.25 450.702 77.796 451.777 82.1701 451.777Z" fill="#E0E4F9"/>
<path d="M603.613 30.1498C617.172 32.2134 625.116 45.3058 624.414 58.4025C623.68 72.1026 615.365 83.9668 606.546 93.8696C591.668 110.575 574.346 125.963 569.703 148.952C567.71 158.821 569.008 168.289 572.108 177.772C576.821 192.185 580.469 203.746 576.673 219.115C573.884 230.41 568.998 241.937 559.916 249.612C550.012 257.982 535.353 260.082 524.656 252.05C522.746 250.616 520.894 253.836 522.783 255.256C536.612 265.639 555.679 260.484 566.534 248.287C579.369 233.866 585.565 210.352 580.606 191.696C577.667 180.637 572.226 170.346 572.347 158.638C572.474 146.36 577.729 134.621 584.528 124.621C597.072 106.171 617.109 93.2115 625.222 71.77C631.901 54.12 625.86 29.81 604.602 26.5729C602.262 26.2158 601.256 29.7913 603.613 30.1498Z" fill="#E0E4F9"/>
<path d="M467.926 220.429C487.394 228.007 510.557 224.115 525.85 209.6C541.035 195.187 546.641 171.801 539.681 152.074C535.397 139.93 527.451 129.476 523.432 117.216C519.697 105.819 518.709 93.5997 520.427 81.7384C522.253 69.1284 527.14 56.864 535.163 46.8992C543.448 36.6076 560.697 23.2415 573.176 35.3159C581.376 43.2503 575.002 54.5816 565.154 56.7891C556.633 58.7 547.62 54.5067 540.753 49.7893C527.684 40.8123 519.234 26.1906 517.367 10.535C517.087 8.19213 513.372 8.16477 513.656 10.535C516.383 33.3993 535.394 61.0961 561.018 60.9204C570.989 60.8513 581.988 53.2971 580.745 42.2581C579.61 32.181 568.773 26.2482 559.431 27.0676C534.383 29.2621 519.371 60.8585 516.586 82.5247C514.92 95.4846 516.301 108.908 520.886 121.167C526.46 136.069 537.351 148.877 538.777 165.192C542.095 203.165 503.951 230.49 468.913 216.849C466.686 215.982 465.722 219.57 467.926 220.429Z" fill="#E0E4F9"/>
<path d="M443.589 382.34C443.589 382.34 399.422 385.971 386.062 385.971C372.7 385.971 364.165 395.851 386.062 397.861C407.959 399.87 420.396 399.117 427.539 401.378C434.681 403.639 414.269 408.16 402.392 408.913C390.514 409.666 381.425 419.463 427.539 420.718C473.653 421.974 540.666 422.226 547.428 419.713C554.191 417.202 553.077 411.173 534.148 408.912C515.219 406.651 521.529 401.879 565.696 400.371C609.863 398.863 631.76 385.405 597.615 382.338C563.47 379.274 443.589 382.34 443.589 382.34Z" fill="#E0E4F9"/>
<path d="M302.395 288.861L313.035 310.517C313.035 310.517 315.325 313.577 318.723 309.272C322.121 304.966 330.701 299.987 336.097 309.566C340.381 319.69 331.196 323.439 325.711 323.496C320.226 323.555 321.25 327.237 321.25 327.237L332.217 349.559L354.207 338.756C354.207 338.756 357.267 336.466 352.962 333.068C348.657 329.669 343.677 321.09 353.256 315.694C363.38 311.41 367.129 320.595 367.187 326.079C367.246 331.564 370.928 330.541 370.928 330.541L392.917 319.738L363.096 259.039L302.395 288.861Z" fill="#8684EF"/>
<path d="M494.132 308.792C494.132 308.792 522.957 297.47 517.469 332.596C515.927 342.47 502.358 378.851 493.812 388.747C485.267 398.642 453.49 376.07 433.31 356.916C413.129 337.761 403.458 327.57 403.458 327.57L411.404 315.919C411.404 315.919 432.089 330.925 437.077 333.877C442.065 336.829 475.822 357.158 475.822 357.158C475.822 357.158 477.292 346.551 482.626 330.872C487.96 315.192 489.364 311.829 494.132 308.792Z" fill="#FEE7C6"/>
<path d="M547.301 384.277C547.301 384.277 534.434 315.245 561.652 261.677C588.87 208.109 636.376 169.718 656.665 179.759C676.955 189.8 657.16 207.404 653.201 232.5C649.243 257.596 654.191 309.044 632.418 334.537C610.643 360.03 570.064 384.277 547.301 384.277Z" fill="#666ACE"/>
<path d="M547.3 384.277C547.3 384.277 587.384 217.223 656.664 179.759" stroke="#E0E4F9" stroke-width="1.48451" stroke-miterlimit="10" stroke-linecap="round"/>
<path d="M411.219 316.708C411.219 316.708 404.023 309.976 399.507 304.36C394.992 298.744 381.683 293.846 375.211 294.217C368.74 294.589 371.984 300.434 376.86 301.565C381.736 302.697 384.623 304.284 384.623 304.284L392.408 319.617L387.334 322.193C387.334 322.193 393.02 327.262 402.812 328.025L411.219 316.708Z" fill="#A8A3D5"/>
<path d="M398.687 319.899C398.687 319.899 392.458 318.622 387.146 309.249" stroke="#151A3C" stroke-width="0.742325" stroke-miterlimit="10" stroke-linecap="round" stroke-linejoin="round"/>
<path d="M415.488 319.277C415.488 319.277 411.76 318.431 414.31 313.574C416.859 308.717 417.916 298.853 406.97 297.825C395.979 298.033 396.294 307.948 398.473 312.981C400.652 318.015 396.871 318.58 396.871 318.58L372.987 317.686L372.012 343.731C372.012 343.731 372.577 347.511 377.611 345.332C382.645 343.153 392.56 342.838 392.767 353.829C391.738 364.775 381.874 363.719 377.018 361.169C372.161 358.62 371.315 362.347 371.315 362.347L370.457 385.266L438.04 387.798L440.572 320.216L415.488 319.277Z" fill="#5F69C5"/>
<path d="M439.8 378.976C439.8 378.976 434.973 378.819 431.627 376.941C426.555 374.094 421.73 366.672 418.513 368.033C415.296 369.394 420.863 375.58 421.11 378.302C421.358 381.023 403.42 380.282 396.616 378.426C389.811 376.569 391.668 384.116 399.089 386.343C399.089 386.343 399.831 392.405 404.904 394.384C409.978 396.362 418.636 396.981 424.327 395.497C430.018 394.012 439.8 394.984 439.8 394.984V378.976Z" fill="#A8A3D5"/>
<path d="M479.017 201.184C479.017 201.184 459.718 214.008 459.718 242.235C459.718 270.462 483.471 279.37 500.296 279.37C504.75 279.37 504.998 283.393 501.781 290.165C498.564 296.938 497.327 305.102 501.781 308.813C506.235 312.524 520.832 286.793 527.266 286.793C527.266 286.793 523.803 279.123 527.266 269.472C527.266 269.472 522.319 269.472 518.854 261.308C518.854 261.308 525.782 261.308 526.277 248.937C526.773 236.566 516.628 235.533 513.411 242.235C511.678 245.258 512.174 251.228 512.174 251.228H509.452C509.452 251.228 501.039 240.277 505.246 225.679C505.246 225.679 481.243 222.462 479.017 201.184Z" fill="#FEE7C6"/>
<path d="M547.306 319.452C544.832 300.647 531.47 289.019 527.264 286.791C520.832 286.791 506.233 312.524 501.779 308.811C497.745 305.45 498.386 298.439 500.93 292.115C500.93 292.115 491.138 303.852 487.675 309.177C484.212 314.502 480.561 332.069 480.561 332.069L484.32 332.73C484.32 332.73 479.015 369.677 476.293 384.276H547.305C547.305 384.276 549.782 338.255 547.306 319.452Z" fill="#263238"/>
<path d="M552.25 212.318C550.518 197.225 534.682 194.256 534.682 194.256C534.682 194.256 529.734 182.874 513.65 183.37C497.567 183.865 491.382 190.545 484.948 185.596C478.515 180.648 475.05 176.194 466.142 175.451C466.142 175.451 453.276 175.451 450.059 187.081C447.056 197.932 453.76 205.982 469.145 211.432C474.04 204.493 479.008 201.184 479.008 201.184C481.234 222.463 505.235 225.678 505.235 225.678C501.029 240.277 509.441 251.227 509.441 251.227H512.163C512.163 251.227 511.667 245.256 513.4 242.234C516.617 235.532 526.762 236.565 526.266 248.936C525.771 261.307 518.843 261.307 518.843 261.307C522.306 269.471 527.256 269.471 527.256 269.471C527.256 269.471 533.688 257.229 539.875 251.225C546.064 245.225 553.983 227.411 552.25 212.318Z" fill="#151A3C"/>
<path d="M510.338 342.254L507.616 368.728C507.616 368.728 480.398 372.687 464.316 376.399C448.234 380.11 440.067 378.455 440.067 378.455V394.461C440.067 394.461 458.873 397.926 481.883 397.43C504.894 396.935 522.957 396.935 525.926 391.739C528.895 386.544 535.576 362.296 536.566 351.903C536.566 351.903 519.246 347.697 510.338 342.254Z" fill="#FEE7C6"/>
<path d="M399.089 386.342C399.089 386.342 404.532 387.606 410.223 387.798" stroke="#151A3C" stroke-width="0.742325" stroke-miterlimit="10" stroke-linecap="round" stroke-linejoin="round"/>
<path d="M509.686 342.709L507.212 341.472C507.212 341.472 511.418 310.425 520.326 304.299" stroke="#151A3C" stroke-width="0.742325" stroke-miterlimit="10" stroke-linecap="round" stroke-linejoin="round"/>
<path d="M535.928 352.36C535.928 352.36 542.608 330.34 540.876 316.484" stroke="#151A3C" stroke-width="0.742325" stroke-miterlimit="10" stroke-linecap="round" stroke-linejoin="round"/>
<path d="M484.317 332.732L487.496 316.484" stroke="#151A3C" stroke-width="0.742325" stroke-miterlimit="10" stroke-linecap="round" stroke-linejoin="round"/>
<path d="M441.422 72.9194C441.422 76.5165 438.506 79.4325 434.909 79.4325C431.312 79.4325 428.396 76.5165 428.396 72.9194C428.396 69.3223 431.312 66.4062 434.909 66.4062C438.506 66.4062 441.422 69.3223 441.422 72.9194Z" stroke="#E0E4F9" stroke-width="2.88002" stroke-miterlimit="10" stroke-linecap="round" stroke-linejoin="round"/>
<path d="M491.461 17.9467C491.461 23.6981 486.798 28.3622 481.046 28.3622C475.293 28.3622 470.63 23.6995 470.63 17.9467C470.63 12.194 475.293 7.53125 481.046 7.53125C486.798 7.53125 491.461 12.194 491.461 17.9467Z" stroke="#E0E4F9" stroke-width="2.88002" stroke-miterlimit="10" stroke-linecap="round" stroke-linejoin="round"/>
<path d="M481.048 145.537C484.627 145.537 487.529 142.636 487.529 139.057C487.529 135.478 484.627 132.577 481.048 132.577C477.47 132.577 474.568 135.478 474.568 139.057C474.568 142.636 477.47 145.537 481.048 145.537Z" stroke="#E0E4F9" stroke-width="2.88002" stroke-miterlimit="10" stroke-linecap="round" stroke-linejoin="round"/>
<path d="M601.376 416.791C601.376 419.075 593.187 420.926 583.085 420.926C572.983 420.926 564.794 419.075 564.794 416.791C564.794 414.508 572.983 412.657 583.085 412.657C593.187 412.657 601.376 414.509 601.376 416.791Z" fill="#E0E4F9"/>
<path d="M473.735 446.256C481.86 446.256 488.446 444.429 488.446 442.176C488.446 439.923 481.86 438.097 473.735 438.097C465.61 438.097 459.023 439.923 459.023 442.176C459.023 444.429 465.61 446.256 473.735 446.256Z" fill="#E0E4F9"/>
<path d="M426.753 451.056C431.127 451.056 434.673 449.981 434.673 448.655C434.673 447.33 431.127 446.255 426.753 446.255C422.379 446.255 418.833 447.33 418.833 448.655C418.833 449.981 422.379 451.056 426.753 451.056Z" fill="#E0E4F9"/>
</svg>
