<svg width="500" height="501" viewBox="0 0 500 501" fill="none" xmlns="http://www.w3.org/2000/svg">
<path d="M449.901 399.417H416.779V399.667H449.901V399.417Z" fill="#EBEBEB"/>
<path d="M331.22 402.131H322.527V402.381H331.22V402.131Z" fill="#EBEBEB"/>
<path d="M415.778 390.131H396.586V390.381H415.778V390.131Z" fill="#EBEBEB"/>
<path d="M95.652 391.811H52.459V392.061H95.652V391.811Z" fill="#EBEBEB"/>
<path d="M110.889 391.811H104.556V392.061H110.889V391.811Z" fill="#EBEBEB"/>
<path d="M225.147 396.034H131.471V396.284H225.147V396.034Z" fill="#EBEBEB"/>
<path d="M238.401 338.723H45.3017C42.1547 338.723 39.5938 336.162 39.5938 333.015V61.583C39.5938 58.436 42.1547 55.875 45.3017 55.875H238.401C241.547 55.875 244.108 58.436 244.108 61.583V333.015C244.108 336.162 241.547 338.723 238.401 338.723ZM45.3017 56.126C42.2917 56.126 39.8438 58.574 39.8438 61.584V333.016C39.8438 336.026 42.2917 338.474 45.3017 338.474H238.401C241.41 338.474 243.858 336.026 243.858 333.016V61.583C243.858 58.574 241.41 56.125 238.401 56.125L45.3017 56.126Z" fill="#EBEBEB"/>
<path d="M454.698 338.723H261.599C258.453 338.723 255.892 336.162 255.892 333.015V61.583C255.892 58.436 258.453 55.875 261.599 55.875H454.698C457.846 55.875 460.406 58.436 460.406 61.583V333.015C460.406 336.162 457.845 338.723 454.698 338.723ZM261.599 56.126C258.59 56.126 256.142 58.574 256.142 61.584V333.016C256.142 336.026 258.59 338.474 261.599 338.474H454.698C457.708 338.474 460.156 336.026 460.156 333.016V61.583C460.156 58.574 457.708 56.125 454.698 56.125L261.599 56.126Z" fill="#EBEBEB"/>
<path d="M500 383.321H0V383.571H500V383.321Z" fill="#EBEBEB"/>
<path d="M169.609 125.199H96.9531V217.272H169.609V125.199Z" fill="#F0F0F0"/>
<path d="M162.377 134.365H104.187V208.106H162.377V134.365Z" fill="#FAFAFA"/>
<path d="M91.3341 217.272H96.9541L96.9541 125.199H91.3341L91.3341 217.272Z" fill="#E0E0E0"/>
<path d="M141.749 172.372C148.252 178.875 148.252 189.419 141.749 195.922C135.246 202.425 124.702 202.425 118.199 195.922C111.695 189.419 135.246 165.868 141.749 172.372Z" fill="#F5F5F5"/>
<path d="M124.36 171.087C119.243 165.97 119.243 157.674 124.36 152.556C129.477 147.439 137.773 147.439 142.891 152.556C148.008 157.673 129.477 176.204 124.36 171.087Z" fill="#EBEBEB"/>
<path d="M390.477 254.642H381.847V383.922H390.477V254.642Z" fill="#F0F0F0"/>
<path d="M394.237 254.642H386.727V383.922H394.237V254.642Z" fill="#E6E6E6"/>
<path d="M303.467 254.642H294.837V383.922H303.467V254.642Z" fill="#F0F0F0"/>
<path d="M307.227 254.642H299.717V383.922H307.227V254.642Z" fill="#E6E6E6"/>
<path d="M423.196 254.642H414.566V383.922H423.196V254.642Z" fill="#F0F0F0"/>
<path d="M426.947 254.642H419.437V383.922H426.947V254.642Z" fill="#E6E6E6"/>
<path d="M336.187 254.642H327.557V383.922H336.187V254.642Z" fill="#F0F0F0"/>
<path d="M426.957 246.342H294.847V256.702H426.957V246.342Z" fill="#F0F0F0"/>
<path d="M332.437 246.342H294.847V256.702H332.437V246.342Z" fill="#E0E0E0"/>
<path d="M339.947 254.642H332.437V383.922H339.947V254.642Z" fill="#E6E6E6"/>
<path d="M122.565 246.999H67.3018V383.922H122.565V246.999Z" fill="#E6E6E6"/>
<path d="M225.923 246.999H110.496V383.922H225.923V246.999Z" fill="#F5F5F5"/>
<path d="M220.43 377.124H171.62V270.622C171.62 262.349 178.327 255.642 186.6 255.642H205.451C213.724 255.642 220.431 262.349 220.431 270.622V377.124H220.43Z" fill="#EBEBEB"/>
<path d="M165.93 377.124H117.12V270.622C117.12 262.349 123.827 255.642 132.1 255.642H150.951C159.224 255.642 165.931 262.349 165.931 270.622V377.124H165.93Z" fill="#EBEBEB"/>
<path d="M161.538 315.461C161.538 318.303 159.37 320.607 156.695 320.607C154.02 320.607 151.852 318.303 151.852 315.461C151.852 312.619 154.02 310.315 156.695 310.315C159.369 310.315 161.538 312.619 161.538 315.461Z" fill="#E0E0E0"/>
<path d="M186.512 315.461C186.512 318.303 184.344 320.607 181.669 320.607C178.994 320.607 176.826 318.303 176.826 315.461C176.826 312.619 178.994 310.315 181.669 310.315C184.343 310.315 186.512 312.619 186.512 315.461Z" fill="#E0E0E0"/>
<path d="M250 427.939C357.082 427.939 443.889 422.869 443.889 416.616C443.889 410.362 357.082 405.293 250 405.293C142.918 405.293 56.1113 410.362 56.1113 416.616C56.1113 422.869 142.918 427.939 250 427.939Z" fill="#F5F5F5"/>
<path d="M292.525 389.308C292.43 375.004 288.177 366.227 284.625 361.382C280.783 356.141 276.911 354.247 276.872 354.227L277.323 353.281C277.484 353.358 293.387 361.254 293.572 389.302L292.525 389.308Z" fill="#7D7EFE"/>
<path d="M296.654 386.785L295.61 386.693C299.71 340.254 268.651 323.938 268.337 323.779L268.811 322.844C269.131 323.006 300.816 339.647 296.654 386.785Z" fill="#7D7EFE"/>
<path d="M300.163 388.511C299.054 362.067 301.852 332.659 301.88 332.365L302.923 332.465C302.894 332.758 300.103 362.096 301.209 388.467L300.163 388.511Z" fill="#7D7EFE"/>
<path d="M302.226 390.051C304.04 378.772 308.466 372.361 311.858 368.968C315.529 365.299 318.815 364.274 318.848 364.263L318.607 363.462C318.471 363.503 304.957 367.802 301.4 389.919L302.226 390.051Z" fill="#7D7EFE"/>
<g opacity="0.3">
<path d="M292.525 389.308C292.43 375.004 288.177 366.227 284.625 361.382C280.783 356.141 276.911 354.247 276.872 354.227L277.323 353.281C277.484 353.358 293.387 361.254 293.572 389.302L292.525 389.308Z" fill="white"/>
<path d="M296.654 386.785L295.61 386.693C299.71 340.254 268.651 323.938 268.337 323.779L268.811 322.844C269.131 323.006 300.816 339.647 296.654 386.785Z" fill="white"/>
<path d="M300.163 388.511C299.054 362.067 301.852 332.659 301.88 332.365L302.923 332.465C302.894 332.758 300.103 362.096 301.209 388.467L300.163 388.511Z" fill="white"/>
<path d="M302.226 390.051C304.04 378.772 308.466 372.361 311.858 368.968C315.529 365.299 318.815 364.274 318.848 364.263L318.607 363.462C318.471 363.503 304.957 367.802 301.4 389.919L302.226 390.051Z" fill="white"/>
</g>
<path d="M271.84 324.881C271.84 324.881 264.928 307.293 254.996 320.368C246.937 330.976 254.973 342.591 254.973 342.591C254.973 342.591 298.201 343.686 290.467 327.179C285.707 317.02 271.84 324.881 271.84 324.881Z" fill="#7D7EFE"/>
<g opacity="0.5">
<path d="M270.427 325.72C270.427 325.72 257.692 323.747 257.616 324.739C257.54 325.731 268.786 326.189 267.739 327.587C266.692 328.984 255.857 330.169 255.755 331.504C255.653 332.839 265.895 329.595 265.442 330.769C264.988 331.943 258.119 337.46 258.007 338.929C257.895 340.398 264.449 332.707 265.227 333.573C266.006 334.438 266.412 341.408 267.072 339.802C267.732 338.197 266.927 331.181 268.509 329.81C270.091 328.439 279.358 337.207 281.463 336.025C283.568 334.842 271.175 329.883 270.427 325.72Z" fill="white"/>
<path d="M277.095 326.423C277.095 326.423 287.694 326.563 288.013 329.408C288.332 332.253 286.01 329.255 277.095 326.423Z" fill="white"/>
</g>
<path d="M275.598 388.431L280.524 415.167C281.042 417.979 283.494 420.02 286.353 420.02H305.5C308.359 420.02 310.811 417.979 311.329 415.167L316.255 388.431C316.645 386.314 315.02 384.363 312.868 384.363H278.985C276.833 384.363 275.208 386.315 275.598 388.431Z" fill="#7D7EFE"/>
<path d="M272.606 355.764C272.606 355.764 260.734 345.692 258.62 359.053C256.905 369.895 267.265 375.193 267.265 375.193C267.265 375.193 299.069 359.139 287.022 350.171C279.607 344.653 272.606 355.764 272.606 355.764Z" fill="#7D7EFE"/>
<path opacity="0.2" d="M272.606 355.764C272.606 355.764 260.734 345.692 258.62 359.053C256.905 369.895 267.265 375.193 267.265 375.193C267.265 375.193 299.069 359.139 287.022 350.171C279.607 344.653 272.606 355.764 272.606 355.764Z" fill="black"/>
<g opacity="0.5">
<path d="M271.908 356.924C271.908 356.924 261.895 360.455 262.227 361.205C262.559 361.955 270.9 357.904 270.685 359.326C270.469 360.748 263.067 365.831 263.513 366.84C263.959 367.849 270.129 361.502 270.258 362.53C270.386 363.559 267.551 370.241 268.042 371.351C268.533 372.461 270.293 364.324 271.195 364.649C272.097 364.974 275.109 369.874 274.962 368.452C274.815 367.029 271.496 362.251 272.11 360.639C272.724 359.027 282.868 361.78 283.935 360.101C285.002 358.424 274.073 359.655 271.908 356.924Z" fill="white"/>
<path d="M277.021 354.835C277.021 354.835 284.769 350.806 286.11 352.746C287.45 354.687 284.596 353.416 277.021 354.835Z" fill="white"/>
</g>
<path d="M313.477 328.526C313.477 328.526 327.274 316.82 329.731 332.349C331.724 344.948 319.684 351.106 319.684 351.106C319.684 351.106 282.723 332.449 296.724 322.027C305.34 315.613 313.477 328.526 313.477 328.526Z" fill="#7D7EFE"/>
<path opacity="0.3" d="M313.477 328.526C313.477 328.526 327.274 316.82 329.731 332.349C331.724 344.948 319.684 351.106 319.684 351.106C319.684 351.106 282.723 332.449 296.724 322.027C305.34 315.613 313.477 328.526 313.477 328.526Z" fill="black"/>
<g opacity="0.5">
<path d="M314.29 329.874C314.29 329.874 325.926 333.978 325.541 334.849C325.156 335.72 315.461 331.013 315.712 332.665C315.963 334.318 324.566 340.225 324.047 341.398C323.529 342.571 316.358 335.194 316.209 336.39C316.06 337.586 319.355 345.352 318.785 346.641C318.215 347.931 316.169 338.475 315.12 338.852C314.071 339.229 310.572 344.924 310.742 343.271C310.912 341.618 314.77 336.064 314.056 334.191C313.342 332.318 301.554 335.516 300.313 333.566C299.072 331.616 311.773 333.047 314.29 329.874Z" fill="white"/>
<path d="M308.346 327.446C308.346 327.446 299.341 322.763 297.784 325.018C296.225 327.274 299.542 325.796 308.346 327.446Z" fill="white"/>
</g>
<path d="M321.57 363.89C321.57 363.89 330.875 354.354 333.75 365.567C336.083 374.666 327.683 380.013 327.683 380.013C327.683 380.013 299.295 368.893 308.838 360.284C314.711 354.987 321.57 363.89 321.57 363.89Z" fill="#7D7EFE"/>
<path opacity="0.4" d="M321.57 363.89C321.57 363.89 330.875 354.354 333.75 365.567C336.083 374.666 327.683 380.013 327.683 380.013C327.683 380.013 299.295 368.893 308.838 360.284C314.711 354.987 321.57 363.89 321.57 363.89Z" fill="black"/>
<g opacity="0.5">
<path d="M322.259 364.822C322.259 364.822 331.074 367.025 330.851 367.691C330.629 368.356 323.196 365.576 323.494 366.771C323.792 367.965 330.508 371.701 330.209 372.596C329.91 373.492 324.143 368.58 324.116 369.467C324.09 370.354 327.043 375.819 326.714 376.804C326.385 377.789 324.231 370.998 323.488 371.347C322.745 371.696 320.574 376.113 320.584 374.89C320.594 373.666 323.038 369.328 322.385 368.004C321.732 366.68 313.311 369.841 312.267 368.497C311.224 367.153 320.633 367.322 322.259 364.822Z" fill="white"/>
<path d="M317.734 363.454C317.734 363.454 310.809 360.644 309.823 362.405C308.836 364.166 311.166 362.854 317.734 363.454Z" fill="white"/>
</g>
<path d="M381.473 261.303H310.164C306.644 261.303 304.04 258.449 304.348 254.929L308.191 211.008C308.499 207.488 311.602 204.634 315.122 204.634H386.431C389.951 204.634 392.555 207.488 392.247 211.008L388.404 254.929C388.096 258.449 384.993 261.303 381.473 261.303Z" fill="#263238"/>
<path d="M339.449 229.427C338.887 235.849 333.226 241.055 326.804 241.055C320.382 241.055 315.632 235.849 316.194 229.427C316.756 223.005 322.417 217.799 328.839 217.799L329.359 211.854C319.654 211.854 311.098 219.721 310.249 229.426C309.4 239.131 316.579 246.998 326.284 246.998C335.989 246.998 344.545 239.131 345.394 229.426L339.449 229.427Z" fill="#7D7EFE"/>
<path d="M347.478 226.849C348.327 217.144 341.148 209.277 331.443 209.277L330.923 215.222C337.345 215.222 342.095 220.428 341.533 226.85L347.478 226.849Z" fill="#7D7EFE"/>
<path opacity="0.7" d="M347.478 226.849C348.327 217.144 341.148 209.277 331.443 209.277L330.923 215.222C337.345 215.222 342.095 220.428 341.533 226.85L347.478 226.849Z" fill="white"/>
<path d="M332.917 229.428C332.661 232.351 330.085 234.72 327.162 234.72C324.239 234.72 322.077 232.351 322.333 229.428C322.589 226.505 325.165 224.136 328.088 224.136L328.325 221.43C323.908 221.43 320.014 225.011 319.628 229.428C319.242 233.845 322.509 237.425 326.926 237.425C331.343 237.425 335.237 233.844 335.623 229.428H332.917Z" fill="#7D7EFE"/>
<path opacity="0.7" d="M332.917 229.428C332.661 232.351 330.085 234.72 327.162 234.72C324.239 234.72 322.077 232.351 322.333 229.428C322.589 226.505 325.165 224.136 328.088 224.136L328.325 221.43C323.908 221.43 320.014 225.011 319.628 229.428C319.242 233.845 322.509 237.425 326.926 237.425C331.343 237.425 335.237 233.844 335.623 229.428H332.917Z" fill="white"/>
<path d="M336.571 228.255C336.958 223.838 333.69 220.258 329.273 220.258L329.036 222.964C331.959 222.964 334.121 225.333 333.865 228.256L336.571 228.255Z" fill="#7D7EFE"/>
<path d="M370.851 211.854L370.331 217.799C376.753 217.799 381.503 223.005 380.941 229.427C380.379 235.849 374.718 241.055 368.296 241.055C361.874 241.055 357.124 235.849 357.686 229.427C357.967 226.216 359.523 223.309 361.811 221.205L357.975 217.001C354.517 220.181 352.166 224.574 351.741 229.426C350.892 239.131 358.071 246.998 367.776 246.998C377.481 246.998 386.037 239.131 386.886 229.426C387.735 219.721 380.556 211.854 370.851 211.854Z" fill="#7D7EFE"/>
<path opacity="0.7" d="M370.851 211.854L370.331 217.799C376.753 217.799 381.503 223.005 380.941 229.427C380.379 235.849 374.718 241.055 368.296 241.055C361.874 241.055 357.124 235.849 357.686 229.427C357.967 226.216 359.523 223.309 361.811 221.205L357.975 217.001C354.517 220.181 352.166 224.574 351.741 229.426C350.892 239.131 358.071 246.998 367.776 246.998C377.481 246.998 386.037 239.131 386.886 229.426C387.735 219.721 380.556 211.854 370.851 211.854Z" fill="white"/>
<path d="M356.831 213.745L360.667 217.949C362.955 215.845 365.976 214.543 369.187 214.543L369.707 208.598C364.854 208.599 360.289 210.565 356.831 213.745Z" fill="#7D7EFE"/>
<path opacity="0.3" d="M356.831 213.745L360.667 217.949C362.955 215.845 365.976 214.543 369.187 214.543L369.707 208.598C364.854 208.599 360.289 210.565 356.831 213.745Z" fill="black"/>
<path d="M370.061 220.883L369.813 223.724C372.881 223.724 375.151 226.212 374.883 229.28C374.615 232.348 371.909 234.836 368.841 234.836C365.772 234.836 363.503 232.348 363.771 229.28C363.905 227.746 364.649 226.357 365.742 225.351L363.909 223.342C362.257 224.862 361.133 226.961 360.93 229.279C360.524 233.916 363.955 237.676 368.592 237.676C373.229 237.676 377.317 233.917 377.723 229.279C378.129 224.641 374.698 220.883 370.061 220.883Z" fill="#7D7EFE"/>
<path d="M363.362 221.787L365.195 223.796C366.288 222.791 367.732 222.169 369.266 222.169L369.515 219.328C367.196 219.327 365.014 220.267 363.362 221.787Z" fill="#7D7EFE"/>
<path opacity="0.3" d="M363.362 221.787L365.195 223.796C366.288 222.791 367.732 222.169 369.266 222.169L369.515 219.328C367.196 219.327 365.014 220.267 363.362 221.787Z" fill="black"/>
<path d="M318.178 254.697C317.143 254.697 316.377 253.858 316.468 252.823C316.559 251.788 317.471 250.949 318.506 250.949C319.541 250.949 320.307 251.788 320.216 252.823C320.126 253.858 319.213 254.697 318.178 254.697Z" fill="white"/>
<path d="M337.358 253.776H323.376C322.85 253.776 322.46 253.349 322.506 252.823C322.552 252.296 323.016 251.87 323.543 251.87H337.525C338.051 251.87 338.441 252.297 338.395 252.823C338.348 253.349 337.884 253.776 337.358 253.776Z" fill="white"/>
<path d="M333.515 257.525H323.048C322.522 257.525 322.132 257.098 322.178 256.572C322.224 256.046 322.688 255.619 323.215 255.619H333.682C334.208 255.619 334.598 256.046 334.552 256.572C334.506 257.098 334.042 257.525 333.515 257.525Z" fill="white"/>
<path d="M358.717 254.697C357.682 254.697 356.916 253.858 357.007 252.823C357.098 251.788 358.01 250.949 359.045 250.949C360.08 250.949 360.846 251.788 360.755 252.823C360.665 253.858 359.752 254.697 358.717 254.697Z" fill="white"/>
<path d="M377.897 253.776H363.915C363.388 253.776 362.999 253.349 363.045 252.823C363.091 252.296 363.555 251.87 364.082 251.87H378.064C378.59 251.87 378.98 252.297 378.934 252.823C378.888 253.349 378.423 253.776 377.897 253.776Z" fill="white"/>
<path d="M374.054 257.525H363.587C363.061 257.525 362.671 257.098 362.717 256.572C362.763 256.046 363.227 255.619 363.754 255.619H374.221C374.747 255.619 375.137 256.046 375.091 256.572C375.045 257.098 374.581 257.525 374.054 257.525Z" fill="white"/>
<path d="M289.415 285.256H182.577C179.057 285.256 176.453 282.402 176.761 278.882L182.699 211.008C183.007 207.488 186.11 204.634 189.63 204.634H296.468C299.988 204.634 302.592 207.488 302.284 211.008L296.346 278.882C296.038 282.402 292.935 285.256 289.415 285.256Z" fill="#7D7EFE"/>
<path opacity="0.7" d="M289.415 285.256H182.577C179.057 285.256 176.453 282.402 176.761 278.882L182.699 211.008C183.007 207.488 186.11 204.634 189.63 204.634H296.468C299.988 204.634 302.592 207.488 302.284 211.008L296.346 278.882C296.038 282.402 292.935 285.256 289.415 285.256Z" fill="white"/>
<path d="M187.044 264.962H184.331L187.96 223.484H190.673L187.044 264.962Z" fill="#7D7EFE"/>
<path d="M190.886 264.962H188.174L190.843 234.454H193.555L190.886 264.962Z" fill="#263238"/>
<path d="M196.989 264.962H194.277L196.021 245.024H198.734L196.989 264.962Z" fill="#7D7EFE"/>
<path d="M200.832 264.963H198.12L200.2 241.181H202.913L200.832 264.963Z" fill="#263238"/>
<path d="M206.935 264.963H204.223L207.324 229.521H210.036L206.935 264.963Z" fill="#7D7EFE"/>
<path d="M210.778 264.962H208.065L210.734 234.454H213.447L210.778 264.962Z" fill="#263238"/>
<path d="M216.881 264.962H214.169L216.838 234.454H219.55L216.881 264.962Z" fill="#7D7EFE"/>
<path d="M220.724 264.963H218.011L221.353 226.768H224.065L220.724 264.963Z" fill="#263238"/>
<path d="M226.827 264.963H224.114L225.929 244.224H228.641L226.827 264.963Z" fill="#7D7EFE"/>
<path d="M230.669 264.962H227.957L230.626 234.454H233.339L230.669 264.962Z" fill="#263238"/>
<path d="M236.774 264.963H234.061L237.162 229.521H239.874L236.774 264.963Z" fill="#7D7EFE"/>
<path d="M240.615 264.962H237.903L241.665 221.962H244.377L240.615 264.962Z" fill="#263238"/>
<path d="M246.718 264.962H244.006L244.993 253.671H247.706L246.718 264.962Z" fill="#7D7EFE"/>
<path d="M250.561 264.962H247.848L249.677 244.063H252.389L250.561 264.962Z" fill="#263238"/>
<path d="M256.664 264.962H253.952L255.696 245.024H258.408L256.664 264.962Z" fill="#7D7EFE"/>
<path d="M260.507 264.963H257.794L261.22 225.807H263.932L260.507 264.963Z" fill="#263238"/>
<path d="M266.61 264.963H263.897L266.146 239.259H268.858L266.61 264.963Z" fill="#7D7EFE"/>
<path d="M270.452 264.962H267.74L272.09 215.236H274.803L270.452 264.962Z" fill="#263238"/>
<path d="M276.556 264.962H273.843L276.764 231.571H279.477L276.556 264.962Z" fill="#7D7EFE"/>
<path d="M280.399 264.962H277.687L280.356 234.454H283.068L280.399 264.962Z" fill="#263238"/>
<path d="M286.501 264.963H283.789L287.467 222.924H290.179L286.501 264.963Z" fill="#7D7EFE"/>
<path d="M290.344 264.963H287.632L289.796 240.22H292.509L290.344 264.963Z" fill="#263238"/>
<path d="M186.007 276.285C184.534 276.285 183.445 275.091 183.574 273.618C183.703 272.145 185.001 270.951 186.474 270.951C187.947 270.951 189.036 272.145 188.907 273.618C188.778 275.092 187.48 276.285 186.007 276.285Z" fill="#263238"/>
<path d="M213.291 274.976H193.399C192.65 274.976 192.096 274.369 192.161 273.62C192.227 272.871 192.887 272.264 193.636 272.264H213.527C214.276 272.264 214.83 272.871 214.765 273.62C214.701 274.369 214.04 274.976 213.291 274.976Z" fill="#263238"/>
<path d="M207.826 280.308H192.934C192.185 280.308 191.631 279.701 191.696 278.952C191.762 278.203 192.422 277.596 193.171 277.596H208.062C208.811 277.596 209.365 278.203 209.3 278.952C209.235 279.701 208.575 280.308 207.826 280.308Z" fill="#263238"/>
<path opacity="0.3" d="M213.291 274.976H193.399C192.65 274.976 192.096 274.369 192.161 273.62C192.227 272.871 192.887 272.264 193.636 272.264H213.527C214.276 272.264 214.83 272.871 214.765 273.62C214.701 274.369 214.04 274.976 213.291 274.976Z" fill="white"/>
<path opacity="0.3" d="M207.826 280.308H192.934C192.185 280.308 191.631 279.701 191.696 278.952C191.762 278.203 192.422 277.596 193.171 277.596H208.062C208.811 277.596 209.365 278.203 209.3 278.952C209.235 279.701 208.575 280.308 207.826 280.308Z" fill="white"/>
<path d="M225.338 276.285C223.865 276.285 222.776 275.091 222.905 273.618C223.034 272.145 224.332 270.951 225.805 270.951C227.278 270.951 228.367 272.145 228.238 273.618C228.109 275.092 226.811 276.285 225.338 276.285Z" fill="#7D7EFE"/>
<path opacity="0.3" d="M225.338 276.285C223.865 276.285 222.776 275.091 222.905 273.618C223.034 272.145 224.332 270.951 225.805 270.951C227.278 270.951 228.367 272.145 228.238 273.618C228.109 275.092 226.811 276.285 225.338 276.285Z" fill="black"/>
<path d="M252.622 274.976H232.731C231.982 274.976 231.428 274.369 231.493 273.62C231.559 272.871 232.219 272.264 232.968 272.264H252.86C253.609 272.264 254.163 272.871 254.098 273.62C254.032 274.369 253.371 274.976 252.622 274.976Z" fill="#263238"/>
<path d="M247.157 280.308H232.265C231.516 280.308 230.962 279.701 231.027 278.952C231.093 278.203 231.753 277.596 232.502 277.596H247.394C248.143 277.596 248.697 278.203 248.632 278.952C248.566 279.701 247.906 280.308 247.157 280.308Z" fill="#263238"/>
<path opacity="0.3" d="M252.622 274.976H232.731C231.982 274.976 231.428 274.369 231.493 273.62C231.559 272.871 232.219 272.264 232.968 272.264H252.86C253.609 272.264 254.163 272.871 254.098 273.62C254.032 274.369 253.371 274.976 252.622 274.976Z" fill="white"/>
<path opacity="0.3" d="M247.157 280.308H232.265C231.516 280.308 230.962 279.701 231.027 278.952C231.093 278.203 231.753 277.596 232.502 277.596H247.394C248.143 277.596 248.697 278.203 248.632 278.952C248.566 279.701 247.906 280.308 247.157 280.308Z" fill="white"/>
<path d="M264.669 276.285C263.196 276.285 262.107 275.091 262.236 273.618C262.365 272.145 263.663 270.951 265.136 270.951C266.609 270.951 267.698 272.145 267.569 273.618C267.44 275.092 266.142 276.285 264.669 276.285Z" fill="#7D7EFE"/>
<path d="M291.954 274.976H272.062C271.313 274.976 270.759 274.369 270.824 273.62C270.89 272.871 271.55 272.264 272.299 272.264H292.191C292.94 272.264 293.494 272.871 293.428 273.62C293.364 274.369 292.703 274.976 291.954 274.976Z" fill="#263238"/>
<path d="M286.488 280.308H271.596C270.847 280.308 270.293 279.701 270.358 278.952C270.424 278.203 271.084 277.596 271.833 277.596H286.725C287.474 277.596 288.028 278.203 287.962 278.952C287.897 279.701 287.237 280.308 286.488 280.308Z" fill="#263238"/>
<path opacity="0.3" d="M291.954 274.976H272.062C271.313 274.976 270.759 274.369 270.824 273.62C270.89 272.871 271.55 272.264 272.299 272.264H292.191C292.94 272.264 293.494 272.871 293.428 273.62C293.364 274.369 292.703 274.976 291.954 274.976Z" fill="white"/>
<path opacity="0.3" d="M286.488 280.308H271.596C270.847 280.308 270.293 279.701 270.358 278.952C270.424 278.203 271.084 277.596 271.833 277.596H286.725C287.474 277.596 288.028 278.203 287.962 278.952C287.897 279.701 287.237 280.308 286.488 280.308Z" fill="white"/>
<path d="M397.756 198.254H335.639C332.119 198.254 329.515 195.4 329.823 191.88L333.124 154.156C333.432 150.636 336.535 147.782 340.055 147.782H402.172C405.692 147.782 408.296 150.636 407.988 154.156L404.687 191.88C404.379 195.4 401.276 198.254 397.756 198.254Z" fill="#7D7EFE"/>
<path d="M362.489 170.588C361.933 176.939 356.334 182.088 349.983 182.088C343.632 182.088 338.934 176.939 339.489 170.588C340.045 164.237 345.644 159.088 351.995 159.088C358.347 159.088 363.045 164.237 362.489 170.588Z" fill="#7D7EFE"/>
<path opacity="0.7" d="M362.489 170.588C361.933 176.939 356.334 182.088 349.983 182.088C343.632 182.088 338.934 176.939 339.489 170.588C340.045 164.237 345.644 159.088 351.995 159.088C358.347 159.088 363.045 164.237 362.489 170.588Z" fill="white"/>
<path d="M354.47 168.554C354.25 171.073 353.287 173.115 350.768 173.115C348.249 173.115 347.644 171.073 347.864 168.554C348.084 166.035 349.047 163.993 351.566 163.993C354.086 163.992 354.691 166.034 354.47 168.554Z" fill="#263238"/>
<path d="M350.644 174.528C345.368 174.528 342.508 175.702 341.159 177.425C343.007 180.249 346.196 182.088 349.983 182.088C353.77 182.088 357.28 180.249 359.623 177.425C358.574 175.702 355.92 174.528 350.644 174.528Z" fill="#263238"/>
<path d="M389.582 157.755H370.915C370.041 157.755 369.394 157.046 369.47 156.172C369.546 155.298 370.317 154.589 371.192 154.589H389.859C390.733 154.589 391.38 155.298 391.304 156.172C391.227 157.046 390.456 157.755 389.582 157.755Z" fill="white"/>
<path d="M394.56 169.422H369.893C369.019 169.422 368.372 168.713 368.448 167.839C368.525 166.965 369.295 166.256 370.17 166.256H394.837C395.711 166.256 396.358 166.965 396.282 167.839C396.205 168.713 395.434 169.422 394.56 169.422Z" fill="white"/>
<path d="M399.051 175.255H369.384C368.509 175.255 367.863 174.546 367.939 173.672C368.015 172.798 368.786 172.089 369.661 172.089H399.328C400.203 172.089 400.849 172.798 400.773 173.672C400.696 174.546 399.925 175.255 399.051 175.255Z" fill="white"/>
<path d="M396.54 181.088H368.873C367.999 181.088 367.352 180.379 367.428 179.505C367.505 178.631 368.275 177.922 369.15 177.922H396.817C397.691 177.922 398.338 178.631 398.262 179.505C398.186 180.38 397.415 181.088 396.54 181.088Z" fill="white"/>
<path d="M393.029 186.922H368.362C367.487 186.922 366.841 186.213 366.917 185.339C366.994 184.465 367.764 183.756 368.639 183.756H393.306C394.18 183.756 394.827 184.465 394.751 185.339C394.674 186.213 393.903 186.922 393.029 186.922Z" fill="white"/>
<path d="M395.519 192.755H367.852C366.978 192.755 366.331 192.046 366.407 191.172C366.483 190.298 367.254 189.589 368.129 189.589H395.796C396.67 189.589 397.317 190.298 397.241 191.172C397.164 192.046 396.393 192.755 395.519 192.755Z" fill="white"/>
<path d="M316.985 198.254H210.146C206.626 198.254 204.022 195.4 204.33 191.88L210.268 124.006C210.576 120.486 213.679 117.632 217.199 117.632H324.037C327.557 117.632 330.161 120.486 329.853 124.006L323.915 191.88C323.608 195.4 320.505 198.254 316.985 198.254Z" fill="#7D7EFE"/>
<path opacity="0.7" d="M316.985 198.254H210.146C206.626 198.254 204.022 195.4 204.33 191.88L210.268 124.006C210.576 120.486 213.679 117.632 217.199 117.632H324.037C327.557 117.632 330.161 120.486 329.853 124.006L323.915 191.88C323.608 195.4 320.505 198.254 316.985 198.254Z" fill="white"/>
<path d="M327.612 149.639C325.537 142.172 322.272 134.692 317.511 134.692C308.525 134.692 304.138 148.769 299.494 163.672C295.414 176.768 291.194 190.309 284.61 190.309C276.258 190.309 273.971 173.559 271.758 157.36C269.279 139.21 266.936 122.067 256.183 122.067C245.429 122.067 240.087 139.21 234.432 157.36C229.385 173.559 224.166 190.309 215.815 190.309C211.909 190.309 208.277 178.776 206.375 168.51L205.498 178.53C207.575 185.941 210.827 193.309 215.552 193.309C226.305 193.309 231.647 176.166 237.302 158.016C242.349 141.817 247.568 125.067 255.92 125.067C264.271 125.067 266.56 141.817 268.772 158.016C271.251 176.166 273.594 193.309 284.347 193.309C293.334 193.309 297.72 179.232 302.364 164.328C306.444 151.232 310.663 137.691 317.248 137.691C321.183 137.691 324.84 149.397 326.73 159.719L327.612 149.639Z" fill="#7D7EFE"/>
<path d="M260.912 123.066C260.703 125.453 258.599 127.389 256.211 127.389C253.824 127.389 252.058 125.454 252.267 123.066C252.476 120.679 254.58 118.743 256.968 118.743C259.356 118.743 261.121 120.679 260.912 123.066Z" fill="#263238"/>
<path d="M258.013 124.547C258.908 123.69 258.997 122.33 258.211 121.51C257.426 120.69 256.064 120.72 255.169 121.577C254.274 122.434 254.184 123.794 254.97 124.614C255.755 125.434 257.117 125.404 258.013 124.547Z" fill="#7D7EFE"/>
<path d="M265.681 104.772H250.7C249.107 104.772 247.703 106.063 247.563 107.656L247.324 110.387C247.185 111.98 248.363 113.271 249.956 113.271H254.909L256.4 115.521C256.776 116.088 257.626 116.088 258.1 115.521L259.985 113.271H264.937C266.53 113.271 267.934 111.98 268.074 110.387L268.313 107.656C268.452 106.063 267.273 104.772 265.681 104.772Z" fill="#7D7EFE"/>
<path d="M264.51 108.397H250.885C250.471 108.397 250.164 108.061 250.201 107.647C250.237 107.233 250.602 106.897 251.017 106.897H264.642C265.056 106.897 265.363 107.233 265.326 107.647C265.289 108.061 264.924 108.397 264.51 108.397Z" fill="#263238"/>
<path d="M256.885 111.109H250.647C250.233 111.109 249.926 110.773 249.963 110.359C249.999 109.945 250.364 109.609 250.779 109.609H257.017C257.431 109.609 257.738 109.945 257.701 110.359C257.665 110.773 257.3 111.109 256.885 111.109Z" fill="#263238"/>
<path d="M288.288 189.903C288.079 192.29 285.975 194.226 283.587 194.226C281.199 194.226 279.434 192.291 279.643 189.903C279.852 187.516 281.956 185.58 284.344 185.58C286.732 185.58 288.497 187.516 288.288 189.903Z" fill="#263238"/>
<path d="M286.114 189.904C286.01 191.09 284.964 192.052 283.778 192.052C282.592 192.052 281.714 191.09 281.818 189.904C281.922 188.717 282.968 187.756 284.154 187.756C285.34 187.756 286.218 188.717 286.114 189.904Z" fill="#7D7EFE"/>
<path d="M293.057 171.608H278.075C276.482 171.608 275.078 172.899 274.938 174.492L274.699 177.223C274.56 178.816 275.738 180.107 277.331 180.107H282.284L283.775 182.357C284.151 182.924 285.001 182.924 285.475 182.357L287.36 180.107H292.312C293.905 180.107 295.309 178.816 295.449 177.223L295.688 174.492C295.829 172.9 294.65 171.608 293.057 171.608Z" fill="#263238"/>
<path d="M291.887 175.233H278.262C277.848 175.233 277.541 174.897 277.578 174.483C277.614 174.069 277.979 173.733 278.394 173.733H292.019C292.433 173.733 292.74 174.069 292.703 174.483C292.666 174.897 292.301 175.233 291.887 175.233Z" fill="white"/>
<path d="M284.262 177.946H278.024C277.61 177.946 277.303 177.61 277.34 177.196C277.376 176.782 277.741 176.446 278.156 176.446H284.394C284.808 176.446 285.115 176.782 285.078 177.196C285.041 177.61 284.676 177.946 284.262 177.946Z" fill="white"/>
<path d="M321.759 135.927C321.55 138.314 319.446 140.25 317.058 140.25C314.67 140.25 312.905 138.315 313.114 135.927C313.323 133.54 315.427 131.604 317.815 131.604C320.202 131.605 321.968 133.54 321.759 135.927Z" fill="#263238"/>
<path d="M319.586 135.927C319.482 137.113 318.436 138.075 317.25 138.075C316.063 138.075 315.186 137.113 315.29 135.927C315.394 134.741 316.44 133.779 317.626 133.779C318.812 133.779 319.689 134.741 319.586 135.927Z" fill="#7D7EFE"/>
<path d="M326.528 117.633H311.547C309.954 117.633 308.55 118.924 308.41 120.517L308.171 123.248C308.032 124.841 309.21 126.132 310.803 126.132H315.756L317.247 128.382C317.622 128.949 318.473 128.949 318.947 128.382L320.832 126.132H325.784C327.377 126.132 328.781 124.841 328.921 123.248L329.16 120.517C329.299 118.924 328.121 117.633 326.528 117.633Z" fill="#7D7EFE"/>
<path d="M325.358 121.258H311.733C311.319 121.258 311.012 120.922 311.049 120.508C311.085 120.094 311.45 119.758 311.865 119.758H325.49C325.904 119.758 326.211 120.094 326.174 120.508C326.138 120.922 325.772 121.258 325.358 121.258Z" fill="#263238"/>
<path d="M317.734 123.97H311.496C311.082 123.97 310.775 123.634 310.812 123.22C310.848 122.806 311.213 122.47 311.628 122.47H317.866C318.28 122.47 318.587 122.806 318.55 123.22C318.513 123.634 318.148 123.97 317.734 123.97Z" fill="#263238"/>
<path d="M221.245 190.397C221.036 192.784 218.932 194.72 216.544 194.72C214.156 194.72 212.391 192.785 212.599 190.397C212.808 188.01 214.913 186.074 217.3 186.074C219.687 186.074 221.454 188.01 221.245 190.397Z" fill="#263238"/>
<path d="M219.071 190.398C218.967 191.584 217.921 192.546 216.735 192.546C215.548 192.546 214.671 191.584 214.775 190.398C214.879 189.212 215.925 188.25 217.111 188.25C218.297 188.25 219.175 189.212 219.071 190.398Z" fill="#7D7EFE"/>
<path d="M226.014 172.103H211.033C209.44 172.103 208.036 173.394 207.896 174.987L207.657 177.718C207.518 179.311 208.696 180.602 210.289 180.602H215.242L216.733 182.852C217.109 183.419 217.959 183.419 218.433 182.852L220.318 180.602H225.27C226.863 180.602 228.267 179.311 228.407 177.718L228.646 174.987C228.785 173.395 227.607 172.103 226.014 172.103Z" fill="#263238"/>
<path d="M224.843 175.728H211.218C210.804 175.728 210.497 175.392 210.534 174.978C210.57 174.564 210.935 174.228 211.35 174.228H224.975C225.389 174.228 225.696 174.564 225.659 174.978C225.623 175.393 225.258 175.728 224.843 175.728Z" fill="white"/>
<path d="M217.219 178.44H210.981C210.567 178.44 210.26 178.104 210.297 177.69C210.333 177.276 210.698 176.94 211.113 176.94H217.351C217.765 176.94 218.072 177.276 218.035 177.69C217.998 178.104 217.633 178.44 217.219 178.44Z" fill="white"/>
<path d="M148.442 173.392L145.558 178.418L142.732 183.551C140.871 186.98 139.093 190.437 137.47 193.911C136.662 195.653 135.893 197.387 135.192 199.13L135.062 199.445C135.051 199.47 135.037 199.495 135.02 199.52C134.975 199.571 134.959 199.615 134.935 199.658C134.88 199.746 134.846 199.831 134.799 199.945C134.724 200.17 134.753 200.555 134.919 201.066C135.237 202.104 136.176 203.457 137.328 204.717C138.457 205.985 139.918 207.281 141.232 208.418L138.889 213.411C137.698 213.071 136.707 212.728 135.657 212.269C134.618 211.831 133.611 211.301 132.604 210.703C130.617 209.476 128.621 207.959 126.968 205.476C126.164 204.233 125.476 202.695 125.205 200.914C125.082 200.027 125.038 199.1 125.152 198.196C125.202 197.742 125.269 197.29 125.381 196.863L125.544 196.213L125.668 195.818C126.311 193.774 126.977 191.75 127.757 189.799C129.277 185.874 130.989 182.081 132.858 178.389C133.791 176.542 134.758 174.717 135.778 172.92C136.803 171.108 137.801 169.359 138.974 167.533L148.442 173.392Z" fill="#FFC3BD"/>
<path d="M138.722 207.854L143.977 206.488L144.278 214.971C144.278 214.971 140.168 215.582 137.651 213.067L138.722 207.854Z" fill="#FFC3BD"/>
<path d="M151.423 205.058L150.238 212.505L144.279 214.971L143.978 206.488L151.423 205.058Z" fill="#FFC3BD"/>
<path d="M173.157 133.415C173.275 133.996 173.678 134.404 174.058 134.327C174.438 134.25 174.65 133.717 174.532 133.136C174.414 132.555 174.011 132.147 173.631 132.224C173.252 132.301 173.039 132.835 173.157 133.415Z" fill="#263238"/>
<path d="M173.625 134.415C173.625 134.415 175.626 137.496 177.408 138.817C176.576 139.985 174.74 139.902 174.74 139.902L173.625 134.415Z" fill="#ED847E"/>
<path d="M170.375 130.623C170.29 130.623 170.205 130.592 170.139 130.531C169.998 130.401 169.989 130.18 170.12 130.039C171.427 128.625 173.012 128.876 173.08 128.888C173.27 128.92 173.397 129.1 173.365 129.289C173.332 129.478 173.151 129.605 172.965 129.574C172.913 129.566 171.673 129.384 170.63 130.512C170.562 130.585 170.469 130.623 170.375 130.623Z" fill="#263238"/>
<path d="M156.615 141.583C157.669 146.957 158.72 156.805 154.96 160.391C154.96 160.391 156.429 165.843 166.416 165.843C177.397 165.843 171.664 160.392 171.664 160.392C165.671 158.961 165.826 154.514 166.869 150.339L156.615 141.583Z" fill="#FFC3BD"/>
<path d="M152.794 161.387C151.991 159.894 151.107 158.185 152.936 157.65C154.948 157.061 167.872 155.969 171.669 157.074C170.502 159.149 172.477 161.699 172.477 161.699L152.794 161.387Z" fill="#263238"/>
<path d="M120.261 411.939C120.998 412.099 121.735 412.14 122.09 411.839C122.239 411.712 122.389 411.469 122.258 411.031C122.19 410.801 122.039 410.628 121.81 410.519C120.818 410.045 118.538 410.974 118.441 411.014C118.378 411.04 118.336 411.101 118.334 411.17C118.332 411.239 118.37 411.302 118.432 411.332C118.782 411.5 119.521 411.779 120.261 411.939ZM121.457 410.765C121.532 410.781 121.601 410.804 121.661 410.833C121.799 410.899 121.886 410.996 121.926 411.13C122.019 411.443 121.903 411.542 121.865 411.574C121.47 411.91 120.003 411.6 118.97 411.187C119.67 410.94 120.804 410.624 121.457 410.765Z" fill="#7D7EFE"/>
<path d="M118.472 411.345C118.5 411.351 118.529 411.35 118.558 411.342C119.388 411.099 121.165 409.837 121.187 409.004C121.191 408.853 121.138 408.579 120.742 408.441C120.485 408.351 120.226 408.373 119.971 408.503C118.989 409.004 118.369 411.039 118.343 411.125C118.325 411.186 118.341 411.253 118.386 411.298C118.41 411.322 118.44 411.338 118.472 411.345ZM120.551 408.748C120.576 408.753 120.602 408.761 120.627 408.77C120.842 408.845 120.839 408.95 120.838 408.995C120.826 409.487 119.653 410.478 118.793 410.879C119.008 410.292 119.499 409.134 120.128 408.813C120.272 408.739 120.411 408.717 120.551 408.748Z" fill="#7D7EFE"/>
<path d="M174.501 413.172C175.444 413.172 176.355 413.042 176.66 412.619C176.767 412.471 176.851 412.218 176.645 411.859C176.53 411.657 176.344 411.52 176.094 411.452C174.871 411.12 172.304 412.583 172.195 412.645C172.132 412.681 172.098 412.752 172.11 412.824C172.122 412.896 172.177 412.952 172.248 412.967C172.716 413.059 173.623 413.172 174.501 413.172ZM175.666 411.747C175.789 411.747 175.902 411.759 176.002 411.787C176.163 411.831 176.274 411.91 176.343 412.03C176.466 412.246 176.421 412.353 176.377 412.415C176.035 412.89 174.178 412.901 172.813 412.708C173.494 412.358 174.808 411.747 175.666 411.747Z" fill="#7D7EFE"/>
<path d="M172.281 412.969C172.305 412.969 172.329 412.964 172.352 412.954C173.239 412.556 174.995 410.967 174.861 410.137C174.829 409.942 174.691 409.699 174.213 409.651C173.856 409.615 173.533 409.716 173.248 409.949C172.314 410.717 172.116 412.695 172.107 412.779C172.101 412.84 172.128 412.901 172.179 412.937C172.21 412.958 172.245 412.969 172.281 412.969ZM174.073 409.991C174.107 409.991 174.142 409.993 174.177 409.996C174.49 410.028 174.51 410.151 174.516 410.192C174.597 410.691 173.403 411.939 172.498 412.483C172.592 411.905 172.854 410.721 173.468 410.218C173.654 410.065 173.853 409.991 174.073 409.991Z" fill="#7D7EFE"/>
<path d="M164.203 412.795H171.549L172.281 395.782H164.934L164.203 412.795Z" fill="#FFC3BD"/>
<path d="M110.283 409.394L117.463 410.948L124.672 395.102L117.492 393.548L110.283 409.394Z" fill="#FFC3BD"/>
<path d="M118.153 410.228L110.087 408.482C109.793 408.418 109.495 408.567 109.37 408.84L106.57 414.915C106.28 415.545 106.664 416.284 107.345 416.419C110.172 416.98 111.575 417.111 115.123 417.879C117.305 418.352 122.232 419.552 125.246 420.204C128.194 420.842 129.299 417.962 128.123 417.425C122.853 415.017 120.651 412.897 119.225 410.922C118.966 410.566 118.582 410.321 118.153 410.228Z" fill="#263238"/>
<path d="M171.501 411.944H163.478C163.178 411.944 162.918 412.153 162.852 412.446L161.401 418.976C161.251 419.653 161.765 420.295 162.458 420.283C165.352 420.234 169.534 420.064 173.171 420.064C177.424 420.064 181.097 420.296 186.085 420.296C189.101 420.296 189.938 417.247 188.675 416.971C182.928 415.714 178.236 415.579 173.269 412.517C172.731 412.184 172.135 411.944 171.501 411.944Z" fill="#263238"/>
<path d="M141.807 162.051C134.922 163.629 129.245 181.207 129.245 181.207L143.072 191.746C143.072 191.746 148.147 186.961 150.405 178.169C152.771 168.956 148.847 160.437 141.807 162.051Z" fill="#7D7EFE"/>
<path opacity="0.2" d="M147.708 174.979C143.968 178.679 142.748 185.419 142.458 191.279L143.068 191.749C143.068 191.749 148.148 186.959 150.408 178.169C150.548 177.619 150.668 177.069 150.768 176.529L147.708 174.979Z" fill="black"/>
<path d="M182.964 162.43C182.964 162.43 188.603 167.953 186.474 197.299C185.911 205.062 182.944 214.492 181.399 225.927C169.56 225.927 152.867 225.927 147.106 225.927C146.835 219.895 147.625 190.471 141.808 162.051C141.808 162.051 148.543 160.699 154.962 160.39C159.983 160.148 167.252 159.988 171.665 160.391C177.484 160.922 182.964 162.43 182.964 162.43Z" fill="#263238"/>
<path opacity="0.6" d="M186.938 187.005C186.292 182.741 185.605 179.019 184.907 175.807L184.692 175.675L173.927 180.187C174.446 186.869 181.524 193.628 186.445 197.568C186.452 197.48 186.467 197.386 186.473 197.299C186.752 193.474 186.895 190.062 186.938 187.005Z" fill="black"/>
<path opacity="0.2" d="M172.28 395.787L171.904 404.556H164.555L164.931 395.787H172.28Z" fill="black"/>
<path opacity="0.2" d="M117.489 393.552L124.672 395.107L120.953 403.274L113.77 401.719L117.489 393.552Z" fill="black"/>
<path d="M153.54 136.121C155.427 143.163 156.174 147.381 160.52 150.309C167.057 154.714 175.196 149.659 175.451 142.194C175.68 135.475 172.555 125.087 164.998 123.668C157.552 122.271 151.652 129.079 153.54 136.121Z" fill="#FFC3BD"/>
<path d="M169.461 225.927C169.461 225.927 161.124 282.069 156.547 303.102C151.535 326.135 124.659 402.338 124.659 402.338L111.508 399.491C111.508 399.491 130.301 337.39 134.508 305.19C136.382 290.844 136.648 266.475 139.06 248.536C140.807 235.546 147.106 225.927 147.106 225.927H169.461Z" fill="#263238"/>
<path d="M127.808 397.949C127.864 397.961 125.357 402.705 125.357 402.705L110.561 399.502L111.808 395.054L127.808 397.949Z" fill="#7D7EFE"/>
<path opacity="0.6" d="M164.192 245.931C154.552 247.821 155.572 283.772 156.732 302.262C159.512 289.192 163.582 264.042 166.362 246.192C165.722 245.872 165.002 245.771 164.192 245.931Z" fill="black"/>
<path d="M181.398 225.927C181.398 225.927 184.41 280.854 183.611 303.257C182.78 326.559 174.641 402.858 174.641 402.858H162.196C162.196 402.858 161.739 327.921 161.186 305.036C160.582 280.087 157.57 225.928 157.57 225.928H181.398V225.927Z" fill="#263238"/>
<path d="M177.036 397.901C177.093 397.901 176.334 403.068 176.334 403.068H161.196L160.787 398.457L177.036 397.901Z" fill="#7D7EFE"/>
<path d="M186.588 169.131C187.716 170.89 189.004 172.865 190.29 174.691C191.601 176.533 192.91 178.373 194.29 180.142C197.023 183.684 199.921 187.087 203.042 189.911C203.815 190.626 204.606 191.288 205.405 191.899L206.005 192.351C205.951 192.319 205.76 192.255 205.653 192.231C205.392 192.181 205.265 192.226 205.335 192.262C205.487 192.34 206.217 192.214 206.981 191.883C207.756 191.554 208.637 191.108 209.51 190.57C213.026 188.39 216.659 185.345 220.073 182.385L224.364 185.851C221.702 190.139 218.772 194.019 214.747 197.584C213.724 198.463 212.629 199.336 211.309 200.113C209.983 200.877 208.476 201.661 206.264 201.986C205.159 202.13 203.822 202.102 202.44 201.662C201.765 201.463 201.054 201.106 200.497 200.764L199.63 200.215C198.485 199.474 197.396 198.693 196.362 197.878C192.227 194.602 188.775 190.908 185.591 187.066C184.024 185.127 182.504 183.166 181.097 181.13C179.672 179.072 178.333 177.104 177.008 174.812L186.588 169.131Z" fill="#FFC3BD"/>
<path d="M172.156 173.542C169.806 183.391 187.627 193.036 187.627 193.036L199.202 179.474C199.202 179.474 193.932 171.488 187.376 165.196C179.279 157.424 173.945 166.044 172.156 173.542Z" fill="#7D7EFE"/>
<path d="M218.907 184.433L221.639 175.66L228.829 179.243C228.829 179.243 227.781 185.644 222.548 186.754L218.907 184.433Z" fill="#FFC3BD"/>
<path d="M224.523 173.229L231.008 175.014L228.829 179.244L221.64 175.662L224.523 173.229Z" fill="#FFC3BD"/>
<path d="M160.954 146.506C160.954 146.506 166.972 145.506 168.546 138.839C168.546 138.839 166.974 134.625 170.027 131.756C173.08 128.887 171.555 125.736 168.546 125.163C165.537 124.59 160.954 128.198 160.954 128.198L157.287 134.757L158.78 141.376L160.954 146.506Z" fill="#263238"/>
<path opacity="0.3" d="M160.954 146.506C160.954 146.506 166.972 145.506 168.546 138.839C168.546 138.839 166.974 134.625 170.027 131.756C173.08 128.887 171.555 125.736 168.546 125.163C165.537 124.59 160.954 128.198 160.954 128.198L157.287 134.757L158.78 141.376L160.954 146.506Z" fill="white"/>
<path d="M165.521 136.416C166 138.265 167.215 139.854 168.486 140.8C170.398 142.222 171.826 140.822 171.69 138.659C171.568 136.712 170.426 133.625 168.317 133.048C166.238 132.479 164.973 134.302 165.521 136.416Z" fill="#FFC3BD"/>
<path d="M161.984 144.542C160.193 140.273 156.893 129.219 168.546 125.163C168.546 125.163 167.703 114.506 173.37 118.84C173.37 118.84 167.954 111.923 167.204 119.007C167.204 119.007 165.871 116.59 167.871 115.007C167.871 115.007 157.204 111.424 157.454 119.507C157.454 119.507 156.371 116.716 158.204 114.487C158.204 114.487 155.884 114.341 154.961 118.007C154.038 121.674 145.037 120.919 145.829 129.255C145.829 129.255 137.871 139.31 157.038 147.909C157.038 147.909 154.515 149.465 155.955 151.952C155.955 151.952 156.622 149.227 159.372 147.909C159.372 147.909 158.122 150.758 160.789 151.591C160.789 151.591 159.826 149.122 161.584 147.205C162.234 146.492 162.357 145.433 161.984 144.542Z" fill="#263238"/>
<path opacity="0.1" d="M168.87 148.923C166.327 149.039 166.48 151.525 166.517 151.899C168.71 151.703 170.772 150.721 172.361 149.177C171.441 149.357 170.458 148.851 168.87 148.923Z" fill="black"/>
<path d="M167.579 124.09C167.579 124.09 168.888 119.267 171.359 120.22C173.829 121.173 172.078 125.09 173.37 126.923C173.37 126.923 171.515 126.276 171.151 123.995C170.787 121.715 168.546 125.163 168.546 125.163L167.579 124.09Z" fill="#263238"/>
<path d="M168.546 143.434L170.928 140.704L170.018 139.903H167.074L166.164 140.704L168.546 143.434Z" fill="#7D7EFE"/>
<path opacity="0.2" d="M168.219 139.903H167.073L166.163 140.704L168.546 143.434L167.309 140.704L168.219 139.903Z" fill="white"/>
</svg>
