<svg width="454" height="464" viewBox="0 0 454 464" fill="none" xmlns="http://www.w3.org/2000/svg">
<path d="M40.1165 55.8896H73.1805C77.8325 55.8896 81.6026 59.6608 81.6026 64.3114V84.8163C81.6026 89.468 77.8314 93.238 73.1805 93.238H40.1165C35.4645 93.238 31.6943 89.4669 31.6943 84.8163V64.3125C31.6943 59.6608 35.4645 55.8896 40.1165 55.8896Z" fill="#2F2FA7"/>
<path d="M40.1777 81.4316H57.306C57.9648 81.4316 58.4983 81.9651 58.4983 82.624C58.4983 83.2828 57.9648 83.8163 57.306 83.8163H40.1777C39.5189 83.8163 38.9854 83.2828 38.9854 82.624C38.9854 81.9663 39.5189 81.4316 40.1777 81.4316Z" fill="#D967A2"/>
<path d="M40.1777 72.3672H73.9838C74.6427 72.3672 75.1762 72.9007 75.1762 73.5595C75.1762 74.2184 74.6427 74.7519 73.9838 74.7519H40.1777C39.5189 74.7519 38.9854 74.2184 38.9854 73.5595C38.9854 72.9007 39.5189 72.3672 40.1777 72.3672Z" fill="#D967A2"/>
<path d="M40.1777 63.3027H73.9838C74.6427 63.3027 75.1762 63.8362 75.1762 64.4951C75.1762 65.1539 74.6427 65.6874 73.9838 65.6874H40.1777C39.5189 65.6874 38.9854 65.1539 38.9854 64.4951C38.9854 63.8373 39.5189 63.3027 40.1777 63.3027Z" fill="#D967A2"/>
<path d="M109.196 88.0234C126.624 88.0234 140.752 73.8961 140.752 56.4692C140.752 39.0423 126.624 24.915 109.196 24.915C91.7685 24.915 77.6406 39.0423 77.6406 56.4692C77.6406 73.8961 91.7685 88.0234 109.196 88.0234Z" fill="white"/>
<mask id="mask0_10714_43915" style="mask-type:luminance" maskUnits="userSpaceOnUse" x="77" y="24" width="64" height="65">
<path d="M109.208 88.0342C126.636 88.0342 140.763 73.9069 140.763 56.48C140.763 39.0531 126.636 24.9258 109.208 24.9258C91.7802 24.9258 77.6523 39.0531 77.6523 56.48C77.6523 73.9069 91.7802 88.0342 109.208 88.0342Z" fill="white"/>
</mask>
<g mask="url(#mask0_10714_43915)">
<path fill-rule="evenodd" clip-rule="evenodd" d="M137.305 89.3054C116.294 89.1268 102.074 89.1135 81.1154 89.3054C80.9634 81.3661 82.5229 76.6566 88.4305 74.0867C92.7464 72.2178 98.8037 72.443 100.137 68.8205C102.027 63.6774 97.7245 58.7494 96.3302 54.1897C93.3243 44.3161 98.5519 32.7776 108.04 31.9479C117.964 31.0739 124.609 42.4128 122.086 52.7245C120.786 58.0384 116.478 63.003 117.991 68.2349C118.884 71.3116 122.556 72.1624 126.184 73.2127C134.032 75.4665 137.255 78.4834 137.305 89.3054Z" fill="#A4A4E4"/>
</g>
<path d="M156.941 0H126.934C124.184 0 121.954 2.22939 121.954 4.98008V18.7258V22.4248V38.5884L134.339 27.4049H156.941C159.692 27.4049 161.922 25.1755 161.922 22.4248V4.98008C161.922 2.22939 159.692 0 156.941 0Z" fill="#1E1E77"/>
<path d="M133.538 16.7316C134.928 16.7316 136.055 15.6048 136.055 14.2149C136.055 12.825 134.928 11.6982 133.538 11.6982C132.148 11.6982 131.021 12.825 131.021 14.2149C131.021 15.6048 132.148 16.7316 133.538 16.7316Z" fill="white"/>
<path d="M142.045 16.7316C143.435 16.7316 144.562 15.6048 144.562 14.2149C144.562 12.825 143.435 11.6982 142.045 11.6982C140.655 11.6982 139.528 12.825 139.528 14.2149C139.528 15.6048 140.655 16.7316 142.045 16.7316Z" fill="white"/>
<path d="M150.549 16.7316C151.939 16.7316 153.066 15.6048 153.066 14.2149C153.066 12.825 151.939 11.6982 150.549 11.6982C149.159 11.6982 148.032 12.825 148.032 14.2149C148.032 15.6048 149.159 16.7316 150.549 16.7316Z" fill="white"/>
<path d="M0.855469 154.931V141.361C0.855469 139.27 2.55698 137.567 4.64781 137.567H46.9748C49.0656 137.567 50.7682 139.27 50.7682 141.361V154.931C50.7682 157.023 49.0656 158.726 46.9748 158.726H4.64781C2.55698 158.726 0.855469 157.023 0.855469 154.931Z" fill="#1E1E77"/>
<path d="M4.64508 139.925C3.85089 139.925 3.20312 140.571 3.20312 141.367V154.937C3.20312 155.734 3.85089 156.38 4.64508 156.38H46.972C47.7684 156.38 48.414 155.732 48.414 154.937V141.367C48.414 140.571 47.7673 139.925 46.972 139.925H4.64508Z" fill="white"/>
<path d="M14.7664 146.215H38.9991C39.6479 146.215 40.1748 145.689 40.1748 145.04C40.1748 144.39 39.6479 143.864 38.9991 143.864H14.7664C14.1164 143.864 13.5918 144.39 13.5918 145.04C13.5918 145.689 14.1164 146.215 14.7664 146.215Z" fill="#1E1E77"/>
<path d="M14.7664 152.237H26.8833C27.5322 152.237 28.0579 151.711 28.0579 151.062C28.0579 150.414 27.5322 149.887 26.8833 149.887H14.7664C14.1164 149.887 13.5918 150.414 13.5918 151.062C13.5918 151.711 14.1164 152.237 14.7664 152.237Z" fill="#1E1E77"/>
<path d="M301.149 52.4338C301.149 52.4338 277.708 32.9649 270.822 27.1263C263.937 21.2833 262.133 22.4158 256.816 27.1984C250.533 32.8484 226.583 52.4504 226.583 52.4504V52.9573L301.151 52.9407L301.149 52.4338Z" fill="#A4A4E4"/>
<path d="M226.583 52.4552L226.585 59.3087L263.872 91.1346L301.152 59.2909L301.15 52.4375L226.583 52.4552Z" fill="#A4A4E4"/>
<path d="M292.525 36.7598H235.379V89.1571H292.525V36.7598Z" fill="white"/>
<path d="M287.536 45.0523H239.158C238.587 45.0523 238.126 44.5909 238.126 44.0208C238.126 43.4507 238.587 42.9893 239.158 42.9893H287.536C288.106 42.9893 288.568 43.4507 288.568 44.0208C288.568 44.5898 288.105 45.0523 287.536 45.0523Z" fill="#D967A2"/>
<path d="M287.536 51.898H239.158C238.587 51.898 238.126 51.4366 238.126 50.8665C238.126 50.2964 238.587 49.835 239.158 49.835H287.536C288.106 49.835 288.568 50.2964 288.568 50.8665C288.568 51.4366 288.105 51.898 287.536 51.898Z" fill="#D967A2"/>
<path d="M287.536 58.7437H239.158C238.587 58.7437 238.126 58.2823 238.126 57.7122C238.126 57.1421 238.587 56.6807 239.158 56.6807H287.536C288.106 56.6807 288.568 57.1421 288.568 57.7122C288.568 58.2812 288.105 58.7437 287.536 58.7437Z" fill="#D967A2"/>
<path d="M270.861 65.5816H239.158C238.587 65.5816 238.126 65.1202 238.126 64.5501C238.126 63.98 238.587 63.5186 239.158 63.5186H270.861C271.431 63.5186 271.892 63.98 271.892 64.5501C271.892 65.1202 271.431 65.5816 270.861 65.5816Z" fill="#D967A2"/>
<path d="M301.161 103.007L226.595 103.024L226.583 52.4552L263.873 80.1685L301.15 52.4375L301.161 103.007Z" fill="#BCBCEA"/>
<path d="M301.162 103.905L226.594 103.918L226.593 97.4854C226.593 97.4854 250.545 82.6428 256.828 76.9917C262.145 72.2101 264.254 71.3849 271.139 77.2246C278.025 83.0654 301.162 97.4699 301.162 97.4699V103.905Z" fill="#A4A4E4"/>
<path d="M333.73 72.4131H301.719C295.86 72.4131 291.11 67.6638 291.11 61.8052V21.7993C291.11 15.9408 295.86 11.1914 301.719 11.1914H333.73C339.589 11.1914 344.338 15.9408 344.338 21.7993V61.8041C344.337 67.6638 339.588 72.4131 333.73 72.4131Z" fill="#2F2FA7"/>
<path d="M328.763 66.7994H307.058C301.199 66.7994 296.449 62.05 296.449 56.1915V37.9692C296.449 32.1107 301.199 27.3613 307.058 27.3613H328.763C334.622 27.3613 339.372 32.1107 339.372 37.9692V56.1915C339.372 62.05 334.622 66.7994 328.763 66.7994Z" fill="white"/>
<path d="M305.679 35.525C307.158 34.3515 309.05 33.7637 311.353 33.7637C312.934 33.7637 314.3 34.0465 315.451 34.61C316.603 35.1745 317.472 35.9431 318.059 36.9125C318.646 37.883 318.94 38.9789 318.94 40.1979C318.94 41.5976 318.567 42.7944 317.822 43.7882C317.076 44.782 316.185 45.4474 315.146 45.7857V45.9222C316.479 46.3281 317.518 47.0679 318.263 48.1405C319.007 49.213 319.38 50.585 319.38 52.2554C319.38 53.5886 319.075 54.7732 318.466 55.8125C317.856 56.8517 316.953 57.6703 315.756 58.2681C314.56 58.8659 313.125 59.1654 311.455 59.1654C309.016 59.1654 307.013 58.5387 305.443 57.2854C304.104 56.2162 303.296 54.7488 303.017 52.8821C302.939 52.3552 303.36 51.8827 303.892 51.8827H305.889C306.307 51.8827 306.659 52.18 306.748 52.5882C306.941 53.4699 307.369 54.2108 308.034 54.8131C308.869 55.5695 309.999 55.9478 311.421 55.9478C312.798 55.9478 313.86 55.5695 314.605 54.8131C315.35 54.0567 315.723 53.0806 315.723 51.8827C315.723 50.3022 315.221 49.1797 314.216 48.5131C313.211 47.8476 311.669 47.5138 309.593 47.5138C309.106 47.5138 308.712 47.12 308.712 46.6331V45.2112C308.712 44.7254 309.106 44.3305 309.593 44.3305H309.626C311.455 44.3084 312.849 44.0033 313.81 43.4166C314.769 42.8299 315.25 41.9037 315.25 40.6393C315.25 39.5556 314.899 38.6916 314.199 38.0483C313.499 37.405 312.505 37.0822 311.219 37.0822C309.953 37.0822 308.971 37.4039 308.272 38.0483C307.734 38.5419 307.363 39.1253 307.159 39.7986C307.045 40.1734 306.709 40.4363 306.317 40.4363H304.255C303.693 40.4363 303.287 39.9195 303.393 39.3671C303.699 37.7721 304.461 36.4911 305.679 35.525Z" fill="#1E1E77"/>
<path d="M322.938 36.9779V35.2166C322.938 34.7297 323.332 34.3359 323.819 34.3359H329.103C329.59 34.3359 329.984 34.7297 329.984 35.2166V58.1461C329.984 58.6319 329.59 59.0267 329.103 59.0267H326.97C326.483 59.0267 326.09 58.633 326.09 58.1461V38.7393C326.09 38.2535 325.696 37.8586 325.209 37.8586H323.82C323.332 37.8586 322.938 37.4637 322.938 36.9779Z" fill="#1E1E77"/>
<path d="M306.804 17.6139C306.804 19.7191 305.097 21.426 302.992 21.426C300.887 21.426 299.18 19.7191 299.18 17.6139C299.18 15.5087 300.887 13.8018 302.992 13.8018C305.097 13.8029 306.804 15.5087 306.804 17.6139Z" fill="#B04470"/>
<path d="M302.978 19.2939C301.934 19.2939 301.081 18.4399 301.081 17.3962V10.1867C301.081 9.14297 301.934 8.29004 302.978 8.29004C304.022 8.29004 304.875 9.14297 304.875 10.1867V17.3962C304.875 18.4399 304.022 19.2939 302.978 19.2939Z" fill="white"/>
<path d="M337.09 17.6139C337.09 19.7191 335.383 21.426 333.278 21.426C331.173 21.426 329.466 19.7191 329.466 17.6139C329.466 15.5087 331.173 13.8018 333.278 13.8018C335.383 13.8018 337.09 15.5087 337.09 17.6139Z" fill="#B04470"/>
<path d="M333.269 19.2939C332.225 19.2939 331.372 18.4399 331.372 17.3962V10.1867C331.372 9.14297 332.226 8.29004 333.269 8.29004C334.311 8.29004 335.166 9.14297 335.166 10.1867V17.3962C335.166 18.4399 334.313 19.2939 333.269 19.2939Z" fill="white"/>
<path d="M183.252 19.1566V5.58723C183.252 3.49649 184.952 1.79395 187.044 1.79395H229.371C231.462 1.79395 233.165 3.49649 233.165 5.58723V19.1577C233.165 21.2495 231.462 22.9521 229.371 22.9521H187.044C184.952 22.951 183.252 21.2495 183.252 19.1566Z" fill="#2F2FA7"/>
<path d="M187.042 4.14258C186.247 4.14258 185.6 4.79032 185.6 5.58447V19.1549C185.6 19.9513 186.247 20.5979 187.042 20.5979H229.369C230.165 20.5979 230.81 19.9502 230.81 19.1549V5.58558C230.81 4.79032 230.164 4.14369 229.369 4.14369L187.042 4.14258Z" fill="#A4A4E4"/>
<path d="M197.172 10.4254H221.404C222.053 10.4254 222.58 9.89961 222.58 9.25187C222.58 8.60191 222.053 8.07617 221.404 8.07617H197.172C196.523 8.07617 195.997 8.60191 195.997 9.25187C195.996 9.89961 196.522 10.4254 197.172 10.4254Z" fill="#2F2FA7"/>
<path d="M197.172 16.4489H209.289C209.937 16.4489 210.463 15.9232 210.463 15.2743C210.463 14.6255 209.937 14.0986 209.289 14.0986H197.172C196.523 14.0986 195.997 14.6255 195.997 15.2743C195.997 15.9232 196.522 16.4489 197.172 16.4489Z" fill="#2F2FA7"/>
<path d="M244.534 108.202C244.534 110.847 242.391 112.991 239.747 112.991H217.045C214.403 112.991 212.26 110.847 212.26 108.202V107.925C212.26 105.279 214.404 103.138 217.045 103.138H239.747C242.392 103.138 244.534 105.281 244.534 107.925V108.202Z" fill="#1E1E77"/>
<path d="M222.361 108.078C222.361 109.1 221.533 109.927 220.513 109.927C219.492 109.927 218.666 109.1 218.666 108.078C218.666 107.059 219.492 106.231 220.513 106.231C221.533 106.23 222.361 107.059 222.361 108.078Z" fill="white"/>
<path d="M230.245 108.078C230.245 109.1 229.417 109.927 228.398 109.927C227.375 109.927 226.549 109.1 226.549 108.078C226.549 107.059 227.375 106.231 228.398 106.231C229.417 106.23 230.245 107.059 230.245 108.078Z" fill="white"/>
<path d="M238.129 108.078C238.129 109.1 237.302 109.927 236.282 109.927C235.261 109.927 234.434 109.1 234.434 108.078C234.434 107.059 235.261 106.231 236.282 106.231C237.302 106.231 238.129 107.059 238.129 108.078Z" fill="white"/>
<path fill-rule="evenodd" clip-rule="evenodd" d="M391.544 167.9C391.544 170.627 393.753 172.835 396.48 172.835C399.206 172.835 401.417 170.626 401.417 167.9V101.058C401.417 98.3316 399.206 96.1211 396.48 96.1211C393.753 96.1211 391.544 98.3316 391.544 101.058V167.9Z" fill="white"/>
<path fill-rule="evenodd" clip-rule="evenodd" d="M396.48 123.479C399.206 123.479 401.417 125.689 401.417 128.414V167.901C401.417 170.628 399.206 172.837 396.48 172.837C393.753 172.837 391.544 170.627 391.544 167.901V128.414C391.543 125.689 393.752 123.479 396.48 123.479Z" fill="#D967A2"/>
<path fill-rule="evenodd" clip-rule="evenodd" d="M374.29 167.9C374.29 170.627 376.5 172.835 379.226 172.835C381.952 172.835 384.162 170.626 384.162 167.9V101.058C384.162 98.3316 381.952 96.1211 379.226 96.1211C376.5 96.1211 374.29 98.3316 374.29 101.058V167.9Z" fill="white"/>
<path fill-rule="evenodd" clip-rule="evenodd" d="M379.226 110.497C381.952 110.497 384.162 112.708 384.162 115.433V167.901C384.162 170.629 381.952 172.837 379.226 172.837C376.5 172.837 374.29 170.627 374.29 167.901V115.433C374.29 112.708 376.5 110.497 379.226 110.497Z" fill="#D967A2"/>
<path fill-rule="evenodd" clip-rule="evenodd" d="M357.647 167.9C357.647 170.627 359.858 172.835 362.584 172.835C365.311 172.835 367.52 170.626 367.52 167.9V101.058C367.52 98.3316 365.311 96.1211 362.584 96.1211C359.858 96.1211 357.647 98.3316 357.647 101.058V167.9Z" fill="white"/>
<path fill-rule="evenodd" clip-rule="evenodd" d="M362.584 119.839C365.311 119.839 367.52 122.048 367.52 124.775V167.899C367.52 170.627 365.311 172.835 362.584 172.835C359.858 172.835 357.647 170.626 357.647 167.899V124.775C357.647 122.049 359.858 119.839 362.584 119.839Z" fill="#D967A2"/>
<path fill-rule="evenodd" clip-rule="evenodd" d="M341.268 167.9C341.268 170.627 343.478 172.835 346.205 172.835C348.93 172.835 351.141 170.626 351.141 167.9V101.058C351.141 98.3316 348.93 96.1211 346.205 96.1211C343.478 96.1211 341.268 98.3316 341.268 101.058V167.9Z" fill="white"/>
<path fill-rule="evenodd" clip-rule="evenodd" d="M346.205 101.806C348.93 101.806 351.141 104.016 351.141 106.741V167.9C351.141 170.627 348.93 172.836 346.205 172.836C343.478 172.836 341.268 170.626 341.268 167.9V106.741C341.268 104.016 343.478 101.806 346.205 101.806Z" fill="#D967A2"/>
<path fill-rule="evenodd" clip-rule="evenodd" d="M324.888 167.9C324.888 170.627 327.098 172.835 329.824 172.835C332.55 172.835 334.761 170.626 334.761 167.9V101.058C334.761 98.3316 332.55 96.1211 329.824 96.1211C327.098 96.1211 324.888 98.3316 324.888 101.058V167.9Z" fill="white"/>
<path fill-rule="evenodd" clip-rule="evenodd" d="M329.824 116.875C332.55 116.875 334.761 119.084 334.761 121.811V167.897C334.761 170.624 332.55 172.833 329.824 172.833C327.098 172.833 324.888 170.623 324.888 167.897V121.811C324.887 119.084 327.097 116.875 329.824 116.875Z" fill="#D967A2"/>
<path d="M405.016 45.4736H372.854C369.906 45.4736 367.517 47.8639 367.517 50.812V65.5448V69.5089V86.8338L380.791 74.8472H405.016C407.965 74.8472 410.355 72.457 410.355 69.5089V50.812C410.354 47.8639 407.965 45.4736 405.016 45.4736Z" fill="#1E1E77"/>
<path d="M374.459 68.96C374.13 68.96 373.805 68.8147 373.584 68.5363C373.202 68.0527 373.284 67.3529 373.767 66.9713L382.401 60.1478C382.818 59.8206 383.407 59.8295 383.812 60.1722L389.069 64.6244L401.644 51.4787C402.069 51.034 402.775 51.0184 403.219 51.4443C403.664 51.8703 403.68 52.5746 403.254 53.0193L389.955 66.9225C389.547 67.3473 388.879 67.3839 388.429 67.0024L383.066 62.4615L375.148 68.7193C374.945 68.8813 374.701 68.96 374.459 68.96Z" fill="white"/>
<path d="M402.449 62.7609C401.834 62.7609 401.336 62.2617 401.336 61.6473V53.3619H393.05C392.435 53.3619 391.937 52.8628 391.937 52.2483C391.937 51.6328 392.436 51.1348 393.05 51.1348H402.451C403.066 51.1348 403.564 51.6339 403.564 52.2483V61.6484C403.563 62.2617 403.065 62.7609 402.449 62.7609Z" fill="white"/>
<path d="M453.998 186.467C453.998 189.112 451.855 191.256 449.211 191.256H426.509C423.867 191.256 421.724 189.112 421.724 186.467V186.189C421.724 183.544 423.868 181.402 426.509 181.402H449.211C451.856 181.402 453.998 183.545 453.998 186.189V186.467Z" fill="#1E1E77"/>
<path d="M431.819 186.361C431.819 187.383 430.991 188.21 429.971 188.21C428.95 188.21 428.124 187.383 428.124 186.361C428.124 185.342 428.95 184.515 429.971 184.515C430.991 184.515 431.819 185.342 431.819 186.361Z" fill="white"/>
<path d="M439.705 186.361C439.705 187.383 438.877 188.21 437.858 188.21C436.835 188.21 436.009 187.383 436.009 186.361C436.009 185.342 436.835 184.515 437.858 184.515C438.877 184.514 439.705 185.342 439.705 186.361Z" fill="white"/>
<path d="M447.583 186.361C447.583 187.383 446.755 188.21 445.735 188.21C444.714 188.21 443.887 187.383 443.887 186.361C443.887 185.342 444.714 184.515 445.735 184.515C446.754 184.514 447.583 185.342 447.583 186.361Z" fill="white"/>
<path fill-rule="evenodd" clip-rule="evenodd" d="M247.003 278.226C245.14 277.461 243.91 274.898 242.001 273.876C240.323 272.979 234.658 272.286 230.771 271.588C229.352 271.333 227.879 271.138 226.384 270.958C224.221 259.273 221.61 248.023 219.48 236.647C218.757 232.783 218.077 229.088 217.126 225.451C216.215 221.967 214.851 218.588 213.682 215.141C211.275 208.047 207.919 189.143 205.968 181.533C205.965 181.461 205.958 181.393 205.859 181.41L185.166 185.859C185.796 189.815 188.825 202.788 189.573 207.01C190.327 211.276 190.244 216.09 190.394 220.561C190.722 230.359 192.497 237.78 194.857 245.534C198.835 258.585 205.125 270.107 211.471 281.14C211.862 281.821 213.033 284.19 213.923 285.201V285.202C214.718 287.644 240.141 285.592 243.198 286.626C244.997 287.236 251.421 290.349 251.321 285.849C251.906 286.174 253.058 286.071 253.168 285.413C253.82 283.816 249.742 279.352 247.003 278.226Z" fill="#E2B1CE"/>
<path fill-rule="evenodd" clip-rule="evenodd" d="M202.624 219.95L213.184 217.012C213.184 217.012 206.623 213.403 202.624 219.95Z" fill="#875633"/>
<path fill-rule="evenodd" clip-rule="evenodd" d="M252.852 283.641C253.232 284.219 253.558 285.003 253.066 285.569C251.916 286.89 249.973 284.722 248.283 283.701C247.183 283.037 245.863 282.382 244.849 281.94C242.151 280.766 236.615 279.672 236.615 279.672C240.372 279.324 245.71 280.976 248.793 282.629C249.811 283.174 252.862 284.132 252.852 283.641Z" fill="#BB78A2"/>
<path fill-rule="evenodd" clip-rule="evenodd" d="M235.947 275.162C239.029 275.248 242.249 275.335 244.565 276.196C244.565 276.196 246.023 277.667 247.663 278.549C244.565 277.446 240.162 275.66 235.947 275.162Z" fill="#BB78A2"/>
<path fill-rule="evenodd" clip-rule="evenodd" d="M225.824 268.006C215.064 271.275 212.595 272.603 200.57 274.146C196.584 262.702 170.175 160.624 170.991 148.42C171.365 142.834 172.33 137.08 174.15 132.008C175.865 127.238 178.788 121.53 184.059 120.051C186.172 119.46 187.244 119.266 188.761 119.809C192.526 121.162 196.544 126.06 198.412 130.611C200.439 135.545 201.901 141 203.25 146.256C206.154 157.584 223.613 256.686 225.824 268.006Z" fill="#BCBCEA"/>
<path d="M189.528 118.58C190.791 120.573 191.682 122.815 191.874 125.308C192.182 129.273 190.869 132.727 189.494 135.795C188.113 138.876 186.586 141.708 184.98 144.161C181.973 148.753 178.314 152.844 175.002 156.785C206.011 136.638 189.997 118.634 189.528 118.58Z" fill="#A4A4E4"/>
<path d="M131.7 100.063C136.825 100.066 141.34 100.861 145.834 101.811C152.64 103.252 159.309 105.205 165.956 107.243C170.216 108.549 174.477 109.854 178.576 111.622C181.278 112.787 183.915 114.075 186.415 115.644C190.087 117.949 191.849 121.229 191.884 125.566C191.928 130.812 190.806 135.736 188.147 140.271C185.892 144.117 183.447 147.842 180.543 151.239C177.602 154.679 174.245 157.682 170.495 160.198C162.711 165.419 155.358 171.196 148.187 177.212C142.039 182.371 136.184 187.845 130.76 193.77C129.226 195.446 127.631 197.065 126.102 198.746C125.523 199.383 124.898 199.685 124.019 199.72C118.678 199.939 113.335 200.066 107.995 200.261C99.9363 200.556 91.8747 200.65 83.8153 200.822C77.5782 200.955 71.339 200.84 65.1064 201.044C60.1228 201.208 55.1325 201.28 50.1622 201.742C49.6753 201.788 49.1828 201.816 48.6937 201.801C47.813 201.773 47.5445 201.505 47.7364 200.629C48.0215 199.325 48.3908 198.036 48.7868 196.762C50.1866 192.249 51.7794 187.805 53.6784 183.474C55.168 180.078 57.0259 176.883 58.9792 173.739C64.7781 164.409 71.4255 155.705 78.4878 147.307C83.1342 141.783 87.4933 136.026 92.0211 130.406C95.545 126.033 99.2797 121.846 103.047 117.684C105.439 115.041 107.87 112.435 110.46 109.982C113.024 107.555 115.787 105.377 118.818 103.561C122.936 101.093 127.397 99.8967 131.7 100.063Z" fill="#CECEF4"/>
<path d="M119.545 103.132C119.301 103.267 119.058 103.407 118.817 103.551C115.786 105.367 113.023 107.545 110.459 109.972C107.869 112.424 105.438 115.031 103.046 117.674C99.2787 121.835 95.544 126.022 92.0201 130.396C87.4913 136.016 83.1332 141.771 78.4868 147.297C71.4246 155.696 64.7771 164.399 58.9783 173.729C57.025 176.873 55.1671 180.068 53.6774 183.464C51.7785 187.794 50.1857 192.239 48.7859 196.752C48.391 198.027 48.0216 199.315 47.7354 200.618C47.5436 201.496 47.812 201.763 48.6927 201.791C49.1807 201.806 49.6732 201.777 50.1613 201.732C53.8493 201.388 57.5485 201.26 61.2477 201.151C62.0119 197.045 63.171 193.027 64.7228 189.081C67.945 180.89 72.4949 173.457 77.5163 166.295C82.196 159.619 86.9999 153.031 91.7107 146.376C97.8124 137.757 103.977 129.196 111.051 121.319C115.026 116.892 119.252 112.776 124.018 109.216C126.77 107.16 129.68 105.368 132.669 103.709C128.292 103.593 123.917 103.394 119.545 103.132Z" fill="#A4A4E4"/>
<path fill-rule="evenodd" clip-rule="evenodd" d="M165.506 61.6078C168.918 56.4847 172.783 54.5226 177.756 52.7136C183.378 50.6694 189.886 50.2169 196.726 54.6435C211.75 64.3585 205.169 75.277 199.455 85.8017C194.158 95.5534 191.108 101.168 183.678 102.747C181.957 103.116 180.381 103.169 178.85 103.333C178.85 103.333 175.312 110.303 171.86 117.029C168.807 122.982 146.771 110.514 149.859 105.029C155.3 95.3648 162.224 83.5956 162.431 82.6617C162.718 81.3729 159.518 72.0316 165.506 61.6078Z" fill="#E2B1CE"/>
<path d="M178.85 103.333C168.066 100.651 166.025 91.5762 166.025 91.5762C166.025 91.5762 163.027 104.233 176.117 108.729L178.85 103.333Z" fill="#BB78A2"/>
<path fill-rule="evenodd" clip-rule="evenodd" d="M159.005 66.4404C157.552 69.1622 157.365 77.0327 160.623 78.2639C163.074 79.1934 167.06 74.0436 168.519 71.3251C169.972 68.6032 170.863 66.3727 170.863 66.3727C168.401 65.8226 165.099 63.7795 163.884 63.6265C161.135 63.2826 160.018 64.5548 159.005 66.4404Z" fill="#E2B1CE"/>
<path d="M165.196 74.9957C165.255 75.0268 165.309 75.0456 165.37 75.0656C165.771 75.1632 166.18 74.9192 166.285 74.5177C167.087 71.3322 166.448 68.4539 164.49 66.4198C164.202 66.1247 163.719 66.1159 163.427 66.3987C163.126 66.6904 163.118 67.1651 163.404 67.4646C164.994 69.1061 165.494 71.4841 164.823 74.1516C164.741 74.4899 164.903 74.8382 165.196 74.9957Z" fill="#BB78A2"/>
<path d="M160.699 72.6993C161.025 72.8779 161.44 72.7802 161.666 72.4675C162.473 71.3206 163.854 70.7439 165.559 70.8426C165.967 70.8636 166.326 70.5464 166.349 70.1305C166.375 69.7168 166.059 69.3607 165.639 69.3419C163.401 69.2165 161.552 70.0162 160.435 71.6034C160.197 71.9439 160.273 72.4142 160.617 72.6538C160.645 72.6682 160.672 72.6849 160.699 72.6993Z" fill="#BB78A2"/>
<path d="M184.067 88.7206C184.101 88.7395 184.145 88.7539 184.182 88.7716C185.329 89.121 186.288 89.0855 187.094 88.6518C188.727 87.7656 189.374 85.4963 190.194 82.6303C190.712 80.8013 191.308 78.736 192.252 76.6919C192.416 76.3137 192.255 75.8622 191.881 75.697C191.504 75.524 191.048 75.687 190.883 76.0641C189.894 78.2136 189.289 80.3399 188.749 82.221C188.06 84.6489 187.459 86.7508 186.386 87.3364C185.95 87.5627 185.376 87.5715 184.642 87.3408C184.236 87.2188 183.831 87.434 183.699 87.83C183.583 88.186 183.75 88.5509 184.067 88.7206Z" fill="#BB78A2"/>
<path fill-rule="evenodd" clip-rule="evenodd" d="M197.157 84.6435C196.617 85.6517 195.561 86.1519 194.823 85.7393C194.08 85.3411 193.928 84.1876 194.477 83.1761C195.034 82.1667 196.082 81.6698 196.815 82.0725C197.562 82.4706 197.712 83.6264 197.157 84.6435Z" fill="#1E1E77"/>
<path fill-rule="evenodd" clip-rule="evenodd" d="M196.129 73.4176C195.626 73.8302 197.928 76.0718 199.552 77.995C201.151 79.9194 202.096 81.6142 202.592 81.1938C203.097 80.7701 202.438 78.5585 200.825 76.633C199.2 74.7064 196.63 72.9939 196.129 73.4176Z" fill="#5D382E"/>
<path fill-rule="evenodd" clip-rule="evenodd" d="M191.288 70.863C191.169 71.5052 188.089 70.5957 185.623 70.1265C183.156 69.6673 179.722 69.6285 179.839 68.9974C179.964 68.3496 183.71 67.886 186.182 68.3474C190.389 69.1438 191.428 70.1254 191.288 70.863Z" fill="#5D382E"/>
<path fill-rule="evenodd" clip-rule="evenodd" d="M184.258 77.3411C183.712 78.3615 182.646 78.8739 181.89 78.4602C181.147 78.051 181.003 76.8841 181.547 75.8559C182.112 74.84 183.174 74.3431 183.92 74.7512C184.665 75.1572 184.816 76.3196 184.258 77.3411Z" fill="#1E1E77"/>
<path fill-rule="evenodd" clip-rule="evenodd" d="M184.533 44.2962C182.421 40.961 178.111 40.3333 175.497 41.0786C171.994 42.0657 167.851 45.4187 165.594 50.2357C163.328 55.0683 164.106 59.4051 164.325 63.6698C164.428 65.5919 164.38 67.5995 163.735 70.3191C163.41 71.6623 161.488 76.1932 163.792 76.781C165.395 77.1892 167.482 71.954 168.091 70.735C170.637 65.6174 174.302 58.3336 177.864 56.8729C180.455 55.8081 183.881 57.077 187.017 59.2332C189.422 60.8902 191.065 63.4169 192.822 65.6019C195.749 69.2477 198.96 74.3132 204.684 74.677C204.032 77.5752 201.674 81.0923 199.877 84.9299C199.15 86.475 195.232 93.2852 195.232 93.2852C198.541 93.9684 201.847 88.8208 203.05 87.7128C204.299 86.5615 205.426 85.4989 206.561 84.7148C209.027 83.02 211.803 81.9208 213.91 79.4585C216.867 76.0079 217.279 70.8493 215.56 68.6243C214.607 67.3865 212.427 66.4127 210.507 66.1665C217.306 58.5998 214.246 48.745 207.022 43.8271C198.67 38.1438 190.666 40.3377 184.533 44.2962Z" fill="#5D382E"/>
<path d="M161.147 63.9847C161.147 63.9847 162.617 63.1994 164.456 63.7617C167.398 65.1959 172.086 67.4929 177.287 70.1449C176.086 72.0781 173.943 76.1421 175.394 78.5534C175.783 79.2078 176.632 79.9021 177.914 80.6186C179.545 81.5303 181.953 82.482 183.188 82.4454C186.097 82.3544 188.406 79.5727 190.144 76.9373C190.817 77.3111 191.485 77.6838 192.137 78.052C190.804 80.9092 189.639 84.3354 191.086 86.8598C191.704 87.9345 193.772 89.4873 195.405 90.4002C196.685 91.1156 197.72 91.475 198.484 91.4661C201.455 91.4372 203.905 87.0184 204.824 85.1229C204.983 84.7835 204.903 84.3808 204.625 84.129C204.59 84.0991 204.551 84.0692 204.514 84.0381L204.516 84.0337C204.499 84.0204 204.476 84.0004 204.459 83.9882C201.907 81.7466 198.758 79.8056 196.534 78.5611C195.568 78.021 194.572 77.4997 193.578 77.0094C193.461 76.9506 193.335 76.9285 193.207 76.9307C192.336 76.4426 191.451 75.9502 190.543 75.4533C190.478 75.3379 190.391 75.2337 190.274 75.1616C189.341 74.5748 188.373 73.997 187.405 73.4557C185.731 72.5196 183.435 71.3361 181.013 70.3845C174.149 66.8241 167.67 63.622 164.202 61.9106C162.137 61.2162 161.147 63.9847 161.147 63.9847ZM193.599 78.8983C193.709 78.9538 193.816 79.0159 193.926 79.0747C197 80.8449 199.751 82.5419 201.867 84.0314C202.27 84.3431 202.665 84.6559 203.025 84.9642C201.509 87.9013 199.753 89.7768 198.465 89.7879C198.301 89.7924 197.653 89.7358 196.225 88.9372C194.53 87.9889 192.884 86.6191 192.544 86.029C191.491 84.1867 192.459 81.3484 193.599 78.8983ZM178.557 71.2796C179.811 71.6866 181.172 72.2301 182.6 72.8878C184.527 73.8972 186.456 74.9242 188.352 75.9568C188.455 76.0178 188.56 76.0755 188.66 76.1365C187.167 78.3892 185.256 80.6996 183.14 80.7683C182.456 80.7861 180.431 80.104 178.735 79.1556C177.306 78.357 176.916 77.8324 176.834 77.6904C176.169 76.5868 176.847 74.1079 178.557 71.2796Z" fill="#B04470"/>
<path d="M181.748 93.3185V93.3152C181.757 92.9259 181.448 92.6097 181.06 92.5987C181.038 92.5987 178.835 92.5288 177.874 91.2266C177.371 90.5467 177.282 89.6028 177.609 88.4227C177.714 88.0467 177.496 87.6585 177.12 87.5542C176.746 87.45 176.357 87.6696 176.255 88.0445C175.803 89.6716 175.969 91.0248 176.746 92.0707C178.127 93.9241 180.91 94.0039 181.029 94.0062C181.417 94.0161 181.739 93.7056 181.748 93.3185Z" fill="#BB78A2"/>
<path fill-rule="evenodd" clip-rule="evenodd" d="M164.087 113.144C160.55 114.862 163.465 126.775 165.21 127.435C166.351 127.866 173.541 122.584 176.384 120.651C177.576 119.837 179.172 118.783 179.503 117.195C179.829 115.635 178.146 112.532 177.481 111.231C176.818 109.935 175.076 110.448 173.488 110.752C172.456 110.95 165.711 112.508 164.087 113.144Z" fill="white"/>
<path fill-rule="evenodd" clip-rule="evenodd" d="M163.216 112.911C164.875 116.321 155.9 124.298 154.219 123.836C153.122 123.532 146.976 111.358 145.957 108.173C145.531 106.835 144.937 105.072 145.599 103.597C146.247 102.145 149.272 100.596 150.518 99.9236C151.749 99.2537 152.756 100.659 153.765 101.814C154.425 102.565 162.36 111.472 163.216 112.911Z" fill="white"/>
<path d="M152.38 152.949C151.246 149.782 149.546 141.421 149.795 140.435C150.206 138.802 160.314 121.984 160.343 121.325C160.378 120.471 159.201 119.7 159.223 118.936C159.254 118.074 162.389 114.594 163.038 114.371C163.177 114.35 163.297 114.362 163.413 114.392L163.412 114.391C163.425 114.392 163.441 114.4 163.454 114.403C163.468 114.406 163.483 114.409 163.497 114.413L163.496 114.416C163.606 114.449 163.72 114.497 163.83 114.584C164.274 115.103 165.246 119.687 164.835 120.445C164.472 121.119 163.064 121.193 162.669 121.95C162.362 122.533 162.655 142.152 162.192 143.772C161.912 144.748 156.246 151.126 153.672 153.297C153.347 153.575 152.522 153.351 152.38 152.949Z" fill="#1E1E77"/>
<path fill-rule="evenodd" clip-rule="evenodd" d="M97.2512 419.774L117.731 422.729L114.21 447.071L92.0469 442.593L97.2512 419.774Z" fill="#E2B1CE"/>
<path fill-rule="evenodd" clip-rule="evenodd" d="M116.437 431.065C105.614 436.55 95.3662 428.024 95.3662 428.024L116.437 431.065Z" fill="#BB78A2"/>
<path fill-rule="evenodd" clip-rule="evenodd" d="M116.976 434.903C116.046 434.776 112.811 434.043 111.368 434.985C109.867 435.961 109.788 438.039 109.173 440.588C103.081 439.056 102.685 432.656 94.2255 432.277C91.9406 438.307 90.4365 445.512 89.0156 452.84C105.406 456.503 122.55 459.668 139.237 463.138C139.236 461.402 139.086 459.789 138.666 458.49C137.374 454.545 134.395 452.139 130.832 450.102C126.037 447.364 120.328 444.583 118.276 439.709C117.704 438.345 117.428 436.789 116.976 434.903Z" fill="#BCBCEA"/>
<path fill-rule="evenodd" clip-rule="evenodd" d="M112.299 441.736C112.528 442.775 115.018 442.098 116.785 442.173C117.823 442.215 120.211 442.788 120.576 441.902C121.24 440.321 117.616 439.665 116.014 439.741C114.462 439.822 111.958 440.214 112.299 441.736Z" fill="#282894"/>
<path fill-rule="evenodd" clip-rule="evenodd" d="M113.992 445.938C114.613 447.27 117.28 446.388 119.049 446.357C119.976 446.342 121 446.417 121.893 446.476C122.748 446.535 124.263 446.942 124.366 446.222C124.581 444.675 122.097 444.046 120.3 443.892C118.026 443.685 113.068 443.96 113.992 445.938Z" fill="#282894"/>
<path d="M126.603 447.693C128.014 448.53 129.459 449.32 130.826 450.097C134.389 452.133 137.368 454.539 138.659 458.484C139.08 459.782 139.229 461.397 139.23 463.133C131.737 461.573 124.15 460.079 116.576 458.566C118.358 451.895 122.748 448.961 126.603 447.693Z" fill="#282894"/>
<path d="M99.1193 455.02C95.7285 454.308 92.3499 453.587 89.0156 452.841C89.9107 448.193 90.8513 443.602 91.9982 439.322C94.9886 441.482 99.7959 446.353 99.1193 455.02Z" fill="#282894"/>
<path fill-rule="evenodd" clip-rule="evenodd" d="M59.7167 428.932L80.3755 427.784L81.7321 452.342L59.1211 452.329L59.7167 428.932Z" fill="#E2B1CE"/>
<path fill-rule="evenodd" clip-rule="evenodd" d="M80.7575 436.216C71.2317 443.731 59.502 437.397 59.502 437.397L80.7575 436.216Z" fill="#BB78A2"/>
<path fill-rule="evenodd" clip-rule="evenodd" d="M82.0373 439.874C81.1 439.934 77.7835 439.854 76.5556 441.062C75.2778 442.315 75.6095 444.368 75.5107 446.988C69.2371 446.69 67.5844 440.493 59.2155 441.793C58.1673 448.155 58.1152 455.515 58.1696 462.98C74.9606 463.334 92.3916 463.051 109.436 463.157C109.092 461.457 108.626 459.903 107.957 458.714C105.913 455.102 102.516 453.331 98.622 452.039C93.381 450.302 87.235 448.703 84.2612 444.329C83.4315 443.105 82.8525 441.633 82.0373 439.874Z" fill="#CECEF4"/>
<path fill-rule="evenodd" clip-rule="evenodd" d="M78.8026 447.518C79.2319 448.491 81.5401 447.337 83.286 447.061C84.312 446.897 86.7666 446.988 86.9496 446.048C87.2891 444.367 83.6054 444.439 82.0503 444.831C80.5451 445.216 78.1681 446.095 78.8026 447.518Z" fill="#2F2FA7"/>
<path fill-rule="evenodd" clip-rule="evenodd" d="M81.2893 451.304C82.1611 452.486 84.6014 451.096 86.3284 450.716C87.2346 450.518 88.2528 450.389 89.1391 450.272C89.9887 450.161 91.5549 450.259 91.5128 449.534C91.4185 447.974 88.8585 447.849 87.0671 448.052C84.7999 448.299 79.9938 449.547 81.2893 451.304Z" fill="#2F2FA7"/>
<path d="M94.0094 450.516C95.5579 451.057 97.1307 451.546 98.6237 452.039C102.519 453.331 105.914 455.101 107.959 458.713C108.628 459.902 109.092 461.456 109.437 463.157C101.783 463.108 94.0505 463.141 86.3271 463.154C86.7553 456.262 90.48 452.52 94.0094 450.516Z" fill="#2F2FA7"/>
<path d="M68.5071 463.12C65.042 463.091 61.5879 463.052 58.1716 462.979C58.1317 458.246 58.1472 453.56 58.4256 449.138C61.7842 450.663 67.4589 454.489 68.5071 463.12Z" fill="#2F2FA7"/>
<path d="M93.861 248.545C93.8443 248.673 93.8144 248.799 93.8133 248.927C93.7212 259.263 93.882 269.6 94.1194 279.931C94.3424 289.595 94.7106 299.253 94.5664 308.922C94.4932 313.776 94.1593 318.619 93.8377 323.463C93.5271 328.129 93.0224 332.777 92.6531 337.438C92.2659 342.32 91.8023 347.196 91.4207 352.079C91.1712 355.275 91.0137 358.477 90.8096 361.677C90.5711 365.41 90.3215 369.142 90.0853 372.874C89.9732 374.652 89.9078 376.432 89.8013 378.21C89.5351 382.655 89.412 387.108 89.1635 391.554C88.8762 396.711 88.5202 401.864 88.1863 407.017C88.0055 409.817 88.6666 432.228 88.4825 435.026C88.3926 436.388 88.2606 436.568 86.8919 436.58C83.5066 436.61 80.1236 436.754 76.7405 436.859C68.9495 437.098 61.1596 437.4 53.3631 437.412C51.3333 437.416 51.2944 437.397 51.2268 435.346C51.0016 428.536 49.6972 402.121 49.4731 395.311C49.2635 388.945 49.1259 382.578 48.9651 376.212C48.7377 367.169 48.7011 358.127 48.7311 349.083C48.7533 342.308 49.1814 335.556 49.7527 328.809C50.2751 322.639 51.0748 316.503 51.8512 310.362C52.4214 305.855 52.8506 301.332 52.7286 296.775C52.6144 292.5 52.316 288.234 51.8568 283.985C51.3299 279.116 50.7343 274.254 50.1098 269.396C49.5652 265.157 48.9041 260.932 48.3584 256.693C47.6818 251.439 47.0096 246.186 46.5426 240.904C45.9048 233.696 45.9647 226.482 46.1544 219.27C46.3164 213.085 46.79 206.91 47.704 200.78C47.7628 200.384 47.8226 199.985 47.9191 199.596C48.141 198.694 48.6146 198.485 49.3223 199.05C49.5963 199.269 49.7771 199.39 50.1242 199.31C52.3482 198.798 54.6276 198.719 56.887 198.551C60.7936 198.262 64.7113 198.118 68.6234 197.912C79.6677 197.334 90.7186 197.651 101.765 197.766C108.667 197.838 115.566 198.166 122.469 198.277C123.315 198.291 124.158 198.43 125.002 198.43C125.784 198.432 126.242 198.733 126.472 199.492C126.771 200.471 127.117 201.437 127.481 202.395C130.753 211.016 134.085 219.615 137.299 228.258C142.999 243.583 148.385 259.018 153.447 274.567C155.668 281.386 158.036 288.157 159.686 295.15C160.957 300.539 161.175 305.99 160.681 311.482C160.048 318.53 158.288 325.338 156.217 332.076C152.667 343.621 148.531 354.964 144.389 366.304C138.504 382.416 129.194 413.417 122.914 429.376C122.027 431.631 122.128 431.844 119.761 431.525C119.761 431.525 96.2679 427.939 91.6803 428.007C89.8623 428.033 89.8002 427.979 90.0642 426.251C91.0569 419.735 94.3446 401.969 95.3894 395.463C97.4259 382.784 100.368 370.299 103.521 357.861C104.858 352.59 106.679 347.46 108.104 342.216C110.245 334.341 112.961 326.655 115.569 318.932C116.581 315.935 117.537 312.925 118.091 309.796C118.83 305.631 118.414 301.668 116.497 297.841C113.803 292.463 110.801 287.246 108.204 281.819C104.994 275.107 101.685 268.441 98.8601 261.553C97.4403 258.09 96.228 254.549 94.9912 251.016C94.6984 250.18 94.3734 249.354 94.0628 248.523C93.9963 248.53 93.9286 248.537 93.861 248.545Z" fill="#2F2FA7"/>
<path d="M60.9191 384.622C60.7494 376.069 60.9878 367.52 61.3273 358.973C61.5092 354.389 61.5679 349.8 61.6833 345.214C61.7022 344.457 61.7121 343.699 61.7532 342.943C61.9894 338.675 62.2257 334.407 62.4775 330.141C62.666 326.941 62.8435 323.739 63.0909 320.543C63.4203 316.282 63.7996 312.025 64.342 307.783C65.032 302.395 65.713 297.007 66.3708 291.614C66.8721 287.503 67.3413 283.387 67.2881 279.234C67.2104 273.252 66.4717 267.329 65.5699 261.43C64.169 252.275 62.3987 243.178 61.2707 233.979C60.7394 229.647 60.2458 225.308 60.106 220.946C59.984 217.164 60.0716 213.38 60.258 209.593C60.4488 205.729 60.9978 201.958 61.8652 198.255C60.2059 198.341 58.5476 198.436 56.8916 198.559C54.6321 198.726 52.3527 198.804 50.1288 199.317C49.7816 199.397 49.5997 199.278 49.3269 199.058C48.6192 198.492 48.1456 198.702 47.9237 199.604C47.8283 199.992 47.7684 200.39 47.7085 200.787C46.7957 206.917 46.322 213.092 46.159 219.278C45.9693 226.489 45.9105 233.703 46.5472 240.912C47.0142 246.193 47.6863 251.446 48.363 256.7C48.9087 260.94 49.5698 265.164 50.1144 269.404C50.7389 274.262 51.3345 279.123 51.8614 283.992C52.3206 288.242 52.6201 292.507 52.7332 296.783C52.8541 301.338 52.4259 305.862 51.8558 310.37C51.0783 316.51 50.2797 322.646 49.7572 328.816C49.186 335.564 48.7578 342.317 48.7356 349.09C48.7057 358.134 48.7423 367.176 48.9697 376.22C49.1294 382.587 49.2681 388.953 49.4777 395.32C49.7018 402.131 51.0073 428.544 51.2313 435.354C51.299 437.405 51.3378 437.424 53.3677 437.421C56.7318 437.415 60.3523 437.26 63.7142 437.176C63.2861 431.553 61.7621 406.406 61.4581 400.777C61.1675 395.398 61.0255 390.009 60.9191 384.622Z" fill="#1E1E77"/>
<path d="M121.628 354.912C124.467 346.695 127.078 338.419 128.749 329.872C129.536 325.843 130.165 321.785 130.104 317.678C130.013 311.557 128.623 305.679 126.414 299.981C123.843 293.352 120.452 287.127 116.83 281.042C111.991 272.911 107.694 264.524 103.999 255.814C101.84 250.723 99.8975 245.559 98.1827 240.306C97.8643 239.331 97.5427 238.355 97.0147 237.47C96.6586 236.873 96.195 236.373 95.413 236.498C94.6477 236.62 94.3149 237.191 94.1463 237.883C94.0942 238.1 94.0409 238.319 94.0265 238.539C93.9467 239.782 93.7592 241.019 93.8047 242.271C93.8801 244.36 93.9422 246.449 94.0132 248.539C94.0332 248.537 94.0531 248.534 94.0731 248.532C94.3837 249.363 94.7087 250.188 95.0015 251.026C96.2383 254.557 97.4506 258.1 98.8704 261.562C101.694 268.45 105.003 275.116 108.214 281.827C110.811 287.254 113.813 292.471 116.508 297.849C118.424 301.675 118.84 305.639 118.102 309.804C117.547 312.933 116.591 315.943 115.579 318.94C112.972 326.663 110.255 334.349 108.114 342.225C106.689 347.468 104.868 352.598 103.531 357.87C100.377 370.308 97.4362 382.794 95.3997 395.472C94.3537 401.98 91.0661 419.745 90.0745 426.26C89.8116 427.988 89.877 427.891 91.6906 428.016C93.6405 428.15 97.5649 428.574 97.5649 428.574C100.925 419.461 106.675 398.48 109.581 389.203C113.2 377.637 117.67 366.363 121.628 354.912Z" fill="#1E1E77"/>
<path fill-rule="evenodd" clip-rule="evenodd" d="M130.972 220.51C122.436 222.116 115.369 215.828 115.184 207.725C117.453 212.956 125.27 218.345 130.972 220.51Z" fill="#1E1E77"/>
<path fill-rule="evenodd" clip-rule="evenodd" d="M62.834 220.51C71.3704 222.116 78.4371 215.828 78.6223 207.725C76.3518 212.956 68.5364 218.345 62.834 220.51Z" fill="#1E1E77"/>
<path fill-rule="evenodd" clip-rule="evenodd" d="M94.9714 232.142C94.2859 222.131 94.2416 202.105 94.307 202.24C95.9497 210.22 98.523 218.896 98.4631 226.732C98.4498 228.691 98.6129 232.897 94.9714 232.142Z" fill="#1E1E77"/>
<path fill-rule="evenodd" clip-rule="evenodd" d="M47.4249 198.044C47.3505 199.229 48.3322 200.25 49.6133 200.327L126.58 204.968C127.863 205.046 128.96 204.15 129.034 202.964L129.316 198.435C129.39 197.248 128.413 196.227 127.13 196.149L50.1612 191.509C48.8801 191.431 47.7798 192.328 47.7066 193.515L47.4249 198.044Z" fill="#B04470"/>
<path fill-rule="evenodd" clip-rule="evenodd" d="M104.121 203.407C104.084 204.162 104.681 204.807 105.452 204.839C106.22 204.873 106.874 204.284 106.909 203.526L107.281 195.261C107.314 194.502 106.721 193.865 105.951 193.83C105.18 193.795 104.529 194.383 104.493 195.143L104.121 203.407Z" fill="white"/>
<path fill-rule="evenodd" clip-rule="evenodd" d="M86.8815 202.588C86.8449 203.342 87.4438 203.987 88.2147 204.023C88.9823 204.058 89.6356 203.467 89.6689 202.712L90.0394 194.445C90.076 193.69 89.4814 193.046 88.7094 193.015C87.9408 192.982 87.2885 193.567 87.2531 194.323L86.8815 202.588Z" fill="white"/>
<path fill-rule="evenodd" clip-rule="evenodd" d="M92.1006 194.243C92.0995 194.255 92.0951 194.266 92.0951 194.28C92.0951 194.28 92.0962 194.284 92.0984 194.284C92.0984 194.284 92.094 194.304 92.0929 194.312L91.7435 201.94C91.7457 201.989 91.749 202.034 91.7557 202.078C91.7279 202.164 91.7102 202.258 91.7047 202.354C91.6614 203.049 92.1827 203.654 92.8738 203.695L100.434 204.168C101.127 204.211 101.73 203.684 101.774 202.984C101.774 202.97 101.771 202.965 101.768 202.949C101.803 202.855 101.826 202.752 101.828 202.647L102.173 195.009C102.17 194.99 102.169 194.97 102.17 194.95C102.171 194.935 102.175 194.924 102.175 194.911C102.216 194.212 101.696 193.61 101.001 193.568L93.4339 193.095C92.8183 193.054 92.2803 193.465 92.135 194.042C92.1151 194.105 92.1073 194.17 92.1006 194.243ZM94.3567 201.246L94.43 199.591L99.3703 199.905L99.296 201.557L94.3567 201.246ZM99.5456 196.019L99.4868 197.37L94.5453 197.063L94.6085 195.71L99.5456 196.019Z" fill="white"/>
<path fill-rule="evenodd" clip-rule="evenodd" d="M72.2926 224.703C70.346 226.82 67.7028 234.937 64.922 234.145C61.9028 233.285 65.8615 225.894 66.1089 223.674C64.2521 226.255 61.7653 232.119 60.0205 231.889C58.0528 231.629 58.4698 228.202 58.9745 226.003C59.5136 223.653 60.676 221.541 60.9467 220.217C59.4493 222.1 57.3041 226.463 55.0912 225.53C52.9327 224.622 55.5582 219.829 56.1228 217.781C56.8704 215.078 58.0184 211.781 57.9707 209.914C57.9385 208.497 56.5986 206.573 55.3452 204.736C52.0531 199.915 49.9567 193.876 50.9794 188.162L68.4071 193.964C69.5485 196.882 71.5894 199.023 74.49 201.758C76.3645 203.53 79.4991 205.834 80.3676 208.283C81.6631 211.944 80.4142 220.005 78.0738 225.508C77.1077 227.781 74.1561 233.981 72.3137 233.573C69.1847 232.875 71.9932 226.797 72.2926 224.703Z" fill="#E2B1CE"/>
<path fill-rule="evenodd" clip-rule="evenodd" d="M66.1367 233.968C62.1248 235.756 64.1457 228.96 65.0043 226.235C66.3497 221.951 68.3263 217.443 68.9408 214.688C69.9235 218.866 65.0275 226.923 65.0486 231.476C65.0531 232.393 65.2693 233.382 66.1367 233.968Z" fill="#BB78A2"/>
<path fill-rule="evenodd" clip-rule="evenodd" d="M73.4144 233.205C72.4627 233.903 71.989 233.521 71.5731 233.276C69.977 232.341 71.3557 227.646 72.0279 225.513C73.3767 221.232 75.605 216.671 76.224 213.916C77.2034 218.095 72.3085 226.15 72.3285 230.706C72.3329 231.622 72.5459 232.617 73.4144 233.205Z" fill="#BB78A2"/>
<path fill-rule="evenodd" clip-rule="evenodd" d="M55.4359 225.636C53.213 225.394 54.4531 220.881 55.0587 218.475C55.4026 217.104 55.8928 215.682 56.3643 214.247C56.8312 212.82 57.6454 211.236 57.6709 210.018C57.7141 208.015 54.523 204.475 53.5402 202.4C51.425 197.934 50.1971 193.146 50.9758 188.162C56.8013 189.918 62.2962 191.61 68.4024 193.963C67.5882 194.624 62.9362 194.508 59.6852 193.229C57.0952 192.212 55.0565 191.214 53.5458 189.906C53.5059 194.912 54.6339 200.071 56.5107 204.992C57.4513 207.464 58.7302 208.803 58.038 211.53C56.951 215.845 53.6844 223.801 55.4359 225.636Z" fill="#BB78A2"/>
<path fill-rule="evenodd" clip-rule="evenodd" d="M61.684 230.79C59.0153 234.027 58.2765 230.136 58.3298 228.693C58.5239 223.464 62.7954 218.6 63.502 211.3C64.0111 212.417 63.8469 213.293 63.644 214.536C63.1038 217.853 60.8532 223.139 59.9736 226.648C59.571 228.255 59.3946 230.117 61.684 230.79Z" fill="#BB78A2"/>
<path fill-rule="evenodd" clip-rule="evenodd" d="M67.1683 150.014C70.0567 164.891 73.1003 179.742 74.5589 194.889C65.6754 197.887 56.4679 199.217 47.1828 200.159C43.5746 187.901 40.0063 176.428 37.5417 163.771C36.4369 158.093 35.3621 152.059 35.005 145.213C34.6778 138.956 34.7288 131.766 38.4435 125.534C43.7676 116.602 54.6045 112.355 61.6556 109.941C74.5556 105.522 86.343 103.558 99.4792 101.651C107.817 100.44 116.132 99.6512 125.217 99.7267C129.487 99.761 133.251 100.234 136.899 102.295C143.978 106.296 144.893 114.1 139.66 120.675C135.119 126.382 128.08 129.96 122.34 132.651C105.114 140.722 84.006 146.323 67.1683 150.014Z" fill="#BCBCEA"/>
<path d="M67.1678 150.017L65.1436 135.598L71.0478 149.148L67.1678 150.017Z" fill="#A4A4E4"/>
<path d="M130.779 290.892H18.6953V306.131H130.779V290.892Z" fill="#A4A4E4"/>
<path d="M228.385 300.553V460.196H221.974L217.086 298.657L228.385 300.553Z" fill="white"/>
<path d="M228.385 298.657V322.842H217.849L217.086 298.657H228.385Z" fill="#A4A4E4"/>
<path d="M310.489 300.553V462.507H304.079L299.19 298.657L310.489 300.553Z" fill="white"/>
<path d="M310.489 298.657V322.842H299.955L299.19 298.657H310.489Z" fill="#6879B3"/>
<path d="M111.65 300.603L122.942 298.712L118.049 462.431H111.65V300.603Z" fill="white"/>
<path d="M122.168 322.879L122.938 298.712L111.646 300.607V322.879H122.168Z" fill="#A4A4E4"/>
<path d="M18.7012 300.603L29.9884 298.712L25.1012 462.431H18.7012V300.603Z" fill="white"/>
<path d="M29.2192 322.879L29.9868 298.712L18.6963 300.607V322.879H29.2192Z" fill="#A4A4E4"/>
<path d="M310.493 290.892H130.78V306.131H310.493V290.892Z" fill="#A4A4E4"/>
<path d="M10.2324 288.849C10.2324 289.976 11.1497 290.889 12.28 290.889H314.233C315.365 290.889 316.282 289.976 316.282 288.849C316.282 287.72 315.365 286.81 314.233 286.81H12.2789C11.1497 286.808 10.2324 287.72 10.2324 288.849Z" fill="white"/>
<path fill-rule="evenodd" clip-rule="evenodd" d="M202.104 256.504C201.949 261.075 200.941 268.515 200.381 274.264C199.951 278.717 199.317 281.158 202.249 282.655C202.804 282.939 203.779 282.893 204.161 283.677C194.036 283.574 183.501 283.627 172.997 283.671C170.052 283.685 164.299 284.157 163.583 282.259C163.047 280.829 164.385 277.252 164.724 275.666C166.181 268.818 167.402 262.171 168.996 255.808C179.927 255.915 191.038 256.235 202.104 256.504Z" fill="#A4A4E4"/>
<path fill-rule="evenodd" clip-rule="evenodd" d="M178.694 282.945L164.885 282.95C164.248 282.932 163.844 282.584 163.949 281.903C164.153 280.528 167.619 262.448 168.999 255.806C168.999 255.701 168.993 255.607 168.848 255.622C167.921 255.951 166.076 255.623 165.331 255.617C164.237 261.22 160.004 279.817 159.928 281.778C159.849 283.74 160.287 285.319 161.854 286.275C162.461 286.646 163.163 286.773 163.906 286.806C163.965 286.81 164.021 286.822 164.079 286.822L178.698 286.815C179.942 286.814 180.956 285.949 180.953 284.881C180.951 283.81 179.941 282.945 178.694 282.945Z" fill="#8D8DD4"/>
<path fill-rule="evenodd" clip-rule="evenodd" d="M207.045 285.376C207.045 286.166 206.45 286.8 205.716 286.802L179.301 286.813C178.567 286.813 177.974 286.177 177.974 285.388V284.376C177.974 283.591 178.566 282.952 179.301 282.952L205.716 282.939C206.447 282.939 207.042 283.575 207.042 284.365L207.045 285.376Z" fill="#C7C7F2"/>
<path d="M121.524 240.901L121.494 175.047C121.491 165.698 129.064 158.118 138.415 158.114L130.219 158.119C120.871 158.123 113.293 165.704 113.299 175.051L113.327 240.903C113.333 250.252 120.915 257.827 130.265 257.823L138.459 257.82C129.109 257.821 121.526 250.247 121.524 240.901Z" fill="#A4A4E4"/>
<path d="M238.925 158.071L230.729 158.076L138.415 158.116C129.065 158.12 121.492 165.699 121.492 175.048L121.527 240.901C121.529 250.249 129.11 257.823 138.46 257.82L230.77 257.778L238.967 257.774C248.319 257.771 255.894 250.188 255.889 240.842L255.859 174.989C255.859 165.642 248.277 158.066 238.925 158.071Z" fill="#8D8DD4"/>
<path d="M236.294 160.437L228.553 160.442L141.39 160.48C132.561 160.485 125.41 167.64 125.412 176.47L125.44 238.652C125.445 247.478 132.603 254.629 141.432 254.628L228.597 254.587L236.336 254.584C245.163 254.58 252.318 247.422 252.313 238.596L252.285 176.415C252.282 167.587 245.124 160.434 236.294 160.437Z" fill="white"/>
<path d="M244.747 245.838C244.747 247.464 243.429 248.783 241.802 248.783H137.454C135.828 248.783 134.509 247.464 134.509 245.838V171.109C134.509 169.483 135.828 168.164 137.454 168.164H241.802C243.429 168.164 244.747 169.483 244.747 171.109V245.838Z" fill="#CECEF4"/>
<path d="M235.494 179.766C233.616 179.766 232.086 178.237 232.086 176.358C232.086 174.479 233.616 172.949 235.494 172.949C237.373 172.949 238.903 174.478 238.903 176.358C238.903 178.237 237.373 179.766 235.494 179.766ZM235.494 174.838C234.657 174.838 233.975 175.519 233.975 176.357C233.975 177.194 234.656 177.876 235.494 177.876C236.332 177.876 237.014 177.194 237.014 176.357C237.013 175.519 236.332 174.838 235.494 174.838Z" fill="#A4A4E4"/>
<path d="M239.851 181.295C239.636 181.295 239.419 181.221 239.242 181.072L236.605 178.843C236.207 178.506 236.157 177.911 236.493 177.512C236.829 177.114 237.426 177.064 237.824 177.4L240.461 179.629C240.859 179.966 240.909 180.561 240.573 180.96C240.386 181.18 240.119 181.295 239.851 181.295Z" fill="#A4A4E4"/>
<path d="M156.205 179.766H151.277C150.756 179.766 150.332 179.343 150.332 178.821V173.894C150.332 173.373 150.755 172.949 151.277 172.949H156.205C156.727 172.949 157.15 173.372 157.15 173.894V178.821C157.15 179.342 156.728 179.766 156.205 179.766ZM152.222 177.876H155.261V174.838H152.222V177.876Z" fill="#A4A4E4"/>
<path d="M144.838 179.765C144.596 179.765 144.354 179.673 144.17 179.489L139.242 174.562C138.873 174.193 138.873 173.595 139.242 173.227C139.611 172.859 140.209 172.857 140.577 173.227L145.506 178.155C145.875 178.524 145.875 179.122 145.506 179.49C145.321 179.672 145.08 179.765 144.838 179.765Z" fill="#A4A4E4"/>
<path d="M139.91 179.767C139.668 179.767 139.426 179.675 139.242 179.491C138.873 179.121 138.873 178.523 139.242 178.155L144.17 173.227C144.539 172.858 145.137 172.858 145.506 173.227C145.875 173.597 145.875 174.194 145.506 174.563L140.577 179.489C140.393 179.674 140.151 179.767 139.91 179.767Z" fill="#A4A4E4"/>
<path d="M238.538 242.066H218.342C217.82 242.066 217.396 241.644 217.396 241.121V192.344C217.396 191.823 217.819 191.399 218.342 191.399H238.538C239.059 191.399 239.483 191.822 239.483 192.344V241.121C239.482 241.643 239.059 242.066 238.538 242.066ZM219.285 240.176H237.593V193.289H219.285V240.176Z" fill="#A4A4E4"/>
<path d="M238.538 242.068C238.167 242.068 237.815 241.848 237.665 241.483L217.469 192.706C217.269 192.224 217.498 191.672 217.98 191.472C218.463 191.271 219.015 191.502 219.215 191.983L239.411 240.76C239.61 241.243 239.382 241.795 238.899 241.994C238.781 242.045 238.659 242.068 238.538 242.068Z" fill="#A4A4E4"/>
<path d="M218.341 242.066C218.221 242.066 218.098 242.043 217.98 241.994C217.498 241.794 217.269 241.242 217.469 240.76L237.665 191.983C237.864 191.501 238.417 191.271 238.898 191.472C239.381 191.672 239.609 192.224 239.41 192.707L219.213 241.484C219.064 241.846 218.711 242.066 218.341 242.066Z" fill="#A4A4E4"/>
<path d="M160.646 242.066H140.45C139.929 242.066 139.505 241.644 139.505 241.121V192.344C139.505 191.823 139.927 191.399 140.45 191.399H160.646C161.167 191.399 161.591 191.822 161.591 192.344V241.121C161.591 241.643 161.167 242.066 160.646 242.066ZM141.395 240.176H159.701V193.289H141.395V240.176Z" fill="#A4A4E4"/>
<path d="M160.646 242.068C160.276 242.068 159.923 241.848 159.773 241.483L139.577 192.706C139.377 192.224 139.607 191.672 140.088 191.472C140.571 191.271 141.123 191.502 141.323 191.983L161.519 240.76C161.719 241.243 161.489 241.795 161.008 241.994C160.889 242.045 160.767 242.068 160.646 242.068Z" fill="#A4A4E4"/>
<path d="M140.449 242.066C140.328 242.066 140.206 242.043 140.088 241.994C139.606 241.794 139.377 241.242 139.577 240.76L159.773 191.983C159.973 191.501 160.525 191.271 161.007 191.472C161.489 191.672 161.718 192.224 161.518 192.707L141.322 241.484C141.171 241.846 140.819 242.066 140.449 242.066Z" fill="#A4A4E4"/>
<path d="M206.935 195.286H171.789C171.267 195.286 170.844 194.864 170.844 194.341C170.844 193.819 171.266 193.396 171.789 193.396H206.935C207.456 193.396 207.88 193.819 207.88 194.341C207.88 194.864 207.456 195.286 206.935 195.286Z" fill="#A4A4E4"/>
<path d="M206.935 210.841H171.789C171.267 210.841 170.844 210.419 170.844 209.896C170.844 209.375 171.266 208.951 171.789 208.951H206.935C207.456 208.951 207.88 209.374 207.88 209.896C207.88 210.419 207.456 210.841 206.935 210.841Z" fill="#A4A4E4"/>
<path d="M206.935 226.517H171.789C171.267 226.517 170.844 226.094 170.844 225.572C170.844 225.051 171.266 224.627 171.789 224.627H206.935C207.456 224.627 207.88 225.05 207.88 225.572C207.88 226.093 207.456 226.517 206.935 226.517Z" fill="#A4A4E4"/>
<path d="M206.935 242.073H171.789C171.267 242.073 170.844 241.65 170.844 241.128C170.844 240.606 171.266 240.183 171.789 240.183H206.935C207.456 240.183 207.88 240.605 207.88 241.128C207.88 241.649 207.456 242.073 206.935 242.073Z" fill="#A4A4E4"/>
<path d="M228.42 178.813C228.42 181.723 226.059 184.082 223.151 184.082H165.3C162.388 184.082 160.032 181.722 160.032 178.813C160.032 175.904 162.389 173.545 165.3 173.545H223.151C226.059 173.545 228.42 175.904 228.42 178.813Z" fill="white"/>
<path d="M304.119 447.354C304.119 442.713 307.897 438.937 312.534 438.937H411.298C415.938 438.937 419.715 442.712 419.715 447.354V454.388H424.421V447.354C424.421 440.12 418.535 434.232 411.298 434.232H312.534C305.299 434.232 299.416 440.12 299.416 447.354V454.388H304.119V447.354Z" fill="#171458"/>
<path d="M307.438 463.099C311.868 463.099 315.46 459.506 315.46 455.076H299.417C299.417 459.507 303.007 463.099 307.438 463.099Z" fill="#171458"/>
<path d="M307.438 447.061C303.009 447.061 299.417 450.651 299.417 455.082H315.46C315.46 450.651 311.868 447.061 307.438 447.061Z" fill="white"/>
<path d="M335.204 434.825H330.5V454.393H335.204V434.825Z" fill="#171458"/>
<path d="M338.522 463.102C342.953 463.102 346.543 459.509 346.543 455.079H330.501C330.501 459.51 334.09 463.102 338.522 463.102Z" fill="#171458"/>
<path d="M338.522 447.063C334.091 447.063 330.501 450.654 330.501 455.085H346.543C346.543 450.654 342.953 447.063 338.522 447.063Z" fill="#2F2FA7"/>
<path d="M393.231 434.824H388.527V454.392H393.231V434.824Z" fill="#171458"/>
<path d="M396.546 463.101C400.978 463.101 404.569 459.508 404.569 455.078H388.526C388.526 459.509 392.118 463.101 396.546 463.101Z" fill="#171458"/>
<path d="M396.547 447.062C392.119 447.062 388.526 450.653 388.526 455.084H404.57C404.57 450.653 400.979 447.062 396.547 447.062Z" fill="#2F2FA7"/>
<path d="M427.707 463.099C432.137 463.099 435.731 459.506 435.731 455.076H419.687C419.688 459.507 423.276 463.099 427.707 463.099Z" fill="#171458"/>
<path d="M427.707 447.061C423.276 447.061 419.687 450.651 419.687 455.082H435.731C435.731 450.651 432.138 447.061 427.707 447.061Z" fill="#2F2FA7"/>
<path fill-rule="evenodd" clip-rule="evenodd" d="M395.257 358.304C395.246 366.522 387.156 366.962 377.565 366.962C367.661 366.962 357.069 366.962 347.075 366.962C339.338 366.962 332.746 366.76 330.512 361.692C330.303 361.22 330.014 360.432 329.945 359.812C329.851 358.935 329.618 358.5 330.512 358.305C330.802 358.243 331.095 358.113 331.264 358.117C351.599 358.578 374.72 358.503 395.257 358.304Z" fill="#171458"/>
<path d="M370.51 440.638C370.51 443.149 368.472 445.186 365.961 445.186H358.915C356.404 445.186 354.37 443.149 354.37 440.638V400.896C354.37 398.385 356.404 396.352 358.915 396.352H365.961C368.472 396.352 370.51 398.386 370.51 400.896V440.638Z" fill="#171458"/>
<path d="M366.196 372.538H358.747V399.201H366.196V372.538Z" fill="#171458"/>
<path d="M370.773 366.966H354.37V373.97H370.773V366.966Z" fill="#171458"/>
<path d="M400.573 376.327H375.539L375.31 376.28C373.319 375.88 368.869 373.701 367.997 373.268L370.085 369.055C371.915 369.963 374.86 371.3 376.041 371.619H400.573V376.327Z" fill="#171458"/>
<path fill-rule="evenodd" clip-rule="evenodd" d="M345.71 217.181C348.287 216.842 352.973 217.181 356.44 217.181C377.116 217.181 398.62 217.181 419.676 217.181C423.128 217.181 426.275 216.687 428.714 217.557C430.898 218.337 432.907 220.14 433.608 222.073C434.429 224.348 433.835 227.78 433.608 230.543C430.967 262.385 428.285 291.537 425.703 323.328C424.793 334.495 420.742 342.847 414.786 348.923C411.672 352.104 408.092 354.724 403.682 356.264C399.179 357.837 393.484 357.853 387.304 358.146C376.807 358.648 363.711 359.275 351.922 359.275C334.85 359.275 313.939 359.388 298.281 359.089C295.311 359.031 292.058 359.085 289.06 359.089C285.928 359.089 283.051 359.534 280.587 358.899C277.806 358.18 275.711 356.247 274.944 353.628C273.786 349.707 275.639 345.466 279.27 343.842C281.53 342.829 285.195 343.024 288.68 342.9C295.142 342.673 301.964 342.456 308.632 342.148C312.853 341.95 317.413 341.924 320.114 340.642C323.775 338.905 326.536 335.399 328.205 331.419C329.879 327.429 330.119 322.607 330.653 316.741C333.35 287.16 335.457 259.242 338.181 229.603C338.425 226.929 338.556 224.305 339.312 222.262C340.14 220.019 341.741 217.703 345.71 217.181Z" fill="#A4A4E4"/>
<path fill-rule="evenodd" clip-rule="evenodd" d="M424.939 217.169C428.319 216.723 432.418 218.793 433.601 222.061C434.794 225.372 433.542 230.577 433.221 234.297C430.765 263.005 428.222 291.51 425.882 319.742C425.521 324.104 425.262 328.001 424.377 331.596C421.941 341.494 415.698 350.274 407.623 354.56C404.797 356.059 401.336 357.045 397.273 357.57C389.515 358.574 380.675 358.531 372.24 358.888C368.164 359.06 363.35 359.8 359.818 358.888C356.386 358.001 353.67 355.075 353.795 350.983C353.899 347.51 355.859 345.015 358.501 343.832C360.815 342.796 364.813 342.997 367.911 342.891C374.695 342.653 381.043 342.457 387.863 342.139C391.702 341.96 395.693 341.916 398.213 341.01C401.841 339.704 404.8 336.508 406.306 333.858C410.053 327.274 410.087 316.03 410.823 307.133C413.072 280.029 415.322 255.408 417.598 228.088C418.098 222.146 419.219 217.922 424.939 217.169Z" fill="white"/>
<path fill-rule="evenodd" clip-rule="evenodd" d="M294.119 202.002C293.49 196.799 290.025 193.624 285.811 194.078C281.866 194.502 279.199 196.719 276.761 198.67C274.399 200.561 271.95 203.141 270.256 205.03C261.87 214.373 255.183 223.365 248.455 233.141C245.52 237.404 242.808 241.988 240.087 246.253C239.724 246.821 239.362 247.525 238.711 247.817C232.469 237.951 225.219 228.595 218.348 219.256C216.6 216.88 213.086 212.442 210.434 209.825C203.657 212.401 199.335 217.167 192.598 219.848C196.096 223.304 197.612 227.565 199.161 230.638C205.99 244.19 211.533 256.36 219.184 268.975C221.849 273.369 224.684 278.144 227.84 282.253C229.025 283.795 230.091 285.434 231.16 286.048C235.636 288.611 243.067 283.59 246.308 281.189C250.174 278.329 253.48 275.146 256.446 272.089C265.775 262.475 273.589 251.528 280.203 240.326C282.392 236.619 284.367 232.65 286.337 228.502C288.164 224.655 289.987 220.644 291.434 216.092C292.062 214.116 292.799 211.778 293.319 209.451C293.856 207.043 294.403 204.349 294.119 202.002Z" fill="#935E45"/>
<path d="M294.119 202.004C293.554 197.329 290.696 194.3 287.065 194.062C286.835 195.813 286.529 197.528 286.255 199.037C285.396 203.791 284.089 208.051 282.756 212.145C281.32 216.562 279.854 220.798 278.141 224.799C272.966 236.892 266.553 248.886 258.448 259.74C255.872 263.19 252.969 266.812 249.465 270.182C246.527 273.011 239.726 279.012 234.906 277.025C233.754 276.549 232.471 275.045 231.083 273.651C227.385 269.941 223.921 265.523 220.677 261.461C212.997 251.848 206.485 241.58 199.491 231.299C206.002 244.222 211.853 256.894 219.184 268.978C221.849 273.372 224.684 278.146 227.84 282.256C229.025 283.797 230.091 285.437 231.16 286.05C235.636 288.613 243.067 283.591 246.308 281.191C250.174 278.331 253.479 275.148 256.446 272.091C265.775 262.477 273.589 251.53 280.203 240.327C282.391 236.62 284.367 232.651 286.337 228.503C288.164 224.656 289.987 220.645 291.435 216.093C292.063 214.117 292.8 211.779 293.32 209.451C293.856 207.045 294.403 204.351 294.119 202.004Z" fill="#5D382E"/>
<path fill-rule="evenodd" clip-rule="evenodd" d="M177.484 207.384C176.051 207.725 171.049 207.953 168.816 208.877C167.95 209.234 167.032 209.913 167.174 210.735C167.472 212.468 171.401 211.927 172.796 211.93C175.211 211.933 176.893 212.084 178.952 212.024C177.361 212.637 172.512 212.83 169.709 213.822C168.543 214.236 167.274 214.932 167.502 215.981C167.789 217.316 171.067 217.24 172.17 217.25C177.475 217.298 183.397 217.394 187.597 218.283C192.42 219.307 194.357 220.268 198.072 225.166C198.778 226.098 211.588 211.072 211.222 210.674C203.479 202.235 195.376 197.838 193.476 196.335C191.677 194.908 185.803 190.19 183.693 192.278C181.957 193.996 188.192 197.883 189.251 199.475C186.092 198.53 180.758 197.817 175.266 198.407C173.825 198.563 170.781 198.74 170.663 200.029C170.499 201.794 172.928 201.743 174.039 201.94C175.584 202.211 176.701 202.565 178.066 202.558C176.127 203.123 171.625 203.216 169.434 204.206C168.72 204.529 167.977 205.189 168.062 205.836C168.26 207.327 170.638 206.988 172.237 207.065C174.42 207.167 175.826 207.383 177.332 207.422C177.379 207.409 177.433 207.397 177.484 207.384Z" fill="#935E45"/>
<path fill-rule="evenodd" clip-rule="evenodd" d="M180.638 214.123C180.171 213.904 179.377 213.091 178.978 212.485C176.65 208.931 177.185 202.857 179.032 200.4C178.234 203.1 177.505 207.947 180.638 214.123Z" fill="#5D382E"/>
<path fill-rule="evenodd" clip-rule="evenodd" d="M189.228 199.162C189.327 203.765 190.827 207.063 192.89 209.832C189.434 208.981 187.419 201.994 189.228 199.162Z" fill="#5D382E"/>
<path fill-rule="evenodd" clip-rule="evenodd" d="M240.334 245.3L258.849 270.642C262.979 267.24 308.916 210.901 287.722 197.46C268.681 185.385 240.334 245.3 240.334 245.3Z" fill="#E488BD"/>
<path fill-rule="evenodd" clip-rule="evenodd" d="M251.68 277.075L238.752 247.879L240.655 244.692L258.846 270.646C258.846 270.646 255.126 275.238 251.68 277.075Z" fill="#DB62A1"/>
<path d="M293.28 208.912C290.795 213.211 288.273 217.525 285.973 221.376C281.617 228.665 275.843 236.614 271.287 242.761C268.583 246.412 265.92 250.004 263.48 253.084C258.87 258.9 254.349 264.618 248.289 269.411L251.682 277.075C253.02 276.21 254.303 275.254 255.496 274.204C257.107 272.704 258.371 271.221 258.734 270.785C258.768 270.742 258.804 270.702 258.836 270.658L258.849 270.646C258.849 270.646 258.854 270.641 258.862 270.632C259.605 269.865 260.333 269.101 261.055 268.336C269.001 259.315 293.177 227.689 293.28 208.912Z" fill="#B04470"/>
<path fill-rule="evenodd" clip-rule="evenodd" d="M243.223 418.846L223.999 414.938L215.619 448.365L237.846 452.517L243.223 418.846Z" fill="#935E45"/>
<path fill-rule="evenodd" clip-rule="evenodd" d="M222.312 421.653C230.57 430.031 242.548 424.426 242.548 424.426L222.312 421.653Z" fill="#5D382E"/>
<path fill-rule="evenodd" clip-rule="evenodd" d="M217.617 436.064C218.527 436.295 221.801 436.829 222.786 438.242C223.811 439.709 223.106 441.666 222.721 444.259C228.943 445.122 231.708 439.335 239.694 442.154C239.553 448.6 238.249 455.844 236.819 463.17C220.25 460.426 203.169 456.936 186.398 453.902C187.051 452.294 187.794 450.853 188.67 449.807C191.345 446.632 195.009 445.519 199.075 444.965C204.547 444.223 210.883 443.783 214.611 440.033C215.651 438.985 216.491 437.645 217.617 436.064Z" fill="#E488BD"/>
<path fill-rule="evenodd" clip-rule="evenodd" d="M219.385 444.148C218.784 445.025 216.729 443.465 215.063 442.872C214.084 442.522 211.655 442.159 211.649 441.201C211.624 439.486 215.231 440.236 216.688 440.907C218.096 441.564 220.271 442.866 219.385 444.148Z" fill="#B04470"/>
<path fill-rule="evenodd" clip-rule="evenodd" d="M216.242 447.403C215.167 448.404 213.025 446.589 211.397 445.898C210.543 445.535 209.565 445.222 208.716 444.943C207.902 444.676 206.343 444.486 206.519 443.78C206.899 442.264 209.437 442.613 211.161 443.142C213.345 443.803 217.839 445.915 216.242 447.403Z" fill="#B04470"/>
<path d="M203.89 444.322C202.269 444.57 200.633 444.76 199.075 444.969C195.009 445.522 191.345 446.636 188.67 449.81C187.794 450.856 187.051 452.297 186.398 453.905C193.931 455.267 201.526 456.725 209.114 458.159C209.961 451.307 206.991 446.942 203.89 444.322Z" fill="#B04470"/>
<path d="M226.633 461.409C230.044 462.019 233.447 462.617 236.817 463.174C237.728 458.53 238.577 453.92 239.118 449.522C235.535 450.404 229.254 453.121 226.633 461.409Z" fill="#B04470"/>
<path fill-rule="evenodd" clip-rule="evenodd" d="M215.831 420.764L246.231 424.891C251.188 410.083 253.717 404.161 257.465 387.896C261.184 371.725 264.571 353.912 262.497 334.086C285.451 336.707 315.337 338.189 338.351 334.783C350.347 333.005 360.077 330.09 365.603 321.765C368.185 317.873 369.831 312.643 370.81 306.838C371.684 301.653 371.227 295.806 370.81 290.695C370.79 290.411 370.425 290.027 370.465 289.825C370.54 289.453 371.419 289.764 370.983 289.132C361.649 288.878 352.255 288.181 342.865 287.745C333.47 287.307 324.22 285.909 315.264 285.488C313.772 285.418 311.304 285.208 309.537 285.311C307.827 285.414 306.647 285.752 305.199 285.833C300.171 286.121 295.456 286.171 290.789 286.527C286.086 286.888 281.559 287.368 277.08 287.917C259.214 290.112 241.487 292.384 233.857 305.101C230.181 311.226 228.81 319.738 227.433 328.879L215.831 420.764Z" fill="#1E1E77"/>
<path d="M259.892 302.844C260.904 301.475 262.79 299.87 264.057 299.026C264.339 298.838 264.64 298.662 264.943 298.489C243.945 298.489 255.422 338.948 254.513 357.35C253.561 376.596 250.185 392.995 245.657 408.55C244.518 412.478 242.156 423.702 242.192 424.342L246.23 424.894C246.448 424.623 253.785 403.854 257.464 387.899C260.519 374.626 263.341 360.243 263.109 344.552C263.058 341.127 262.868 337.641 262.497 334.089C262.719 334.115 262.952 334.138 263.169 334.164C263.064 333.961 262.962 333.757 262.845 333.569C261.985 332.179 260.234 330.458 258.627 330.094C256.262 320.897 254.722 309.826 259.892 302.844Z" fill="#171458"/>
<path fill-rule="evenodd" clip-rule="evenodd" d="M317.802 410.104L298.453 413.341L302.605 447.552L324.844 443.467L317.802 410.104Z" fill="#935E45"/>
<path fill-rule="evenodd" clip-rule="evenodd" d="M299.516 423.156C310.238 428.832 320.045 420.563 320.045 420.563L299.516 423.156Z" fill="#5D382E"/>
<path fill-rule="evenodd" clip-rule="evenodd" d="M300.066 435.349C300.999 435.239 304.245 434.563 305.672 435.53C307.155 436.533 307.198 438.613 307.767 441.172C313.884 439.749 314.393 433.355 322.86 433.127C325.037 439.196 326.415 446.427 327.705 453.778C311.252 457.151 294.055 460.013 277.31 463.186C277.342 461.451 277.52 459.84 277.963 458.549C279.324 454.627 282.344 452.274 285.944 450.301C290.786 447.648 296.544 444.968 298.682 440.13C299.276 438.777 299.581 437.226 300.066 435.349Z" fill="#E488BD"/>
<path fill-rule="evenodd" clip-rule="evenodd" d="M304.622 442.285C304.375 443.32 301.897 442.599 300.13 442.643C299.091 442.667 296.693 443.198 296.345 442.306C295.708 440.713 299.344 440.122 300.944 440.228C302.493 440.334 304.991 440.77 304.622 442.285Z" fill="#B04470"/>
<path fill-rule="evenodd" clip-rule="evenodd" d="M302.856 446.455C302.212 447.776 299.561 446.847 297.794 446.785C296.866 446.753 295.843 446.81 294.949 446.854C294.092 446.898 292.569 447.277 292.481 446.556C292.293 445.005 294.788 444.421 296.587 444.298C298.862 444.133 303.814 444.495 302.856 446.455Z" fill="#B04470"/>
<path d="M290.208 447.972C288.783 448.784 287.325 449.548 285.944 450.301C282.345 452.274 279.324 454.627 277.963 458.549C277.519 459.838 277.342 461.45 277.31 463.186C284.83 461.759 292.442 460.4 300.041 459.021C298.379 452.318 294.041 449.307 290.208 447.972Z" fill="#B04470"/>
<path d="M317.565 455.777C320.968 455.125 324.359 454.464 327.706 453.776C326.893 449.115 326.034 444.507 324.963 440.207C321.934 442.313 317.043 447.099 317.565 455.777Z" fill="#B04470"/>
<path fill-rule="evenodd" clip-rule="evenodd" d="M377.412 311.539C376.064 303.395 373.114 296.159 370.987 289.147C370.308 288.873 370.633 289.438 370.297 289.51C361.65 290.481 352.403 290.086 342.696 290.187C333.26 290.287 323.673 290.709 314.4 291.055C305.419 291.392 295.706 291.613 286.8 292.62C282.647 293.086 278.492 294.054 274.651 295.048C270.66 296.082 266.835 297.19 264.061 299.04C262.793 299.884 260.907 301.489 259.896 302.858C253.088 312.053 257.914 328.343 260.938 338.096C264.414 349.308 269.103 359.463 272.741 369.858C280.185 391.107 286.466 404.631 293.703 424.104C295.566 423.801 297.448 423.592 299.318 423.366C303.962 422.802 308.624 422.371 313.253 421.682C317.048 421.118 320.814 420.457 324.567 419.73C323.489 405.522 322.713 396.079 319.091 382.874C314.908 367.636 308.718 354.28 302.078 341.912C313.578 344.685 327.794 345.212 341.826 345.212C355.604 345.212 368.414 343.377 374.636 334.97C378.854 329.261 378.799 319.924 377.412 311.539Z" fill="#2F2FA7"/>
<path d="M377.411 311.546C376.752 307.582 375.717 303.837 374.582 300.224C375.055 303.141 375.327 306.278 375.327 309.288C375.327 316.084 374.574 321.536 371.683 325.776C369.793 328.544 367.275 331.184 364.563 332.891C357.037 337.645 341.371 336.7 329.329 336.364C320.584 336.12 310.7 335.31 300.689 335.843C297.544 336.009 293.888 336.594 293.223 338.101C292.384 340.001 293.781 342.703 294.61 344.523C300.506 357.393 306.479 370.837 310.755 385.485C314.676 398.914 316.875 407.351 318.754 420.796C320.695 420.461 322.632 420.109 324.564 419.734C323.486 405.526 322.711 396.083 319.088 382.879C314.905 367.64 308.715 354.285 302.075 341.917C313.575 344.689 327.791 345.216 341.823 345.216C355.602 345.216 368.414 343.382 374.633 334.974C378.853 329.268 378.797 319.931 377.411 311.546Z" fill="#1E1E77"/>
<path fill-rule="evenodd" clip-rule="evenodd" d="M314.306 291.066C311.312 274.559 300.944 257.674 294.976 249.833C294.265 248.899 293.024 246.989 292.236 246.765C291.417 246.534 290.451 246.813 289.715 246.765C287.481 246.618 285.71 245.91 284.126 245.011C282.096 243.859 280.243 242.331 279.305 240.079C278.026 237.016 278.935 230.754 278.757 226.82C278.551 222.299 278.122 217.762 278.099 213.341C278.06 206.186 280.313 201.526 283.25 197.123C285.717 193.423 288.197 190.692 292.455 188.574C294.933 187.34 297.864 186.548 301.004 186.382C306.242 186.103 310.83 187.388 314.922 189.011C319.048 190.649 322.582 192.517 325.771 194.709C332.464 199.31 338.224 204.329 342.867 210.71C372.385 251.27 369.597 285.469 370.892 289.156C371.087 289.714 320.719 292.083 314.306 291.066Z" fill="#D967A2"/>
<path d="M342.428 212.857C363.464 249.494 362.204 279.178 361.815 289.907C367.293 289.595 370.945 289.312 370.891 289.161C369.596 285.474 372.384 251.276 342.867 210.715C339.444 206.014 335.413 202.051 330.851 198.449C335.406 202.783 339.314 207.431 342.428 212.857Z" fill="#B04470"/>
<path d="M268.13 165.063L268.046 165.053L267.997 165.121C267.92 165.228 267.83 165.332 267.723 165.441C267.614 165.55 267.512 165.665 267.412 165.78L267.111 166.118L267.404 166.135C271.911 166.409 275.471 170.158 275.51 174.668C275.55 179.427 271.711 183.332 266.952 183.371C262.193 183.411 258.288 179.573 258.248 174.813C258.216 171.023 260.63 167.697 264.281 166.527C264.744 166.275 264.814 165.946 264.732 165.739C264.646 165.515 264.348 165.341 263.877 165.465C259.793 166.787 257.073 170.549 257.11 174.823C257.155 180.21 261.574 184.555 266.962 184.509C272.349 184.464 276.695 180.044 276.649 174.658C276.607 169.809 272.946 165.684 268.13 165.063Z" fill="white"/>
<path d="M301.915 166.844C301.915 166.844 305.175 162.637 305.771 155.739C304.06 148.499 303.438 135.646 297.62 132.752C289.06 128.498 276.794 131.885 271.563 137.915C267.075 143.101 263.428 154.194 263.821 164.981C264.217 175.883 268.781 183.153 281.799 179.823C283.101 184.096 285.143 191.153 285.674 192.69C286.796 195.963 301.475 200.404 308.073 187.166C308.1 187.676 302.178 169.585 301.915 166.844Z" fill="#935E45"/>
<path fill-rule="evenodd" clip-rule="evenodd" d="M329.647 152.073C332.08 151.535 333.891 149.36 333.869 146.769C333.844 143.794 331.411 141.401 328.435 141.427C327.976 141.43 327.538 141.51 327.112 141.621C326.848 140.433 326.1 139.333 324.94 138.76C324.984 138.603 325.017 138.414 325.038 138.216C326.597 136.987 327.595 135.08 327.578 132.941C327.547 129.269 324.545 126.319 320.875 126.35C319.253 126.363 317.773 126.958 316.628 127.933C315.84 125.965 313.918 124.576 311.671 124.596C311.633 120.152 307.999 116.578 303.555 116.616C299.735 116.648 296.565 119.34 295.771 122.917C295.577 122.925 295.384 122.939 295.194 122.964C294.854 120.985 293.135 119.482 291.063 119.5C290.944 119.501 290.833 119.526 290.718 119.538C290.027 115.761 286.712 112.91 282.742 112.944C279.541 112.97 276.8 114.867 275.526 117.584C274.936 115.978 273.401 114.833 271.592 114.848C269.289 114.868 267.438 116.75 267.458 119.052C267.467 120.118 267.887 121.076 268.551 121.807C268.57 122.079 268.611 122.353 268.697 122.63C267.485 122.18 265.771 121.565 264.024 122.804C262.97 123.553 262.483 124.999 262.73 126.504C261.924 126.025 260.993 125.738 259.987 125.745C257.058 125.77 254.705 128.163 254.73 131.092C254.741 132.362 255.215 133.507 255.968 134.413C253.092 134.498 250.796 136.857 250.82 139.747C250.824 140.099 250.865 140.442 250.932 140.773C247.368 140.924 244.538 143.869 244.568 147.463C244.598 151.054 247.473 153.948 251.035 154.043C250.941 154.498 250.891 154.967 250.896 155.451C250.927 159.122 253.928 162.072 257.598 162.041C259.664 162.024 262.771 160.965 263.977 159.478C263.977 159.478 264.492 155.364 264.855 153.346C265.604 149.893 266.347 147.42 267.254 145.636C268.738 144.849 269.736 143.708 269.969 142.649C270.366 142.907 270.829 143.086 271.345 143.131C272.533 143.236 273.621 142.654 274.163 141.735C274.571 142.275 275.196 142.666 275.956 142.732C276.763 142.803 277.487 142.483 278.003 141.968C278.986 142.78 280.843 143.491 283.058 143.797C285.61 144.15 287.893 143.867 288.964 143.161C289.394 144.026 290.21 144.692 291.235 144.943C290.685 145.461 290.305 146.142 290.226 146.925C290.042 148.721 291.45 150.314 293.371 150.484C293.576 150.502 293.777 150.495 293.976 150.481C293.698 150.819 293.482 151.205 293.436 151.661C293.31 152.894 294.237 153.967 295.52 154.175C294.877 159.621 292.541 164.989 293.445 165.088C295.841 164.495 297.917 157.264 299.68 157.316C300.656 157.345 301.465 157.912 301.828 158.392C304.546 161.982 302.919 166.395 298.7 167.362C295.922 170.012 297.517 173.118 298.759 173.71C299.648 174.133 300.59 173.849 301.591 173.478C302.844 174.588 304.588 175.573 306.379 174.838C306.483 174.795 306.573 174.734 306.67 174.684C307.554 176.577 309.471 177.887 311.695 177.868C314.735 177.842 317.178 175.357 317.152 172.318C317.15 171.997 317.106 171.688 317.05 171.383C317.92 171.965 318.966 172.303 320.091 172.293C322.937 172.269 325.224 170.037 325.399 167.24C325.436 167.24 325.472 167.244 325.509 167.244C330.023 167.207 333.652 163.515 333.614 159.001C333.587 156.054 332 153.491 329.647 152.073Z" fill="#171458"/>
<path d="M281.707 124.833C282.304 124.968 282.835 125.232 283.292 125.58C282.751 124.696 281.886 124.011 280.803 123.729C278.574 123.151 276.232 124.472 275.719 126.717C275.228 128.871 275.977 130.206 275.988 130.494C274.934 129.745 273.438 128.706 271.43 129.45C270.219 129.9 269.373 131.171 269.22 132.688C268.567 132.017 267.742 131.497 266.768 131.244C263.934 130.508 261.04 132.21 260.305 135.044C260.01 136.181 260.375 138.02 261.614 139.17C261.429 138.417 261.404 137.616 261.586 136.807C262.229 133.951 265.066 132.157 267.923 132.8C268.903 133.021 269.745 133.513 270.419 134.163C270.523 132.641 271.327 131.344 272.522 130.856C274.506 130.047 276.034 131.036 277.112 131.751C277.091 131.462 276.579 130.333 276.721 127.984C276.863 125.686 279.461 124.326 281.707 124.833Z" fill="#2B2BAB"/>
<path d="M302.592 128.143C306.83 129.483 309.179 134.005 307.839 138.243C309.982 138.92 311.38 140.835 311.521 142.95C312.912 142.378 314.503 142.27 316.049 142.759C319.549 143.866 321.489 147.601 320.383 151.101C320.165 151.791 319.838 152.414 319.436 152.971C320.645 152.163 321.6 150.96 322.073 149.466C323.18 145.966 321.238 142.231 317.738 141.124C316.192 140.635 314.601 140.743 313.21 141.315C313.07 139.2 311.673 137.286 309.529 136.608C310.869 132.37 308.519 127.848 304.281 126.508C300.971 125.462 297.499 126.673 295.495 129.27C297.482 127.851 300.085 127.35 302.592 128.143Z" fill="#2B2BAB"/>
<path fill-rule="evenodd" clip-rule="evenodd" d="M281.797 179.827L283.555 185.71C289.354 182.456 292.068 173.949 292.068 173.949C292.068 173.949 284.305 178.595 281.797 179.827Z" fill="#5D382E"/>
<path fill-rule="evenodd" clip-rule="evenodd" d="M305.533 162.298C304.698 164.765 301.049 168.359 298.884 167.628C296.719 166.897 296.857 162.12 297.691 159.646C298.527 157.18 300.957 155.772 303.124 156.501C305.285 157.235 306.365 159.825 305.533 162.298Z" fill="#935E45"/>
<path d="M303.971 164.75L303.888 164.74L303.838 164.809C303.762 164.915 303.672 165.02 303.564 165.128C303.456 165.237 303.354 165.352 303.254 165.468L302.953 165.805L303.246 165.823C307.753 166.097 311.313 169.846 311.352 174.355C311.392 179.115 307.553 183.019 302.793 183.059C298.035 183.099 294.13 179.26 294.09 174.501C294.057 170.711 296.472 167.384 300.123 166.214C300.586 165.963 300.656 165.633 300.574 165.427C300.487 165.203 300.19 165.029 299.719 165.153C295.635 166.475 292.915 170.236 292.952 174.511C292.997 179.897 297.416 184.242 302.803 184.197C308.19 184.151 312.537 179.732 312.491 174.345C312.449 169.496 308.786 165.371 303.971 164.75Z" fill="white"/>
<path d="M271.729 164.619C271.691 164.617 271.651 164.598 271.615 164.589C270.602 164.188 269.95 163.62 269.622 162.851C268.97 161.297 269.801 159.323 270.853 156.831C271.523 155.247 272.277 153.443 272.771 151.462C272.872 151.101 273.24 150.873 273.6 150.968C273.962 151.063 274.191 151.43 274.1 151.793C273.576 153.877 272.797 155.729 272.109 157.359C271.215 159.474 270.448 161.299 270.876 162.324C271.054 162.734 271.455 163.062 272.104 163.315C272.458 163.459 272.626 163.846 272.494 164.199C272.372 164.513 272.049 164.687 271.729 164.619Z" fill="#5D382E"/>
<path d="M271.515 172.509C268.867 172.113 268.71 168.273 268.881 167.94C269.042 167.609 269.455 167.463 269.793 167.631C273.376 169.398 275.027 167.44 275.102 167.356C275.334 167.065 275.838 166.949 276.051 167.249C276.966 168.491 274.658 173.122 271.515 172.509Z" fill="#5D382E"/>
<path fill-rule="evenodd" clip-rule="evenodd" d="M264.645 149.415C264.669 149.962 266.41 150.323 268.535 150.217C270.658 150.107 272.355 149.573 272.332 149.023C272.3 148.47 270.558 148.104 268.434 148.217C266.314 148.323 264.612 148.855 264.645 149.415Z" fill="#171458"/>
<path fill-rule="evenodd" clip-rule="evenodd" d="M266.273 154.934C266.134 155.869 266.586 156.716 267.274 156.807C267.963 156.908 268.629 156.22 268.765 155.281C268.893 154.338 268.443 153.499 267.761 153.405C267.07 153.304 266.403 153.989 266.273 154.934Z" fill="#171458"/>
<path fill-rule="evenodd" clip-rule="evenodd" d="M276.053 149.318C275.863 149.851 277.371 150.882 279.432 151.616C281.48 152.36 283.312 152.519 283.498 151.988C283.689 151.45 282.183 150.416 280.123 149.675C278.065 148.94 276.246 148.781 276.053 149.318Z" fill="#171458"/>
<path fill-rule="evenodd" clip-rule="evenodd" d="M277.38 156.038C277.234 157.034 277.709 157.943 278.448 158.045C279.183 158.147 279.889 157.413 280.035 156.413C280.175 155.41 279.693 154.51 278.959 154.408C278.227 154.304 277.515 155.034 277.38 156.038Z" fill="#171458"/>
<path d="M293.533 200.408C289.492 200.408 285.883 200.051 282.688 197.968L284.971 190.933C288.328 193.732 293.731 194.586 298.465 192.982C301.113 192.085 305.632 189.658 306.735 183.393L312.506 188.223C310.634 193.81 306.44 197.271 300.585 199.25C298.284 200.032 295.89 200.408 293.533 200.408Z" fill="#B04470"/>
<path fill-rule="evenodd" clip-rule="evenodd" d="M327.841 203.867C326.791 196.868 322.452 187.73 313.996 193.483C311.496 195.183 309.759 197.627 308.462 200.125C304.656 207.456 301.734 215.155 299.545 222.752C296.934 231.812 294.715 241.177 293.339 250.429C293.145 251.737 293.048 253.09 292.575 254.328C288.401 247.787 284.305 240.149 280.841 232.666C279.133 228.682 272.902 213.248 270.95 207.608C269.372 203.052 266.738 194.502 261.852 192.769C260.461 192.276 257.919 192.045 256.139 191.926C252.676 191.7 246.494 191.046 245.769 192.54C243.973 196.243 251.186 197.031 253.387 197.746C252.239 198.489 251.35 199.492 251.084 200.775C250.949 201.423 251.06 202.279 250.8 202.916C250.652 203.275 249.98 203.546 249.601 204.28C248.887 205.654 248.644 208.703 249.229 210.353C249.826 212.026 252.375 212.971 253.087 214.25C253.683 215.326 253.374 216.662 253.708 217.582C254.337 219.328 255.399 221.154 256.772 222.289C257.443 222.845 258.591 222.973 259.116 223.65C259.474 224.108 263.769 245.513 264.848 249.157C267.238 257.225 269.825 264.415 272.994 272.024C276.38 280.154 281.243 288.696 286.928 291.571C289.422 292.831 293.327 293.409 297.041 292.088C302.587 290.116 305.771 286.553 308.563 282.774C316.53 271.991 319.879 260.343 322.906 248.154C324.847 240.334 326.544 232.341 327.622 223.474C328.408 217.007 328.862 210.667 327.841 203.867Z" fill="#935E45"/>
<path fill-rule="evenodd" clip-rule="evenodd" d="M245.508 193.946C246.041 194.283 246.697 194.592 247.395 194.899C250.286 196.171 254.123 195.841 258.27 196.34C256.483 196.475 254.57 196.882 253.384 197.741C250.476 197.308 245.872 196.345 245.508 193.946Z" fill="#5D382E"/>
<path fill-rule="evenodd" clip-rule="evenodd" d="M257.068 199.426C255.008 199.374 252.978 199.356 251.379 199.858C252.083 197.897 255.39 198.59 257.068 199.426Z" fill="#5D382E"/>
<path fill-rule="evenodd" clip-rule="evenodd" d="M256.143 202.129C254.402 202.321 252.618 202.458 251.006 202.805C251.614 201.243 254.272 201.553 256.143 202.129Z" fill="#5D382E"/>
<path fill-rule="evenodd" clip-rule="evenodd" d="M260.893 223.473C261.684 224.026 262.902 224.773 263.213 225.01C259.26 225.478 256.695 223.542 255.179 221.179C253.214 218.115 253.444 213.706 252.753 210.195C252.679 209.82 256.451 220.36 260.893 223.473Z" fill="#5D382E"/>
<path fill-rule="evenodd" clip-rule="evenodd" d="M293.209 251.395L316.04 269.767C318.62 265.255 342.174 197.468 320.362 191.244C300.765 185.65 293.209 251.395 293.209 251.395Z" fill="#E488BD"/>
<path fill-rule="evenodd" clip-rule="evenodd" d="M311.715 278.092L292.58 254.327L293.32 250.708L316.044 269.762C316.044 269.762 314.146 275.279 311.715 278.092Z" fill="#DB62A1"/>
<path d="M304.451 275.304C302.46 278.103 298.099 283.917 292.772 284.711C289.457 285.208 285.875 281.712 283.492 278.957C275.758 270.022 269.374 256.935 263.924 245.275C263.908 245.24 263.893 245.204 263.876 245.17C264.29 247.003 264.634 248.436 264.849 249.165C267.239 257.233 269.826 264.424 272.995 272.032C276.381 280.162 281.244 288.704 286.928 291.579C288.467 292.358 290.542 292.873 292.778 292.846C293.393 292.836 294.018 292.781 294.647 292.691C295.444 292.571 296.247 292.38 297.042 292.096C302.588 290.124 305.771 286.561 308.563 282.782C309.704 281.241 310.746 279.679 311.709 278.102L306.687 271.864C305.994 273.023 305.257 274.172 304.451 275.304Z" fill="#5D382E"/>
<path d="M328.282 200.412C327.355 205.269 326.4 210.152 325.507 214.525C323.815 222.805 321.094 232.149 318.913 239.404C317.62 243.713 316.344 247.952 315.116 251.636C312.798 258.593 310.528 265.429 306.688 271.86L311.71 278.098C312.612 276.861 313.441 275.555 314.167 274.188C315.125 272.263 315.792 270.462 315.98 269.935C315.997 269.884 316.017 269.835 316.033 269.783L316.039 269.767C316.039 269.767 316.042 269.761 316.047 269.749C316.468 268.79 316.878 267.838 317.28 266.888C321.557 255.853 333.406 218.299 328.282 200.412Z" fill="#B04470"/>
</svg>
