<svg width="696" height="487" viewBox="0 0 696 487" fill="none" xmlns="http://www.w3.org/2000/svg">
<rect x="1.6001" y="1.875" width="692" height="483.2" rx="16" fill="#0F111A"/>
<path d="M144.133 374.849C115.784 328.745 116.826 264.251 142.039 217.157C151.728 199.058 173.029 197.109 191.457 198.276C207.493 199.291 226.033 199.172 240.661 190.666C258.759 180.142 264.283 158.319 271.955 140.267C304.418 63.8901 426.734 51.3801 468.12 127.306C484.884 158.062 510.927 183.275 533.991 209.761C558.636 238.062 579.432 266.578 568.053 305.828C545.875 382.327 512.891 396.08 512.891 396.08C454.01 396.145 395.127 395.796 336.247 395.71C299.557 395.656 262.921 398.232 226.232 398.253C198.233 398.268 161.119 402.473 144.133 374.849Z" fill="#E0E3F8"/>
<path d="M349.457 410.589C472.166 410.589 571.641 405.911 571.641 400.14C571.641 394.37 472.166 389.691 349.457 389.691C226.747 389.691 127.272 394.37 127.272 400.14C127.272 405.911 226.747 410.589 349.457 410.589Z" fill="#E0E3F8"/>
<path d="M351.982 77.917H286.549C283.982 77.917 281.901 79.998 281.901 82.565V93.918C281.901 96.485 283.982 98.566 286.549 98.566L288.441 106.324L295.494 98.566H351.982C354.549 98.566 356.63 96.485 356.63 93.918V82.566C356.63 79.998 354.549 77.917 351.982 77.917Z" fill="#6D68CF"/>
<path d="M287.35 81.9922H351.181" stroke="white" stroke-width="0.537951" stroke-miterlimit="10"/>
<path d="M287.35 84.8135H351.181" stroke="white" stroke-width="0.537951" stroke-miterlimit="10"/>
<path d="M287.35 87.6348H351.181" stroke="white" stroke-width="0.537951" stroke-miterlimit="10"/>
<path d="M287.35 90.4561H351.181" stroke="white" stroke-width="0.537951" stroke-miterlimit="10"/>
<path d="M287.35 93.2773H351.181" stroke="white" stroke-width="0.537951" stroke-miterlimit="10"/>
<path d="M362.854 99.2676H420.147C422.395 99.2676 424.217 101.09 424.217 103.338V113.279C424.217 115.527 422.395 117.349 420.147 117.349L418.491 124.142L412.315 117.349H362.854C360.606 117.349 358.784 115.527 358.784 113.279V103.338C358.784 101.09 360.606 99.2676 362.854 99.2676Z" fill="#E8A749"/>
<path d="M419.45 102.834H363.561" stroke="white" stroke-width="0.537951" stroke-miterlimit="10"/>
<path d="M419.45 105.304H363.561" stroke="white" stroke-width="0.537951" stroke-miterlimit="10"/>
<path d="M419.45 107.775H363.561" stroke="white" stroke-width="0.537951" stroke-miterlimit="10"/>
<path d="M419.45 110.245H363.561" stroke="white" stroke-width="0.537951" stroke-miterlimit="10"/>
<path d="M419.45 112.715H363.561" stroke="white" stroke-width="0.537951" stroke-miterlimit="10"/>
<path d="M522.574 354.431C519.518 346.894 511.771 345.854 504.664 346.621C499.669 347.16 482.98 353.938 479.037 350.048C473.847 344.925 491.828 343.483 493.831 343.296C501.74 342.555 509.744 342.34 515.806 336.415C520.308 332.015 522.851 325.483 521.931 319.201C520.978 312.691 515.203 310.306 509.526 312.788C505.373 314.606 499.857 317.018 496.516 312.564C494.034 309.251 495.576 304.314 498.003 301.643C508.046 290.591 515.047 283.637 514.554 267.329C514.159 254.245 506.94 243.549 492.674 245.324C483.515 246.465 476.035 253.63 471.509 261.263C466.828 269.158 467.54 278.518 466.514 287.304C466.095 290.889 463.384 295.297 459.254 295.601C453.701 296.006 451.899 290.262 450.542 285.936C448.686 280.024 443.096 277.236 437.56 280.792C432.219 284.223 428.962 290.431 428.599 296.714C428.111 305.177 433.206 311.355 437.84 317.806C439.014 319.44 449.735 333.947 442.463 333.397C436.939 332.977 431.091 315.941 428.218 311.82C424.129 305.956 418.258 300.798 410.567 303.442C391.24 310.088 400.951 344.252 406.043 357.564C409.148 365.682 413.571 374.048 420.094 379.948C437.217 395.434 462.573 401.497 484.725 393.384C498.107 388.484 530.254 373.373 522.574 354.431Z" fill="#6D68CF"/>
<path d="M438.081 391.517C440.288 386.155 442.605 380.844 444.864 375.506L451.827 359.576C456.471 348.957 461.25 338.4 466.03 327.843C470.846 317.303 475.684 306.772 480.622 296.288C485.536 285.792 490.561 275.347 495.697 264.952C491.23 275.651 486.653 286.3 481.964 296.899C477.299 307.508 472.535 318.072 467.748 328.626C462.925 339.163 458.102 349.7 453.143 360.176L445.702 375.888C443.159 381.096 440.675 386.332 438.081 391.517Z" fill="#D0EEFF"/>
<path d="M413.667 321.749C414.745 327.158 416.249 332.472 418.003 337.69C419.737 342.916 421.786 348.035 424.176 352.985C425.385 355.453 426.686 357.873 428.06 360.25C429.462 362.61 430.964 364.908 432.574 367.126C434.213 369.323 435.964 371.433 437.842 373.424C439.749 375.386 441.783 377.217 443.948 378.882L443.76 378.797C449.252 379.743 454.933 379.928 460.54 379.67C466.156 379.401 471.76 378.686 477.253 377.451C482.737 376.21 488.176 374.648 493.37 372.451C496.025 371.489 498.537 370.202 501.092 369.002C502.388 368.436 503.585 367.682 504.823 367.005L508.515 364.925L504.881 367.107C503.661 367.819 502.481 368.609 501.2 369.211C498.675 370.484 496.187 371.845 493.549 372.885C488.365 375.176 482.919 376.831 477.413 378.167C471.902 379.523 466.243 380.213 460.581 380.533C454.909 380.814 449.223 380.683 443.57 379.718L443.469 379.701L443.381 379.633C441.181 377.923 439.12 376.048 437.193 374.045C435.296 372.013 433.532 369.866 431.885 367.633C430.266 365.38 428.762 363.05 427.359 360.662C425.974 358.263 424.709 355.799 423.53 353.296C421.204 348.275 419.214 343.106 417.572 337.832C415.955 332.549 414.596 327.187 413.667 321.749Z" fill="#D0EEFF"/>
<path d="M440.346 292.662C441.807 296.242 443.447 299.744 445.247 303.159C447.025 306.585 448.964 309.923 451.058 313.158C453.145 316.398 455.426 319.506 457.864 322.479C460.309 325.451 463.037 328.166 465.908 330.708L465.683 330.602C469.338 331.127 473.122 331.182 476.853 331.051C480.596 330.91 484.325 330.499 488.036 329.96C489.881 329.629 491.741 329.366 493.569 328.937L496.32 328.337L499.047 327.632C500.879 327.21 502.659 326.602 504.467 326.086C506.259 325.52 508.026 324.875 509.815 324.285C508.063 324.968 506.322 325.695 504.545 326.32C502.755 326.903 500.99 327.58 499.169 328.071L496.448 328.847L493.697 329.513C491.869 329.986 490.004 330.293 488.153 330.669C484.432 331.323 480.666 331.724 476.889 331.905C473.105 332.063 469.329 332.045 465.524 331.528L465.398 331.511L465.298 331.422C462.389 328.828 459.653 326.046 457.201 323.026C454.775 319.993 452.447 316.873 450.443 313.548C448.41 310.244 446.535 306.847 444.833 303.367C443.167 299.871 441.606 296.32 440.346 292.662Z" fill="#D0EEFF"/>
<path d="M172.094 354.431C175.15 346.894 182.896 345.854 190.004 346.621C194.999 347.16 211.687 353.938 215.631 350.048C220.821 344.925 202.84 343.483 200.837 343.296C192.929 342.555 184.924 342.34 178.862 336.415C174.361 332.015 171.818 325.483 172.738 319.201C173.692 312.691 179.465 310.306 185.143 312.788C189.296 314.606 194.812 317.018 198.153 312.564C200.634 309.251 199.093 304.314 196.666 301.643C186.623 290.591 179.623 283.637 180.116 267.329C180.511 254.245 187.729 243.549 201.995 245.324C211.154 246.465 218.634 253.63 223.16 261.263C227.841 269.158 227.129 278.518 228.155 287.304C228.574 290.889 231.285 295.297 235.415 295.601C240.968 296.006 242.77 290.262 244.127 285.936C245.983 280.024 251.573 277.236 257.109 280.792C262.451 284.223 265.707 290.431 266.07 296.714C266.558 305.177 261.463 311.355 256.829 317.806C255.655 319.44 244.934 333.947 252.206 333.397C257.73 332.977 263.578 315.941 266.451 311.82C270.54 305.956 276.411 300.798 284.102 303.442C303.43 310.088 293.718 344.252 288.626 357.564C285.521 365.682 281.098 374.048 274.575 379.948C257.452 395.434 232.096 401.497 209.944 393.384C196.559 388.484 164.414 373.373 172.094 354.431Z" fill="#6D68CF"/>
<path d="M256.583 391.517C253.989 386.332 251.505 381.096 248.962 375.887L241.521 360.175C236.563 349.7 231.739 339.162 226.916 328.625C222.13 318.071 217.365 307.507 212.7 296.898C208.011 286.3 203.434 275.651 198.967 264.951C204.102 275.346 209.128 285.791 214.042 296.287C218.98 306.772 223.818 317.302 228.634 327.842C233.414 338.399 238.193 348.956 242.837 359.575L249.8 375.505C252.059 380.844 254.376 386.156 256.583 391.517Z" fill="#D0EEFF"/>
<path d="M281.002 321.749C280.073 327.187 278.713 332.549 277.098 337.83C275.455 343.104 273.466 348.274 271.141 353.294C269.962 355.797 268.697 358.261 267.312 360.66C265.909 363.049 264.404 365.379 262.786 367.631C261.139 369.863 259.375 372.011 257.478 374.043C255.551 376.046 253.49 377.922 251.29 379.631L251.202 379.699L251.101 379.716C245.448 380.681 239.761 380.812 234.09 380.531C228.428 380.212 222.769 379.521 217.258 378.165C211.752 376.828 206.306 375.174 201.122 372.883C198.484 371.844 195.996 370.482 193.471 369.209C192.19 368.607 191.01 367.818 189.789 367.105L186.155 364.923L189.847 367.003C191.085 367.681 192.282 368.434 193.578 369C196.133 370.2 198.645 371.487 201.3 372.449C206.494 374.645 211.933 376.208 217.417 377.449C222.91 378.683 228.513 379.399 234.13 379.668C239.737 379.925 245.417 379.74 250.91 378.795L250.722 378.88C252.887 377.215 254.921 375.384 256.828 373.422C258.706 371.431 260.456 369.321 262.096 367.124C263.707 364.905 265.208 362.607 266.61 360.248C267.984 357.872 269.284 355.451 270.494 352.983C272.884 348.033 274.933 342.914 276.667 337.688C278.42 332.472 279.925 327.158 281.002 321.749Z" fill="#D0EEFF"/>
<path d="M254.324 292.662C253.064 296.32 251.503 299.871 249.84 303.368C248.138 306.848 246.262 310.245 244.23 313.549C242.226 316.874 239.898 319.994 237.472 323.027C235.021 326.046 232.285 328.828 229.375 331.422L229.275 331.511L229.149 331.528C225.344 332.045 221.568 332.063 217.784 331.905C214.007 331.723 210.241 331.323 206.52 330.669C204.669 330.293 202.804 329.987 200.976 329.513L198.225 328.847L195.504 328.071C193.683 327.58 191.918 326.903 190.128 326.32C188.351 325.695 186.611 324.968 184.858 324.285C186.647 324.875 188.414 325.52 190.206 326.086C192.015 326.601 193.794 327.21 195.626 327.632L198.353 328.337L201.104 328.937C202.931 329.366 204.792 329.628 206.637 329.96C210.348 330.499 214.077 330.91 217.82 331.051C221.551 331.182 225.335 331.127 228.99 330.602L228.765 330.708C231.636 328.167 234.363 325.451 236.809 322.479C239.247 319.506 241.528 316.398 243.615 313.158C245.708 309.923 247.648 306.584 249.426 303.159C251.223 299.744 252.863 296.242 254.324 292.662Z" fill="#D0EEFF"/>
<path d="M442.256 400.14H252.403C248.879 400.14 246.022 397.283 246.022 393.76V135.229C246.022 131.705 248.879 128.849 252.403 128.849H442.256C445.78 128.849 448.636 131.706 448.636 135.229V393.76C448.636 397.284 445.78 400.14 442.256 400.14Z" fill="#232D68"/>
<path d="M255.03 384.754V144.234C255.03 140.71 257.887 137.854 261.411 137.854H433.254C436.778 137.854 439.634 140.711 439.634 144.234V384.754C439.634 388.278 436.777 391.134 433.254 391.134H261.411C257.887 391.134 255.03 388.277 255.03 384.754Z" fill="#C7EAFC"/>
<path d="M284.66 131.1H257.643V127.657C257.643 126.122 258.887 124.878 260.422 124.878H281.88C283.415 124.878 284.659 126.122 284.659 127.657V131.1H284.66Z" fill="#232D68"/>
<path d="M434.807 234.875H266.311V301.005H434.807V234.875Z" fill="#6D68CF"/>
<path d="M434.811 310.729H266.315V376.859H434.811V310.729Z" fill="#C1DDED"/>
<path d="M434.811 159.469H266.315V225.599H434.811V159.469Z" fill="#C1DDED"/>
<path d="M235.393 124.957H160.592V224.626H235.393V124.957Z" fill="#E8A749"/>
<path d="M229.198 129.124H166.788V220.46H229.198V129.124Z" fill="white"/>
<path d="M209.998 119.682V116.087C209.998 114.406 208.635 113.043 206.954 113.043H189.032C187.351 113.043 185.988 114.406 185.988 116.087V119.682H184.143C182.212 119.682 180.647 121.248 180.647 123.179V132.538H215.341V123.179C215.341 121.248 213.776 119.682 211.845 119.682H209.998Z" fill="#232D68"/>
<path d="M180.646 144.615H173.647V151.614H180.646V144.615Z" stroke="#85BFF1" stroke-width="0.26895" stroke-miterlimit="10"/>
<path d="M180.646 157.953H173.647V164.952H180.646V157.953Z" stroke="#85BFF1" stroke-width="0.26895" stroke-miterlimit="10"/>
<path d="M180.646 171.291H173.647V178.29H180.646V171.291Z" stroke="#85BFF1" stroke-width="0.26895" stroke-miterlimit="10"/>
<path d="M180.646 184.629H173.647V191.628H180.646V184.629Z" stroke="#85BFF1" stroke-width="0.26895" stroke-miterlimit="10"/>
<path d="M180.646 197.967H173.647V204.966H180.646V197.967Z" stroke="#85BFF1" stroke-width="0.26895" stroke-miterlimit="10"/>
<path d="M187.065 145.984H222.42" stroke="#C1DDED" stroke-width="0.1345" stroke-miterlimit="10"/>
<path d="M187.065 148.114H222.42" stroke="#C1DDED" stroke-width="0.1345" stroke-miterlimit="10"/>
<path d="M187.065 150.245H222.42" stroke="#C1DDED" stroke-width="0.1345" stroke-miterlimit="10"/>
<path d="M187.065 159.322H222.42" stroke="#C1DDED" stroke-width="0.1345" stroke-miterlimit="10"/>
<path d="M187.065 161.452H222.42" stroke="#C1DDED" stroke-width="0.1345" stroke-miterlimit="10"/>
<path d="M187.065 163.584H222.42" stroke="#C1DDED" stroke-width="0.1345" stroke-miterlimit="10"/>
<path d="M187.065 172.66H222.42" stroke="#C1DDED" stroke-width="0.1345" stroke-miterlimit="10"/>
<path d="M187.065 174.79H222.42" stroke="#C1DDED" stroke-width="0.1345" stroke-miterlimit="10"/>
<path d="M187.065 176.921H222.42" stroke="#C1DDED" stroke-width="0.1345" stroke-miterlimit="10"/>
<path d="M187.065 185.998H222.42" stroke="#C1DDED" stroke-width="0.1345" stroke-miterlimit="10"/>
<path d="M187.065 188.129H222.42" stroke="#C1DDED" stroke-width="0.1345" stroke-miterlimit="10"/>
<path d="M187.065 190.259H222.42" stroke="#C1DDED" stroke-width="0.1345" stroke-miterlimit="10"/>
<path d="M187.065 199.336H222.42" stroke="#C1DDED" stroke-width="0.1345" stroke-miterlimit="10"/>
<path d="M187.065 201.467H222.42" stroke="#C1DDED" stroke-width="0.1345" stroke-miterlimit="10"/>
<path d="M187.065 203.597H222.42" stroke="#C1DDED" stroke-width="0.1345" stroke-miterlimit="10"/>
<path d="M175.588 160.804L177.351 162.934L181.095 154.027" stroke="#5BB039" stroke-width="0.537951" stroke-miterlimit="10" stroke-linecap="round" stroke-linejoin="round"/>
<path d="M175.588 200.291L177.351 202.422L181.095 193.515" stroke="#5BB039" stroke-width="0.537951" stroke-miterlimit="10" stroke-linecap="round" stroke-linejoin="round"/>
<path d="M183.205 130.445C183.094 129.807 183.042 129.169 182.999 128.531C182.95 127.893 182.943 127.255 182.936 126.617C182.942 125.979 182.949 125.341 182.998 124.703C183.041 124.065 183.093 123.427 183.205 122.789C183.317 123.427 183.369 124.065 183.412 124.703C183.461 125.341 183.468 125.979 183.474 126.617C183.467 127.255 183.46 127.893 183.411 128.531C183.368 129.17 183.316 129.807 183.205 130.445Z" fill="white"/>
<path d="M187.064 119.431C186.953 119.082 186.901 118.733 186.858 118.385C186.809 118.036 186.802 117.687 186.795 117.339C186.801 116.99 186.808 116.641 186.857 116.293C186.9 115.944 186.952 115.595 187.064 115.247C187.176 115.596 187.228 115.945 187.271 116.293C187.32 116.642 187.327 116.991 187.333 117.339C187.326 117.688 187.319 118.037 187.27 118.385C187.227 118.734 187.175 119.082 187.064 119.431Z" fill="white"/>
<path d="M163.158 129.124L163.355 140.677L163.467 152.231L163.561 175.338L163.469 198.445L163.356 209.999L163.158 221.552L162.961 209.999L162.848 198.445L162.756 175.338L162.85 152.231L162.962 140.677L163.158 129.124Z" fill="white"/>
<path d="M199.749 116.943C199.749 117.912 198.964 118.697 197.995 118.697C197.026 118.697 196.241 117.912 196.241 116.943C196.241 115.974 197.026 115.189 197.995 115.189C198.963 115.189 199.749 115.974 199.749 116.943Z" fill="white"/>
<path d="M431.593 231.647H263.096V297.777H431.593V231.647Z" fill="white"/>
<path d="M319.647 265.488C322.89 251.59 314.252 237.694 300.353 234.451C286.454 231.208 272.558 239.846 269.315 253.745C266.073 267.644 274.711 281.54 288.61 284.783C302.509 288.025 316.405 279.387 319.647 265.488Z" fill="#C7EAFC"/>
<path d="M426.68 237.472H334.295V246.486H426.68V237.472Z" fill="#6D68CF"/>
<path d="M331.35 254.403H429.627" stroke="#C1DDED" stroke-width="0.537951" stroke-miterlimit="10"/>
<path d="M331.35 259.285H429.627" stroke="#C1DDED" stroke-width="0.537951" stroke-miterlimit="10"/>
<path d="M331.35 264.168H429.627" stroke="#C1DDED" stroke-width="0.537951" stroke-miterlimit="10"/>
<path d="M331.35 269.051H429.627" stroke="#C1DDED" stroke-width="0.537951" stroke-miterlimit="10"/>
<path d="M331.35 273.933H429.627" stroke="#C1DDED" stroke-width="0.537951" stroke-miterlimit="10"/>
<path d="M331.35 278.815H429.627" stroke="#C1DDED" stroke-width="0.537951" stroke-miterlimit="10"/>
<path d="M331.35 283.697H429.627" stroke="#C1DDED" stroke-width="0.537951" stroke-miterlimit="10"/>
<path d="M331.35 288.58H429.627" stroke="#C1DDED" stroke-width="0.537951" stroke-miterlimit="10"/>
<path d="M279.937 288.141L280.795 289.878L282.712 290.157L281.325 291.509L281.652 293.418L279.937 292.516L278.223 293.418L278.55 291.509L277.163 290.157L279.08 289.878L279.937 288.141Z" fill="#FFC722"/>
<path d="M287.219 288.141L288.076 289.878L289.993 290.157L288.606 291.509L288.933 293.418L287.219 292.516L285.504 293.418L285.831 291.509L284.444 290.157L286.361 289.878L287.219 288.141Z" fill="#FFC722"/>
<path d="M294.496 288.141L295.353 289.878L297.27 290.157L295.883 291.509L296.21 293.418L294.496 292.516L292.781 293.418L293.109 291.509L291.721 290.157L293.638 289.878L294.496 288.141Z" fill="#FFC722"/>
<path d="M301.776 288.141L302.633 289.878L304.55 290.157L303.163 291.509L303.49 293.418L301.776 292.516L300.061 293.418L300.389 291.509L299.002 290.157L300.919 289.878L301.776 288.141Z" fill="#FFC722"/>
<path d="M309.062 288.141L309.919 289.878L311.836 290.157L310.449 291.509L310.777 293.418L309.062 292.516L307.347 293.418L307.675 291.509L306.288 290.157L308.205 289.878L309.062 288.141Z" fill="#C1DDED"/>
<path d="M319.647 265.488C322.89 251.59 314.252 237.694 300.353 234.451C286.454 231.208 272.558 239.846 269.315 253.745C266.073 267.644 274.711 281.54 288.61 284.783C302.509 288.025 316.405 279.387 319.647 265.488Z" fill="#C1DDED"/>
<mask id="mask0_10322_65171" style="mask-type:luminance" maskUnits="userSpaceOnUse" x="268" y="233" width="53" height="53">
<path d="M319.647 265.488C322.89 251.59 314.252 237.694 300.353 234.451C286.454 231.208 272.558 239.846 269.315 253.745C266.073 267.644 274.711 281.54 288.61 284.783C302.509 288.025 316.405 279.387 319.647 265.488Z" fill="white"/>
</mask>
<g mask="url(#mask0_10322_65171)">
<path d="M301.665 264.792C304.479 262.635 306.301 259.25 306.301 255.431C306.301 248.915 301.018 243.632 294.502 243.632C287.985 243.632 282.703 248.915 282.703 255.431C282.703 259.25 284.525 262.635 287.339 264.792C278.551 267.776 272.225 276.089 272.225 285.886H316.78C316.779 276.09 310.453 267.776 301.665 264.792Z" fill="white"/>
</g>
<path d="M431.593 307.502H263.096V373.632H431.593V307.502Z" fill="white"/>
<path d="M294.498 361.316C308.771 361.316 320.341 349.746 320.341 335.473C320.341 321.2 308.771 309.63 294.498 309.63C280.225 309.63 268.655 321.2 268.655 335.473C268.655 349.746 280.225 361.316 294.498 361.316Z" fill="#C7EAFC"/>
<path d="M426.68 313.325H334.295V322.339H426.68V313.325Z" fill="#85BFF1"/>
<path d="M331.35 330.257H429.627" stroke="#C1DDED" stroke-width="0.537951" stroke-miterlimit="10"/>
<path d="M331.35 335.14H429.627" stroke="#C1DDED" stroke-width="0.537951" stroke-miterlimit="10"/>
<path d="M331.35 340.021H429.627" stroke="#C1DDED" stroke-width="0.537951" stroke-miterlimit="10"/>
<path d="M331.35 344.904H429.627" stroke="#C1DDED" stroke-width="0.537951" stroke-miterlimit="10"/>
<path d="M331.35 349.787H429.627" stroke="#C1DDED" stroke-width="0.537951" stroke-miterlimit="10"/>
<path d="M331.35 354.669H429.627" stroke="#C1DDED" stroke-width="0.537951" stroke-miterlimit="10"/>
<path d="M331.35 359.552H429.627" stroke="#C1DDED" stroke-width="0.537951" stroke-miterlimit="10"/>
<path d="M331.35 364.434H429.627" stroke="#C1DDED" stroke-width="0.537951" stroke-miterlimit="10"/>
<path d="M279.937 363.995L280.795 365.731L282.712 366.01L281.325 367.362L281.652 369.271L279.937 368.37L278.223 369.271L278.55 367.362L277.163 366.01L279.08 365.731L279.937 363.995Z" fill="#FFC722"/>
<path d="M287.219 363.995L288.076 365.731L289.993 366.01L288.606 367.362L288.933 369.271L287.219 368.37L285.504 369.271L285.831 367.362L284.444 366.01L286.361 365.731L287.219 363.995Z" fill="#FFC722"/>
<path d="M294.5 363.995L295.357 365.731L297.274 366.01L295.887 367.362L296.214 369.271L294.5 368.37L292.785 369.271L293.113 367.362L291.725 366.01L293.642 365.731L294.5 363.995Z" fill="#C1DDED"/>
<path d="M301.78 363.995L302.637 365.731L304.554 366.01L303.167 367.362L303.494 369.271L301.78 368.37L300.065 369.271L300.393 367.362L299.006 366.01L300.923 365.731L301.78 363.995Z" fill="#C1DDED"/>
<path d="M309.062 363.995L309.919 365.731L311.836 366.01L310.449 367.362L310.777 369.271L309.062 368.37L307.347 369.271L307.675 367.362L306.288 366.01L308.205 365.731L309.062 363.995Z" fill="#C1DDED"/>
<path d="M294.498 361.316C308.771 361.316 320.341 349.746 320.341 335.473C320.341 321.2 308.771 309.63 294.498 309.63C280.225 309.63 268.655 321.2 268.655 335.473C268.655 349.746 280.225 361.316 294.498 361.316Z" fill="#C1DDED"/>
<mask id="mask1_10322_65171" style="mask-type:luminance" maskUnits="userSpaceOnUse" x="268" y="309" width="53" height="53">
<path d="M294.498 361.316C308.771 361.316 320.341 349.746 320.341 335.473C320.341 321.2 308.771 309.63 294.498 309.63C280.225 309.63 268.655 321.2 268.655 335.473C268.655 349.746 280.225 361.316 294.498 361.316Z" fill="white"/>
</mask>
<g mask="url(#mask1_10322_65171)">
<path d="M301.665 340.646C304.479 338.49 306.301 335.104 306.301 331.285C306.301 324.768 301.018 319.486 294.502 319.486C287.985 319.486 282.703 324.769 282.703 331.285C282.703 335.104 284.525 338.489 287.339 340.646C278.551 343.63 272.225 351.943 272.225 361.74H316.78C316.779 351.943 310.453 343.63 301.665 340.646Z" fill="white"/>
</g>
<path d="M431.597 156.242H263.1V222.372H431.597V156.242Z" fill="white"/>
<path d="M294.502 210.057C308.774 210.057 320.345 198.487 320.345 184.214C320.345 169.941 308.774 158.371 294.502 158.371C280.229 158.371 268.659 169.941 268.659 184.214C268.659 198.487 280.229 210.057 294.502 210.057Z" fill="#C7EAFC"/>
<path d="M426.684 162.065H334.299V171.079H426.684V162.065Z" fill="#E8A749"/>
<path d="M331.354 178.997H429.631" stroke="#C1DDED" stroke-width="0.537951" stroke-miterlimit="10"/>
<path d="M331.354 183.879H429.631" stroke="#C1DDED" stroke-width="0.537951" stroke-miterlimit="10"/>
<path d="M331.354 188.762H429.631" stroke="#C1DDED" stroke-width="0.537951" stroke-miterlimit="10"/>
<path d="M331.354 193.645H429.631" stroke="#C1DDED" stroke-width="0.537951" stroke-miterlimit="10"/>
<path d="M331.354 198.527H429.631" stroke="#C1DDED" stroke-width="0.537951" stroke-miterlimit="10"/>
<path d="M331.354 203.409H429.631" stroke="#C1DDED" stroke-width="0.537951" stroke-miterlimit="10"/>
<path d="M331.354 208.291H429.631" stroke="#C1DDED" stroke-width="0.537951" stroke-miterlimit="10"/>
<path d="M331.354 213.174H429.631" stroke="#C1DDED" stroke-width="0.537951" stroke-miterlimit="10"/>
<path d="M279.941 212.734L280.799 214.471L282.716 214.75L281.329 216.102L281.656 218.011L279.941 217.11L278.227 218.011L278.554 216.102L277.167 214.75L279.084 214.471L279.941 212.734Z" fill="#FFC722"/>
<path d="M287.223 212.734L288.08 214.471L289.997 214.75L288.61 216.102L288.937 218.011L287.223 217.11L285.508 218.011L285.835 216.102L284.448 214.75L286.365 214.471L287.223 212.734Z" fill="#FFC722"/>
<path d="M294.5 212.734L295.357 214.471L297.274 214.75L295.887 216.102L296.214 218.011L294.5 217.11L292.785 218.011L293.113 216.102L291.725 214.75L293.642 214.471L294.5 212.734Z" fill="#FFC722"/>
<path d="M301.784 212.734L302.641 214.471L304.558 214.75L303.171 216.102L303.498 218.011L301.784 217.11L300.069 218.011L300.397 216.102L299.01 214.75L300.927 214.471L301.784 212.734Z" fill="#C1DDED"/>
<path d="M309.066 212.734L309.923 214.471L311.84 214.75L310.453 216.102L310.781 218.011L309.066 217.11L307.351 218.011L307.679 216.102L306.292 214.75L308.209 214.471L309.066 212.734Z" fill="#C1DDED"/>
<path d="M294.502 210.057C308.774 210.057 320.345 198.487 320.345 184.214C320.345 169.941 308.774 158.371 294.502 158.371C280.229 158.371 268.659 169.941 268.659 184.214C268.659 198.487 280.229 210.057 294.502 210.057Z" fill="#C1DDED"/>
<mask id="mask2_10322_65171" style="mask-type:luminance" maskUnits="userSpaceOnUse" x="268" y="158" width="53" height="53">
<path d="M294.502 210.057C308.774 210.057 320.345 198.487 320.345 184.214C320.345 169.941 308.774 158.371 294.502 158.371C280.229 158.371 268.659 169.941 268.659 184.214C268.659 198.487 280.229 210.057 294.502 210.057Z" fill="white"/>
</mask>
<g mask="url(#mask2_10322_65171)">
<path d="M301.669 189.387C304.483 187.23 306.305 183.845 306.305 180.026C306.305 173.51 301.022 168.227 294.506 168.227C287.989 168.227 282.707 173.51 282.707 180.026C282.707 183.845 284.529 187.23 287.343 189.387C278.555 192.371 272.229 200.684 272.229 210.481H316.784C316.783 200.684 310.457 192.37 301.669 189.387Z" fill="white"/>
</g>
<path d="M428.069 258.804C436.654 255.29 440.765 245.482 437.251 236.897C433.737 228.312 423.929 224.201 415.344 227.715C406.759 231.229 402.648 241.037 406.162 249.622C409.675 258.207 419.484 262.318 428.069 258.804Z" fill="#6D68CF"/>
<path d="M428.069 258.804C436.654 255.29 440.765 245.482 437.251 236.897C433.737 228.312 423.929 224.201 415.344 227.715C406.759 231.229 402.648 241.037 406.162 249.622C409.675 258.207 419.484 262.318 428.069 258.804Z" fill="#6D68CF"/>
<path d="M421.698 258.636C430.191 258.636 437.077 251.751 437.077 243.257C437.077 234.763 430.191 227.878 421.698 227.878C413.204 227.878 406.319 234.763 406.319 243.257C406.319 251.751 413.204 258.636 421.698 258.636Z" stroke="white" stroke-width="0.492551" stroke-miterlimit="10"/>
<path d="M414.167 242.818L421.698 250.355L427.446 233.926" stroke="white" stroke-width="0.985101" stroke-miterlimit="10" stroke-linecap="round" stroke-linejoin="round"/>
<path d="M446.232 265.766C445.709 265.216 444.881 264.944 444.234 264.57C443.528 264.163 442.832 263.701 442.279 263.096C442.02 262.813 441.704 262.669 441.368 262.497C441.125 262.373 440.882 262.25 440.635 262.133C439.784 261.729 438.909 261.341 437.988 261.127L438.201 260.719C438.279 260.569 438.453 260.495 438.616 260.545C439.199 260.722 440.545 261.093 441.119 260.949C441.6 260.828 441.225 260.411 441.012 260.218C440.684 259.92 440.311 259.647 439.983 259.339C439.641 259.017 439.311 258.68 438.971 258.355L437.905 257.34L438.001 257.169C438.197 256.821 438.654 256.724 438.975 256.96C438.998 256.977 439.015 256.99 439.023 256.995C439.445 257.284 439.861 257.584 440.256 257.909C440.636 258.221 440.983 258.577 441.4 258.84C441.543 258.931 442.034 259.28 442.207 259.155C442.313 259.078 442.272 258.868 442.239 258.761C442.114 258.351 441.792 258.03 441.502 257.729C440.621 256.814 439.736 255.901 438.853 254.988C439.176 254.572 439.758 254.544 440.098 254.906L441.935 256.86C442.188 257.129 442.441 257.399 442.694 257.668C442.88 257.866 443.102 258.176 443.393 258.204C444.052 258.268 443.166 256.721 443.047 256.479C442.684 255.741 442.321 255.004 441.957 254.266C441.947 254.246 441.767 253.894 441.772 253.891C442.195 253.627 442.751 253.752 443.019 254.172C443.602 255.083 444.169 256.009 444.669 256.965C445.002 257.602 445.324 258.283 445.795 258.832C446.028 259.104 446.325 259.51 446.697 259.589C446.753 259.601 446.814 259.603 446.865 259.578C446.918 259.552 446.954 259.5 446.986 259.45C447.399 258.813 447.689 258.111 447.993 257.419C448.151 257.06 448.572 256.728 448.94 256.612C449.428 256.457 449.72 256.952 449.553 257.373C449.43 257.683 449.224 257.955 449.112 258.27C448.983 258.636 448.773 259.507 448.806 259.877C448.869 260.606 449.026 261.217 448.828 261.954C448.72 262.356 448.457 262.863 448.485 263.308L446.232 265.766Z" fill="#F9AF88"/>
<path d="M446.233 265.767L449.897 270.145L452.788 266.781L448.491 263.309L446.233 265.767Z" fill="#F9AF88"/>
<path d="M488.514 242.745L489.021 250.756L480.372 257.86L477.534 251.852C477.534 251.852 481.237 248.638 479.942 245.422L488.514 242.745Z" fill="#F9AF88"/>
<path d="M491.76 233.563C491.787 230.955 491.172 228.352 489.853 226.091C488.389 223.581 485.9 221.398 482.995 221.356C480.108 221.314 477.566 223.399 476.038 225.849C473.77 229.485 473.347 234.125 474.627 238.184C475.67 241.494 478.96 246.9 483.005 246.909C488.564 246.923 491.715 237.941 491.76 233.563Z" fill="#F9AF88"/>
<path d="M489.226 398.99C489.696 397.741 489.98 396.902 489.98 396.902L489.907 389.875L483.911 389.88C483.78 392.606 483.737 395.015 483.449 397.73C483.404 398.151 483.349 398.571 483.295 398.99H489.226Z" fill="#F9AF88"/>
<path d="M459.448 398.097C459.716 397.36 459.871 396.903 459.871 396.903L459.798 389.876L453.802 389.881C453.671 392.607 453.628 395.016 453.34 397.731C453.327 397.853 453.312 397.975 453.299 398.097H459.448Z" fill="#F9AF88"/>
<path d="M480.222 251.222C479.333 251.084 478.459 250.87 477.585 250.654C476.228 250.319 473.361 250.18 470.311 253.524C466.087 258.154 458.718 271.87 458.718 271.87L448.486 263.309L446.229 265.767C446.229 265.767 456.731 280.492 460.556 280.817C464.381 281.142 470.636 265.302 470.636 265.302C470.636 265.302 467.549 269.688 468.849 272.775C470.149 275.862 466.981 296.575 466.981 296.575C466.981 296.575 483.985 300.799 496.224 296.575C496.224 296.575 489.857 285.61 490.658 275.551C491.459 265.492 494.642 263.566 494.642 263.566C494.642 263.566 505.159 273.96 504.889 276.539C504.618 279.118 497.593 292.401 497.593 292.401L500.204 294.48C500.204 294.48 515.16 281.416 512.245 272.154C509.33 262.892 499.907 250.387 493.842 250.304C487.777 250.221 484.961 250.392 484.961 250.392L481.387 256.069L480.541 251.271L480.222 251.222Z" fill="#7C3AED"/>
<path d="M494.224 292.519C494.224 292.519 503.491 307.622 498.084 322.243C493.01 335.967 492.265 346.108 492.23 349.745C492.195 353.382 489.979 394.62 489.979 394.62H483.695C483.695 394.62 480.903 361.426 479.562 349.97C478.222 338.514 477.544 319.654 477.544 319.654C477.544 319.654 470.464 345.525 469.154 354.191C467.844 362.857 459.869 394.306 459.869 394.306H453.565C453.565 394.306 454.144 353.544 455.118 346.559C456.093 339.573 467.306 294.302 467.306 294.302L494.224 292.519Z" fill="#F2C17C"/>
<path d="M500.202 294.48C499.69 295.04 499.477 295.886 499.15 296.557C498.793 297.29 498.382 298.016 497.818 298.611C497.554 298.889 497.433 299.214 497.284 299.562C497.177 299.813 497.072 300.065 496.973 300.319C496.63 301.196 496.304 302.096 496.156 303.03L495.734 302.847C495.579 302.779 495.493 302.611 495.531 302.446C495.666 301.851 495.942 300.484 495.758 299.921C495.603 299.45 495.214 299.853 495.036 300.079C494.762 300.427 494.516 300.819 494.231 301.167C493.934 301.531 493.62 301.883 493.321 302.246L492.383 303.381L492.206 303.297C491.846 303.126 491.716 302.677 491.929 302.34C491.945 302.316 491.956 302.298 491.961 302.289C492.22 301.847 492.49 301.412 492.786 300.994C493.07 300.593 493.401 300.222 493.635 299.787C493.715 299.638 494.029 299.124 493.892 298.96C493.808 298.86 493.601 298.915 493.497 298.955C493.096 299.108 492.799 299.452 492.519 299.762C491.668 300.706 490.82 301.652 489.971 302.597C489.533 302.304 489.465 301.725 489.802 301.361L491.622 299.391C491.873 299.12 492.124 298.848 492.375 298.577C492.559 298.377 492.853 298.134 492.861 297.842C492.878 297.181 491.397 298.173 491.164 298.309C490.454 298.723 489.743 299.137 489.033 299.551C489.014 299.562 488.676 299.767 488.672 299.762C488.379 299.359 488.465 298.795 488.864 298.498C489.732 297.853 490.615 297.222 491.534 296.655C492.146 296.278 492.802 295.909 493.317 295.4C493.572 295.148 493.956 294.824 494.008 294.447C494.016 294.39 494.014 294.329 493.985 294.28C493.955 294.228 493.901 294.197 493.848 294.168C493.184 293.801 492.463 293.561 491.751 293.306C491.382 293.174 491.021 292.777 490.879 292.418C490.691 291.942 491.164 291.617 491.595 291.753C491.913 291.854 492.199 292.041 492.521 292.129C492.896 292.232 493.779 292.38 494.146 292.322C494.868 292.207 495.467 292.008 496.216 292.154C496.625 292.233 497.148 292.461 497.591 292.401L500.202 294.48Z" fill="#F9AF88"/>
<path d="M480.648 225.937C480.648 225.937 484.219 230.558 488.065 234.222C491.911 237.886 486.005 247.5 486.829 252.307C486.829 252.307 491.012 256.544 496.474 250.992C501.936 245.44 494.383 216.323 480.648 219.619C468.811 222.46 471.292 246.764 472.204 253.425C472.333 254.365 473.198 255.013 474.137 254.879C475.854 254.634 478.524 254.216 480.374 253.754C483.304 253.022 481.029 246.93 477.53 241.182C474.03 235.434 476.115 227.448 480.648 225.937Z" fill="#232D68"/>
<path d="M480.104 245.99C480.104 245.99 484.116 248.459 488.528 243.035C488.528 243.035 486.014 250.592 480.104 245.99Z" fill="#ED955F"/>
<path d="M453.463 396.636C453.463 396.636 454.799 398.134 456.743 398.175C458.687 398.216 459.74 396.838 460.145 397.163C460.55 397.487 460.955 401.253 460.145 401.658C459.335 402.063 445.283 403.845 444.554 402.184C443.825 400.524 448.644 399.592 450.183 398.58C451.722 397.568 453.463 396.636 453.463 396.636Z" fill="#FF795C"/>
<path d="M483.611 397.019C483.611 397.019 484.947 398.517 486.891 398.558C488.835 398.599 489.888 397.222 490.293 397.546C490.698 397.87 491.103 401.636 490.293 402.041C489.483 402.446 475.431 404.228 474.702 402.567C473.973 400.907 478.792 399.975 480.331 398.963C481.87 397.95 483.611 397.019 483.611 397.019Z" fill="#FF795C"/>
<path d="M259.633 260.941C260.649 260.385 259.957 259.641 259.952 259.635C260.124 259.819 260.413 259.072 260.399 258.95C260.284 257.937 258.842 258.526 258.287 258.741C258.103 258.812 256.362 259.739 256.28 259.667C256.28 259.667 255.954 259.384 255.382 259.697C254.81 260.01 253.645 261.924 253.645 261.924L253.51 262.386L254.854 264.429C254.854 264.429 255.859 264.347 256.654 264.413C257.449 264.479 257.537 264.107 258.73 263.955C259.923 263.803 259.543 262.46 259.543 262.46C260.421 261.673 259.633 260.941 259.633 260.941Z" fill="#F9AF88"/>
<path d="M277.458 242.331C272.366 237.814 264.577 238.281 260.06 243.373C255.543 248.465 256.01 256.254 261.102 260.771C266.194 265.288 273.983 264.821 278.5 259.729C283.017 254.637 282.55 246.847 277.458 242.331ZM262.878 258.768C258.892 255.232 258.527 249.134 262.062 245.148C265.598 241.162 271.696 240.797 275.682 244.332C279.668 247.868 280.034 253.966 276.498 257.952C272.962 261.939 266.864 262.304 262.878 258.768Z" fill="#6D68CF"/>
<g opacity="0.44">
<path d="M269.403 251.413C267.052 254.064 263.67 254.903 261.849 253.288C260.028 251.673 260.458 248.215 262.809 245.564C265.16 242.914 268.542 242.074 270.363 243.689C272.184 245.305 271.755 248.763 269.403 251.413Z" fill="white"/>
</g>
<path d="M272.719 241.037C271.834 240.882 270.941 240.787 270.048 240.803C269.156 240.782 268.27 240.878 267.398 241.022C265.663 241.338 263.986 242.043 262.679 243.215C261.359 244.359 260.355 245.852 259.7 247.5C259.336 248.308 259.159 249.189 258.875 250.035L258.377 252.678C258.447 251.784 258.544 250.886 258.635 249.985C258.874 249.115 259.012 248.208 259.341 247.36L259.869 246.097C260.032 245.669 260.337 245.312 260.565 244.915L260.935 244.335C261.07 244.15 261.238 243.99 261.389 243.816C261.715 243.492 261.972 243.095 262.356 242.833C263.759 241.631 265.529 240.887 267.336 240.643C269.144 240.406 270.992 240.524 272.719 241.037Z" fill="white"/>
<path d="M240.716 283.827L240.646 283.765C239.779 282.996 239.7 281.671 240.469 280.804L260.149 258.617L263.357 261.463L243.677 283.65C242.908 284.516 241.582 284.595 240.716 283.827Z" fill="#6D68CF"/>
<path d="M259.822 265.616L256.446 262.622C256.093 262.309 256.06 261.768 256.374 261.415L257.076 260.624C257.389 260.271 257.93 260.238 258.283 260.552L261.659 263.546C262.012 263.859 262.045 264.4 261.731 264.753L261.029 265.544C260.716 265.897 260.175 265.929 259.822 265.616Z" fill="white"/>
<path d="M245.346 281.937L241.97 278.943C241.617 278.63 241.584 278.089 241.898 277.736L242.6 276.945C242.913 276.592 243.454 276.559 243.807 276.873L247.183 279.867C247.536 280.18 247.569 280.721 247.255 281.074L246.553 281.865C246.24 282.218 245.699 282.25 245.346 281.937Z" fill="white"/>
<path d="M212.728 241.123L212.221 249.134L220.87 256.238L223.708 250.23C223.708 250.23 220.005 247.016 221.3 243.8L212.728 241.123Z" fill="#F9AF88"/>
<path d="M209.48 231.942C209.453 229.334 210.068 226.731 211.388 224.47C212.852 221.96 215.341 219.777 218.246 219.735C221.133 219.693 223.675 221.778 225.204 224.228C227.472 227.864 227.895 232.504 226.615 236.563C225.572 239.873 222.281 245.279 218.237 245.288C212.677 245.301 209.526 236.319 209.48 231.942Z" fill="#F9AF88"/>
<path d="M232.578 268.246C232.133 265.871 230.596 263.679 230.596 263.679C230.596 263.679 231.388 265.682 232.578 268.246Z" fill="#7C3AED"/>
<path d="M207.009 290.896C207.009 290.896 197.742 305.999 203.149 320.619C208.224 334.343 208.968 344.485 209.003 348.122C209.039 351.758 211.088 399.09 211.088 399.09L216.79 398.516C216.79 398.516 220.33 359.803 221.67 348.346C223.01 336.89 223.688 318.03 223.688 318.03C223.688 318.03 232.265 342.128 233.575 350.794C234.885 359.46 242.621 398.516 242.621 398.516C244.633 398.643 246.546 398.544 248.323 398.134C248.323 398.134 247.089 351.92 246.115 344.934C245.14 337.948 233.926 292.678 233.926 292.678L207.009 290.896Z" fill="#F9AF88"/>
<path d="M221.13 244.367C221.13 244.367 217.118 246.836 212.706 241.412C212.706 241.412 215.22 248.969 221.13 244.367Z" fill="#ED955F"/>
<path d="M252.746 261.686L242.514 270.247C242.514 270.247 235.145 256.531 230.921 251.901C227.87 248.557 225.004 248.696 223.647 249.031C222.773 249.247 221.899 249.461 221.01 249.599L220.693 249.648L219.847 254.446L216.273 248.769C216.273 248.769 213.717 248.614 208.244 248.671C207.571 248.696 206.598 255.188 206.5 255.795C206.229 257.462 205.548 259.711 206.416 261.307C207.108 262.579 208.374 263.349 209.063 264.678C211.265 268.921 210.686 275.388 210.092 279.964C209.91 281.365 206.558 295.486 205.01 294.951C217.249 299.175 234.252 294.951 234.252 294.951C234.252 294.951 231.084 274.237 232.384 271.151C232.765 270.246 232.763 269.23 232.579 268.245C231.389 265.681 230.597 263.678 230.597 263.678C230.597 263.678 232.133 265.87 232.579 268.245C234.738 272.897 238.211 279.402 240.678 279.193C244.504 278.868 255.005 264.143 255.005 264.143L252.746 261.686Z" fill="#7C3AED"/>
<path d="M209.195 283.968C208.041 287.622 206.439 291.118 204.362 294.339C201.483 298.803 197.752 307.272 201.453 317.73C206.989 333.372 207.007 340.781 207.007 340.781H247.183L233.019 285.815L209.195 283.968Z" fill="#F2C17C"/>
<path d="M245.196 279.881C246.442 279.848 246.146 278.795 246.144 278.787C246.218 279.048 246.862 278.475 246.909 278.351C247.297 277.324 245.626 277.179 244.988 277.112C244.777 277.09 242.654 277.121 242.61 277.013C242.61 277.013 242.437 276.581 241.735 276.6C241.033 276.619 238.976 277.879 238.976 277.879L238.62 278.255L238.903 280.873C238.903 280.873 239.906 281.289 240.636 281.743C241.365 282.197 241.632 281.884 242.85 282.325C244.067 282.766 244.364 281.292 244.364 281.292C245.591 280.97 245.196 279.881 245.196 279.881Z" fill="#F9AF88"/>
<path d="M208.236 248.726C207.779 248.576 206.467 250.608 206.223 250.978C204.284 253.917 204.994 257.799 205.722 261.021C206.927 266.355 209.148 271.611 212.146 276.184C212.612 276.894 213.102 277.589 213.624 278.26C219.585 285.925 238.836 281.049 238.836 281.049L238.61 277.719C238.61 277.719 223.689 275.945 221.413 274.701C219.412 273.607 217.185 262.224 216.676 259.488C216.602 259.093 214.7 257.764 214.343 257.323C213.609 256.416 212.993 255.419 212.388 254.424C211.25 252.553 210.056 250.045 208.236 248.726Z" fill="#7C3AED"/>
<path d="M230.568 240.07C230.674 238.809 230.811 237.544 230.853 236.288C231.051 230.41 229.315 221.715 223.277 219.064C213.32 214.693 204.937 227.131 204.452 235.576C203.969 244 206.014 259.748 209.478 262.495C212.942 265.242 210.195 259.931 214.407 260.114C218.619 260.297 217.748 258.206 218.275 253.483C218.711 249.578 213.905 244.933 211.505 239.062C211.033 236.334 210 228.968 212.436 228.148C215.299 227.183 216.257 223.741 217.695 221.486C218.798 226.62 220.777 231.225 225.217 233.977C226.528 234.789 226.937 236.51 226.169 237.847C225.349 239.275 224.268 240.579 223.173 241.82C222.131 243.001 220.994 244.315 220.998 245.891C221.002 247.521 222.217 248.849 223.182 250.162C224.299 251.682 225.159 253.39 225.713 255.193C226.091 256.422 226.367 257.764 227.278 258.672C228.475 259.865 230.407 259.926 232.051 259.533C233.741 259.129 235.526 258.078 235.801 256.362C236.027 254.95 235.156 253.619 234.326 252.454C232.895 250.447 231.431 248.384 230.812 245.998C230.313 244.067 230.4 242.073 230.568 240.07Z" fill="#232D68"/>
<path d="M216.053 263.679L221.412 274.703L230.597 276.638" stroke="#E36C52" stroke-width="0.26895" stroke-miterlimit="10" stroke-linecap="round" stroke-linejoin="round"/>
<path d="M212.147 276.185C212.147 276.185 214.516 280.83 219.009 281.643" stroke="#E36C52" stroke-width="0.26895" stroke-miterlimit="10" stroke-linecap="round" stroke-linejoin="round"/>
<path d="M248.527 397.019C248.527 397.019 247.191 398.517 245.247 398.558C243.303 398.599 242.25 397.222 241.845 397.546C241.44 397.87 241.035 401.636 241.845 402.041C242.655 402.446 256.707 404.228 257.436 402.567C258.165 400.907 253.346 399.975 251.807 398.963C250.268 397.95 248.527 397.019 248.527 397.019Z" fill="#232D68"/>
<path d="M217.254 397.019C217.254 397.019 215.918 398.517 213.974 398.558C212.03 398.599 210.977 397.222 210.572 397.546C210.167 397.87 209.762 401.636 210.572 402.041C211.382 402.446 225.434 404.228 226.163 402.567C226.892 400.907 222.073 399.975 220.534 398.963C218.996 397.95 217.254 397.019 217.254 397.019Z" fill="#232D68"/>
</svg>
