<svg width="695" height="459" viewBox="0 0 695 459" fill="none" xmlns="http://www.w3.org/2000/svg">
<path d="M438.737 455.074L264.745 456.233C256.579 456.287 249.916 449.712 249.862 441.546L248.174 104.381C248.12 96.2162 254.695 89.5522 262.86 89.4982L436.852 88.3392C445.017 88.2852 451.681 94.8602 451.735 103.025L453.422 440.19C453.477 448.357 446.902 455.02 438.737 455.074Z" fill="#B6C8E1"/>
<path d="M357.125 437.245C357.153 441.414 353.796 444.816 349.627 444.844C345.458 444.872 342.056 441.515 342.028 437.346C342 433.177 345.357 429.775 349.526 429.747C353.695 429.719 357.097 433.076 357.125 437.245Z" fill="#E7E8EB"/>
<path d="M377.852 110.735L320.921 111.114C319.634 111.122 318.583 110.086 318.575 108.799C318.566 107.512 319.603 106.462 320.89 106.453L377.821 106.074C379.108 106.066 380.158 107.102 380.167 108.389C380.175 109.676 379.139 110.726 377.852 110.735Z" fill="#CFCFCF"/>
<path d="M447.071 419.214L256.672 420.482L255.249 123.017L445.648 121.749L447.071 419.214Z" fill="white"/>
<path d="M303.734 173.804L400.62 172.966C406.272 172.928 410.823 168.316 410.785 162.665C410.747 157.013 406.135 152.462 400.484 152.5L303.598 153.338C297.946 153.376 293.395 157.988 293.433 163.639C293.471 169.29 298.083 173.841 303.734 173.804Z" fill="#6D68CF"/>
<path d="M321.986 158.61V160.551H317.933V162.649H320.966V164.534H317.933V168.559H315.51V158.61H321.986ZM325.683 160.551V162.564H328.929V164.434H325.683V166.617H329.354V168.559H323.26V158.61H329.354V160.551H325.683ZM333.351 160.551V162.564H336.596V164.434H333.351V166.617H337.022V168.559H330.927V158.61H337.022V160.551H333.351ZM342.322 158.61C343.371 158.61 344.287 158.817 345.072 159.233C345.856 159.649 346.461 160.235 346.886 160.991C347.32 161.737 347.538 162.602 347.538 163.584C347.538 164.557 347.32 165.422 346.886 166.178C346.461 166.934 345.851 167.519 345.057 167.935C344.273 168.351 343.362 168.559 342.322 168.559H338.595V158.61H342.322ZM342.166 166.461C343.083 166.461 343.796 166.211 344.306 165.71C344.817 165.209 345.072 164.501 345.072 163.584C345.072 162.668 344.817 161.954 344.306 161.444C343.796 160.934 343.083 160.679 342.166 160.679H341.018V166.461H342.166ZM354.915 163.457C355.492 163.579 355.954 163.868 356.304 164.321C356.654 164.765 356.828 165.275 356.828 165.852C356.828 166.683 356.536 167.344 355.95 167.836C355.373 168.318 354.566 168.559 353.526 168.559H348.892V158.61H353.37C354.381 158.61 355.17 158.841 355.737 159.304C356.314 159.767 356.602 160.395 356.602 161.189C356.602 161.775 356.446 162.261 356.134 162.649C355.832 163.036 355.425 163.305 354.915 163.457ZM351.315 162.635H352.903C353.3 162.635 353.602 162.55 353.81 162.379C354.027 162.2 354.136 161.94 354.136 161.6C354.136 161.26 354.027 161 353.81 160.821C353.602 160.641 353.3 160.551 352.903 160.551H351.315V162.635ZM353.101 166.603C353.507 166.603 353.819 166.513 354.036 166.334C354.263 166.145 354.377 165.875 354.377 165.526C354.377 165.176 354.259 164.902 354.022 164.704C353.796 164.505 353.479 164.406 353.073 164.406H351.315V166.603H353.101ZM364.427 166.801H360.714L360.119 168.559H357.582L361.182 158.61H363.988L367.588 168.559H365.023L364.427 166.801ZM363.804 164.93L362.571 161.288L361.352 164.93H363.804ZM368.272 163.57C368.272 162.587 368.485 161.713 368.91 160.948C369.335 160.173 369.926 159.573 370.682 159.148C371.447 158.714 372.311 158.496 373.275 158.496C374.456 158.496 375.467 158.808 376.308 159.432C377.149 160.055 377.711 160.906 377.995 161.983H375.33C375.132 161.567 374.848 161.25 374.48 161.033C374.121 160.816 373.71 160.707 373.247 160.707C372.5 160.707 371.896 160.967 371.433 161.487C370.97 162.006 370.738 162.701 370.738 163.57C370.738 164.439 370.97 165.134 371.433 165.653C371.896 166.173 372.5 166.433 373.247 166.433C373.71 166.433 374.121 166.324 374.48 166.107C374.848 165.889 375.132 165.573 375.33 165.157H377.995C377.711 166.234 377.149 167.085 376.308 167.708C375.467 168.322 374.456 168.629 373.275 168.629C372.311 168.629 371.447 168.417 370.682 167.992C369.926 167.557 369.335 166.957 368.91 166.192C368.485 165.427 368.272 164.553 368.272 163.57ZM385.247 168.559L381.902 164.165V168.559H379.479V158.61H381.902V162.975L385.218 158.61H388.067L384.212 163.485L388.209 168.559H385.247Z" fill="white"/>
<path d="M290.996 227.96C283.309 227.96 277.077 221.728 277.077 214.041C277.077 206.354 283.309 200.122 290.996 200.122C298.683 200.122 304.915 206.354 304.915 214.041C304.915 221.729 298.683 227.96 290.996 227.96Z" fill="#F2C17C"/>
<path d="M319.285 210.711L320.723 213.625L323.939 214.092L321.612 216.361L322.161 219.563L319.285 218.051L316.408 219.563L316.958 216.361L314.631 214.092L317.846 213.625L319.285 210.711Z" fill="#FF9F3E"/>
<path d="M331.568 210.711L333.006 213.625L336.222 214.092L333.895 216.361L334.444 219.563L331.568 218.051L328.692 219.563L329.241 216.361L326.914 214.092L330.13 213.625L331.568 210.711Z" fill="#FF9F3E"/>
<path d="M343.851 210.711L345.29 213.625L348.505 214.092L346.178 216.361L346.728 219.563L343.851 218.051L340.975 219.563L341.524 216.361L339.198 214.092L342.413 213.625L343.851 210.711Z" fill="#FF9F3E"/>
<path d="M356.135 210.711L357.573 213.625L360.789 214.092L358.462 216.361L359.011 219.563L356.135 218.051L353.259 219.563L353.808 216.361L351.481 214.092L354.697 213.625L356.135 210.711Z" fill="#C9CDD8"/>
<path d="M368.418 210.711L369.857 213.625L373.073 214.092L370.745 216.361L371.295 219.563L368.418 218.051L365.542 219.563L366.091 216.361L363.764 214.092L366.98 213.625L368.418 210.711Z" fill="#C9CDD8"/>
<path d="M321.858 227.171H316.957V232.025H321.858V227.171Z" fill="#C9CDD8"/>
<path d="M402.549 227.171H327.723V232.025H402.549V227.171Z" fill="#C9CDD8"/>
<path d="M417.458 237.456H327.723V242.31H417.458V237.456Z" fill="#C9CDD8"/>
<path d="M390.285 247.74H327.723V252.594H390.285V247.74Z" fill="#C9CDD8"/>
<path d="M361.123 259.358H328.612V262.76H361.123V259.358Z" fill="#FF9F3E"/>
<path d="M412.42 259.358H368.151V262.76H412.42V259.358Z" fill="#FF9F3E"/>
<path d="M381.31 199.76H316.957V206.966H381.31V199.76Z" fill="#C9CDD8"/>
<path d="M290.996 315.888C283.309 315.888 277.077 309.656 277.077 301.969C277.077 294.282 283.309 288.05 290.996 288.05C298.683 288.05 304.915 294.282 304.915 301.969C304.915 309.657 298.683 315.888 290.996 315.888Z" fill="#7C3AED"/>
<path d="M319.285 298.64L320.723 301.554L323.939 302.021L321.612 304.289L322.161 307.492L319.285 305.98L316.408 307.492L316.958 304.289L314.631 302.021L317.846 301.554L319.285 298.64Z" fill="#FF9F3E"/>
<path d="M331.568 298.64L333.006 301.554L336.222 302.021L333.895 304.289L334.444 307.492L331.568 305.98L328.692 307.492L329.241 304.289L326.914 302.021L330.13 301.554L331.568 298.64Z" fill="#FF9F3E"/>
<path d="M343.851 298.64L345.29 301.554L348.505 302.021L346.178 304.289L346.728 307.492L343.851 305.98L340.975 307.492L341.524 304.289L339.198 302.021L342.413 301.554L343.851 298.64Z" fill="#FF9F3E"/>
<path d="M356.135 298.64L357.573 301.554L360.789 302.021L358.462 304.289L359.011 307.492L356.135 305.98L353.259 307.492L353.808 304.289L351.481 302.021L354.697 301.554L356.135 298.64Z" fill="#FF9F3E"/>
<path d="M368.418 298.64L369.857 301.554L373.073 302.021L370.745 304.289L371.295 307.492L368.418 305.98L365.542 307.492L366.091 304.289L363.764 302.021L366.98 301.554L368.418 298.64Z" fill="#FF9F3E"/>
<path d="M321.858 315.1H316.957V319.954H321.858V315.1Z" fill="#C9CDD8"/>
<path d="M402.549 315.1H327.723V319.954H402.549V315.1Z" fill="#C9CDD8"/>
<path d="M423.458 325.384H327.723V330.238H423.458V325.384Z" fill="#C9CDD8"/>
<path d="M381.31 287.688H316.957V294.895H381.31V287.688Z" fill="#C9CDD8"/>
<path d="M290.996 383.297C283.309 383.297 277.077 377.065 277.077 369.378C277.077 361.691 283.309 355.459 290.996 355.459C298.683 355.459 304.915 361.691 304.915 369.378C304.915 377.065 298.683 383.297 290.996 383.297Z" fill="#2872E0"/>
<path d="M319.285 366.047L320.723 368.961L323.939 369.429L321.612 371.697L322.161 374.9L319.285 373.388L316.408 374.9L316.958 371.697L314.631 369.429L317.846 368.961L319.285 366.047Z" fill="#FF9F3E"/>
<path d="M331.568 366.047L333.006 368.961L336.222 369.429L333.895 371.697L334.444 374.9L331.568 373.388L328.692 374.9L329.241 371.697L326.914 369.429L330.13 368.961L331.568 366.047Z" fill="#FF9F3E"/>
<path d="M343.851 366.047L345.29 368.961L348.505 369.429L346.178 371.697L346.728 374.9L343.851 373.388L340.975 374.9L341.524 371.697L339.198 369.429L342.413 368.961L343.851 366.047Z" fill="#FF9F3E"/>
<path d="M356.135 366.047L357.573 368.961L360.789 369.429L358.462 371.697L359.011 374.9L356.135 373.388L353.259 374.9L353.808 371.697L351.481 369.429L354.697 368.961L356.135 366.047Z" fill="#FF9F3E"/>
<path d="M368.418 366.047L369.857 368.961L373.073 369.429L370.745 371.697L371.295 374.9L368.418 373.388L365.542 374.9L366.091 371.697L363.764 369.429L366.98 368.961L368.418 366.047Z" fill="#C9CDD8"/>
<path d="M321.858 382.507H316.957V387.361H321.858V382.507Z" fill="#C9CDD8"/>
<path d="M402.549 382.507H327.723V387.361H402.549V382.507Z" fill="#C9CDD8"/>
<path d="M381.31 355.096H316.957V362.302H381.31V355.096Z" fill="#C9CDD8"/>
<mask id="mask0_10322_64929" style="mask-type:luminance" maskUnits="userSpaceOnUse" x="43" y="57" width="179" height="184">
<path d="M208.865 74.452C221.165 90.0471 218.916 131.903 220.688 150.241C222.971 173.875 215.063 198.306 196.963 216.406C164.819 248.55 112.703 248.55 80.5592 216.406C48.4151 184.262 27.4956 108.351 59.6396 76.207C79.2786 56.568 125.49 63.9488 150.93 68.3066C167.129 71.0827 179.934 37.7698 208.865 74.452Z" fill="white"/>
</mask>
<g mask="url(#mask0_10322_64929)">
<path d="M196.964 216.406C229.108 184.262 229.108 132.146 196.964 100.002C164.82 67.8579 112.704 67.8579 80.56 100.002C48.4159 132.146 48.4159 184.262 80.56 216.406C112.704 248.55 164.82 248.55 196.964 216.406Z" fill="#DFE3F8"/>
</g>
<mask id="mask1_10322_64929" style="mask-type:luminance" maskUnits="userSpaceOnUse" x="56" y="44" width="193" height="197">
<path d="M247.557 148.552C245.227 168.277 214.04 196.284 202.326 210.504C187.229 228.83 164.361 240.514 138.764 240.514C93.3051 240.514 56.4531 203.662 56.4531 158.203C56.4531 112.744 95.3381 44.2744 140.797 44.2744C168.571 44.2744 196.029 82.1704 210.936 103.24C220.428 116.658 253.038 102.156 247.557 148.552Z" fill="white"/>
</mask>
<g mask="url(#mask1_10322_64929)">
<path d="M179.039 170.233C179.039 170.233 196.035 179.669 199.469 180.71C202.904 181.751 206.954 183.072 211.504 180.71C216.054 178.348 226.116 167.837 228.033 161.231L218.408 156.097L203.358 169.064L185.629 160.332L179.039 170.233Z" fill="#FEC0AD"/>
</g>
<mask id="mask2_10322_64929" style="mask-type:luminance" maskUnits="userSpaceOnUse" x="56" y="44" width="193" height="197">
<path d="M247.557 148.552C245.227 168.277 214.04 196.284 202.326 210.504C187.229 228.83 164.361 240.514 138.764 240.514C93.3051 240.514 56.4531 203.662 56.4531 158.203C56.4531 112.744 95.3381 44.2744 140.797 44.2744C168.571 44.2744 196.029 82.1704 210.936 103.24C220.428 116.658 253.038 102.156 247.557 148.552Z" fill="white"/>
</mask>
<g mask="url(#mask2_10322_64929)">
<path d="M150.24 137.337L169.661 129.585C169.661 129.585 175.436 132.6 180.315 141.721C185.194 150.842 193.952 160.415 193.952 160.415L177.953 179.082C177.953 179.082 166.786 167.701 161.375 158.052C155.963 148.403 150.24 137.337 150.24 137.337Z" fill="#F2C17C"/>
</g>
<mask id="mask3_10322_64929" style="mask-type:luminance" maskUnits="userSpaceOnUse" x="56" y="44" width="193" height="197">
<path d="M247.557 148.552C245.227 168.277 214.04 196.284 202.326 210.504C187.229 228.83 164.361 240.514 138.764 240.514C93.3051 240.514 56.4531 203.662 56.4531 158.203C56.4531 112.744 95.3381 44.2744 140.797 44.2744C168.571 44.2744 196.029 82.1704 210.936 103.24C220.428 116.658 253.038 102.156 247.557 148.552Z" fill="white"/>
</mask>
<g mask="url(#mask3_10322_64929)">
<path d="M165.374 73.5264C166.424 78.7264 166.877 90.7914 166.22 95.8204C165.311 102.785 162.103 108.654 157.438 111.535C152.773 114.417 143.737 110.013 139.32 105.955C134.903 101.897 134.149 95.5034 132.732 89.6404C131.316 83.7774 132.264 77.3184 132.264 77.3184C132.264 77.3184 129.504 67.6664 134.299 63.5494C152.677 47.7724 164.324 68.3274 165.374 73.5264Z" fill="#FEC0AD"/>
</g>
<mask id="mask4_10322_64929" style="mask-type:luminance" maskUnits="userSpaceOnUse" x="56" y="44" width="193" height="197">
<path d="M247.557 148.552C245.227 168.277 214.04 196.284 202.326 210.504C187.229 228.83 164.361 240.514 138.764 240.514C93.3051 240.514 56.4531 203.662 56.4531 158.203C56.4531 112.744 95.3381 44.2744 140.797 44.2744C168.571 44.2744 196.029 82.1704 210.936 103.24C220.428 116.658 253.038 102.156 247.557 148.552Z" fill="white"/>
</mask>
<g mask="url(#mask4_10322_64929)">
<path d="M166.062 70.1913C162.312 68.7583 156.288 67.9533 146.076 70.0073C141.075 71.0133 135.749 67.6383 135.749 67.6383C135.708 69.1343 138.571 74.9993 138.922 76.5303C139.487 78.9903 137.304 81.8193 137.539 83.8423C137.919 87.1243 134.377 88.5853 134.377 88.5853C134.377 88.5853 135.506 90.5633 134.287 92.1313C133.067 93.6983 131.925 104.702 131.925 104.702C131.925 104.702 126.299 95.7613 125.731 94.2613C125.162 92.7613 119.946 90.4153 116.953 85.7113C113.961 81.0073 112.203 60.1663 124.976 58.2863C124.976 58.2863 136.207 45.8213 155.335 54.8623C162.682 58.3343 166.062 70.1913 166.062 70.1913Z" fill="#613531"/>
</g>
<mask id="mask5_10322_64929" style="mask-type:luminance" maskUnits="userSpaceOnUse" x="56" y="44" width="193" height="197">
<path d="M247.557 148.552C245.227 168.277 214.04 196.284 202.326 210.504C187.229 228.83 164.361 240.514 138.764 240.514C93.3051 240.514 56.4531 203.662 56.4531 158.203C56.4531 112.744 95.3381 44.2744 140.797 44.2744C168.571 44.2744 196.029 82.1704 210.936 103.24C220.428 116.658 253.038 102.156 247.557 148.552Z" fill="white"/>
</mask>
<g mask="url(#mask5_10322_64929)">
<path d="M135.696 86.7268C135.398 84.2998 135.223 78.1088 129.719 78.4618C124.214 78.8148 126.555 86.9298 128.651 88.5778C130.747 90.2248 133.649 94.0008 133.649 94.0008C133.649 94.0008 136.143 90.3668 135.696 86.7268Z" fill="#FEC0AD"/>
</g>
<mask id="mask6_10322_64929" style="mask-type:luminance" maskUnits="userSpaceOnUse" x="56" y="44" width="193" height="197">
<path d="M247.557 148.552C245.227 168.277 214.04 196.284 202.326 210.504C187.229 228.83 164.361 240.514 138.764 240.514C93.3051 240.514 56.4531 203.662 56.4531 158.203C56.4531 112.744 95.3381 44.2744 140.797 44.2744C168.571 44.2744 196.029 82.1704 210.936 103.24C220.428 116.658 253.038 102.156 247.557 148.552Z" fill="white"/>
</mask>
<g mask="url(#mask6_10322_64929)">
<path d="M133.322 91.8623C133.322 91.8623 132.074 101.49 131.052 106.388C130.029 111.286 128.325 112.975 127.133 114.157C125.94 115.34 112.478 124.461 112.478 124.461C112.478 124.461 141.852 179.204 150.324 150.694C152.999 141.692 163.941 126.826 163.941 126.826C163.941 126.826 153.701 118.803 152.175 114.75C150.649 110.696 149.798 98.9573 149.798 98.9573L133.322 91.8623Z" fill="#FEC0AD"/>
</g>
<mask id="mask7_10322_64929" style="mask-type:luminance" maskUnits="userSpaceOnUse" x="56" y="44" width="193" height="197">
<path d="M247.557 148.552C245.227 168.277 214.04 196.284 202.326 210.504C187.229 228.83 164.361 240.514 138.764 240.514C93.3051 240.514 56.4531 203.662 56.4531 158.203C56.4531 112.744 95.3381 44.2744 140.797 44.2744C168.571 44.2744 196.029 82.1704 210.936 103.24C220.428 116.658 253.038 102.156 247.557 148.552Z" fill="white"/>
</mask>
<g mask="url(#mask7_10322_64929)">
<path d="M148.246 249.727C162.983 249.137 183.761 242.462 182.384 241.085C179.316 238.016 175.556 192.454 175.454 183.668C175.168 158.922 169.661 129.586 169.661 129.586L155.507 119.273C155.507 119.273 154.873 129.125 143.854 130.014C119.746 131.958 120.675 118.842 120.675 118.842C120.675 118.842 101.487 125.296 95.4402 130.277C87.2852 136.995 91.0202 145.01 95.8052 177.505C97.7802 190.917 97.4872 207.192 98.9812 219.512C100.189 229.472 98.1882 254.288 105.527 253.692C117.794 248.869 134.617 249.257 148.246 249.727Z" fill="#F2C17C"/>
</g>
<mask id="mask8_10322_64929" style="mask-type:luminance" maskUnits="userSpaceOnUse" x="56" y="44" width="193" height="197">
<path d="M247.557 148.552C245.227 168.277 214.04 196.284 202.326 210.504C187.229 228.83 164.361 240.514 138.764 240.514C93.3051 240.514 56.4531 203.662 56.4531 158.203C56.4531 112.744 95.3381 44.2744 140.797 44.2744C168.571 44.2744 196.029 82.1704 210.936 103.24C220.428 116.658 253.038 102.156 247.557 148.552Z" fill="white"/>
</mask>
<g mask="url(#mask8_10322_64929)">
<path d="M101.09 163.367C101.09 163.367 118.045 177.217 124.99 181.519C134.997 187.719 136.351 189.855 140.919 188.595C145.487 187.335 193.657 147.477 193.657 147.477L191.253 138.414C191.253 138.414 171.097 151.799 157.229 159.177C149.265 163.414 139.057 168.947 139.057 168.947L121.17 153.65L101.09 163.367Z" fill="#FEC0AD"/>
</g>
<mask id="mask9_10322_64929" style="mask-type:luminance" maskUnits="userSpaceOnUse" x="56" y="44" width="193" height="197">
<path d="M247.557 148.552C245.227 168.277 214.04 196.284 202.326 210.504C187.229 228.83 164.361 240.514 138.764 240.514C93.3051 240.514 56.4531 203.662 56.4531 158.203C56.4531 112.744 95.3381 44.2744 140.797 44.2744C168.571 44.2744 196.029 82.1704 210.936 103.24C220.428 116.658 253.038 102.156 247.557 148.552Z" fill="white"/>
</mask>
<g mask="url(#mask9_10322_64929)">
<path d="M136.592 163.525C136.592 163.525 112.014 139.437 108.871 136.516C92.621 121.417 85.204 136.042 93.295 155.627C95.84 161.788 106.663 176.242 118.047 182.662C125.178 180.233 132.873 168.266 136.592 163.525Z" fill="#F2C17C"/>
</g>
<mask id="mask10_10322_64929" style="mask-type:luminance" maskUnits="userSpaceOnUse" x="56" y="44" width="193" height="197">
<path d="M247.557 148.552C245.227 168.277 214.04 196.284 202.326 210.504C187.229 228.83 164.361 240.514 138.764 240.514C93.3051 240.514 56.4531 203.662 56.4531 158.203C56.4531 112.744 95.3381 44.2744 140.797 44.2744C168.571 44.2744 196.029 82.1704 210.936 103.24C220.428 116.658 253.038 102.156 247.557 148.552Z" fill="white"/>
</mask>
<g mask="url(#mask10_10322_64929)">
<path d="M136.592 163.525C136.592 163.525 112.014 139.437 108.871 136.516C92.621 121.417 85.204 136.042 93.295 155.627C95.84 161.788 106.663 176.242 118.047 182.662C125.178 180.233 132.873 168.266 136.592 163.525Z" fill="#F2C17C"/>
</g>
<mask id="mask11_10322_64929" style="mask-type:luminance" maskUnits="userSpaceOnUse" x="56" y="44" width="193" height="197">
<path d="M247.557 148.552C245.227 168.277 214.04 196.284 202.326 210.504C187.229 228.83 164.361 240.514 138.764 240.514C93.3051 240.514 56.4531 203.662 56.4531 158.203C56.4531 112.744 95.3381 44.2744 140.797 44.2744C168.571 44.2744 196.029 82.1704 210.936 103.24C220.428 116.658 253.038 102.156 247.557 148.552Z" fill="white"/>
</mask>
<g mask="url(#mask11_10322_64929)">
<path d="M176.401 178.509L203.892 186.451C206.716 187.252 209.993 185.799 211.226 183.21L237.996 126.012C239.218 123.447 237.954 120.711 235.16 119.898L207.912 111.848C202.949 111.362 200.471 112.329 199.212 114.962L172.379 171.726C171.109 174.381 171.592 176.241 176.401 178.509Z" fill="#97A3CC"/>
<path d="M177.953 179.083L205.576 187.077C208.416 187.884 211.711 186.43 212.948 183.832L239.822 126.38C241.047 123.807 239.771 121.062 236.959 120.245L209.567 112.17C206.62 111.314 203.192 112.766 201.925 115.418L174.867 172.704C173.589 175.379 174.977 178.237 177.953 179.083Z" fill="#CAD2EA"/>
</g>
<mask id="mask12_10322_64929" style="mask-type:luminance" maskUnits="userSpaceOnUse" x="56" y="44" width="193" height="197">
<path d="M247.557 148.552C245.227 168.277 214.04 196.284 202.326 210.504C187.229 228.83 164.361 240.514 138.764 240.514C93.3051 240.514 56.4531 203.662 56.4531 158.203C56.4531 112.744 95.3381 44.2744 140.797 44.2744C168.571 44.2744 196.029 82.1704 210.936 103.24C220.428 116.658 253.038 102.156 247.557 148.552Z" fill="white"/>
</mask>
<g mask="url(#mask12_10322_64929)">
<path d="M224.669 161.817C225.167 160.671 225.662 159.535 226.134 158.449C224.301 157.663 221.786 156.265 220.363 155.616C217.301 154.219 214.973 154.008 214.973 154.008L214.207 156.849C214.207 156.849 217.091 157.511 219.583 158.871C221.108 159.705 223.239 160.963 224.669 161.817Z" fill="#FEC0AD"/>
<path d="M226.306 158.052C226.854 156.791 227.358 155.629 227.788 154.637C224.364 152.516 219.511 150.377 219.511 150.377L217.848 152.695C217.848 152.695 221.873 154.884 223.389 156.001C224.146 156.559 225.321 157.375 226.306 158.052Z" fill="#FEC0AD"/>
<path d="M223.065 165.496C223.527 164.435 224.012 163.323 224.501 162.202C222.481 161.553 219.233 160.472 218.008 159.836C216.184 158.889 215.239 158.53 215.239 158.53L214.254 161.119C214.254 161.119 216.707 163.086 220.028 164.282C221.355 164.76 222.307 165.159 223.065 165.496Z" fill="#FEC0AD"/>
<path d="M222.851 165.986C221.147 165.658 218.806 165.138 217.849 164.601C216.269 163.715 215.626 163.678 215.626 163.678L215.168 165.782C215.168 165.782 218.114 167.347 221.508 169.062C221.906 168.155 222.364 167.106 222.851 165.986Z" fill="#FEC0AD"/>
<path d="M219.009 167.786L221.51 169.063L226.134 166.371L229.796 156.007L227.153 150.376L219.009 167.786Z" fill="#FEC0AD"/>
</g>
<mask id="mask13_10322_64929" style="mask-type:luminance" maskUnits="userSpaceOnUse" x="405" y="167" width="246" height="229">
<path d="M473.861 371.737L505.971 387.861C505.971 387.861 515.253 392.899 535.027 394.809C565.373 397.741 596.746 387.587 619.986 364.347C661.261 323.072 661.26 256.153 619.986 214.878C578.711 173.604 481.24 146.743 439.965 188.018C414.748 213.235 424.225 272.573 429.821 305.238C433.383 326.037 348.608 327.903 473.861 371.737Z" fill="white"/>
</mask>
<g mask="url(#mask13_10322_64929)">
<path d="M619.986 364.345C661.26 323.071 661.26 256.152 619.986 214.877C578.711 173.603 511.792 173.603 470.517 214.877C429.243 256.152 429.243 323.071 470.517 364.345C511.792 405.62 578.711 405.62 619.986 364.345Z" fill="#928DC7"/>
</g>
<mask id="mask14_10322_64929" style="mask-type:luminance" maskUnits="userSpaceOnUse" x="412" y="143" width="239" height="253">
<path d="M436.704 297.201L448.008 331.307C448.008 331.307 451.009 341.433 463.641 356.767C483.026 380.298 512.39 395.302 545.257 395.302C603.629 395.302 650.948 347.982 650.948 289.611C650.948 231.239 601.018 143.322 542.646 143.322C506.983 143.322 471.726 191.982 452.585 219.037C440.397 236.263 379.131 177.637 436.704 297.201Z" fill="white"/>
</mask>
<g mask="url(#mask14_10322_64929)">
<path d="M457.585 313.491L485.347 305.965C485.347 305.965 497.368 278.888 505.37 259.192C513.372 239.495 520.926 238.81 520.926 238.81C532.788 249.204 525.762 260.423 525.762 260.423L503.693 321.536L460.496 327.986C459.657 323.135 458.664 318.301 457.585 313.491Z" fill="#FEC1B2"/>
</g>
<mask id="mask15_10322_64929" style="mask-type:luminance" maskUnits="userSpaceOnUse" x="412" y="143" width="239" height="253">
<path d="M436.704 297.201L448.008 331.307C448.008 331.307 451.009 341.433 463.641 356.767C483.026 380.298 512.39 395.302 545.257 395.302C603.629 395.302 650.948 347.982 650.948 289.611C650.948 231.239 601.018 143.322 542.646 143.322C506.983 143.322 471.726 191.982 452.585 219.037C440.397 236.263 379.131 177.637 436.704 297.201Z" fill="white"/>
</mask>
<g mask="url(#mask15_10322_64929)">
<path d="M520.265 275.642C513.274 274.432 506.091 274.275 498.901 274.725C501.142 269.444 503.38 264.09 505.37 259.191C513.372 239.494 520.925 238.809 520.925 238.809C532.787 249.203 525.761 260.422 525.761 260.422L520.265 275.642Z" fill="#7C3AED"/>
</g>
<mask id="mask16_10322_64929" style="mask-type:luminance" maskUnits="userSpaceOnUse" x="412" y="143" width="239" height="253">
<path d="M436.704 297.201L448.008 331.307C448.008 331.307 451.009 341.433 463.641 356.767C483.026 380.298 512.39 395.302 545.257 395.302C603.629 395.302 650.948 347.982 650.948 289.611C650.948 231.239 601.018 143.322 542.646 143.322C506.983 143.322 471.726 191.982 452.585 219.037C440.397 236.263 379.131 177.637 436.704 297.201Z" fill="white"/>
</mask>
<g mask="url(#mask16_10322_64929)">
<path d="M614.256 430.875C614.256 430.875 621.93 410.435 622.057 351.239C622.148 308.456 630.203 274.948 634.241 257.735C635.834 250.946 631.917 244.087 625.267 241.988L620.318 240.426H541.892C541.892 240.426 508.121 300.834 503.692 321.535C499.263 342.236 493.075 427.088 493.075 427.088L614.256 430.875Z" fill="#F2C17C"/>
<path d="M606.527 430.875C606.527 430.875 614.201 410.435 614.328 351.239C614.431 303.108 623.875 263.352 626.803 247.435C627.476 243.778 624.652 240.425 620.934 240.425H534.163C534.163 240.425 500.392 300.833 495.963 321.534C491.534 342.235 485.346 427.087 485.346 427.087L606.527 430.875Z" fill="#F2C17C"/>
<path d="M544.527 359.881L508.12 356.56C508.12 356.56 456.375 379.424 450.703 389.351C445.031 399.278 432.842 407.892 454.633 442.885C476.898 478.639 484.624 526.245 484.624 526.245L481.285 530.932C485.034 532.407 488.822 533.742 492.659 534.932L497.335 530.443C497.335 530.443 494.335 498.067 490.462 475.986C486.59 453.905 483.118 430.105 481.155 414.344C481.155 414.344 505.29 405.054 530.285 405.586C555.279 406.119 554.099 409.033 544.527 359.881Z" fill="url(#paint0_linear_10322_64929)"/>
<path d="M598.802 370.145L524.685 353.805C524.685 353.805 454.018 355.951 448.345 365.878C442.673 375.805 441.757 384.285 433.943 410.953C424.452 443.35 415.611 467.508 410.886 479.747C415.74 480.441 420.582 481.222 425.426 481.988C433.338 469.283 442.45 454.631 448.132 445.427C460.416 425.531 467.287 406.724 472.973 387.228C472.973 387.228 519.809 408.372 544.803 408.904C569.799 409.437 608.375 419.297 598.802 370.145Z" fill="url(#paint1_linear_10322_64929)"/>
<path d="M506.07 401.817L505.504 384.488C505.504 384.488 503.147 359.456 547.002 355.526C559.753 354.384 599.894 370.146 599.894 370.146C599.894 370.146 606.463 392.404 599.121 406.56C591.778 420.715 552.046 401.572 523.161 408.343L506.07 401.817Z" fill="url(#paint2_linear_10322_64929)"/>
</g>
<mask id="mask17_10322_64929" style="mask-type:luminance" maskUnits="userSpaceOnUse" x="412" y="143" width="239" height="253">
<path d="M436.704 297.201L448.008 331.307C448.008 331.307 451.009 341.433 463.641 356.767C483.026 380.298 512.39 395.302 545.257 395.302C603.629 395.302 650.948 347.982 650.948 289.611C650.948 231.239 601.018 143.322 542.646 143.322C506.983 143.322 471.726 191.982 452.585 219.037C440.397 236.263 379.131 177.637 436.704 297.201Z" fill="white"/>
</mask>
<g mask="url(#mask17_10322_64929)">
<path d="M557.87 161.255C555.101 159.884 542.082 159.593 534.268 165.073C519.327 175.551 528.336 201.278 529.665 207.248C530.995 213.219 526.08 224.41 526.601 231.603C527.122 238.796 528.994 241.302 534.784 247.953C536.501 249.926 537.12 253.397 537.12 253.397C537.12 253.397 542.537 244.151 543.069 231.694C543.6 219.236 546.405 221.967 551.785 207.997C557.166 194.027 556.217 173.53 556.217 173.53L557.87 161.255Z" fill="#7A3E3A"/>
</g>
<mask id="mask18_10322_64929" style="mask-type:luminance" maskUnits="userSpaceOnUse" x="412" y="143" width="239" height="253">
<path d="M436.704 297.201L448.008 331.307C448.008 331.307 451.009 341.433 463.641 356.767C483.026 380.298 512.39 395.302 545.257 395.302C603.629 395.302 650.948 347.982 650.948 289.611C650.948 231.239 601.018 143.322 542.646 143.322C506.983 143.322 471.726 191.982 452.585 219.037C440.397 236.263 379.131 177.637 436.704 297.201Z" fill="white"/>
</mask>
<g mask="url(#mask18_10322_64929)">
<path d="M529.665 207.248C529.521 206.601 529.283 205.71 528.999 204.642C527.776 196.75 528.042 189.331 530.378 182.906C530.869 181.555 532.925 175.027 534.867 174.254C539.228 172.518 551.888 172.602 556.247 173.318L556.218 173.53C556.218 173.53 557.167 194.027 551.786 207.997C546.406 221.967 543.601 219.236 543.07 231.694C542.539 244.152 537.121 253.397 537.121 253.397C537.121 253.397 536.502 249.925 534.785 247.953C528.995 241.302 527.124 238.796 526.602 231.603C526.081 224.41 530.995 213.219 529.665 207.248Z" fill="#7A3E3A"/>
</g>
<mask id="mask19_10322_64929" style="mask-type:luminance" maskUnits="userSpaceOnUse" x="412" y="143" width="239" height="253">
<path d="M436.704 297.201L448.008 331.307C448.008 331.307 451.009 341.433 463.641 356.767C483.026 380.298 512.39 395.302 545.257 395.302C603.629 395.302 650.948 347.982 650.948 289.611C650.948 231.239 601.018 143.322 542.646 143.322C506.983 143.322 471.726 191.982 452.585 219.037C440.397 236.263 379.131 177.637 436.704 297.201Z" fill="white"/>
</mask>
<g mask="url(#mask19_10322_64929)">
<path d="M545.499 170.899L557.871 161.256C557.871 161.256 568.806 159.123 575.788 168.545C582.771 177.967 581.466 192.317 583.542 202.897C585.618 213.477 597.874 224.178 598.092 232.147C598.31 240.117 585.793 250.615 585.793 250.615L552.545 238.53C552.545 238.53 555.362 221.257 550.742 203.305C546.123 185.352 545.499 170.899 545.499 170.899Z" fill="#7A3E3A"/>
</g>
<mask id="mask20_10322_64929" style="mask-type:luminance" maskUnits="userSpaceOnUse" x="412" y="143" width="239" height="253">
<path d="M436.704 297.201L448.008 331.307C448.008 331.307 451.009 341.433 463.641 356.767C483.026 380.298 512.39 395.302 545.257 395.302C603.629 395.302 650.948 347.982 650.948 289.611C650.948 231.239 601.018 143.322 542.646 143.322C506.983 143.322 471.726 191.982 452.585 219.037C440.397 236.263 379.131 177.637 436.704 297.201Z" fill="white"/>
</mask>
<g mask="url(#mask20_10322_64929)">
<path d="M534.867 174.256C534.434 178.329 532.015 190.364 532.157 197.982C532.298 205.6 533.952 218.069 539.192 221.223C544.433 224.378 553.72 221.055 560.467 217.781C567.214 214.506 568.596 209.552 569.68 205.01C570.765 200.468 569.581 188.652 567.494 180.257C565.408 171.862 559.151 172.586 552.836 171.788C546.522 170.99 534.867 174.256 534.867 174.256Z" fill="#FEC1B2"/>
</g>
<mask id="mask21_10322_64929" style="mask-type:luminance" maskUnits="userSpaceOnUse" x="412" y="143" width="239" height="253">
<path d="M436.704 297.201L448.008 331.307C448.008 331.307 451.009 341.433 463.641 356.767C483.026 380.298 512.39 395.302 545.257 395.302C603.629 395.302 650.948 347.982 650.948 289.611C650.948 231.239 601.018 143.322 542.646 143.322C506.983 143.322 471.726 191.982 452.585 219.037C440.397 236.263 379.131 177.637 436.704 297.201Z" fill="white"/>
</mask>
<g mask="url(#mask21_10322_64929)">
<path d="M564.823 200.847C564.823 200.847 564.181 219.841 568.685 228.495C571.793 234.466 583.054 236.404 583.054 236.404C583.054 236.404 584.485 253.369 574.32 270.437C564.155 287.505 529.666 295.656 529.666 295.656C529.666 295.656 530.275 291.25 525.762 276.119C521.249 260.988 523.837 238.81 523.837 238.81C523.837 238.81 531.282 236.025 535.701 234.052C546.435 229.261 544.107 211.882 544.107 211.882L564.823 200.847Z" fill="#FEC1B2"/>
</g>
<mask id="mask22_10322_64929" style="mask-type:luminance" maskUnits="userSpaceOnUse" x="412" y="143" width="239" height="253">
<path d="M436.704 297.201L448.008 331.307C448.008 331.307 451.009 341.433 463.641 356.767C483.026 380.298 512.39 395.302 545.257 395.302C603.629 395.302 650.948 347.982 650.948 289.611C650.948 231.239 601.018 143.322 542.646 143.322C506.983 143.322 471.726 191.982 452.585 219.037C440.397 236.263 379.131 177.637 436.704 297.201Z" fill="white"/>
</mask>
<g mask="url(#mask22_10322_64929)">
<path d="M543.242 265.855C562.932 268.001 568.45 238.823 574.959 234.023L591.279 237.541C591.279 237.541 594.818 274.473 591.534 291.969C591.534 291.969 582.288 318.013 599.242 370.017C599.242 370.017 598.094 382.244 576.732 376.25C558.344 371.09 554.271 365.592 538.249 362.532C514.595 358.014 514.621 352.751 514.621 352.751C525.762 333.63 519.644 313.73 519.644 313.73C519.644 313.73 504.974 301.276 510.111 287.347C517.527 267.238 520.925 238.809 520.925 238.809L535.7 234.051C535.7 234.051 518.743 263.184 543.242 265.855Z" fill="#7C3AED"/>
</g>
<mask id="mask23_10322_64929" style="mask-type:luminance" maskUnits="userSpaceOnUse" x="412" y="143" width="239" height="253">
<path d="M436.704 297.201L448.008 331.307C448.008 331.307 451.009 341.433 463.641 356.767C483.026 380.298 512.39 395.302 545.257 395.302C603.629 395.302 650.948 347.982 650.948 289.611C650.948 231.239 601.018 143.322 542.646 143.322C506.983 143.322 471.726 191.982 452.585 219.037C440.397 236.263 379.131 177.637 436.704 297.201Z" fill="white"/>
</mask>
<g mask="url(#mask23_10322_64929)">
<path d="M552.836 171.786C555.021 171.796 557.242 178.007 557.805 183.738C558.368 189.469 567.236 193.486 564.196 206.349C561.155 219.212 562.397 231.383 558.137 245.535C553.877 259.687 566.993 261.25 570.026 265.853C570.026 265.853 567.968 259.278 571.294 253.08C576.628 243.142 576.731 234.521 576.731 234.521C576.731 234.521 573.653 211.003 573.695 202.264C573.736 193.524 574.481 180.138 567.076 172.603C559.672 165.07 552.836 171.786 552.836 171.786Z" fill="#7A3E3A"/>
</g>
<mask id="mask24_10322_64929" style="mask-type:luminance" maskUnits="userSpaceOnUse" x="412" y="143" width="239" height="253">
<path d="M436.704 297.201L448.008 331.307C448.008 331.307 451.009 341.433 463.641 356.767C483.026 380.298 512.39 395.302 545.257 395.302C603.629 395.302 650.948 347.982 650.948 289.611C650.948 231.239 601.018 143.322 542.646 143.322C506.983 143.322 471.726 191.982 452.585 219.037C440.397 236.263 379.131 177.637 436.704 297.201Z" fill="white"/>
</mask>
<g mask="url(#mask24_10322_64929)">
<path d="M572.195 232.144C569.605 234.024 572.088 245.095 573.566 254.328C573.566 254.328 585.509 244.022 591.279 237.541C595.1 233.248 578.108 219.241 578.108 219.241L572.195 232.144Z" fill="#7A3E3A"/>
</g>
<mask id="mask25_10322_64929" style="mask-type:luminance" maskUnits="userSpaceOnUse" x="412" y="143" width="239" height="253">
<path d="M436.704 297.201L448.008 331.307C448.008 331.307 451.009 341.433 463.641 356.767C483.026 380.298 512.39 395.302 545.257 395.302C603.629 395.302 650.948 347.982 650.948 289.611C650.948 231.239 601.018 143.322 542.646 143.322C506.983 143.322 471.726 191.982 452.585 219.037C440.397 236.263 379.131 177.637 436.704 297.201Z" fill="white"/>
</mask>
<g mask="url(#mask25_10322_64929)">
<path d="M520.14 322.645C522.335 322.33 536.18 323.495 538.927 322.97C559.01 319.136 560.721 315.86 572.014 311.234C572.014 311.234 577.308 285.561 578.601 274.774C580.753 256.819 589.351 238.947 598.766 241.216C609.027 243.688 609.891 253.825 600.41 283.61C597.032 294.221 590.097 324.085 586.939 325.607C583.781 327.129 554.993 330.237 540.907 330.237L505.198 332.684C509.698 329.672 514.827 325.64 520.14 322.645Z" fill="#FEC1B2"/>
</g>
<mask id="mask26_10322_64929" style="mask-type:luminance" maskUnits="userSpaceOnUse" x="412" y="143" width="239" height="253">
<path d="M436.704 297.201L448.008 331.307C448.008 331.307 451.009 341.433 463.641 356.767C483.026 380.298 512.39 395.302 545.257 395.302C603.629 395.302 650.948 347.982 650.948 289.611C650.948 231.239 601.018 143.322 542.646 143.322C506.983 143.322 471.726 191.982 452.585 219.037C440.397 236.263 379.131 177.637 436.704 297.201Z" fill="white"/>
</mask>
<g mask="url(#mask26_10322_64929)">
<path d="M575.558 277.347C580.114 259.404 586.752 235.286 596.224 237.613C606.367 240.105 614.218 247.068 602.052 283.565C592.326 281.489 583.845 280.13 575.558 277.347Z" fill="#7C3AED"/>
</g>
<mask id="mask27_10322_64929" style="mask-type:luminance" maskUnits="userSpaceOnUse" x="412" y="143" width="239" height="253">
<path d="M436.704 297.201L448.008 331.307C448.008 331.307 451.009 341.433 463.641 356.767C483.026 380.298 512.39 395.302 545.257 395.302C603.629 395.302 650.948 347.982 650.948 289.611C650.948 231.239 601.018 143.322 542.646 143.322C506.983 143.322 471.726 191.982 452.585 219.037C440.397 236.263 379.131 177.637 436.704 297.201Z" fill="white"/>
</mask>
<g mask="url(#mask27_10322_64929)">
<path d="M539.302 328.693H517.318L495.335 251.774H508.827C510.758 251.774 512.48 252.991 513.125 254.811L539.302 328.693Z" fill="#CAD2EA"/>
<path d="M532.991 328.693H447.193L423.14 257.072C422.266 254.469 424.203 251.775 426.949 251.775H506.727C509.261 251.775 511.489 253.455 512.185 255.892L532.991 328.693Z" fill="#CAD2EA"/>
<path d="M545.614 326.949H447.193V332.687H545.614V326.949Z" fill="#AEB5C9"/>
<path d="M594.825 326.949H545.614V332.687H594.825V326.949Z" fill="#CAD2EA"/>
<path d="M485.87 293.976C488.353 299.864 486.605 306.224 481.966 308.18C477.327 310.136 471.553 306.949 469.07 301.061C466.587 295.173 468.335 288.814 472.974 286.857C477.613 284.9 483.387 288.087 485.87 293.976Z" fill="#CAD2EA"/>
</g>
<mask id="mask28_10322_64929" style="mask-type:luminance" maskUnits="userSpaceOnUse" x="412" y="143" width="239" height="253">
<path d="M436.704 297.201L448.008 331.307C448.008 331.307 451.009 341.433 463.641 356.767C483.026 380.298 512.39 395.302 545.257 395.302C603.629 395.302 650.948 347.982 650.948 289.611C650.948 231.239 601.018 143.322 542.646 143.322C506.983 143.322 471.726 191.982 452.585 219.037C440.397 236.263 379.131 177.637 436.704 297.201Z" fill="white"/>
</mask>
<g mask="url(#mask28_10322_64929)">
<path d="M676.927 331.307H324.345V342.438H676.927V331.307Z" fill="url(#paint3_linear_10322_64929)"/>
<path d="M682.245 331.307H558.792V342.438H682.245V331.307Z" fill="url(#paint4_linear_10322_64929)"/>
</g>
<mask id="mask29_10322_64929" style="mask-type:luminance" maskUnits="userSpaceOnUse" x="53" y="259" width="178" height="177">
<path d="M142.144 259.126C93.4136 259.126 53.9099 298.629 53.9099 347.36C53.9099 396.09 93.4136 435.594 142.144 435.594C190.874 435.594 230.378 396.09 230.378 347.36C230.378 298.629 190.874 259.126 142.144 259.126Z" fill="white"/>
</mask>
<g mask="url(#mask29_10322_64929)">
<path d="M41.3049 445.835H242.982L242.982 244.158L41.3049 244.158L41.3049 445.835Z" fill="#928DC7"/>
</g>
<mask id="mask30_10322_64929" style="mask-type:luminance" maskUnits="userSpaceOnUse" x="53" y="254" width="178" height="177">
<path d="M142.143 430.867C190.873 430.867 230.377 391.364 230.377 342.633C230.377 293.903 190.873 254.399 142.143 254.399C93.4129 254.399 53.9092 293.903 53.9092 342.633C53.9092 391.364 93.4129 430.867 142.143 430.867Z" fill="white"/>
</mask>
<g mask="url(#mask30_10322_64929)">
<path d="M177.895 399.27C177.617 403.968 179.7 413.861 184.706 413.014C189.711 412.166 191.412 402.738 190.432 393.532C189.452 384.326 181.767 378.916 179.441 386.021C177.115 393.125 178.052 396.611 177.895 399.27Z" fill="#C05141"/>
<path d="M181.659 403.303C181.659 403.303 189.948 395.359 194.382 391.191C201.344 384.646 209.899 376.957 209.899 376.957L202.542 371.23C202.542 371.23 193.548 376.276 183.827 381.133C177.742 384.173 175.395 388.353 175.327 394.352C175.254 400.689 179.614 404.04 181.659 403.303Z" fill="#FFD0C5"/>
<path d="M160.393 347.157C160.46 346.018 160.442 333.438 160.442 333.438C160.442 333.438 169.379 337.016 172.393 344.055C175.407 351.094 177.746 376.009 178.593 381.014C179.441 386.019 179.441 386.02 179.441 386.02L186.123 382.602C186.123 382.602 180.644 397.906 181.357 405.191C182.07 412.475 184.706 413.013 184.706 413.013C184.706 413.013 170.494 414.841 168.44 410.908C166.386 406.975 159.397 389.79 157.479 377.098C155.562 364.405 160.393 347.157 160.393 347.157Z" fill="#6D68CF"/>
<path d="M160.267 322.957C156.411 326.989 151.158 328.348 148.441 328.477C146.878 321.758 144.549 322.401 139.391 312.279C133.454 300.627 132.426 282.733 132.426 282.733L129.881 272.216C132.163 270.774 143.449 269.345 150.734 273.401C164.663 281.155 159.16 304.322 158.544 309.63C158.253 312.131 159.092 319.423 160.267 322.957Z" fill="#7A3E3A"/>
<path d="M132.281 282.134C135.971 282.761 139.651 283.453 143.318 284.251C145.724 284.775 148.139 284.382 150.277 283.364C155.968 291.793 156.071 296.985 158.733 308.285C158.653 308.805 158.585 309.268 158.543 309.632C158.253 312.133 159.092 319.425 160.266 322.959C156.851 327.84 148.808 331.886 144.673 328.479C143.11 321.76 144.548 322.403 139.39 312.281C133.453 300.629 132.425 282.735 132.425 282.735L132.281 282.134Z" fill="#562715"/>
<path d="M129.654 332.675C117.303 329.516 112.367 329.106 111.337 315.021C110.649 305.628 109.199 288.432 114.414 279.614C119.63 270.796 129.881 272.216 129.881 272.216L141.502 279.477C141.502 279.477 142.265 292.092 139.874 308.108C138.611 316.57 128.88 326.908 129.654 332.675Z" fill="#7A3E3A"/>
<path d="M126.15 304.276C126.15 304.276 127.36 320.834 123.724 328.541C121.215 333.859 113.575 336.646 113.575 336.646C113.575 336.646 110.782 350.794 120.239 365.344C129.696 379.895 160.079 385.832 160.079 385.832C160.079 385.832 161.104 383.991 164.527 370.63C167.949 357.268 157.03 336.102 157.03 336.102C157.03 336.102 156.631 333.835 152.706 332.264C143.172 328.449 144.611 313.2 144.611 313.2L126.15 304.276Z" fill="#FEC0AD"/>
<path d="M149.723 330.434C139.055 336.811 126.339 338.777 113.338 338.466C113.447 337.3 113.575 336.646 113.575 336.646C113.575 336.646 121.215 333.86 123.724 328.541C127.36 320.834 126.15 304.276 126.15 304.276L144.61 313.2C144.61 313.2 143.501 324.997 149.723 330.434Z" fill="#E8B09E"/>
<path d="M151.043 281.433C151.787 284.933 154.378 295.073 154.944 301.706C155.227 305.022 154.305 310.084 153.451 314.06C152.597 318.036 150.698 321.142 148.564 322.749C146.642 324.197 144.37 324.058 141.64 323.835C138.309 323.562 136.118 322.793 132.733 321.564C126.574 319.328 124.926 315.149 123.574 311.3C122.222 307.452 122.183 297.078 123.237 289.595C124.291 282.112 128.873 278.915 134.288 277.652C139.701 276.388 151.043 281.433 151.043 281.433Z" fill="#FEC0AD"/>
<path d="M128.191 300.327C128.191 300.327 123.954 296.079 121.316 296.872C118.678 297.665 118.686 301.672 120.861 304.86C123.037 308.048 130.638 309.567 130.638 309.567L128.191 300.327Z" fill="#FEC0AD"/>
<path d="M133.325 280.023C137.004 280.194 140.944 285.157 147.533 288.476C154.123 291.795 158.901 290.586 158.901 290.586L155.594 278.524C155.594 278.524 146.783 273.642 140.775 274.455C134.766 275.27 133.325 280.023 133.325 280.023Z" fill="#7A3E3A"/>
<path d="M131.91 311.97C132.788 320.854 133.44 325.845 141.459 332.591C134.273 333.861 123.75 332.349 120.271 329.152C120.328 322.679 120.289 313.439 119.837 309.28C119.011 301.69 111.504 288.826 128.118 277.69C135.784 272.552 139.898 280.385 139.898 280.385C138 280.59 130.32 295.88 131.91 311.97Z" fill="#7A3E3A"/>
<path d="M178.468 439.883C153.916 442.716 129.422 442.816 105.095 439.998C106.923 428.832 113.004 404.608 113.322 395.452C113.863 379.856 100.708 342.836 100.708 342.836L116.005 334.497C116.005 334.497 129.158 347.681 140.621 348.13C161.392 348.945 154.531 332.239 154.531 332.239L160.442 333.438C160.442 333.438 165.665 354.69 169.774 362.556C173.883 370.422 173.454 379.844 171.576 385.832C170.417 389.525 175.765 420.8 178.468 439.883Z" fill="#6D68CF"/>
<path d="M203.086 385.727L191.075 387.727C189.953 387.914 189.233 387.09 189.467 385.888L195.015 357.344C195.249 356.141 196.348 355.015 197.469 354.828L209.48 352.828C210.602 352.641 213.608 353.761 213.375 354.964L205.54 383.212C205.307 384.414 204.208 385.54 203.086 385.727Z" fill="#B7C7F7"/>
<path d="M205.35 386.68L193.339 388.68C192.217 388.867 191.497 388.043 191.731 386.841L197.28 358.297C197.514 357.094 198.613 355.968 199.734 355.781L211.745 353.781C212.867 353.594 213.586 354.418 213.353 355.621L207.805 384.165C207.571 385.367 206.472 386.493 205.35 386.68Z" fill="#97A3CC"/>
<path d="M136.264 413.579C137.125 416.164 139.423 421.389 143.065 421.033C146.707 420.677 146.464 411.895 145.851 406.142C145.238 400.388 144.323 396.522 141.362 398.253C138.402 399.983 135.616 411.635 136.264 413.579Z" fill="#C05141"/>
<path d="M126.435 405.755C130.011 403.298 141.363 398.252 141.363 398.252C141.363 398.252 161.439 394.985 167.642 392.183C171.558 390.413 180.828 383.529 184.516 379.173C188.204 374.817 191.433 373.388 194.763 371.87C198.093 370.352 200.853 368.8 201.344 370.163C201.835 371.526 200.058 372.565 198.472 373.614C196.885 374.664 192.315 377.824 190.918 378.885C189.521 379.946 190.18 381.7 190.18 381.7C190.18 381.7 192.28 381.634 194.749 381.78C197.218 381.926 203.128 381.894 203.608 383.447C204.088 385 200.39 386.306 197.742 385.959C195.094 385.612 192.178 386.583 192.178 386.583C192.178 386.583 193.999 388.025 197.25 387.836C200.501 387.647 201.428 388.083 200.791 389.189C200.154 390.295 197.227 391.456 197.227 391.456C197.227 391.456 198.467 393.054 196.69 394.093C194.913 395.131 190.623 396.784 187.964 396.626C185.305 396.469 178.321 401.773 173.953 401.515C169.585 401.257 150.388 413.272 141.036 416.721C131.684 420.17 117.439 422.568 117.439 422.568L126.435 405.755Z" fill="#FFD0C5"/>
<path d="M103.009 341.685C96.0871 344.268 96.0041 353.445 96.4381 363.336C97.1091 378.66 104.68 415.066 107.761 420.966C110.843 426.866 116.542 424.801 122.687 424.021C128.832 423.241 143.066 421.033 143.066 421.033C143.066 421.033 140.553 418.407 140.288 410.005C140.022 401.604 141.364 398.252 141.364 398.252L123.087 400.894C123.087 400.894 120.021 384.28 119.619 374.768C119.216 365.257 117.454 336.295 103.009 341.685Z" fill="#6D68CF"/>
<path d="M214.418 358.547C211.774 358.72 208.753 360.88 207.859 363.114C206.965 365.348 208.104 365.415 209.255 365.293C210.406 365.171 211.545 365.238 211.545 365.238C211.545 365.238 209.5 367.595 207.153 368.599C204.807 369.604 203.387 371.044 204.437 372.631C205.487 374.218 205.889 373.86 207.453 373.191C207.453 373.191 205.251 374.967 206.279 376.933C207.306 378.9 209.899 376.956 209.899 376.956C209.899 376.956 207.34 378.329 207.988 380.274C208.635 382.218 210.267 380.409 212.01 379.94C213.753 379.471 216.413 376.389 216.313 374.858C216.213 373.327 216.113 371.797 216.113 371.797C216.113 371.797 216.583 370.3 216.695 368.401C216.807 366.502 216.807 366.502 216.807 366.502L215.992 364.167C215.992 364.167 217.479 358.347 214.418 358.547Z" fill="#FFD0C5"/>
</g>
<path opacity="0.39" d="M15.9412 83.374H76.2112C82.7992 83.374 88.1402 88.715 88.1402 95.303V113.023C88.1402 119.611 82.7992 124.952 76.2112 124.952H63.6692C65.8522 128.73 69.7122 133.889 74.8762 138.111C75.6532 138.746 74.9722 139.977 74.0202 139.66C68.8112 137.924 53.4522 133.524 46.0762 124.952H15.9412C9.3532 124.952 4.01221 119.611 4.01221 113.023V95.303C4.01221 88.715 9.3532 83.374 15.9412 83.374Z" fill="#7385C9"/>
<path d="M22.2352 78.708H82.5051C89.0931 78.708 94.4342 84.049 94.4342 90.637V108.357C94.4342 114.945 89.0931 120.286 82.5051 120.286H69.9622C72.1451 124.064 76.0051 129.223 81.1692 133.445C81.9462 134.08 81.2652 135.311 80.3131 134.994C75.1041 133.257 59.7451 128.858 52.3691 120.286H22.2352C15.6472 120.286 10.3062 114.945 10.3062 108.357V90.637C10.3052 84.049 15.6462 78.708 22.2352 78.708Z" fill="#6D68CF"/>
<path d="M69.0022 99.2857C69.0022 101.393 70.7102 103.102 72.8182 103.102C74.9252 103.102 76.6342 101.394 76.6342 99.2857C76.6342 97.1777 74.9262 95.4697 72.8182 95.4697C70.7102 95.4697 69.0022 97.1787 69.0022 99.2857Z" fill="white"/>
<path d="M48.5542 99.2857C48.5542 101.393 50.2622 103.102 52.3702 103.102C54.4772 103.102 56.1862 101.394 56.1862 99.2857C56.1862 97.1777 54.4782 95.4697 52.3702 95.4697C50.2622 95.4697 48.5542 97.1787 48.5542 99.2857Z" fill="white"/>
<path d="M28.1062 99.2857C28.1062 101.393 29.8142 103.102 31.9222 103.102C34.0292 103.102 35.7382 101.394 35.7382 99.2857C35.7382 97.1777 34.0302 95.4697 31.9222 95.4697C29.8142 95.4697 28.1062 97.1787 28.1062 99.2857Z" fill="white"/>
<path opacity="0.39" d="M13.4352 288.076H74.9262C81.6482 288.076 87.0972 293.525 87.0972 300.247V318.326C87.0972 325.048 81.6482 330.497 74.9262 330.497H62.1292C64.3562 334.352 68.2952 339.614 73.5642 343.923C74.3572 344.571 73.6622 345.827 72.6912 345.503C67.3772 343.731 51.7062 339.243 44.1812 330.497H13.4352C6.71316 330.497 1.26416 325.048 1.26416 318.326V300.247C1.26416 293.525 6.71316 288.076 13.4352 288.076Z" fill="#7385C9"/>
<path d="M19.8561 283.316H81.3471C88.0691 283.316 93.5181 288.765 93.5181 295.487V313.566C93.5181 320.288 88.0691 325.737 81.3471 325.737H68.5501C70.7771 329.592 74.7161 334.855 79.9841 339.163C80.7771 339.811 80.0821 341.067 79.1111 340.743C73.7971 338.971 58.1261 334.483 50.6011 325.737H19.8561C13.1341 325.737 7.68506 320.288 7.68506 313.566V295.487C7.68506 288.765 13.1341 283.316 19.8561 283.316Z" fill="#E8A748"/>
<path d="M71.4633 308.203C73.6134 308.203 75.3563 306.46 75.3563 304.31C75.3563 302.16 73.6134 300.417 71.4633 300.417C69.3133 300.417 67.5703 302.16 67.5703 304.31C67.5703 306.46 69.3133 308.203 71.4633 308.203Z" fill="white"/>
<path d="M50.6012 308.203C52.7513 308.203 54.4942 306.46 54.4942 304.31C54.4942 302.16 52.7513 300.417 50.6012 300.417C48.4512 300.417 46.7083 302.16 46.7083 304.31C46.7083 306.46 48.4512 308.203 50.6012 308.203Z" fill="white"/>
<path d="M29.7392 308.203C31.8892 308.203 33.6322 306.46 33.6322 304.31C33.6322 302.16 31.8892 300.417 29.7392 300.417C27.5891 300.417 25.8462 302.16 25.8462 304.31C25.8462 306.46 27.5891 308.203 29.7392 308.203Z" fill="white"/>
<path opacity="0.39" d="M673.489 122.088H605.268C597.811 122.088 591.765 128.133 591.765 135.591V155.649C591.765 163.106 597.81 169.152 605.268 169.152H619.465C616.995 173.429 612.625 179.267 606.779 184.047C605.899 184.766 606.67 186.16 607.748 185.8C613.644 183.834 631.029 178.855 639.378 169.152H673.488C680.945 169.152 686.991 163.107 686.991 155.649V135.591C686.992 128.133 680.946 122.088 673.489 122.088Z" fill="#7385C9"/>
<path d="M666.366 116.807H598.145C590.688 116.807 584.642 122.852 584.642 130.31V150.367C584.642 157.824 590.687 163.87 598.145 163.87H612.342C609.871 168.147 605.501 173.985 599.656 178.765C598.776 179.484 599.547 180.878 600.625 180.518C606.521 178.552 623.906 173.573 632.255 163.87H666.365C673.822 163.87 679.868 157.825 679.868 150.367V130.309C679.868 122.852 673.823 116.807 666.366 116.807Z" fill="#6D68CF"/>
<path d="M609.11 144.417C611.495 144.417 613.429 142.484 613.429 140.098C613.429 137.713 611.495 135.779 609.11 135.779C606.725 135.779 604.791 137.713 604.791 140.098C604.791 142.484 606.725 144.417 609.11 144.417Z" fill="white"/>
<path d="M636.574 140.098C636.574 142.483 634.64 144.417 632.255 144.417C629.87 144.417 627.936 142.483 627.936 140.098C627.936 137.713 629.87 135.779 632.255 135.779C634.64 135.779 636.574 137.713 636.574 140.098Z" fill="white"/>
<path d="M655.4 144.417C657.785 144.417 659.719 142.484 659.719 140.098C659.719 137.713 657.785 135.779 655.4 135.779C653.015 135.779 651.081 137.713 651.081 140.098C651.081 142.484 653.015 144.417 655.4 144.417Z" fill="white"/>
<defs>
<linearGradient id="paint0_linear_10322_64929" x1="562.735" y1="506.682" x2="476.531" y2="400.675" gradientUnits="userSpaceOnUse">
<stop stop-color="#304260"/>
<stop offset="1" stop-color="#272438"/>
</linearGradient>
<linearGradient id="paint1_linear_10322_64929" x1="442.397" y1="473.539" x2="574.032" y2="324.431" gradientUnits="userSpaceOnUse">
<stop stop-color="#304260"/>
<stop offset="1" stop-color="#272438"/>
</linearGradient>
<linearGradient id="paint2_linear_10322_64929" x1="611.957" y1="458.505" x2="537.604" y2="367.071" gradientUnits="userSpaceOnUse">
<stop stop-color="#304260"/>
<stop offset="1" stop-color="#272438"/>
</linearGradient>
<linearGradient id="paint3_linear_10322_64929" x1="676.927" y1="336.872" x2="324.345" y2="336.872" gradientUnits="userSpaceOnUse">
<stop stop-color="#E3E2E6"/>
<stop offset="0.4492" stop-color="#CFD3E4"/>
<stop offset="1" stop-color="#BBC3E2"/>
</linearGradient>
<linearGradient id="paint4_linear_10322_64929" x1="682.245" y1="336.872" x2="558.793" y2="336.872" gradientUnits="userSpaceOnUse">
<stop stop-color="#E3E2E6"/>
<stop offset="0.4492" stop-color="#CFD3E4"/>
<stop offset="1" stop-color="#BBC3E2"/>
</linearGradient>
</defs>
</svg>
