<svg width="530" height="442" viewBox="0 0 530 442" fill="none" xmlns="http://www.w3.org/2000/svg">
<path d="M528.385 432.283H1.60938V435.579H528.385V432.283Z" fill="#6D68CF"/>
<path d="M3.22268 433.929H0V441.906H3.22268V433.929Z" fill="#6D68CF"/>
<path d="M38.3399 433.929H35.1172V441.906H38.3399V433.929Z" fill="#6D68CF"/>
<path d="M73.4024 433.929H70.1797V441.906H73.4024V433.929Z" fill="#6D68CF"/>
<path d="M108.543 433.929H105.32V441.906H108.543V433.929Z" fill="#6D68CF"/>
<path d="M143.652 433.929H140.43V441.906H143.652V433.929Z" fill="#6D68CF"/>
<path d="M178.801 433.929H175.578V441.906H178.801V433.929Z" fill="#6D68CF"/>
<path d="M213.926 433.929H210.703V441.906H213.926V433.929Z" fill="#6D68CF"/>
<path d="M249.051 433.929H245.828V441.906H249.051V433.929Z" fill="#6D68CF"/>
<path d="M284.145 433.929H280.922V441.906H284.145V433.929Z" fill="#6D68CF"/>
<path d="M319.293 433.929H316.07V441.906H319.293V433.929Z" fill="#6D68CF"/>
<path d="M354.426 433.929H351.203V441.906H354.426V433.929Z" fill="#6D68CF"/>
<path d="M389.551 433.929H386.328V441.906H389.551V433.929Z" fill="#6D68CF"/>
<path d="M424.598 433.929H421.375V441.906H424.598V433.929Z" fill="#6D68CF"/>
<path d="M459.723 433.929H456.5V441.906H459.723V433.929Z" fill="#6D68CF"/>
<path d="M494.879 433.929H491.656V441.906H494.879V433.929Z" fill="#6D68CF"/>
<path d="M529.996 433.929H526.773V441.906H529.996V433.929Z" fill="#6D68CF"/>
<path d="M19.1328 427.467H510.846V357.982L476.041 289.156C475.824 288.674 475.672 288.164 475.59 287.64L444.652 83.601C444.652 82.5869 444.259 81.6143 443.558 80.8973C442.857 80.1802 441.906 79.7773 440.914 79.7773C439.923 79.7773 438.972 80.1802 438.271 80.8973C437.57 81.6143 437.176 82.5869 437.176 83.601L405.723 332.667C405.563 333.878 404.965 334.984 404.047 335.765L373.754 359.762C373.321 360.096 372.819 360.324 372.287 360.429C371.754 360.533 371.205 360.511 370.683 360.365C370.16 360.218 369.677 359.951 369.27 359.584C368.864 359.216 368.546 358.759 368.34 358.246L337.789 293.771C337.568 293.161 337.187 292.624 336.689 292.22C336.19 291.815 335.593 291.558 334.962 291.477C334.331 291.395 333.69 291.492 333.109 291.757C332.528 292.022 332.029 292.445 331.666 292.98L300.084 334.645L264.957 380.792L229.894 334.645L198.893 293.837C198.496 293.232 197.93 292.763 197.269 292.491C196.608 292.22 195.882 292.158 195.187 292.315C194.491 292.471 193.857 292.839 193.369 293.369C192.88 293.899 192.559 294.568 192.447 295.287L159.512 399.515L124.643 213.803L89.5155 418.172L54.3887 390.351L26.6094 309.593C26.286 308.712 25.6614 307.981 24.8513 307.535C24.0413 307.089 23.1005 306.959 22.2036 307.168C21.3067 307.377 20.5144 307.912 19.9735 308.673C19.4325 309.434 19.1796 310.37 19.2616 311.307L19.1328 427.467Z" fill="#F2C17C"/>
<path d="M514.041 430.766H15.8824V311.375C15.8033 309.576 16.3584 307.808 17.4467 306.392C18.535 304.977 20.0841 304.008 21.812 303.662C23.4519 303.381 25.1357 303.722 26.5476 304.62C27.9596 305.518 29.0028 306.912 29.4819 308.54L56.9391 388.376L87.1031 412.241L124.615 195.676L160.644 386.464L189.713 294.169C190.087 292.893 190.796 291.745 191.761 290.851C192.727 289.956 193.913 289.348 195.191 289.093C196.4 288.857 197.648 288.98 198.79 289.448C199.933 289.915 200.92 290.707 201.636 291.73L265.123 375.586L329.576 290.873C330.28 289.935 331.205 289.194 332.264 288.722C333.324 288.249 334.483 288.059 335.634 288.17C336.811 288.323 337.93 288.778 338.888 289.492C339.846 290.207 340.611 291.158 341.113 292.257L371.664 356.732L374.178 359.698L372.179 357.127L402.537 333.065C402.756 332.831 402.892 332.529 402.924 332.208L433.99 83.3396C434.161 81.5717 434.956 79.9279 436.224 78.7149C437.493 77.5019 439.151 76.8024 440.887 76.7471C442.638 76.7722 444.318 77.4598 445.604 78.6771C446.889 79.8944 447.688 81.5553 447.847 83.3396L478.721 287.379L514.041 357.457V430.766ZM22.3277 424.174H507.596V358.776L473.177 290.938C472.794 290.149 472.533 289.304 472.404 288.433L441.467 84.0648C441.467 83.6033 441.467 83.1418 440.887 83.1418C440.306 83.1418 440.435 83.1419 440.371 84.1308L408.918 333.197C408.628 335.263 407.593 337.144 406.017 338.471L375.724 362.467C374.948 363.105 374.037 363.55 373.064 363.767C372.092 363.985 371.083 363.968 370.117 363.72C369.098 363.451 368.149 362.958 367.337 362.275C366.524 361.591 365.867 360.735 365.412 359.764L334.861 295.29L331.638 293.048L334.216 295.092L264.929 386.53L196.351 296.015C195.965 296.015 195.771 296.015 195.578 296.41L158.839 412.9L124.615 232.001L91.6149 424.174L51.525 392.397L23.359 310.716C23.359 310.716 23.359 310.123 22.9078 310.123C22.4566 310.123 22.3277 310.518 22.3277 311.309V424.174Z" fill="#6D68CF"/>
<path d="M510.846 427.598H19.1328V367.803L53.873 308.471C54.1266 308.069 54.3019 307.622 54.3887 307.152L85.3261 131.659C85.4889 130.766 85.9518 129.96 86.6346 129.38C87.3173 128.8 88.1769 128.482 89.0645 128.482C89.9521 128.482 90.8118 128.8 91.4945 129.38C92.1772 129.96 92.64 130.766 92.8027 131.659L124.256 345.85C124.324 346.39 124.51 346.908 124.8 347.364C125.09 347.821 125.477 348.205 125.932 348.487L156.225 369.122C156.659 369.418 157.149 369.619 157.663 369.713C158.177 369.807 158.704 369.791 159.212 369.667C159.72 369.544 160.198 369.315 160.615 368.994C161.033 368.673 161.381 368.268 161.639 367.803L192.125 312.426C192.419 311.889 192.833 311.431 193.334 311.09C193.835 310.749 194.408 310.534 195.005 310.463C195.603 310.392 196.209 310.468 196.772 310.683C197.336 310.898 197.842 311.247 198.248 311.701L229.895 347.564L264.957 387.119L300.084 347.564L331.022 312.426C331.458 311.915 332.017 311.53 332.644 311.309C333.271 311.087 333.944 311.037 334.595 311.164C335.247 311.291 335.854 311.589 336.358 312.031C336.862 312.472 337.244 313.04 337.467 313.679L370.403 403.337H405.529L440.656 419.291L475.783 395.36L503.563 325.941C503.885 325.091 504.489 324.385 505.268 323.944C506.048 323.503 506.954 323.356 507.829 323.529C508.703 323.701 509.491 324.183 510.054 324.889C510.617 325.594 510.92 326.48 510.91 327.391L510.846 427.598Z" fill="#6D68CF"/>
<path d="M394.249 102.921H285.387C284.537 102.904 283.727 102.551 283.126 101.937C282.525 101.322 282.181 100.493 282.164 99.6244C282.164 98.7502 282.504 97.9118 283.108 97.2936C283.712 96.6755 284.532 96.3281 285.387 96.3281H394.249C395.104 96.3281 395.923 96.6755 396.528 97.2936C397.132 97.9118 397.472 98.7502 397.472 99.6244C397.455 100.493 397.11 101.322 396.51 101.937C395.909 102.551 395.098 102.904 394.249 102.921Z" fill="#6D68CF"/>
<path d="M394.249 128.964H285.387C284.537 128.947 283.727 128.594 283.126 127.98C282.525 127.365 282.181 126.536 282.164 125.667C282.164 124.793 282.504 123.955 283.108 123.337C283.712 122.718 284.532 122.371 285.387 122.371H394.249C395.104 122.371 395.923 122.718 396.528 123.337C397.132 123.955 397.472 124.793 397.472 125.667C397.455 126.536 397.11 127.365 396.51 127.98C395.909 128.594 395.098 128.947 394.249 128.964Z" fill="#6D68CF"/>
<path d="M394.249 155.001H285.387C284.532 155.001 283.712 154.653 283.108 154.035C282.504 153.417 282.164 152.579 282.164 151.704C282.164 150.83 282.504 149.992 283.108 149.374C283.712 148.755 284.532 148.408 285.387 148.408H394.249C395.104 148.408 395.923 148.755 396.528 149.374C397.132 149.992 397.472 150.83 397.472 151.704C397.472 152.579 397.132 153.417 396.528 154.035C395.923 154.653 395.104 155.001 394.249 155.001Z" fill="#6D68CF"/>
<path d="M394.249 181.043H285.387C284.532 181.043 283.712 180.695 283.108 180.077C282.504 179.459 282.164 178.621 282.164 177.746C282.181 176.878 282.525 176.049 283.126 175.434C283.727 174.82 284.537 174.467 285.387 174.45H394.249C395.098 174.467 395.909 174.82 396.51 175.434C397.11 176.049 397.455 176.878 397.472 177.746C397.472 178.621 397.132 179.459 396.528 180.077C395.923 180.695 395.104 181.043 394.249 181.043Z" fill="#6D68CF"/>
<path d="M394.249 207.145H285.387C284.537 207.128 283.727 206.776 283.126 206.161C282.525 205.547 282.181 204.718 282.164 203.849C282.164 202.975 282.504 202.136 283.108 201.518C283.712 200.9 284.532 200.553 285.387 200.553H394.249C395.104 200.553 395.923 200.9 396.528 201.518C397.132 202.136 397.472 202.975 397.472 203.849C397.455 204.718 397.11 205.547 396.51 206.161C395.909 206.776 395.098 207.128 394.249 207.145Z" fill="#6D68CF"/>
<path d="M394.249 233.19H285.387C284.532 233.19 283.712 232.843 283.108 232.225C282.504 231.607 282.164 230.768 282.164 229.894C282.164 229.02 282.504 228.181 283.108 227.563C283.712 226.945 284.532 226.598 285.387 226.598H394.249C395.104 226.598 395.923 226.945 396.528 227.563C397.132 228.181 397.472 229.02 397.472 229.894C397.472 230.768 397.132 231.607 396.528 232.225C395.923 232.843 395.104 233.19 394.249 233.19Z" fill="#6D68CF"/>
<path d="M274.299 102.921H260.699C259.845 102.921 259.025 102.573 258.421 101.955C257.816 101.337 257.477 100.499 257.477 99.6244C257.477 98.7502 257.816 97.9118 258.421 97.2936C259.025 96.6755 259.845 96.3281 260.699 96.3281H274.299C275.154 96.3281 275.973 96.6755 276.578 97.2936C277.182 97.9118 277.522 98.7502 277.522 99.6244C277.505 100.493 277.16 101.322 276.56 101.937C275.959 102.551 275.149 102.904 274.299 102.921Z" fill="#6D68CF"/>
<path d="M274.299 128.964H260.699C259.845 128.964 259.025 128.616 258.421 127.998C257.816 127.38 257.477 126.542 257.477 125.667C257.477 124.793 257.816 123.955 258.421 123.337C259.025 122.718 259.845 122.371 260.699 122.371H274.299C275.154 122.371 275.973 122.718 276.578 123.337C277.182 123.955 277.522 124.793 277.522 125.667C277.505 126.536 277.16 127.365 276.56 127.98C275.959 128.594 275.149 128.947 274.299 128.964Z" fill="#6D68CF"/>
<path d="M274.299 155.001H260.699C259.845 155.001 259.025 154.653 258.421 154.035C257.816 153.417 257.477 152.579 257.477 151.704C257.477 150.83 257.816 149.992 258.421 149.374C259.025 148.755 259.845 148.408 260.699 148.408H274.299C275.154 148.408 275.973 148.755 276.578 149.374C277.182 149.992 277.522 150.83 277.522 151.704C277.522 152.579 277.182 153.417 276.578 154.035C275.973 154.653 275.154 155.001 274.299 155.001Z" fill="#6D68CF"/>
<path d="M274.299 181.043H260.699C259.845 181.043 259.025 180.695 258.421 180.077C257.816 179.459 257.477 178.621 257.477 177.746C257.477 176.872 257.816 176.034 258.421 175.416C259.025 174.797 259.845 174.45 260.699 174.45H274.299C275.149 174.467 275.959 174.82 276.56 175.434C277.16 176.049 277.505 176.878 277.522 177.746C277.522 178.621 277.182 179.459 276.578 180.077C275.973 180.695 275.154 181.043 274.299 181.043Z" fill="#6D68CF"/>
<path d="M274.299 207.145H260.699C259.845 207.145 259.025 206.798 258.421 206.18C257.816 205.562 257.477 204.723 257.477 203.849C257.477 202.975 257.816 202.136 258.421 201.518C259.025 200.9 259.845 200.553 260.699 200.553H274.299C275.154 200.553 275.973 200.9 276.578 201.518C277.182 202.136 277.522 202.975 277.522 203.849C277.505 204.718 277.16 205.547 276.56 206.161C275.959 206.776 275.149 207.128 274.299 207.145Z" fill="#6D68CF"/>
<path d="M274.299 233.19H260.699C259.845 233.19 259.025 232.843 258.421 232.225C257.816 231.607 257.477 230.768 257.477 229.894C257.477 229.02 257.816 228.181 258.421 227.563C259.025 226.945 259.845 226.598 260.699 226.598H274.299C275.154 226.598 275.973 226.945 276.578 227.563C277.182 228.181 277.522 229.02 277.522 229.894C277.522 230.768 277.182 231.607 276.578 232.225C275.973 232.843 275.154 233.19 274.299 233.19Z" fill="#6D68CF"/>
<path d="M126.197 135.426C147.237 114.523 148.9 81.2023 129.911 61.0014C110.923 40.8005 78.4728 41.3695 57.4326 62.2723C36.3924 83.175 34.7294 116.496 53.7182 136.697C72.707 156.898 105.157 156.329 126.197 135.426Z" fill="#7152F3"/>
<path d="M126.249 63.4985C143.364 81.7052 141.9 111.794 122.866 130.703C103.832 149.613 74.5316 150.088 57.4174 131.881C40.3032 113.674 41.7667 83.5857 60.8006 64.676C79.8346 45.7664 109.135 45.2919 126.249 63.4985Z" fill="white" stroke="black" stroke-width="1.15683"/>
<mask id="mask0_10566_40627" style="mask-type:luminance" maskUnits="userSpaceOnUse" x="58" y="64" width="68" height="68">
<path d="M114.082 121.445C127.697 107.988 128.774 86.5364 116.487 73.5318C104.201 60.5273 83.2036 60.8942 69.589 74.3514C55.9743 87.8086 54.8977 109.26 67.1842 122.265C79.4706 135.269 100.468 134.902 114.082 121.445Z" fill="white"/>
</mask>
<g mask="url(#mask0_10566_40627)">
<path d="M83.1283 109.676L76.6083 109.237C76.6083 109.237 73.5738 125.206 71.6336 126.544C68.9827 128.425 63.7373 132.971 60.2517 134.621C59.8921 135.701 59.8182 136.86 60.0374 137.979C65.452 137.979 75.4689 132.463 77.1948 130.063C81.1543 124.675 83.1283 109.676 83.1283 109.676Z" fill="#FFC3BD"/>
<path d="M86.2391 99.6632C88.2132 103.425 82.0654 116.97 82.0654 116.97L73.6953 114.293C73.9358 110.129 74.8784 106.038 76.4816 102.202C78.5572 97.7825 84.0733 95.5326 86.2391 99.6632Z" fill="#263238"/>
<path opacity="0.2" d="M79.8364 106.587C80.9644 109.31 79.4867 115.887 78.3248 120.052C75.4934 115.09 75.0986 110.475 79.8364 106.587Z" fill="black"/>
<path d="M79.7891 100.328C78.5031 105.14 75.9763 117.774 78.0406 137.608H100.071C100.579 133.835 99.9359 115.409 105.114 97.6284C102.489 97.0972 99.8318 96.7502 97.1609 96.59C93.7571 96.388 90.3447 96.388 86.9409 96.59C85.4876 96.728 84.0493 96.9983 82.643 97.3977C81.9595 97.5907 81.3369 97.9624 80.8365 98.4763C80.3361 98.9901 79.9751 99.6284 79.7891 100.328Z" fill="#263238"/>
<path opacity="0.2" d="M99.5235 102.012C98.858 104.942 99.1174 111.946 101.114 120.046C101.706 113.07 102.887 106.16 104.645 99.3926C103.077 99.1965 100.155 99.2888 99.5235 102.012Z" fill="black"/>
<path d="M96.7375 86.8076C95.7899 90.1767 95.0906 94.342 97.1887 96.5919C97.1887 96.5919 95.5531 100.053 89.4504 100.053C83.8666 100.053 86.9687 96.5919 86.9687 96.5919C90.7138 95.6919 90.9507 91.0536 90.5446 88.446L96.7375 86.8076Z" fill="#FFC3BD"/>
<path d="M89.4297 99.9946C89.9989 100.972 90.3026 102.087 90.3096 103.225C90.3096 103.225 98.2058 100.468 98.2058 96.4178C98.2058 96.4178 97.1793 95.7601 96.5363 95.264C96.5589 95.2293 96.0287 98.3792 89.4297 99.9946Z" fill="white"/>
<path d="M89.2214 99.9903C88.5108 100.869 87.9813 101.885 87.6647 102.979C86.7345 102.251 86.0549 101.239 85.7243 100.09C85.3937 98.9407 85.4293 97.7137 85.826 96.5866C86.4816 96.318 87.1567 96.102 87.8452 95.9404C87.8452 95.9404 86.8863 99.1249 89.2214 99.9903Z" fill="white"/>
<path opacity="0.2" d="M90.5536 88.446C90.8785 90.2992 90.695 92.2082 90.0234 93.9612C90.6048 93.8762 91.171 93.7052 91.7042 93.4535C93.87 92.4497 95.0319 90.8806 96.3066 88.5614C96.4307 87.9614 96.5886 87.4076 96.7465 86.8076L90.5536 88.446Z" fill="black"/>
<path d="M85.203 85.3332C85.3703 85.844 85.6404 86.3133 85.996 86.7108C86.3516 87.1083 86.7846 87.4251 87.2673 87.6408C88.5871 88.2177 89.5234 86.9831 89.4445 85.5639C89.3655 84.1447 88.5307 82.4371 87.0756 82.4602C86.7476 82.4763 86.4278 82.571 86.1421 82.7365C85.8564 82.9021 85.6126 83.1339 85.4305 83.4134C85.2483 83.6928 85.1329 84.0121 85.0934 84.3456C85.0539 84.679 85.0914 85.0173 85.203 85.3332Z" fill="#FFC3BD"/>
<path opacity="0.2" d="M85.203 85.3332C85.3703 85.844 85.6404 86.3133 85.996 86.7108C86.3516 87.1083 86.7846 87.4251 87.2673 87.6408C88.5871 88.2177 89.5234 86.9831 89.4445 85.5639C89.3655 84.1447 88.5307 82.4371 87.0756 82.4602C86.7476 82.4763 86.4278 82.571 86.1421 82.7365C85.8564 82.9021 85.6126 83.1339 85.4305 83.4134C85.2483 83.6928 85.1329 84.0121 85.0934 84.3456C85.0539 84.679 85.0914 85.0173 85.203 85.3332Z" fill="black"/>
<path d="M91.1061 75.9028C90.6774 73.2375 86.8308 77.9219 87.6543 80.3911C88.4777 82.8602 91.5798 78.9027 91.1061 75.9028Z" fill="#263238"/>
<path d="M99.3484 82.6652C97.9383 87.1305 97.3292 89.7958 94.5655 91.7111C93.7294 92.3652 92.7272 92.7599 91.6781 92.8481C90.629 92.9363 89.5772 92.7144 88.6479 92.2087C87.7185 91.7031 86.9508 90.935 86.4361 89.9958C85.9213 89.0566 85.6812 87.986 85.7443 86.9113C85.8571 82.6883 88.147 76.1001 92.817 75.0617C97.4871 74.0233 100.725 78.2 99.3484 82.6652Z" fill="#FFC3BD"/>
<path d="M98.063 80.0236C93.3027 79.3313 86.4668 78.4314 88.9485 74.4507C91.3061 70.6547 100.714 71.347 97.86 73.0316C101.549 73.2508 106.241 75.0622 102.699 76.3084C105.553 78.3852 104.425 83.9465 98.9768 85.8849C97.4088 83.5542 96.2131 82.5274 98.063 80.0236Z" fill="#263238"/>
<path d="M100.005 87.9841C99.2009 88.8275 98.1202 89.337 96.9708 89.4148C95.4818 89.4956 95.1998 88.0418 96.0007 86.7841C96.8016 85.5265 98.3583 84.2458 99.6668 84.765C100.975 85.2842 101.009 86.9226 100.005 87.9841Z" fill="#FFC3BD"/>
<path d="M92.4876 82.7583C92.3974 83.1275 92.138 83.3813 91.9011 83.3467C91.6642 83.3121 91.5627 82.9775 91.6642 82.6083C91.7657 82.2391 92.0139 81.9737 92.2395 82.0199C92.4651 82.066 92.5892 82.3891 92.4876 82.7583Z" fill="#263238"/>
<path d="M88.5187 82.0414C88.4285 82.4106 88.169 82.676 87.9434 82.6298C87.7178 82.5837 87.605 82.2606 87.6952 81.8914C87.7855 81.5222 88.0449 81.2683 88.2818 81.303C88.5187 81.3376 88.6202 81.6722 88.5187 82.0414Z" fill="#263238"/>
<path d="M89.7473 82.46C89.0386 83.5079 88.2049 84.4613 87.2656 85.2983C87.4659 85.5205 87.7137 85.6923 87.9896 85.8004C88.2655 85.9084 88.562 85.9499 88.8562 85.9214L89.7473 82.46Z" fill="#ED847E"/>
<path d="M89.6367 87.1217C89.6232 87.119 89.6103 87.1135 89.599 87.1056C89.5876 87.0976 89.578 87.0874 89.5706 87.0755C89.5632 87.0637 89.5582 87.0504 89.556 87.0365C89.5538 87.0226 89.5544 87.0084 89.5577 86.9948C89.5674 86.9665 89.5859 86.9422 89.6103 86.9255C89.6347 86.9089 89.6638 86.9008 89.6931 86.9025C90.1441 86.9836 90.6072 86.9604 91.0483 86.8346C91.4894 86.7088 91.8975 86.4837 92.2424 86.1756C92.2519 86.1655 92.2633 86.1574 92.2759 86.1519C92.2885 86.1464 92.3021 86.1436 92.3158 86.1436C92.3295 86.1436 92.343 86.1464 92.3556 86.1519C92.3682 86.1574 92.3796 86.1655 92.389 86.1756C92.4097 86.1971 92.4213 86.2261 92.4213 86.2563C92.4213 86.2865 92.4097 86.3155 92.389 86.3371C92.0191 86.6738 91.5788 86.9195 91.1017 87.0555C90.6247 87.1915 90.1236 87.2141 89.6367 87.1217Z" fill="#263238"/>
<path d="M94.0399 81.6284C94.0092 81.6237 93.9803 81.6105 93.9564 81.5902C93.9325 81.5698 93.9146 81.5431 93.9046 81.513C93.8114 81.2686 93.659 81.0525 93.4616 80.8849C93.2643 80.7174 93.0285 80.604 92.7765 80.5554C92.7495 80.5545 92.7229 80.5474 92.6989 80.5347C92.6748 80.5219 92.6539 80.5038 92.6377 80.4816C92.6214 80.4594 92.6102 80.4338 92.605 80.4066C92.5997 80.3795 92.6005 80.3514 92.6073 80.3246C92.6182 80.2666 92.6494 80.2146 92.6951 80.1785C92.7408 80.1424 92.7978 80.1246 92.8555 80.1285C93.1746 80.1763 93.4763 80.3076 93.7313 80.5098C93.9862 80.7119 94.1858 80.978 94.3107 81.2823C94.3296 81.3375 94.3273 81.398 94.3043 81.4515C94.2812 81.5051 94.2392 81.5477 94.1866 81.5707C94.1675 81.5904 94.1446 81.6057 94.1193 81.6156C94.094 81.6256 94.067 81.6299 94.0399 81.6284Z" fill="#263238"/>
<path d="M87.1728 80.2553C87.1473 80.2651 87.1193 80.2651 87.0938 80.2553C87.074 80.2359 87.0583 80.2126 87.0475 80.1869C87.0368 80.1611 87.0313 80.1334 87.0312 80.1053C87.0313 80.0773 87.0368 80.0496 87.0475 80.0238C87.0583 79.998 87.074 79.9747 87.0938 79.9553C87.3194 79.6835 87.6017 79.4667 87.9198 79.3209C88.238 79.1752 88.584 79.1041 88.9325 79.113C88.9594 79.1172 88.9851 79.1269 89.0082 79.1414C89.0314 79.1559 89.0514 79.1751 89.0672 79.1977C89.083 79.2203 89.0942 79.2458 89.1001 79.2729C89.106 79.3 89.1066 79.328 89.1017 79.3554C89.0907 79.4155 89.0579 79.4692 89.0097 79.5056C88.9616 79.542 88.9018 79.5584 88.8423 79.5515C88.5673 79.5481 88.295 79.6074 88.0452 79.7251C87.7954 79.8429 87.5745 80.0161 87.3984 80.2322C87.3673 80.2586 87.3292 80.2749 87.2891 80.279C87.2489 80.2831 87.2084 80.2749 87.1728 80.2553Z" fill="#263238"/>
<path d="M107.094 103.804L101.126 107.046C101.126 107.046 106.891 121.584 105.909 123.765C104.567 126.741 102.345 133.283 100.156 136.526C100.414 137.606 100.965 138.59 101.747 139.364C106.53 136.41 112.407 126.43 112.666 123.545C113.253 116.957 107.094 103.804 107.094 103.804Z" fill="#FFC3BD"/>
<path d="M105.139 97.6286C109.313 98.3785 112.381 113.586 112.381 113.586L102.093 116.597C100.631 113.1 99.4212 109.498 98.4724 105.821C97.1074 100.19 100.717 96.8093 105.139 97.6286Z" fill="#263238"/>
</g>
<path d="M243.283 314.508C264.323 293.605 265.986 260.284 246.997 240.083C228.009 219.883 195.559 220.451 174.519 241.354C153.478 262.257 151.815 295.578 170.804 315.779C189.793 335.98 222.243 335.411 243.283 314.508Z" fill="#7152F3"/>
<path d="M243.335 242.581C260.45 260.787 258.986 290.876 239.952 309.785C220.918 328.695 191.618 329.17 174.503 310.963C157.389 292.756 158.853 262.668 177.887 243.758C196.921 224.848 226.221 224.374 243.335 242.581Z" fill="white" stroke="black" stroke-width="1.15683"/>
<path d="M475.205 111.001C496.245 90.0986 497.908 56.7775 478.919 36.5766C459.93 16.3757 427.481 16.9447 406.44 37.8474C385.4 58.7502 383.737 92.0714 402.726 112.272C421.715 132.473 454.165 131.904 475.205 111.001Z" fill="#7152F3"/>
<path d="M475.257 39.0737C492.371 57.2804 490.908 87.369 471.874 106.279C452.84 125.188 423.539 125.663 406.425 107.456C389.311 89.2496 390.774 59.1609 409.808 40.2512C428.842 21.3416 458.143 20.8671 475.257 39.0737Z" fill="white" stroke="black" stroke-width="1.15683"/>
<path d="M455.351 72.7246C455.522 75.5094 455.66 78.3176 455.763 81.1141L456.094 89.4686L456.152 90.4865L456.232 91.3758C456.323 91.9843 456.392 92.6161 456.518 93.2713C456.758 94.5584 457.067 95.8689 457.433 97.1794C458.119 99.8121 458.954 102.468 459.721 105.089L457.353 106.259C455.921 103.78 454.655 101.204 453.566 98.5485C453.04 97.2029 452.548 95.8338 452.125 94.3946C451.899 93.6644 451.712 92.9223 451.564 92.1715L451.37 91.0014L451.255 89.9249C450.649 84.2617 450.249 78.6804 450.031 73.0522L455.351 72.7246Z" fill="#FF8B7B"/>
<path d="M454.076 66.5809C456.158 67.1308 457.051 76.0937 457.051 76.0937L448.574 81.792C448.574 81.792 445.931 71.1793 447.727 68.7923C449.523 66.4054 451.022 65.7852 454.076 66.5809Z" fill="#7152F3"/>
<path opacity="0.2" d="M453.734 68.5928L454.764 77.6141L451.32 79.9075L453.734 68.5928Z" fill="black"/>
<path d="M459.765 104.477L462.053 109.45L457.546 109.579C457.546 109.579 456.23 106.069 457.626 104.278L459.765 104.477Z" fill="#FFB573"/>
<path d="M430.845 43.506C427.265 44.0326 419.772 61.5371 431.989 69.7043C444.207 77.8715 453.222 68.5927 453.222 68.5927C453.222 68.5927 445.786 59.5596 446.861 53.6624C447.936 47.7652 452.581 40.3351 443.063 37.8545C436.359 36.1579 427.345 37.796 430.845 43.506Z" fill="#263238"/>
<path d="M462.269 111.907L458.448 111.58L457.602 109.579L462.12 109.45L462.269 111.907Z" fill="#FFB573"/>
<path d="M454.069 66.5766C454.069 66.5766 456.46 67.4658 449.493 98.4498H428.501C429.439 89.7209 429.805 84.3385 426.922 66.4244C429.888 65.8151 432.893 65.4241 435.914 65.2544C439.082 65.0259 442.263 65.0259 445.432 65.2544C449.493 65.6171 454.069 66.5766 454.069 66.5766Z" fill="#7152F3"/>
<path opacity="0.2" d="M428.181 73.5322C430.045 74.012 431.612 76.1298 431.189 80.0379C430.939 81.8374 430.22 83.5348 429.107 84.9523C428.981 81.9452 428.65 78.4583 428.055 74.0003L428.181 73.5322Z" fill="black"/>
<path d="M443.885 72.0998C443.885 72.0998 440.259 75.0016 440.053 78.0789C437.342 75.9377 433.875 70.1106 433.727 66.3781C433.727 66.0677 433.847 65.7701 434.062 65.5507C434.276 65.3313 434.567 65.208 434.871 65.208C435.128 65.1882 435.384 65.153 435.637 65.1027C435.743 65.079 435.852 65.0804 435.957 65.1068C436.063 65.1332 436.16 65.1838 436.243 65.2548L443.885 72.0998Z" fill="#FAFAFA"/>
<path d="M443.859 72.1002C444.824 72.715 445.629 73.5578 446.209 74.5576C446.788 75.5574 447.124 76.685 447.188 77.8453C450.231 75.6807 449.19 69.2101 447.783 66.0391C447.674 65.7924 447.504 65.5793 447.289 65.4212C447.074 65.263 446.823 65.1654 446.559 65.1382C446.147 65.1382 445.827 65.0328 445.61 64.986C445.531 64.9722 445.45 64.99 445.384 65.0358C445.318 65.0816 445.272 65.1519 445.255 65.2318L443.859 72.1002Z" fill="#FAFAFA"/>
<path d="M437.592 54.2715C437.981 57.4073 438.198 63.1525 435.922 65.2352C438.057 68.0846 440.769 70.4277 443.873 72.1036C448.357 68.5934 445.44 65.2352 445.44 65.2352C442.077 64.4045 442.34 61.8186 443.095 59.3848L437.592 54.2715Z" fill="#FF8B7B"/>
<path opacity="0.2" d="M439.826 56.3545L443.086 59.3733C442.9 59.9374 442.763 60.5168 442.674 61.1051C441.381 60.9061 439.414 59.7712 439.242 58.3202C439.284 57.6273 439.483 56.954 439.826 56.3545Z" fill="black"/>
<path d="M432.797 49.2379C433.872 54.281 434.227 56.434 437.179 58.4816C438.167 59.1984 439.324 59.6347 440.531 59.7461C441.738 59.8575 442.952 59.64 444.05 59.1159C445.149 58.5917 446.092 57.7794 446.783 56.7617C447.475 55.744 447.891 54.557 447.989 53.3215C448.39 48.4891 446.559 41.059 441.297 40.1463C440.103 39.9558 438.883 40.0633 437.738 40.4595C436.594 40.8557 435.561 41.529 434.726 42.422C433.891 43.3149 433.28 44.4011 432.944 45.5879C432.608 46.7747 432.558 48.0269 432.797 49.2379Z" fill="#FF8B7B"/>
<path d="M434.198 53.7797C437.367 50.6907 437.481 46.8645 436.68 45.671C439.403 45.437 446.45 43.6819 445.317 40.9907C444.185 38.2995 433.214 36.8485 431.704 43.7287C428.066 46.8411 430.388 53.0777 434.198 53.7797Z" fill="#263238"/>
<path d="M441.074 48.7822C441.142 49.2035 441.405 49.4843 441.68 49.4258C441.954 49.3673 442.115 48.9812 442.046 48.5716C441.977 48.1621 441.714 47.8579 441.451 47.9281C441.188 47.9983 441.016 48.3727 441.074 48.7822Z" fill="#263238"/>
<path d="M445.749 47.7427C445.806 48.1639 446.081 48.4447 446.344 48.3862C446.607 48.3277 446.79 47.9416 446.721 47.5204C446.653 47.0992 446.39 46.8183 446.126 46.8768C445.972 46.9508 445.85 47.079 445.78 47.238C445.711 47.3969 445.7 47.576 445.749 47.7427Z" fill="#263238"/>
<path d="M445.992 46.9357L446.942 46.4209C446.942 46.4209 446.553 47.3102 445.992 46.9357Z" fill="#263238"/>
<path d="M444.414 48.8164C444.923 49.684 445.551 50.4722 446.279 51.1566C446.095 51.3545 445.873 51.5109 445.627 51.6157C445.38 51.7205 445.115 51.7713 444.849 51.765L444.414 48.8164Z" fill="#FF5652"/>
<path d="M442.846 53.8719C443.054 53.8604 443.26 53.833 443.464 53.79C443.496 53.7817 443.524 53.7617 443.543 53.7337C443.562 53.7057 443.571 53.6717 443.567 53.6379C443.566 53.6215 443.562 53.6056 443.554 53.5913C443.546 53.5771 443.535 53.5649 443.521 53.5559C443.508 53.5468 443.493 53.541 443.477 53.539C443.461 53.5369 443.445 53.5388 443.43 53.5442C442.934 53.676 442.414 53.6819 441.916 53.5616C441.418 53.4413 440.955 53.1984 440.57 52.8539C440.546 52.8317 440.516 52.8193 440.484 52.8193C440.452 52.8193 440.421 52.8317 440.398 52.8539C440.386 52.8649 440.376 52.8784 440.369 52.8935C440.363 52.9087 440.359 52.9251 440.359 52.9417C440.359 52.9583 440.363 52.9747 440.369 52.9898C440.376 53.0049 440.386 53.0184 440.398 53.0294C440.725 53.3378 441.113 53.5722 441.534 53.7173C441.956 53.8625 442.403 53.9152 442.846 53.8719Z" fill="#263238"/>
<path d="M432.118 54.2713C432.37 54.6866 432.703 55.0437 433.097 55.3197C433.491 55.5958 433.937 55.7847 434.406 55.8743C435.688 56.1201 436.294 54.9032 435.916 53.7214C435.539 52.5396 434.498 51.2525 433.228 51.545C432.951 51.6071 432.693 51.7366 432.476 51.9224C432.258 52.1083 432.088 52.345 431.979 52.6126C431.87 52.8801 431.826 53.1706 431.85 53.4594C431.874 53.7482 431.967 54.0267 432.118 54.2713Z" fill="#FF8B7B"/>
<path d="M438.888 47.8603C438.94 47.8543 438.989 47.832 439.028 47.7963C439.067 47.7607 439.094 47.7135 439.106 47.6614C439.405 46.8702 439.997 46.2314 440.753 45.8828C440.784 45.87 440.812 45.851 440.836 45.827C440.86 45.8029 440.879 45.7742 440.891 45.7426C440.904 45.711 440.911 45.6772 440.91 45.643C440.91 45.6088 440.903 45.575 440.89 45.5435C440.878 45.5147 440.86 45.4887 440.838 45.4672C440.815 45.4456 440.789 45.4288 440.76 45.4179C440.731 45.407 440.701 45.4021 440.67 45.4036C440.639 45.4051 440.609 45.4129 440.581 45.4265C440.132 45.6317 439.727 45.9269 439.391 46.2946C439.056 46.6624 438.795 47.0953 438.625 47.5678C438.617 47.5993 438.615 47.6324 438.62 47.6647C438.625 47.6971 438.636 47.728 438.653 47.7556C438.671 47.7832 438.693 47.8067 438.72 47.8248C438.747 47.8428 438.777 47.8549 438.808 47.8603C438.821 47.8665 438.834 47.8697 438.848 47.8697C438.862 47.8697 438.876 47.8665 438.888 47.8603Z" fill="#263238"/>
<path d="M446.874 44.4182C446.917 44.4183 446.959 44.4077 446.997 44.3873C447.035 44.3669 447.067 44.3373 447.091 44.3012C447.135 44.2536 447.159 44.1908 447.159 44.1257C447.159 44.0606 447.135 43.9979 447.091 43.9502C446.774 43.7265 446.41 43.5834 446.028 43.5325C445.646 43.4816 445.257 43.5245 444.895 43.6577C444.835 43.6837 444.786 43.7316 444.759 43.7922C444.731 43.8527 444.727 43.9216 444.746 43.9853C444.758 44.0166 444.775 44.0452 444.797 44.0693C444.82 44.0935 444.847 44.1127 444.877 44.1259C444.907 44.139 444.939 44.1458 444.972 44.1457C445.004 44.1457 445.037 44.1389 445.067 44.1257C445.352 44.0185 445.659 43.9849 445.96 44.0277C446.262 44.0706 446.548 44.1886 446.794 44.3714L446.874 44.4182Z" fill="#263238"/>
<path d="M441.336 47.9797L442.285 47.4648C442.285 47.4648 441.885 48.3658 441.336 47.9797Z" fill="#263238"/>
<path d="M428.282 97.1984L427.619 99.1174C427.527 99.2695 427.699 99.4216 427.939 99.4216H449.515C449.709 99.4216 449.869 99.328 449.892 99.1993L450.201 97.2803C450.201 97.1516 450.075 97.0346 449.858 97.0346H428.637C428.569 97.0288 428.501 97.0408 428.439 97.0695C428.377 97.0982 428.323 97.1425 428.282 97.1984Z" fill="#7152F3"/>
<path opacity="0.2" d="M428.282 97.1984L427.619 99.1174C427.527 99.2695 427.699 99.4216 427.939 99.4216H449.515C449.709 99.4216 449.869 99.328 449.892 99.1993L450.201 97.2803C450.201 97.1516 450.075 97.0346 449.858 97.0346H428.637C428.569 97.0288 428.501 97.0408 428.439 97.0695C428.377 97.0982 428.323 97.1425 428.282 97.1984Z" fill="white"/>
<path d="M431.045 99.6218H430.473C430.359 99.6218 430.279 99.5633 430.29 99.4931L430.725 97.0008C430.725 96.9306 430.839 96.8721 430.954 96.8721H431.526C431.64 96.8721 431.72 96.9306 431.709 97.0008L431.274 99.4931C431.263 99.5633 431.16 99.6218 431.045 99.6218Z" fill="#7152F3"/>
<path opacity="0.4" d="M431.045 99.6218H430.473C430.359 99.6218 430.279 99.5633 430.29 99.4931L430.725 97.0008C430.725 96.9306 430.839 96.8721 430.954 96.8721H431.526C431.64 96.8721 431.72 96.9306 431.709 97.0008L431.274 99.4931C431.263 99.5633 431.16 99.6218 431.045 99.6218Z" fill="black"/>
<path d="M447.881 99.6218H447.309C447.195 99.6218 447.115 99.5633 447.126 99.4931L447.561 97.0008C447.561 96.9306 447.675 96.8721 447.79 96.8721H448.362C448.476 96.8721 448.556 96.9306 448.545 97.0008L448.11 99.4931C448.098 99.5633 447.996 99.6218 447.881 99.6218Z" fill="#7152F3"/>
<path opacity="0.4" d="M447.881 99.6218H447.309C447.195 99.6218 447.115 99.5633 447.126 99.4931L447.561 97.0008C447.561 96.9306 447.675 96.8721 447.79 96.8721H448.362C448.476 96.8721 448.556 96.9306 448.545 97.0008L448.11 99.4931C448.098 99.5633 447.996 99.6218 447.881 99.6218Z" fill="black"/>
<path d="M439.498 99.6218H438.926C438.812 99.6218 438.732 99.5633 438.743 99.4931L439.178 97.0008C439.178 96.9306 439.292 96.8721 439.407 96.8721H439.979C440.093 96.8721 440.173 96.9306 440.162 97.0008L439.727 99.4931C439.716 99.5633 439.613 99.6218 439.498 99.6218Z" fill="#7152F3"/>
<path opacity="0.4" d="M439.498 99.6218H438.926C438.812 99.6218 438.732 99.5633 438.743 99.4931L439.178 97.0008C439.178 96.9306 439.292 96.8721 439.407 96.8721H439.979C440.093 96.8721 440.173 96.9306 440.162 97.0008L439.727 99.4931C439.716 99.5633 439.613 99.6218 439.498 99.6218Z" fill="black"/>
<path d="M440.809 102.737L446.06 100.396L444.263 105.557C444.263 105.557 440.98 106.317 439.688 104.656L440.809 102.737Z" fill="#FFB573"/>
<path d="M429.256 73.6041C428.661 77.1144 427.986 80.7299 427.299 84.287C426.968 86.0655 426.59 87.7973 426.224 89.6109L425.686 92.267L425.446 93.4371C425.417 93.5204 425.417 93.6112 425.446 93.6945C425.633 94.1876 425.931 94.6286 426.315 94.9816C426.847 95.5124 427.43 95.9867 428.054 96.3974C429.456 97.3112 430.92 98.1206 432.436 98.8195C433.98 99.5566 435.582 100.235 437.206 100.855C438.831 101.476 440.489 102.026 442.125 102.634L441.531 105.243C437.941 104.642 434.408 103.726 430.972 102.505C429.189 101.88 427.462 101.097 425.812 100.165C424.917 99.6545 424.07 99.059 423.284 98.3865C422.281 97.578 421.494 96.5235 420.996 95.3209C420.718 94.5757 420.608 93.7755 420.676 92.9807C420.733 92.4776 420.756 92.3723 420.79 92.1266L420.893 91.4479L421.293 88.7684C421.579 86.9782 421.831 85.188 422.14 83.3977C422.723 79.829 423.284 76.2602 424.005 72.7031L429.256 73.6041Z" fill="#FF8B7B"/>
<path d="M426.925 66.4378C424.786 67.0931 421.766 74.488 421.766 74.488L428.63 82.2223C428.63 82.2223 432.931 74.2657 432.245 71.4926C431.558 68.7195 429.373 65.689 426.925 66.4378Z" fill="#7152F3"/>
<path d="M450.195 101.482L448.468 105.729L444.258 105.565L446.054 100.405L450.195 101.482Z" fill="#FFB573"/>
<path d="M203.751 279.178L197.16 276.98C197.16 276.98 189.985 293.122 187.643 294.091C184.438 295.332 177.931 298.821 173.913 299.653C173.261 300.71 172.885 301.92 172.82 303.167C178.38 304.632 190.07 301.404 192.462 299.306C197.876 294.538 203.751 279.178 203.751 279.178Z" fill="#FFB573"/>
<path d="M209.509 269.333C210.577 273.853 200.817 286.654 200.817 286.654L192.914 281.539C194.216 277.192 196.223 273.099 198.85 269.433C202.104 265.298 208.331 264.379 209.509 269.333Z" fill="#7152F3"/>
<path opacity="0.3" d="M209.509 269.333C210.577 273.853 200.817 286.654 200.817 286.654L192.914 281.539C194.216 277.192 196.223 273.099 198.85 269.433C202.104 265.298 208.331 264.379 209.509 269.333Z" fill="black"/>
<path opacity="0.2" d="M203.334 274.955C204.074 278.084 203.407 283.088 201.452 287.372C199.716 284.677 197.689 278.258 203.334 274.955Z" fill="black"/>
<path d="M203.203 268.825C201.819 274.002 199.112 287.599 201.322 308.943H225.042C225.588 304.883 224.884 285.053 230.456 265.919C227.632 265.348 224.772 264.974 221.898 264.802C218.235 264.584 214.563 264.584 210.9 264.802C209.336 264.951 207.788 265.242 206.274 265.671C205.54 265.881 204.871 266.282 204.333 266.834C203.795 267.387 203.405 268.073 203.203 268.825Z" fill="#7152F3"/>
<path opacity="0.3" d="M203.203 268.825C201.819 274.002 199.112 287.599 201.322 308.943H225.042C225.588 304.883 224.884 285.053 230.456 265.919C227.632 265.348 224.772 264.974 221.898 264.802C218.235 264.584 214.563 264.584 210.9 264.802C209.336 264.951 207.788 265.242 206.274 265.671C205.54 265.881 204.871 266.282 204.333 266.834C203.795 267.387 203.405 268.073 203.203 268.825Z" fill="black"/>
<path opacity="0.2" d="M224.519 274.649C223.803 277.802 223.171 285.29 226.145 289.983C226.787 282.476 228.062 275.04 229.957 267.757C228.233 267.583 225.199 271.693 224.519 274.649Z" fill="black"/>
<g opacity="0.95">
<path d="M213.278 274.484L211.979 275.068L210.983 274.149C209.719 273.077 208.8 271.639 208.347 270.024C207.894 268.409 207.929 266.692 208.446 265.097C209.249 264.934 210.059 264.814 210.874 264.737C214.537 264.52 218.209 264.52 221.872 264.737C222.722 264.737 223.572 264.849 224.397 264.936L223.572 266.016C220.787 269.575 217.273 272.465 213.278 274.484Z" fill="white"/>
</g>
<path d="M221.44 254.209C220.409 257.835 219.656 262.317 221.914 264.738C219.361 267.97 216.156 270.6 212.518 272.449C211.406 271.563 210.635 270.303 210.342 268.893C210.049 267.482 210.252 266.011 210.916 264.738C214.958 263.77 215.201 258.778 214.764 255.972L221.44 254.209Z" fill="#FFB573"/>
<path opacity="0.2" d="M214.75 255.972C215.1 257.966 214.902 260.021 214.18 261.907C214.809 261.814 215.422 261.63 216.001 261.361C218.319 260.281 219.57 258.592 220.941 256.096C221.087 255.451 221.245 254.855 221.427 254.209L214.75 255.972Z" fill="black"/>
<path d="M209.025 252.684C209.205 253.235 209.497 253.742 209.882 254.17C210.267 254.598 210.736 254.938 211.258 255.167C212.679 255.788 213.686 254.459 213.589 252.932C213.492 251.405 212.606 249.567 211.052 249.592C210.698 249.608 210.353 249.708 210.044 249.885C209.735 250.063 209.471 250.312 209.273 250.613C209.076 250.914 208.951 251.258 208.907 251.618C208.864 251.978 208.904 252.343 209.025 252.684Z" fill="#FFB573"/>
<path opacity="0.2" d="M209.025 252.684C209.205 253.235 209.497 253.742 209.882 254.17C210.267 254.598 210.736 254.938 211.258 255.167C212.679 255.788 213.686 254.459 213.589 252.932C213.492 251.405 212.606 249.567 211.052 249.592C210.698 249.608 210.353 249.708 210.044 249.885C209.735 250.063 209.471 250.312 209.273 250.613C209.076 250.914 208.951 251.258 208.907 251.618C208.864 251.978 208.904 252.343 209.025 252.684Z" fill="black"/>
<path d="M214.647 244.124C214.185 240.884 210.665 244.596 210.264 246.968C209.864 249.339 211.806 251.736 213.129 249.451C214.452 247.166 214.877 245.875 214.647 244.124Z" fill="#263238"/>
<path d="M224.237 249.75C222.719 254.555 222.064 257.411 219.09 259.484C218.19 260.188 217.111 260.613 215.982 260.708C214.853 260.803 213.721 260.564 212.721 260.02C211.721 259.476 210.895 258.649 210.341 257.638C209.787 256.628 209.529 255.476 209.597 254.319C209.718 249.774 212.182 242.685 217.208 241.567C222.234 240.45 225.803 244.944 224.237 249.75Z" fill="#FFB573"/>
<path d="M221.933 254.78C220.112 253.538 219.784 253.066 220.719 251.949C222.297 250.136 219.954 249.875 221.192 247.628C222.916 244.499 217.417 246.697 217.32 244.425C217.235 242.574 212.464 245.902 211.966 243.766C211.25 240.563 215.839 241.159 216.64 239.594C217.441 238.03 222.151 237.794 222.904 240.079C223.656 242.363 226.024 240.538 227.565 243.319C229.107 246.101 225.914 246.312 227.456 249.019C228.67 251.192 226.327 252.744 224.664 254.47C223.669 255.587 223.062 255.562 221.933 254.78Z" fill="#263238"/>
<path d="M225.245 254.815C224.459 255.8 223.343 256.451 222.113 256.64C220.511 256.864 220.074 255.399 220.827 253.921C221.579 252.443 223.133 250.991 224.59 251.438C226.047 251.885 226.229 253.586 225.245 254.815Z" fill="#FFB573"/>
<path d="M216.896 249.848C216.799 250.245 216.52 250.519 216.277 250.481C216.034 250.444 215.913 250.084 216.01 249.687C216.107 249.289 216.386 249.004 216.641 249.053C216.896 249.103 217.006 249.451 216.896 249.848Z" fill="#263238"/>
<path d="M212.627 249.075C212.518 249.473 212.239 249.758 211.996 249.709C211.753 249.659 211.632 249.311 211.729 248.914C211.826 248.517 212.117 248.243 212.36 248.281C212.603 248.318 212.724 248.678 212.627 249.075Z" fill="#263238"/>
<path d="M213.901 249.526C213.144 250.655 212.251 251.681 211.242 252.581C211.458 252.82 211.724 253.005 212.021 253.121C212.318 253.237 212.637 253.282 212.954 253.251L213.901 249.526Z" fill="#ED893E"/>
<path d="M213.776 254.547C213.761 254.544 213.748 254.538 213.736 254.53C213.724 254.521 213.714 254.51 213.707 254.496C213.7 254.483 213.696 254.469 213.695 254.454C213.695 254.439 213.697 254.424 213.703 254.41C213.709 254.379 213.726 254.352 213.751 254.334C213.775 254.315 213.806 254.307 213.837 254.311C214.322 254.398 214.82 254.373 215.295 254.238C215.77 254.102 216.209 253.86 216.58 253.529C216.59 253.518 216.603 253.51 216.616 253.504C216.63 253.498 216.644 253.495 216.659 253.495C216.674 253.495 216.688 253.498 216.702 253.504C216.715 253.51 216.727 253.518 216.738 253.529C216.748 253.539 216.756 253.552 216.762 253.566C216.768 253.579 216.771 253.594 216.771 253.609C216.771 253.624 216.768 253.639 216.762 253.653C216.756 253.667 216.748 253.679 216.738 253.69C216.341 254.054 215.867 254.321 215.354 254.47C214.841 254.618 214.301 254.645 213.776 254.547Z" fill="#263238"/>
<path d="M218.522 248.635C218.489 248.63 218.458 248.616 218.432 248.594C218.406 248.572 218.387 248.543 218.376 248.511C218.276 248.248 218.112 248.015 217.899 247.835C217.687 247.655 217.433 247.533 217.162 247.48C217.134 247.478 217.106 247.469 217.081 247.454C217.057 247.44 217.035 247.42 217.018 247.397C217.001 247.374 216.989 247.347 216.982 247.319C216.975 247.29 216.975 247.261 216.98 247.232C216.992 247.17 217.025 247.114 217.074 247.075C217.124 247.036 217.185 247.017 217.247 247.021C217.591 247.073 217.915 247.214 218.19 247.431C218.464 247.649 218.679 247.935 218.813 248.263C218.833 248.322 218.831 248.387 218.806 248.445C218.781 248.503 218.736 248.548 218.68 248.573C218.659 248.594 218.634 248.611 218.607 248.621C218.58 248.632 218.551 248.637 218.522 248.635Z" fill="#263238"/>
<path d="M211.09 247.156C211.062 247.164 211.033 247.164 211.005 247.156C210.984 247.135 210.967 247.11 210.955 247.082C210.943 247.054 210.938 247.025 210.938 246.994C210.938 246.964 210.943 246.934 210.955 246.907C210.967 246.879 210.984 246.854 211.005 246.833C211.242 246.537 211.543 246.301 211.884 246.144C212.225 245.987 212.598 245.912 212.971 245.926C213 245.931 213.028 245.941 213.053 245.957C213.078 245.973 213.099 245.993 213.116 246.018C213.133 246.042 213.145 246.069 213.152 246.099C213.158 246.128 213.159 246.158 213.154 246.187C213.142 246.25 213.108 246.306 213.059 246.344C213.01 246.383 212.948 246.403 212.886 246.398C212.59 246.393 212.297 246.456 212.028 246.583C211.759 246.71 211.521 246.897 211.333 247.131C211.298 247.157 211.257 247.172 211.215 247.177C211.172 247.181 211.129 247.174 211.09 247.156Z" fill="#263238"/>
<path d="M233.069 273.059L226.319 275.691C226.319 275.691 230.434 292.168 229.099 294.378C227.278 297.395 224.037 304.125 221.281 307.304C221.402 308.5 221.853 309.637 222.58 310.582C228.031 308.098 235.618 298.165 236.286 295.098C237.779 288.083 233.069 273.059 233.069 273.059Z" fill="#FFB573"/>
<path d="M231.868 266.129C236.177 267.532 237.355 284.332 237.355 284.332L226.065 286.12C224.994 282.148 224.207 278.102 223.71 274.014C223.006 267.756 227.23 264.627 231.868 266.129Z" fill="#7152F3"/>
<path opacity="0.3" d="M231.868 266.129C236.177 267.532 237.355 284.332 237.355 284.332L226.065 286.12C224.994 282.148 224.207 278.102 223.71 274.014C223.006 267.756 227.23 264.627 231.868 266.129Z" fill="black"/>
<path d="M223.627 307.029L219.172 306.085L220.459 311.536C220.459 311.536 224.392 312.231 225.727 309.202L223.627 307.029Z" fill="#FFB573"/>
<path d="M215 307.96L216.408 312.815L220.463 311.536L219.176 306.085L215 307.96Z" fill="#FFB573"/>
</svg>
